G04 #@! TF.FileFunction,Copper,L2,Bot,Signal*
%FSLAX46Y46*%
G04 Gerber Fmt 4.6, Leading zero omitted, Abs format (unit mm)*
G04 Created by KiCad (PCBNEW 4.0.7) date Wednesday, May 09, 2018 'PMt' 10:09:01 PM*
%MOMM*%
%LPD*%
G01*
G04 APERTURE LIST*
%ADD10C,0.100000*%
%ADD11R,1.600000X1.600000*%
%ADD12O,1.600000X1.600000*%
%ADD13R,1.500000X1.250000*%
%ADD14R,1.250000X1.500000*%
%ADD15C,1.600000*%
%ADD16R,2.000000X1.200000*%
%ADD17C,2.600000*%
%ADD18C,4.000000*%
%ADD19C,3.500000*%
%ADD20R,1.900000X0.800000*%
%ADD21R,1.500000X1.300000*%
%ADD22R,1.300000X1.500000*%
%ADD23C,1.300000*%
%ADD24R,1.300000X1.300000*%
%ADD25R,0.400000X1.100000*%
%ADD26C,1.500000*%
%ADD27R,1.800000X1.800000*%
%ADD28C,1.800000*%
%ADD29C,6.400000*%
%ADD30C,0.600000*%
%ADD31C,0.254000*%
%ADD32C,0.508000*%
%ADD33C,0.152400*%
%ADD34C,0.762000*%
%ADD35C,1.524000*%
G04 APERTURE END LIST*
D10*
D11*
X118364000Y-80264000D03*
D12*
X133604000Y-113284000D03*
X118364000Y-82804000D03*
X133604000Y-110744000D03*
X118364000Y-85344000D03*
X133604000Y-108204000D03*
X118364000Y-87884000D03*
X133604000Y-105664000D03*
X118364000Y-90424000D03*
X133604000Y-103124000D03*
X118364000Y-92964000D03*
X133604000Y-100584000D03*
X118364000Y-95504000D03*
X133604000Y-98044000D03*
X118364000Y-98044000D03*
X133604000Y-95504000D03*
X118364000Y-100584000D03*
X133604000Y-92964000D03*
X118364000Y-103124000D03*
X133604000Y-90424000D03*
X118364000Y-105664000D03*
X133604000Y-87884000D03*
X118364000Y-108204000D03*
X133604000Y-85344000D03*
X118364000Y-110744000D03*
X133604000Y-82804000D03*
X118364000Y-113284000D03*
X133604000Y-80264000D03*
X118364000Y-115824000D03*
X133604000Y-115824000D03*
D13*
X109708000Y-76454000D03*
X107208000Y-76454000D03*
X109708000Y-71374000D03*
X107208000Y-71374000D03*
X109748000Y-45974000D03*
X112248000Y-45974000D03*
X109748000Y-41656000D03*
X112248000Y-41656000D03*
D14*
X89662000Y-60686000D03*
X89662000Y-58186000D03*
X86995000Y-60686000D03*
X86995000Y-58186000D03*
D13*
X109494000Y-65024000D03*
X111994000Y-65024000D03*
X109494000Y-60960000D03*
X111994000Y-60960000D03*
X116312000Y-56134000D03*
X113812000Y-56134000D03*
X116312000Y-52070000D03*
X113812000Y-52070000D03*
D11*
X101854000Y-97282000D03*
D15*
X101854000Y-99782000D03*
D11*
X107188000Y-93726000D03*
D15*
X107188000Y-91226000D03*
D16*
X120270000Y-159258000D03*
X123570000Y-159258000D03*
X127890000Y-159258000D03*
X131190000Y-159258000D03*
X109854000Y-159258000D03*
X106554000Y-159258000D03*
X116712000Y-159258000D03*
X113412000Y-159258000D03*
D17*
X87245000Y-71960000D03*
X87245000Y-75360000D03*
X100715000Y-71960000D03*
X100715000Y-75360000D03*
X86991000Y-124284000D03*
X86991000Y-127684000D03*
X100461000Y-124284000D03*
X100461000Y-127684000D03*
D11*
X94996000Y-89916000D03*
D15*
X94996000Y-92686000D03*
X94996000Y-95456000D03*
X94996000Y-98226000D03*
X94996000Y-100996000D03*
X94996000Y-103766000D03*
X94996000Y-106536000D03*
X94996000Y-109306000D03*
X92156000Y-91301000D03*
X92156000Y-94071000D03*
X92156000Y-96841000D03*
X92156000Y-99611000D03*
X92156000Y-102381000D03*
X92156000Y-105151000D03*
X92156000Y-107921000D03*
D18*
X93576000Y-82961000D03*
X93576000Y-116261000D03*
D19*
X96012000Y-144145000D03*
X96012000Y-137795000D03*
X128905000Y-154178000D03*
X122555000Y-154178000D03*
X116205000Y-154178000D03*
X109855000Y-154178000D03*
X103505000Y-154178000D03*
X97155000Y-154178000D03*
D20*
X111276000Y-91882000D03*
X111276000Y-89982000D03*
X114276000Y-90932000D03*
X111276000Y-102804000D03*
X111276000Y-100904000D03*
X114276000Y-101854000D03*
X121182000Y-144460000D03*
X121182000Y-142560000D03*
X124182000Y-143510000D03*
X129818000Y-144714000D03*
X129818000Y-142814000D03*
X132818000Y-143764000D03*
D21*
X128190000Y-98044000D03*
X130890000Y-98044000D03*
X128190000Y-95504000D03*
X130890000Y-95504000D03*
X124032000Y-113538000D03*
X121332000Y-113538000D03*
X128063000Y-116078000D03*
X130763000Y-116078000D03*
X124540000Y-80264000D03*
X121840000Y-80264000D03*
X124032000Y-110744000D03*
X121332000Y-110744000D03*
D22*
X92583000Y-57959000D03*
X92583000Y-60659000D03*
X131318000Y-53674000D03*
X131318000Y-50974000D03*
D21*
X111172000Y-94996000D03*
X113872000Y-94996000D03*
X113872000Y-98044000D03*
X111172000Y-98044000D03*
X123778000Y-100457000D03*
X121078000Y-100457000D03*
X123778000Y-103124000D03*
X121078000Y-103124000D03*
X121078000Y-139954000D03*
X123778000Y-139954000D03*
X129714000Y-137160000D03*
X132414000Y-137160000D03*
X129714000Y-139954000D03*
X132414000Y-139954000D03*
X123778000Y-146558000D03*
X121078000Y-146558000D03*
X129714000Y-146812000D03*
X132414000Y-146812000D03*
X123778000Y-149098000D03*
X121078000Y-149098000D03*
X104314000Y-143510000D03*
X107014000Y-143510000D03*
X104314000Y-146050000D03*
X107014000Y-146050000D03*
X112442000Y-143510000D03*
X115142000Y-143510000D03*
X112442000Y-146558000D03*
X115142000Y-146558000D03*
X128190000Y-108204000D03*
X130890000Y-108204000D03*
X128190000Y-103124000D03*
X130890000Y-103124000D03*
X128190000Y-105664000D03*
X130890000Y-105664000D03*
X128190000Y-100584000D03*
X130890000Y-100584000D03*
X132414000Y-149098000D03*
X129714000Y-149098000D03*
X104314000Y-148844000D03*
X107014000Y-148844000D03*
D23*
X112268000Y-71374000D03*
D24*
X112268000Y-76454000D03*
D23*
X112268000Y-73914000D03*
D25*
X114595000Y-41538000D03*
X115245000Y-41538000D03*
X115895000Y-41538000D03*
X116545000Y-41538000D03*
X116545000Y-45838000D03*
X115895000Y-45838000D03*
X115245000Y-45838000D03*
X114595000Y-45838000D03*
D26*
X86948500Y-42022500D03*
X86948500Y-64022500D03*
X88948500Y-42022500D03*
X88948500Y-64022500D03*
X90948500Y-42022500D03*
X90948500Y-64022500D03*
X92948500Y-42022500D03*
X92948500Y-64022500D03*
X94948500Y-42022500D03*
X94948500Y-64022500D03*
X96948500Y-42022500D03*
X96948500Y-64022500D03*
X98948500Y-42022500D03*
X98948500Y-64022500D03*
X100948500Y-42022500D03*
X100948500Y-64022500D03*
X102948500Y-42022500D03*
X102948500Y-64022500D03*
X104948500Y-42022500D03*
X104948500Y-64022500D03*
D25*
X114595000Y-60842000D03*
X115245000Y-60842000D03*
X115895000Y-60842000D03*
X116545000Y-60842000D03*
X116545000Y-65142000D03*
X115895000Y-65142000D03*
X115245000Y-65142000D03*
X114595000Y-65142000D03*
X111465000Y-56252000D03*
X110815000Y-56252000D03*
X110165000Y-56252000D03*
X109515000Y-56252000D03*
X109515000Y-51952000D03*
X110165000Y-51952000D03*
X110815000Y-51952000D03*
X111465000Y-51952000D03*
D27*
X112268000Y-83820000D03*
D28*
X109728000Y-83820000D03*
X104648000Y-83820000D03*
X102108000Y-83820000D03*
X99568000Y-83820000D03*
D11*
X131318000Y-61468000D03*
D15*
X133818000Y-61468000D03*
D13*
X99842000Y-86868000D03*
X102342000Y-86868000D03*
D29*
X91694000Y-48006000D03*
X130810000Y-70104000D03*
X130302000Y-126238000D03*
X88138000Y-155956000D03*
D30*
X115316000Y-67056000D03*
X111760000Y-57912000D03*
X124333000Y-78486000D03*
X114427000Y-122682000D03*
X118237000Y-64643000D03*
X118237000Y-61849000D03*
X100711000Y-56515000D03*
X106299000Y-57150000D03*
X112014000Y-110490000D03*
X119761000Y-125984000D03*
X131953000Y-135128000D03*
X101600000Y-93091000D03*
X114427000Y-105537000D03*
X114173000Y-112776000D03*
X114046000Y-107442000D03*
X105029000Y-101854000D03*
X99568000Y-108839000D03*
X99822000Y-115570000D03*
X105537000Y-116713000D03*
X112014000Y-115951000D03*
X115824000Y-118491000D03*
X129667000Y-45847000D03*
X115062000Y-121920000D03*
X122301000Y-116205000D03*
X115824000Y-121158000D03*
X123190000Y-116967000D03*
X116586000Y-120396000D03*
X125476000Y-118364000D03*
X116332000Y-90297000D03*
X123952000Y-118618000D03*
X115189000Y-88519000D03*
X126111000Y-119126000D03*
X113792000Y-123444000D03*
X132207000Y-119761000D03*
X124714000Y-117856000D03*
X114046000Y-64135000D03*
X112776000Y-54102000D03*
X117221000Y-44196000D03*
X123698000Y-83312000D03*
X120142000Y-96774000D03*
X116078000Y-67691000D03*
X115316000Y-47879000D03*
X122047000Y-93980000D03*
X125222000Y-84074000D03*
X90932000Y-84328000D03*
X89408000Y-88900000D03*
X124460000Y-82296000D03*
X121031000Y-91694000D03*
X110236000Y-57531000D03*
X116332000Y-48260000D03*
X129540000Y-93599000D03*
X105918000Y-54991000D03*
X112141000Y-51054000D03*
X111887000Y-43561000D03*
X112268000Y-63246000D03*
X109982000Y-92837000D03*
X109728000Y-102108000D03*
X113665000Y-96774000D03*
X123444000Y-137160000D03*
X131699000Y-133858000D03*
X123317000Y-56515000D03*
X117094000Y-43307000D03*
X116332000Y-42545000D03*
X130048000Y-49276000D03*
X107823000Y-113284000D03*
X105410000Y-113665000D03*
X105918000Y-104775000D03*
X107188000Y-106045000D03*
X109093000Y-91186000D03*
X106680000Y-99060000D03*
X123825000Y-138811000D03*
X134747000Y-139319000D03*
X109220000Y-139573000D03*
X115189000Y-139573000D03*
D31*
X115245000Y-66985000D02*
X115245000Y-65142000D01*
X115316000Y-67056000D02*
X115245000Y-66985000D01*
D32*
X121840000Y-80264000D02*
X118364000Y-80264000D01*
D31*
X118364000Y-82804000D02*
X121920000Y-82804000D01*
X110815000Y-56967000D02*
X110815000Y-56252000D01*
X111760000Y-57912000D02*
X110815000Y-56967000D01*
X123190000Y-79629000D02*
X124333000Y-78486000D01*
X123190000Y-81534000D02*
X123190000Y-79629000D01*
X121920000Y-82804000D02*
X123190000Y-81534000D01*
X114427000Y-122682000D02*
X103378000Y-122682000D01*
X96393000Y-110703000D02*
X94996000Y-109306000D01*
X96393000Y-119380000D02*
X96393000Y-110703000D01*
X97917000Y-120904000D02*
X96393000Y-119380000D01*
X101600000Y-120904000D02*
X97917000Y-120904000D01*
X103378000Y-122682000D02*
X101600000Y-120904000D01*
D32*
X130890000Y-108204000D02*
X133604000Y-108204000D01*
D31*
X117738000Y-65142000D02*
X118237000Y-64643000D01*
X118237000Y-61849000D02*
X117230000Y-60842000D01*
D33*
X109515000Y-51952000D02*
X109515000Y-49571000D01*
X109515000Y-49571000D02*
X109347000Y-49403000D01*
X109515000Y-51952000D02*
X109515000Y-52664000D01*
X109515000Y-52664000D02*
X109347000Y-52832000D01*
X109515000Y-56252000D02*
X107197000Y-56252000D01*
X107197000Y-56252000D02*
X106299000Y-57150000D01*
D31*
X129818000Y-142814000D02*
X129818000Y-141708000D01*
X131064000Y-136017000D02*
X131953000Y-135128000D01*
X131064000Y-140843000D02*
X131064000Y-136017000D01*
X130429000Y-141478000D02*
X131064000Y-140843000D01*
X130048000Y-141478000D02*
X130429000Y-141478000D01*
X129818000Y-141708000D02*
X130048000Y-141478000D01*
X121182000Y-142560000D02*
X121478000Y-142560000D01*
X121478000Y-142560000D02*
X122682000Y-143764000D01*
X122682000Y-143764000D02*
X122682000Y-144018000D01*
X122682000Y-144018000D02*
X123444000Y-144780000D01*
X116545000Y-45838000D02*
X117339000Y-45838000D01*
X117339000Y-45838000D02*
X117729000Y-46228000D01*
X116545000Y-41538000D02*
X118373000Y-41538000D01*
X118373000Y-41538000D02*
X118491000Y-41656000D01*
X116545000Y-65142000D02*
X117738000Y-65142000D01*
X117230000Y-60842000D02*
X116545000Y-60842000D01*
X129658000Y-45838000D02*
X129667000Y-45847000D01*
X115062000Y-121920000D02*
X103759000Y-121920000D01*
X97028000Y-108568000D02*
X94996000Y-106536000D01*
X97028000Y-118999000D02*
X97028000Y-108568000D01*
X98298000Y-120269000D02*
X97028000Y-118999000D01*
X102108000Y-120269000D02*
X98298000Y-120269000D01*
X103759000Y-121920000D02*
X102108000Y-120269000D01*
D32*
X130890000Y-105664000D02*
X133604000Y-105664000D01*
D31*
X97155000Y-154178000D02*
X100965000Y-150368000D01*
X121285000Y-117221000D02*
X122301000Y-116205000D01*
X121285000Y-127000000D02*
X121285000Y-117221000D01*
X114554000Y-133731000D02*
X121285000Y-127000000D01*
X106426000Y-133731000D02*
X114554000Y-133731000D01*
X100965000Y-139192000D02*
X106426000Y-133731000D01*
X100965000Y-150368000D02*
X100965000Y-139192000D01*
D32*
X121078000Y-103124000D02*
X118364000Y-103124000D01*
D31*
X115824000Y-121158000D02*
X104140000Y-121158000D01*
X96520000Y-105290000D02*
X94996000Y-103766000D01*
X96520000Y-106807000D02*
X96520000Y-105290000D01*
X97663000Y-107950000D02*
X96520000Y-106807000D01*
X97663000Y-118618000D02*
X97663000Y-107950000D01*
X98806000Y-119761000D02*
X97663000Y-118618000D01*
X102743000Y-119761000D02*
X98806000Y-119761000D01*
X102997000Y-120015000D02*
X102743000Y-119761000D01*
X104140000Y-121158000D02*
X102997000Y-120015000D01*
D32*
X130890000Y-103124000D02*
X133604000Y-103124000D01*
D31*
X103505000Y-154178000D02*
X103505000Y-151765000D01*
X122301000Y-117856000D02*
X123190000Y-116967000D01*
X122301000Y-127381000D02*
X122301000Y-117856000D01*
X115062000Y-134620000D02*
X122301000Y-127381000D01*
X107061000Y-134620000D02*
X115062000Y-134620000D01*
X102362000Y-139319000D02*
X107061000Y-134620000D01*
X102362000Y-150622000D02*
X102362000Y-139319000D01*
X103505000Y-151765000D02*
X102362000Y-150622000D01*
D32*
X121078000Y-100457000D02*
X118491000Y-100457000D01*
X118491000Y-100457000D02*
X118364000Y-100584000D01*
D31*
X116586000Y-120396000D02*
X104521000Y-120396000D01*
X97282000Y-103282000D02*
X94996000Y-100996000D01*
X97282000Y-106426000D02*
X97282000Y-103282000D01*
X98298000Y-107442000D02*
X97282000Y-106426000D01*
X98298000Y-118110000D02*
X98298000Y-107442000D01*
X99314000Y-119126000D02*
X98298000Y-118110000D01*
X103251000Y-119126000D02*
X99314000Y-119126000D01*
X103505000Y-119380000D02*
X103251000Y-119126000D01*
X104521000Y-120396000D02*
X103505000Y-119380000D01*
D32*
X130890000Y-100584000D02*
X133604000Y-100584000D01*
D31*
X121078000Y-146558000D02*
X120904000Y-146558000D01*
X120904000Y-146558000D02*
X119507000Y-145161000D01*
X119507000Y-145161000D02*
X119507000Y-138303000D01*
X119507000Y-138303000D02*
X125476000Y-132334000D01*
X125476000Y-132334000D02*
X125476000Y-118364000D01*
X116205000Y-99925000D02*
X114276000Y-101854000D01*
X116205000Y-90424000D02*
X116205000Y-99925000D01*
X116332000Y-90297000D02*
X116205000Y-90424000D01*
D32*
X130890000Y-98044000D02*
X133604000Y-98044000D01*
D31*
X111379000Y-140716000D02*
X123952000Y-128143000D01*
X111379000Y-141986000D02*
X111379000Y-140716000D01*
X111379000Y-141986000D02*
X107315000Y-146050000D01*
X123952000Y-128143000D02*
X123952000Y-118618000D01*
X107014000Y-146050000D02*
X107315000Y-146050000D01*
X114276000Y-89432000D02*
X114276000Y-90932000D01*
X115189000Y-88519000D02*
X114276000Y-89432000D01*
D32*
X130890000Y-95504000D02*
X133604000Y-95504000D01*
D31*
X126111000Y-128143000D02*
X126111000Y-129794000D01*
X128905000Y-146812000D02*
X128143000Y-146050000D01*
X126111000Y-128143000D02*
X126111000Y-119126000D01*
X128905000Y-146812000D02*
X129714000Y-146812000D01*
X127000000Y-144907000D02*
X128143000Y-146050000D01*
X127000000Y-130683000D02*
X127000000Y-144907000D01*
X126111000Y-129794000D02*
X127000000Y-130683000D01*
X113792000Y-123444000D02*
X103124000Y-123444000D01*
X132207000Y-119634000D02*
X132207000Y-119761000D01*
X135001000Y-116840000D02*
X132207000Y-119634000D01*
X135001000Y-94234000D02*
X135001000Y-116840000D01*
X133731000Y-92964000D02*
X135001000Y-94234000D01*
X93599000Y-96853000D02*
X94996000Y-95456000D01*
X93599000Y-112014000D02*
X93599000Y-96853000D01*
X90551000Y-115062000D02*
X93599000Y-112014000D01*
X90551000Y-117983000D02*
X90551000Y-115062000D01*
X92075000Y-119507000D02*
X90551000Y-117983000D01*
X95377000Y-119507000D02*
X92075000Y-119507000D01*
X97536000Y-121666000D02*
X95377000Y-119507000D01*
X101346000Y-121666000D02*
X97536000Y-121666000D01*
X103124000Y-123444000D02*
X101346000Y-121666000D01*
X133604000Y-92964000D02*
X133731000Y-92964000D01*
X112442000Y-143510000D02*
X112442000Y-140923000D01*
X124714000Y-128651000D02*
X124714000Y-117856000D01*
X112442000Y-140923000D02*
X124714000Y-128651000D01*
X113157000Y-65024000D02*
X114046000Y-64135000D01*
X111994000Y-65024000D02*
X113157000Y-65024000D01*
X113157000Y-65024000D02*
X114477000Y-65024000D01*
X114477000Y-65024000D02*
X114595000Y-65142000D01*
X111465000Y-56252000D02*
X113694000Y-56252000D01*
X113694000Y-56252000D02*
X113812000Y-56134000D01*
X111465000Y-55413000D02*
X111465000Y-56252000D01*
X112776000Y-54102000D02*
X111465000Y-55413000D01*
X112248000Y-45974000D02*
X114459000Y-45974000D01*
X114459000Y-45974000D02*
X114595000Y-45838000D01*
X114595000Y-45044000D02*
X114595000Y-45838000D01*
X115443000Y-44196000D02*
X114595000Y-45044000D01*
X117221000Y-44196000D02*
X115443000Y-44196000D01*
D32*
X111994000Y-65024000D02*
X111994000Y-64663000D01*
D31*
X104314000Y-143510000D02*
X104314000Y-141685000D01*
X123063000Y-118491000D02*
X126111000Y-115443000D01*
X123063000Y-127762000D02*
X123063000Y-118491000D01*
X115443000Y-135382000D02*
X123063000Y-127762000D01*
X107442000Y-135382000D02*
X115443000Y-135382000D01*
X106045000Y-136779000D02*
X107442000Y-135382000D01*
X106045000Y-139954000D02*
X106045000Y-136779000D01*
X104314000Y-141685000D02*
X106045000Y-139954000D01*
X129714000Y-139954000D02*
X129540000Y-139954000D01*
X129540000Y-139954000D02*
X127635000Y-138049000D01*
X127635000Y-138049000D02*
X127635000Y-133731000D01*
X127635000Y-133731000D02*
X130302000Y-131064000D01*
X130302000Y-131064000D02*
X131699000Y-131064000D01*
X131699000Y-131064000D02*
X134493000Y-128270000D01*
X134493000Y-128270000D02*
X134493000Y-124206000D01*
X134493000Y-124206000D02*
X129286000Y-118999000D01*
X129286000Y-118999000D02*
X127508000Y-118999000D01*
X127508000Y-118999000D02*
X126111000Y-117602000D01*
X126111000Y-117602000D02*
X126111000Y-115443000D01*
X126111000Y-115443000D02*
X126111000Y-115316000D01*
D32*
X123778000Y-103124000D02*
X124714000Y-103124000D01*
X124714000Y-103124000D02*
X125984000Y-101854000D01*
X123778000Y-100457000D02*
X124587000Y-100457000D01*
X124587000Y-100457000D02*
X125984000Y-99060000D01*
X128063000Y-116078000D02*
X126873000Y-116078000D01*
X126873000Y-116078000D02*
X126111000Y-115316000D01*
X126111000Y-115316000D02*
X125984000Y-115189000D01*
X133604000Y-87884000D02*
X128397000Y-87884000D01*
X128397000Y-87884000D02*
X125984000Y-85471000D01*
X128190000Y-95504000D02*
X127381000Y-95504000D01*
X127381000Y-95504000D02*
X125984000Y-94107000D01*
X128190000Y-98044000D02*
X127000000Y-98044000D01*
X127000000Y-98044000D02*
X125984000Y-97028000D01*
X128190000Y-100584000D02*
X127000000Y-100584000D01*
X127000000Y-100584000D02*
X125984000Y-99568000D01*
X128190000Y-103124000D02*
X127254000Y-103124000D01*
X127254000Y-103124000D02*
X125984000Y-101854000D01*
X128190000Y-105664000D02*
X127635000Y-105664000D01*
X127635000Y-105664000D02*
X125984000Y-104013000D01*
X128190000Y-108204000D02*
X126619000Y-108204000D01*
X126619000Y-108204000D02*
X125984000Y-107569000D01*
X124032000Y-110744000D02*
X124460000Y-110744000D01*
X124460000Y-110744000D02*
X125984000Y-109220000D01*
X124032000Y-113538000D02*
X125095000Y-113538000D01*
X125095000Y-113538000D02*
X125984000Y-112649000D01*
X124540000Y-80264000D02*
X125095000Y-80264000D01*
X125095000Y-80264000D02*
X125984000Y-81153000D01*
X125984000Y-81153000D02*
X125984000Y-85471000D01*
X125984000Y-85471000D02*
X125984000Y-89281000D01*
X125984000Y-89281000D02*
X125984000Y-92329000D01*
X125984000Y-92329000D02*
X125984000Y-94107000D01*
X125984000Y-94107000D02*
X125984000Y-97028000D01*
X125984000Y-97028000D02*
X125984000Y-99060000D01*
X125984000Y-99060000D02*
X125984000Y-99568000D01*
X125984000Y-99568000D02*
X125984000Y-101854000D01*
X125984000Y-101854000D02*
X125984000Y-104013000D01*
X125984000Y-104013000D02*
X125984000Y-107569000D01*
X125984000Y-107569000D02*
X125984000Y-109220000D01*
X125984000Y-109220000D02*
X125984000Y-112649000D01*
X125984000Y-112649000D02*
X125984000Y-115189000D01*
X125984000Y-115189000D02*
X125984000Y-115316000D01*
D31*
X123698000Y-88011000D02*
X123698000Y-83312000D01*
X120142000Y-91567000D02*
X123698000Y-88011000D01*
X120142000Y-92329000D02*
X120142000Y-91567000D01*
X121158000Y-93345000D02*
X120142000Y-92329000D01*
X121158000Y-95758000D02*
X121158000Y-93345000D01*
X120142000Y-96774000D02*
X121158000Y-95758000D01*
X116078000Y-67691000D02*
X115895000Y-67508000D01*
X115895000Y-67508000D02*
X115895000Y-65142000D01*
D32*
X121332000Y-110744000D02*
X118364000Y-110744000D01*
D31*
X115316000Y-47879000D02*
X115245000Y-47808000D01*
X115245000Y-45838000D02*
X115245000Y-47808000D01*
X122047000Y-93980000D02*
X125349000Y-90678000D01*
X125349000Y-84201000D02*
X125222000Y-84074000D01*
X125349000Y-90678000D02*
X125349000Y-84201000D01*
D32*
X121332000Y-113538000D02*
X118618000Y-113538000D01*
X118618000Y-113538000D02*
X118364000Y-113284000D01*
X112268000Y-76454000D02*
X109708000Y-76454000D01*
D34*
X90932000Y-84328000D02*
X89408000Y-82804000D01*
X109728000Y-79248000D02*
X114808000Y-79248000D01*
X130556000Y-77216000D02*
X133604000Y-80264000D01*
X116840000Y-77216000D02*
X130556000Y-77216000D01*
X114808000Y-79248000D02*
X116840000Y-77216000D01*
X110236000Y-79248000D02*
X112268000Y-81280000D01*
X112268000Y-81280000D02*
X112268000Y-83820000D01*
X90932000Y-79248000D02*
X109728000Y-79248000D01*
X109728000Y-79248000D02*
X110236000Y-79248000D01*
X112268000Y-77216000D02*
X112268000Y-76454000D01*
X110236000Y-79248000D02*
X112268000Y-77216000D01*
X100715000Y-75360000D02*
X100715000Y-71960000D01*
X89408000Y-88900000D02*
X89408000Y-82804000D01*
X89408000Y-82804000D02*
X89408000Y-80772000D01*
X89408000Y-80772000D02*
X90932000Y-79248000D01*
X90932000Y-79248000D02*
X94820000Y-75360000D01*
X94820000Y-75360000D02*
X100715000Y-75360000D01*
D31*
X124460000Y-84328000D02*
X124460000Y-82296000D01*
X124841000Y-84709000D02*
X124460000Y-84328000D01*
X124841000Y-87884000D02*
X124841000Y-84709000D01*
X121031000Y-91694000D02*
X124841000Y-87884000D01*
X110165000Y-57460000D02*
X110165000Y-56252000D01*
X110236000Y-57531000D02*
X110165000Y-57460000D01*
X133604000Y-115824000D02*
X133477000Y-115824000D01*
X133477000Y-115824000D02*
X129540000Y-111887000D01*
X115895000Y-47823000D02*
X115895000Y-45838000D01*
X116332000Y-48260000D02*
X115895000Y-47823000D01*
X129540000Y-111887000D02*
X129540000Y-93599000D01*
D32*
X130763000Y-116078000D02*
X133350000Y-116078000D01*
X133350000Y-116078000D02*
X133604000Y-115824000D01*
D31*
X131318000Y-61468000D02*
X131318000Y-53674000D01*
X112268000Y-63246000D02*
X129540000Y-63246000D01*
X129540000Y-63246000D02*
X131318000Y-61468000D01*
X92583000Y-57959000D02*
X102950000Y-57959000D01*
X102950000Y-57959000D02*
X105918000Y-54991000D01*
X111465000Y-51952000D02*
X111465000Y-51730000D01*
X111465000Y-51730000D02*
X112141000Y-51054000D01*
X113157000Y-52070000D02*
X112141000Y-51054000D01*
X113812000Y-52070000D02*
X113157000Y-52070000D01*
X112248000Y-41656000D02*
X114477000Y-41656000D01*
X114477000Y-41656000D02*
X114595000Y-41538000D01*
X111887000Y-43561000D02*
X112572000Y-43561000D01*
X112572000Y-43561000D02*
X114595000Y-41538000D01*
X114477000Y-41656000D02*
X114595000Y-41538000D01*
X111994000Y-62972000D02*
X111994000Y-60960000D01*
X112268000Y-63246000D02*
X111994000Y-62972000D01*
D32*
X114595000Y-60842000D02*
X112112000Y-60842000D01*
X112112000Y-60842000D02*
X111994000Y-60960000D01*
X111994000Y-61321000D02*
X111994000Y-60960000D01*
X112268000Y-71374000D02*
X109708000Y-71374000D01*
D31*
X88318500Y-62029500D02*
X88318500Y-59890500D01*
X91106000Y-59436000D02*
X92583000Y-57959000D01*
X88773000Y-59436000D02*
X91106000Y-59436000D01*
X88318500Y-59890500D02*
X88773000Y-59436000D01*
X86948500Y-64022500D02*
X86948500Y-60732500D01*
X86948500Y-60732500D02*
X86995000Y-60686000D01*
X86948500Y-64022500D02*
X86948500Y-63399500D01*
X86948500Y-63399500D02*
X88318500Y-62029500D01*
X88318500Y-62029500D02*
X89662000Y-60686000D01*
D33*
X111276000Y-91882000D02*
X110937000Y-91882000D01*
X110937000Y-91882000D02*
X109982000Y-92837000D01*
X111276000Y-102804000D02*
X110424000Y-102804000D01*
X110424000Y-102804000D02*
X109728000Y-102108000D01*
X113872000Y-98044000D02*
X113872000Y-96981000D01*
X113872000Y-96981000D02*
X113665000Y-96774000D01*
X111172000Y-94996000D02*
X111172000Y-95424000D01*
X111172000Y-95424000D02*
X113792000Y-98044000D01*
X113792000Y-98044000D02*
X113872000Y-98044000D01*
D32*
X99842000Y-86868000D02*
X99842000Y-88372000D01*
X99842000Y-88372000D02*
X95528000Y-92686000D01*
X95528000Y-92686000D02*
X94996000Y-92686000D01*
D34*
X99842000Y-86868000D02*
X99842000Y-84094000D01*
X99842000Y-84094000D02*
X99568000Y-83820000D01*
D31*
X121078000Y-139954000D02*
X121078000Y-139526000D01*
X121078000Y-139526000D02*
X123444000Y-137160000D01*
X129714000Y-137160000D02*
X129714000Y-135843000D01*
X129714000Y-135843000D02*
X131699000Y-133858000D01*
X129714000Y-137160000D02*
X129921000Y-137160000D01*
D34*
X118364000Y-162814000D02*
X125730000Y-162814000D01*
X127890000Y-160654000D02*
X127890000Y-159258000D01*
X125730000Y-162814000D02*
X127890000Y-160654000D01*
X120270000Y-159258000D02*
X120270000Y-161035000D01*
X97995000Y-127684000D02*
X100461000Y-127684000D01*
X92837000Y-132842000D02*
X97995000Y-127684000D01*
X92837000Y-155321000D02*
X92837000Y-132842000D01*
X100330000Y-162814000D02*
X92837000Y-155321000D01*
X118491000Y-162814000D02*
X118364000Y-162814000D01*
X118364000Y-162814000D02*
X100330000Y-162814000D01*
X120270000Y-161035000D02*
X118491000Y-162814000D01*
D35*
X123570000Y-159258000D02*
X123570000Y-155193000D01*
X123570000Y-155193000D02*
X122555000Y-154178000D01*
X131190000Y-159258000D02*
X131190000Y-156463000D01*
X131190000Y-156463000D02*
X128905000Y-154178000D01*
X109854000Y-159258000D02*
X109854000Y-154179000D01*
X109854000Y-154179000D02*
X109855000Y-154178000D01*
X116712000Y-159258000D02*
X116712000Y-154685000D01*
X116712000Y-154685000D02*
X116205000Y-154178000D01*
D31*
X115895000Y-60842000D02*
X115895000Y-60127000D01*
X120523000Y-59309000D02*
X123317000Y-56515000D01*
X116713000Y-59309000D02*
X120523000Y-59309000D01*
X115895000Y-60127000D02*
X116713000Y-59309000D01*
X115245000Y-41538000D02*
X115245000Y-42347000D01*
X116205000Y-43307000D02*
X117094000Y-43307000D01*
X115245000Y-42347000D02*
X116205000Y-43307000D01*
X115895000Y-41538000D02*
X115895000Y-42108000D01*
X115895000Y-42108000D02*
X116332000Y-42545000D01*
X131318000Y-50974000D02*
X128317000Y-50974000D01*
X128317000Y-50974000D02*
X127635000Y-50292000D01*
X130048000Y-49276000D02*
X129159000Y-50165000D01*
X129159000Y-50165000D02*
X129032000Y-50292000D01*
X129032000Y-50292000D02*
X127635000Y-50292000D01*
X127635000Y-50292000D02*
X110871000Y-50292000D01*
X110871000Y-50292000D02*
X110165000Y-50998000D01*
X110165000Y-50998000D02*
X110165000Y-51952000D01*
D33*
X105918000Y-111379000D02*
X105918000Y-111252000D01*
X107823000Y-113284000D02*
X105918000Y-111379000D01*
X105918000Y-104775000D02*
X105918000Y-111252000D01*
X105918000Y-111252000D02*
X105918000Y-113157000D01*
X105918000Y-113157000D02*
X105410000Y-113665000D01*
X107188000Y-106045000D02*
X105918000Y-104775000D01*
D31*
X110297000Y-89982000D02*
X109093000Y-91186000D01*
X111276000Y-89982000D02*
X110297000Y-89982000D01*
X111276000Y-89982000D02*
X111445000Y-89982000D01*
X111445000Y-89982000D02*
X112903000Y-91440000D01*
X112903000Y-91440000D02*
X112903000Y-94027000D01*
X112903000Y-94027000D02*
X113872000Y-94996000D01*
X111172000Y-98044000D02*
X107696000Y-98044000D01*
X107696000Y-98044000D02*
X106680000Y-99060000D01*
X111172000Y-98044000D02*
X111172000Y-100800000D01*
X111172000Y-100800000D02*
X111276000Y-100904000D01*
X123778000Y-139954000D02*
X123778000Y-138858000D01*
X123778000Y-138858000D02*
X123825000Y-138811000D01*
X123778000Y-139954000D02*
X123778000Y-143106000D01*
X123778000Y-143106000D02*
X124182000Y-143510000D01*
X134747000Y-139319000D02*
X134747000Y-140208000D01*
X134747000Y-140208000D02*
X133858000Y-141097000D01*
X132414000Y-137160000D02*
X132715000Y-137160000D01*
X132715000Y-137160000D02*
X133858000Y-138303000D01*
X133858000Y-138303000D02*
X133858000Y-141097000D01*
X133858000Y-141097000D02*
X133858000Y-142724000D01*
X133858000Y-142724000D02*
X132818000Y-143764000D01*
X122531500Y-145311500D02*
X122531500Y-147851500D01*
X122531500Y-147851500D02*
X123778000Y-149098000D01*
X121182000Y-144460000D02*
X121680000Y-144460000D01*
X121680000Y-144460000D02*
X122531500Y-145311500D01*
X122531500Y-145311500D02*
X123778000Y-146558000D01*
X132414000Y-146812000D02*
X132969000Y-146812000D01*
X132969000Y-146812000D02*
X133858000Y-145923000D01*
X132414000Y-139954000D02*
X132414000Y-141779000D01*
X133858000Y-147654000D02*
X132414000Y-149098000D01*
X133858000Y-145923000D02*
X133858000Y-147654000D01*
X133223000Y-145288000D02*
X133858000Y-145923000D01*
X131826000Y-145288000D02*
X133223000Y-145288000D01*
X131318000Y-144780000D02*
X131826000Y-145288000D01*
X131318000Y-142875000D02*
X131318000Y-144780000D01*
X132414000Y-141779000D02*
X131318000Y-142875000D01*
X132414000Y-146812000D02*
X131916000Y-146812000D01*
X131916000Y-146812000D02*
X129818000Y-144714000D01*
X107014000Y-143510000D02*
X108458000Y-143510000D01*
X109220000Y-142748000D02*
X109220000Y-139573000D01*
X108458000Y-143510000D02*
X109220000Y-142748000D01*
X105687500Y-144676500D02*
X105687500Y-147470500D01*
X105687500Y-147470500D02*
X104314000Y-148844000D01*
X107014000Y-143510000D02*
X106854000Y-143510000D01*
X106854000Y-143510000D02*
X105687500Y-144676500D01*
X105687500Y-144676500D02*
X104314000Y-146050000D01*
X115142000Y-143510000D02*
X115142000Y-139620000D01*
X115142000Y-139620000D02*
X115189000Y-139573000D01*
X112442000Y-146558000D02*
X112442000Y-146210000D01*
X112442000Y-146210000D02*
X115142000Y-143510000D01*
X92583000Y-60659000D02*
X101647000Y-60659000D01*
X110815000Y-53396000D02*
X110815000Y-51952000D01*
X109982000Y-54229000D02*
X110815000Y-53396000D01*
X108077000Y-54229000D02*
X109982000Y-54229000D01*
X101647000Y-60659000D02*
X108077000Y-54229000D01*
X88948500Y-64022500D02*
X88948500Y-63705500D01*
X88948500Y-63705500D02*
X90170000Y-62484000D01*
X90170000Y-62484000D02*
X91694000Y-62484000D01*
X91694000Y-62484000D02*
X92583000Y-61595000D01*
X92583000Y-61595000D02*
X92583000Y-60659000D01*
X90948500Y-64022500D02*
X91171500Y-64022500D01*
X91171500Y-64022500D02*
X92964000Y-62230000D01*
X115245000Y-59746000D02*
X115245000Y-60842000D01*
X114681000Y-59182000D02*
X115245000Y-59746000D01*
X107696000Y-59182000D02*
X114681000Y-59182000D01*
X104648000Y-62230000D02*
X107696000Y-59182000D01*
X92964000Y-62230000D02*
X104648000Y-62230000D01*
G36*
X135382000Y-93537369D02*
X135024228Y-93179597D01*
X135067113Y-92964000D01*
X134957880Y-92414849D01*
X134646811Y-91949302D01*
X134264725Y-91694000D01*
X134646811Y-91438698D01*
X134957880Y-90973151D01*
X135067113Y-90424000D01*
X134957880Y-89874849D01*
X134646811Y-89409302D01*
X134264725Y-89154000D01*
X134646811Y-88898698D01*
X134957880Y-88433151D01*
X135067113Y-87884000D01*
X134957880Y-87334849D01*
X134646811Y-86869302D01*
X134264725Y-86614000D01*
X134646811Y-86358698D01*
X134957880Y-85893151D01*
X135067113Y-85344000D01*
X134957880Y-84794849D01*
X134646811Y-84329302D01*
X134242297Y-84059014D01*
X134459134Y-83956389D01*
X134835041Y-83541423D01*
X134995904Y-83153039D01*
X134873915Y-82931000D01*
X133731000Y-82931000D01*
X133731000Y-82951000D01*
X133477000Y-82951000D01*
X133477000Y-82931000D01*
X132334085Y-82931000D01*
X132212096Y-83153039D01*
X132372959Y-83541423D01*
X132748866Y-83956389D01*
X132965703Y-84059014D01*
X132561189Y-84329302D01*
X132250120Y-84794849D01*
X132140887Y-85344000D01*
X132250120Y-85893151D01*
X132561189Y-86358698D01*
X132943275Y-86614000D01*
X132561189Y-86869302D01*
X132477200Y-86995000D01*
X128765236Y-86995000D01*
X126873000Y-85102764D01*
X126873000Y-81153000D01*
X126805329Y-80812794D01*
X126612618Y-80524382D01*
X125937440Y-79849204D01*
X125937440Y-79614000D01*
X125893162Y-79378683D01*
X125754090Y-79162559D01*
X125541890Y-79017569D01*
X125290000Y-78966560D01*
X125145857Y-78966560D01*
X125267838Y-78672799D01*
X125268162Y-78300833D01*
X125239721Y-78232000D01*
X130135160Y-78232000D01*
X132145246Y-80242087D01*
X132140887Y-80264000D01*
X132250120Y-80813151D01*
X132561189Y-81278698D01*
X132965703Y-81548986D01*
X132748866Y-81651611D01*
X132372959Y-82066577D01*
X132212096Y-82454961D01*
X132334085Y-82677000D01*
X133477000Y-82677000D01*
X133477000Y-82657000D01*
X133731000Y-82657000D01*
X133731000Y-82677000D01*
X134873915Y-82677000D01*
X134995904Y-82454961D01*
X134835041Y-82066577D01*
X134459134Y-81651611D01*
X134242297Y-81548986D01*
X134646811Y-81278698D01*
X134957880Y-80813151D01*
X135067113Y-80264000D01*
X134957880Y-79714849D01*
X134646811Y-79249302D01*
X134181264Y-78938233D01*
X133632113Y-78829000D01*
X133605841Y-78829000D01*
X131274420Y-76497580D01*
X130944807Y-76277338D01*
X130880300Y-76264507D01*
X130556000Y-76200000D01*
X116840000Y-76200000D01*
X116515700Y-76264507D01*
X116451193Y-76277338D01*
X116121580Y-76497579D01*
X114387160Y-78232000D01*
X112688841Y-78232000D01*
X112986421Y-77934420D01*
X113136107Y-77710400D01*
X113153317Y-77707162D01*
X113369441Y-77568090D01*
X113514431Y-77355890D01*
X113565440Y-77104000D01*
X113565440Y-75804000D01*
X113521162Y-75568683D01*
X113382090Y-75352559D01*
X113169890Y-75207569D01*
X112918000Y-75156560D01*
X112659046Y-75156560D01*
X112931729Y-75043611D01*
X112987410Y-74813016D01*
X112268000Y-74093605D01*
X111548590Y-74813016D01*
X111604271Y-75043611D01*
X111928848Y-75156560D01*
X111618000Y-75156560D01*
X111382683Y-75200838D01*
X111166559Y-75339910D01*
X111028182Y-75542431D01*
X110922090Y-75377559D01*
X110709890Y-75232569D01*
X110458000Y-75181560D01*
X108958000Y-75181560D01*
X108722683Y-75225838D01*
X108506559Y-75364910D01*
X108460031Y-75433006D01*
X108317698Y-75290673D01*
X108084309Y-75194000D01*
X107493750Y-75194000D01*
X107335000Y-75352750D01*
X107335000Y-76327000D01*
X107355000Y-76327000D01*
X107355000Y-76581000D01*
X107335000Y-76581000D01*
X107335000Y-77555250D01*
X107493750Y-77714000D01*
X108084309Y-77714000D01*
X108317698Y-77617327D01*
X108458936Y-77476090D01*
X108493910Y-77530441D01*
X108706110Y-77675431D01*
X108958000Y-77726440D01*
X110320720Y-77726440D01*
X109815160Y-78232000D01*
X93384840Y-78232000D01*
X95240841Y-76376000D01*
X99041129Y-76376000D01*
X99073630Y-76454658D01*
X99617479Y-76999457D01*
X100328416Y-77294663D01*
X101098207Y-77295335D01*
X101809658Y-77001370D01*
X102071735Y-76739750D01*
X105823000Y-76739750D01*
X105823000Y-77205310D01*
X105919673Y-77438699D01*
X106098302Y-77617327D01*
X106331691Y-77714000D01*
X106922250Y-77714000D01*
X107081000Y-77555250D01*
X107081000Y-76581000D01*
X105981750Y-76581000D01*
X105823000Y-76739750D01*
X102071735Y-76739750D01*
X102354457Y-76457521D01*
X102649663Y-75746584D01*
X102649701Y-75702690D01*
X105823000Y-75702690D01*
X105823000Y-76168250D01*
X105981750Y-76327000D01*
X107081000Y-76327000D01*
X107081000Y-75352750D01*
X106922250Y-75194000D01*
X106331691Y-75194000D01*
X106098302Y-75290673D01*
X105919673Y-75469301D01*
X105823000Y-75702690D01*
X102649701Y-75702690D01*
X102650335Y-74976793D01*
X102356370Y-74265342D01*
X101825035Y-73733078D01*
X110970378Y-73733078D01*
X110999917Y-74243428D01*
X111138389Y-74577729D01*
X111368984Y-74633410D01*
X112088395Y-73914000D01*
X112447605Y-73914000D01*
X113167016Y-74633410D01*
X113397611Y-74577729D01*
X113565622Y-74094922D01*
X113536083Y-73584572D01*
X113397611Y-73250271D01*
X113167016Y-73194590D01*
X112447605Y-73914000D01*
X112088395Y-73914000D01*
X111368984Y-73194590D01*
X111138389Y-73250271D01*
X110970378Y-73733078D01*
X101825035Y-73733078D01*
X101812521Y-73720543D01*
X101731000Y-73686693D01*
X101731000Y-73633871D01*
X101809658Y-73601370D01*
X102354457Y-73057521D01*
X102649663Y-72346584D01*
X102650262Y-71659750D01*
X105823000Y-71659750D01*
X105823000Y-72125310D01*
X105919673Y-72358699D01*
X106098302Y-72537327D01*
X106331691Y-72634000D01*
X106922250Y-72634000D01*
X107081000Y-72475250D01*
X107081000Y-71501000D01*
X105981750Y-71501000D01*
X105823000Y-71659750D01*
X102650262Y-71659750D01*
X102650335Y-71576793D01*
X102356370Y-70865342D01*
X102114142Y-70622690D01*
X105823000Y-70622690D01*
X105823000Y-71088250D01*
X105981750Y-71247000D01*
X107081000Y-71247000D01*
X107081000Y-70272750D01*
X107335000Y-70272750D01*
X107335000Y-71247000D01*
X107355000Y-71247000D01*
X107355000Y-71501000D01*
X107335000Y-71501000D01*
X107335000Y-72475250D01*
X107493750Y-72634000D01*
X108084309Y-72634000D01*
X108317698Y-72537327D01*
X108458936Y-72396090D01*
X108493910Y-72450441D01*
X108706110Y-72595431D01*
X108958000Y-72646440D01*
X110458000Y-72646440D01*
X110693317Y-72602162D01*
X110909441Y-72463090D01*
X111046157Y-72263000D01*
X111339769Y-72263000D01*
X111539155Y-72462735D01*
X111975200Y-72643797D01*
X111938572Y-72645917D01*
X111604271Y-72784389D01*
X111548590Y-73014984D01*
X112268000Y-73734395D01*
X112987410Y-73014984D01*
X112931729Y-72784389D01*
X112545140Y-72649861D01*
X112994943Y-72464005D01*
X113356735Y-72102845D01*
X113552777Y-71630724D01*
X113553223Y-71119519D01*
X113447431Y-70863482D01*
X126974336Y-70863482D01*
X127556950Y-72273515D01*
X128634811Y-73353259D01*
X130043825Y-73938333D01*
X131569482Y-73939664D01*
X132979515Y-73357050D01*
X134059259Y-72279189D01*
X134644333Y-70870175D01*
X134645664Y-69344518D01*
X134063050Y-67934485D01*
X132985189Y-66854741D01*
X131576175Y-66269667D01*
X130050518Y-66268336D01*
X128640485Y-66850950D01*
X127560741Y-67928811D01*
X126975667Y-69337825D01*
X126974336Y-70863482D01*
X113447431Y-70863482D01*
X113358005Y-70647057D01*
X112996845Y-70285265D01*
X112524724Y-70089223D01*
X112013519Y-70088777D01*
X111541057Y-70283995D01*
X111339700Y-70485000D01*
X111042705Y-70485000D01*
X110922090Y-70297559D01*
X110709890Y-70152569D01*
X110458000Y-70101560D01*
X108958000Y-70101560D01*
X108722683Y-70145838D01*
X108506559Y-70284910D01*
X108460031Y-70353006D01*
X108317698Y-70210673D01*
X108084309Y-70114000D01*
X107493750Y-70114000D01*
X107335000Y-70272750D01*
X107081000Y-70272750D01*
X106922250Y-70114000D01*
X106331691Y-70114000D01*
X106098302Y-70210673D01*
X105919673Y-70389301D01*
X105823000Y-70622690D01*
X102114142Y-70622690D01*
X101812521Y-70320543D01*
X101101584Y-70025337D01*
X100331793Y-70024665D01*
X99620342Y-70318630D01*
X99075543Y-70862479D01*
X98780337Y-71573416D01*
X98779665Y-72343207D01*
X99073630Y-73054658D01*
X99617479Y-73599457D01*
X99699000Y-73633307D01*
X99699000Y-73686129D01*
X99620342Y-73718630D01*
X99075543Y-74262479D01*
X99041693Y-74344000D01*
X94820000Y-74344000D01*
X94431194Y-74421338D01*
X94431192Y-74421339D01*
X94431193Y-74421339D01*
X94101579Y-74641580D01*
X90213582Y-78529578D01*
X90213579Y-78529580D01*
X88689580Y-80053580D01*
X88469338Y-80383193D01*
X88469338Y-80383194D01*
X88392000Y-80772000D01*
X88392000Y-88900000D01*
X88469338Y-89288806D01*
X88689580Y-89618420D01*
X89019194Y-89838662D01*
X89408000Y-89916000D01*
X89796806Y-89838662D01*
X90126420Y-89618420D01*
X90346662Y-89288806D01*
X90424000Y-88900000D01*
X90424000Y-85187019D01*
X90543193Y-85266661D01*
X90932000Y-85343999D01*
X91320807Y-85266661D01*
X91650420Y-85046420D01*
X91764357Y-84875902D01*
X92081443Y-85193542D01*
X93049567Y-85595542D01*
X94097834Y-85596457D01*
X95066658Y-85196147D01*
X95808542Y-84455557D01*
X96210542Y-83487433D01*
X96211457Y-82439166D01*
X95811147Y-81470342D01*
X95070557Y-80728458D01*
X94102433Y-80326458D01*
X93054166Y-80325543D01*
X92085342Y-80725853D01*
X91343458Y-81466443D01*
X90941458Y-82434567D01*
X90941052Y-82900211D01*
X90424000Y-82383160D01*
X90424000Y-81192840D01*
X91352841Y-80264000D01*
X109815160Y-80264000D01*
X111252000Y-81700841D01*
X111252000Y-82294387D01*
X111132683Y-82316838D01*
X110916559Y-82455910D01*
X110777402Y-82659574D01*
X110743110Y-82625282D01*
X110628553Y-82739839D01*
X110542148Y-82483357D01*
X109968664Y-82273542D01*
X109358540Y-82299161D01*
X108913852Y-82483357D01*
X108827446Y-82739841D01*
X109728000Y-83640395D01*
X109742143Y-83626253D01*
X109921748Y-83805858D01*
X109907605Y-83820000D01*
X109921748Y-83834143D01*
X109742143Y-84013748D01*
X109728000Y-83999605D01*
X108827446Y-84900159D01*
X108913852Y-85156643D01*
X109487336Y-85366458D01*
X110097460Y-85340839D01*
X110542148Y-85156643D01*
X110628553Y-84900161D01*
X110743110Y-85014718D01*
X110779588Y-84978240D01*
X110903910Y-85171441D01*
X111116110Y-85316431D01*
X111368000Y-85367440D01*
X113168000Y-85367440D01*
X113403317Y-85323162D01*
X113619441Y-85184090D01*
X113764431Y-84971890D01*
X113815440Y-84720000D01*
X113815440Y-82920000D01*
X113771162Y-82684683D01*
X113632090Y-82468559D01*
X113419890Y-82323569D01*
X113284000Y-82296051D01*
X113284000Y-81280000D01*
X113219493Y-80955700D01*
X113206662Y-80891193D01*
X112986421Y-80561580D01*
X112688841Y-80264000D01*
X114808000Y-80264000D01*
X115132300Y-80199493D01*
X115196807Y-80186662D01*
X115526420Y-79966420D01*
X117260841Y-78232000D01*
X123426066Y-78232000D01*
X123398162Y-78299201D01*
X123398124Y-78343246D01*
X122743688Y-78997682D01*
X122590000Y-78966560D01*
X121090000Y-78966560D01*
X120854683Y-79010838D01*
X120638559Y-79149910D01*
X120493569Y-79362110D01*
X120490959Y-79375000D01*
X119794693Y-79375000D01*
X119767162Y-79228683D01*
X119628090Y-79012559D01*
X119415890Y-78867569D01*
X119164000Y-78816560D01*
X117564000Y-78816560D01*
X117328683Y-78860838D01*
X117112559Y-78999910D01*
X116967569Y-79212110D01*
X116916560Y-79464000D01*
X116916560Y-81064000D01*
X116960838Y-81299317D01*
X117099910Y-81515441D01*
X117312110Y-81660431D01*
X117467089Y-81691815D01*
X117321189Y-81789302D01*
X117010120Y-82254849D01*
X116900887Y-82804000D01*
X117010120Y-83353151D01*
X117321189Y-83818698D01*
X117703275Y-84074000D01*
X117321189Y-84329302D01*
X117010120Y-84794849D01*
X116900887Y-85344000D01*
X117010120Y-85893151D01*
X117321189Y-86358698D01*
X117725703Y-86628986D01*
X117508866Y-86731611D01*
X117132959Y-87146577D01*
X116972096Y-87534961D01*
X117094085Y-87757000D01*
X118237000Y-87757000D01*
X118237000Y-87737000D01*
X118491000Y-87737000D01*
X118491000Y-87757000D01*
X119633915Y-87757000D01*
X119755904Y-87534961D01*
X119595041Y-87146577D01*
X119219134Y-86731611D01*
X119002297Y-86628986D01*
X119406811Y-86358698D01*
X119717880Y-85893151D01*
X119827113Y-85344000D01*
X119717880Y-84794849D01*
X119406811Y-84329302D01*
X119024725Y-84074000D01*
X119406811Y-83818698D01*
X119575659Y-83566000D01*
X121920000Y-83566000D01*
X122211605Y-83507996D01*
X122458815Y-83342815D01*
X122824751Y-82976880D01*
X122763162Y-83125201D01*
X122762838Y-83497167D01*
X122904883Y-83840943D01*
X122936000Y-83872114D01*
X122936000Y-87695369D01*
X119732694Y-90898676D01*
X119827113Y-90424000D01*
X119717880Y-89874849D01*
X119406811Y-89409302D01*
X119002297Y-89139014D01*
X119219134Y-89036389D01*
X119595041Y-88621423D01*
X119755904Y-88233039D01*
X119633915Y-88011000D01*
X118491000Y-88011000D01*
X118491000Y-88031000D01*
X118237000Y-88031000D01*
X118237000Y-88011000D01*
X117094085Y-88011000D01*
X116972096Y-88233039D01*
X117132959Y-88621423D01*
X117508866Y-89036389D01*
X117725703Y-89139014D01*
X117321189Y-89409302D01*
X117098975Y-89741869D01*
X116862327Y-89504808D01*
X116518799Y-89362162D01*
X116146833Y-89361838D01*
X115803057Y-89503883D01*
X115539808Y-89766673D01*
X115470313Y-89934035D01*
X115226000Y-89884560D01*
X115038000Y-89884560D01*
X115038000Y-89747630D01*
X115331505Y-89454125D01*
X115374167Y-89454162D01*
X115717943Y-89312117D01*
X115981192Y-89049327D01*
X116123838Y-88705799D01*
X116124162Y-88333833D01*
X115982117Y-87990057D01*
X115719327Y-87726808D01*
X115375799Y-87584162D01*
X115003833Y-87583838D01*
X114660057Y-87725883D01*
X114396808Y-87988673D01*
X114254162Y-88332201D01*
X114254124Y-88376246D01*
X113737185Y-88893185D01*
X113572004Y-89140395D01*
X113514000Y-89432000D01*
X113514000Y-89884560D01*
X113326000Y-89884560D01*
X113090683Y-89928838D01*
X112874559Y-90067910D01*
X112873440Y-90069548D01*
X112873440Y-89582000D01*
X112829162Y-89346683D01*
X112690090Y-89130559D01*
X112477890Y-88985569D01*
X112226000Y-88934560D01*
X110326000Y-88934560D01*
X110090683Y-88978838D01*
X109874559Y-89117910D01*
X109729569Y-89330110D01*
X109693590Y-89507780D01*
X108950495Y-90250875D01*
X108907833Y-90250838D01*
X108564057Y-90392883D01*
X108454426Y-90502323D01*
X108441864Y-90471995D01*
X108195745Y-90397861D01*
X107367605Y-91226000D01*
X108195745Y-92054139D01*
X108441864Y-91980005D01*
X108474326Y-91889691D01*
X108562673Y-91978192D01*
X108906201Y-92120838D01*
X109278167Y-92121162D01*
X109444483Y-92052442D01*
X109189808Y-92306673D01*
X109047162Y-92650201D01*
X109046838Y-93022167D01*
X109188883Y-93365943D01*
X109451673Y-93629192D01*
X109795201Y-93771838D01*
X110141147Y-93772139D01*
X109970559Y-93881910D01*
X109825569Y-94094110D01*
X109774560Y-94346000D01*
X109774560Y-95646000D01*
X109818838Y-95881317D01*
X109957910Y-96097441D01*
X110170110Y-96242431D01*
X110422000Y-96293440D01*
X111035652Y-96293440D01*
X111488772Y-96746560D01*
X110422000Y-96746560D01*
X110186683Y-96790838D01*
X109970559Y-96929910D01*
X109825569Y-97142110D01*
X109797241Y-97282000D01*
X107696000Y-97282000D01*
X107404395Y-97340004D01*
X107206857Y-97471995D01*
X107157185Y-97505185D01*
X106537495Y-98124875D01*
X106494833Y-98124838D01*
X106151057Y-98266883D01*
X105887808Y-98529673D01*
X105745162Y-98873201D01*
X105744838Y-99245167D01*
X105886883Y-99588943D01*
X106149673Y-99852192D01*
X106493201Y-99994838D01*
X106865167Y-99995162D01*
X107208943Y-99853117D01*
X107472192Y-99590327D01*
X107614838Y-99246799D01*
X107614876Y-99202754D01*
X108011630Y-98806000D01*
X109795634Y-98806000D01*
X109818838Y-98929317D01*
X109957910Y-99145441D01*
X110170110Y-99290431D01*
X110410000Y-99339010D01*
X110410000Y-99856560D01*
X110326000Y-99856560D01*
X110090683Y-99900838D01*
X109874559Y-100039910D01*
X109729569Y-100252110D01*
X109678560Y-100504000D01*
X109678560Y-101172956D01*
X109542833Y-101172838D01*
X109199057Y-101314883D01*
X108935808Y-101577673D01*
X108793162Y-101921201D01*
X108792838Y-102293167D01*
X108934883Y-102636943D01*
X109197673Y-102900192D01*
X109541201Y-103042838D01*
X109657150Y-103042939D01*
X109678560Y-103064349D01*
X109678560Y-103204000D01*
X109722838Y-103439317D01*
X109861910Y-103655441D01*
X110074110Y-103800431D01*
X110326000Y-103851440D01*
X112226000Y-103851440D01*
X112461317Y-103807162D01*
X112677441Y-103668090D01*
X112822431Y-103455890D01*
X112873440Y-103204000D01*
X112873440Y-102713319D01*
X113074110Y-102850431D01*
X113326000Y-102901440D01*
X115226000Y-102901440D01*
X115461317Y-102857162D01*
X115677441Y-102718090D01*
X115822431Y-102505890D01*
X115873440Y-102254000D01*
X115873440Y-101454000D01*
X115854466Y-101353164D01*
X116743815Y-100463815D01*
X116809838Y-100365005D01*
X116908996Y-100216605D01*
X116967000Y-99925000D01*
X116967000Y-98376372D01*
X117010120Y-98593151D01*
X117321189Y-99058698D01*
X117703275Y-99314000D01*
X117321189Y-99569302D01*
X117010120Y-100034849D01*
X116900887Y-100584000D01*
X117010120Y-101133151D01*
X117321189Y-101598698D01*
X117703275Y-101854000D01*
X117321189Y-102109302D01*
X117010120Y-102574849D01*
X116900887Y-103124000D01*
X117010120Y-103673151D01*
X117321189Y-104138698D01*
X117703275Y-104394000D01*
X117321189Y-104649302D01*
X117010120Y-105114849D01*
X116900887Y-105664000D01*
X117010120Y-106213151D01*
X117321189Y-106678698D01*
X117703275Y-106934000D01*
X117321189Y-107189302D01*
X117010120Y-107654849D01*
X116900887Y-108204000D01*
X117010120Y-108753151D01*
X117321189Y-109218698D01*
X117703275Y-109474000D01*
X117321189Y-109729302D01*
X117010120Y-110194849D01*
X116900887Y-110744000D01*
X117010120Y-111293151D01*
X117321189Y-111758698D01*
X117703275Y-112014000D01*
X117321189Y-112269302D01*
X117010120Y-112734849D01*
X116900887Y-113284000D01*
X117010120Y-113833151D01*
X117321189Y-114298698D01*
X117703275Y-114554000D01*
X117321189Y-114809302D01*
X117010120Y-115274849D01*
X116900887Y-115824000D01*
X117010120Y-116373151D01*
X117321189Y-116838698D01*
X117786736Y-117149767D01*
X118335887Y-117259000D01*
X118392113Y-117259000D01*
X118941264Y-117149767D01*
X119406811Y-116838698D01*
X119717880Y-116373151D01*
X119827113Y-115824000D01*
X119717880Y-115274849D01*
X119406811Y-114809302D01*
X119024725Y-114554000D01*
X119214794Y-114427000D01*
X119981208Y-114427000D01*
X120117910Y-114639441D01*
X120330110Y-114784431D01*
X120582000Y-114835440D01*
X122082000Y-114835440D01*
X122317317Y-114791162D01*
X122533441Y-114652090D01*
X122678431Y-114439890D01*
X122681081Y-114426803D01*
X122817910Y-114639441D01*
X123030110Y-114784431D01*
X123282000Y-114835440D01*
X124782000Y-114835440D01*
X125017317Y-114791162D01*
X125095000Y-114741174D01*
X125095000Y-115316000D01*
X125105846Y-115370524D01*
X123999255Y-116477115D01*
X123983117Y-116438057D01*
X123720327Y-116174808D01*
X123376799Y-116032162D01*
X123236151Y-116032039D01*
X123236162Y-116019833D01*
X123094117Y-115676057D01*
X122831327Y-115412808D01*
X122487799Y-115270162D01*
X122115833Y-115269838D01*
X121772057Y-115411883D01*
X121508808Y-115674673D01*
X121366162Y-116018201D01*
X121366124Y-116062246D01*
X120746185Y-116682185D01*
X120581004Y-116929395D01*
X120523000Y-117221000D01*
X120523000Y-126684369D01*
X114238370Y-132969000D01*
X106426000Y-132969000D01*
X106134395Y-133027004D01*
X105887184Y-133192185D01*
X100426185Y-138653185D01*
X100261004Y-138900395D01*
X100203000Y-139192000D01*
X100203000Y-150052369D01*
X98218292Y-152037077D01*
X97631487Y-151793415D01*
X96682675Y-151792587D01*
X95805771Y-152154916D01*
X95134274Y-152825242D01*
X94770415Y-153701513D01*
X94769587Y-154650325D01*
X95131916Y-155527229D01*
X95802242Y-156198726D01*
X96678513Y-156562585D01*
X97627325Y-156563413D01*
X98504229Y-156201084D01*
X99175726Y-155530758D01*
X99539585Y-154654487D01*
X99540413Y-153705675D01*
X99296141Y-153114490D01*
X101503816Y-150906815D01*
X101602834Y-150758623D01*
X101621592Y-150730550D01*
X101658004Y-150913605D01*
X101717736Y-151003000D01*
X101823185Y-151160815D01*
X102623871Y-151961501D01*
X102155771Y-152154916D01*
X101484274Y-152825242D01*
X101120415Y-153701513D01*
X101119587Y-154650325D01*
X101481916Y-155527229D01*
X102152242Y-156198726D01*
X103028513Y-156562585D01*
X103977325Y-156563413D01*
X104854229Y-156201084D01*
X105525726Y-155530758D01*
X105889585Y-154654487D01*
X105889588Y-154650325D01*
X107469587Y-154650325D01*
X107831916Y-155527229D01*
X108457000Y-156153405D01*
X108457000Y-158158878D01*
X108402559Y-158193910D01*
X108257569Y-158406110D01*
X108206560Y-158658000D01*
X108206560Y-159858000D01*
X108250838Y-160093317D01*
X108389910Y-160309441D01*
X108602110Y-160454431D01*
X108854000Y-160505440D01*
X109254708Y-160505440D01*
X109319391Y-160548660D01*
X109854000Y-160655000D01*
X110388609Y-160548660D01*
X110453292Y-160505440D01*
X110854000Y-160505440D01*
X111089317Y-160461162D01*
X111305441Y-160322090D01*
X111450431Y-160109890D01*
X111501440Y-159858000D01*
X111501440Y-159543750D01*
X111777000Y-159543750D01*
X111777000Y-159984310D01*
X111873673Y-160217699D01*
X112052302Y-160396327D01*
X112285691Y-160493000D01*
X113126250Y-160493000D01*
X113285000Y-160334250D01*
X113285000Y-159385000D01*
X113539000Y-159385000D01*
X113539000Y-160334250D01*
X113697750Y-160493000D01*
X114538309Y-160493000D01*
X114771698Y-160396327D01*
X114950327Y-160217699D01*
X115047000Y-159984310D01*
X115047000Y-159543750D01*
X114888250Y-159385000D01*
X113539000Y-159385000D01*
X113285000Y-159385000D01*
X111935750Y-159385000D01*
X111777000Y-159543750D01*
X111501440Y-159543750D01*
X111501440Y-158658000D01*
X111477674Y-158531690D01*
X111777000Y-158531690D01*
X111777000Y-158972250D01*
X111935750Y-159131000D01*
X113285000Y-159131000D01*
X113285000Y-158181750D01*
X113539000Y-158181750D01*
X113539000Y-159131000D01*
X114888250Y-159131000D01*
X115047000Y-158972250D01*
X115047000Y-158531690D01*
X114950327Y-158298301D01*
X114771698Y-158119673D01*
X114538309Y-158023000D01*
X113697750Y-158023000D01*
X113539000Y-158181750D01*
X113285000Y-158181750D01*
X113126250Y-158023000D01*
X112285691Y-158023000D01*
X112052302Y-158119673D01*
X111873673Y-158298301D01*
X111777000Y-158531690D01*
X111477674Y-158531690D01*
X111457162Y-158422683D01*
X111318090Y-158206559D01*
X111251000Y-158160718D01*
X111251000Y-156154395D01*
X111875726Y-155530758D01*
X112239585Y-154654487D01*
X112239588Y-154650325D01*
X113819587Y-154650325D01*
X114181916Y-155527229D01*
X114852242Y-156198726D01*
X115315000Y-156390880D01*
X115315000Y-158158878D01*
X115260559Y-158193910D01*
X115115569Y-158406110D01*
X115064560Y-158658000D01*
X115064560Y-159858000D01*
X115108838Y-160093317D01*
X115247910Y-160309441D01*
X115460110Y-160454431D01*
X115712000Y-160505440D01*
X116112708Y-160505440D01*
X116177391Y-160548660D01*
X116712000Y-160655000D01*
X117246609Y-160548660D01*
X117311292Y-160505440D01*
X117712000Y-160505440D01*
X117947317Y-160461162D01*
X118163441Y-160322090D01*
X118308431Y-160109890D01*
X118359440Y-159858000D01*
X118359440Y-158658000D01*
X118315162Y-158422683D01*
X118176090Y-158206559D01*
X118109000Y-158160718D01*
X118109000Y-155647280D01*
X118225726Y-155530758D01*
X118589585Y-154654487D01*
X118589588Y-154650325D01*
X120169587Y-154650325D01*
X120531916Y-155527229D01*
X121202242Y-156198726D01*
X122078513Y-156562585D01*
X122173000Y-156562667D01*
X122173000Y-158158878D01*
X122118559Y-158193910D01*
X121973569Y-158406110D01*
X121922560Y-158658000D01*
X121922560Y-159858000D01*
X121966838Y-160093317D01*
X122105910Y-160309441D01*
X122318110Y-160454431D01*
X122570000Y-160505440D01*
X122970708Y-160505440D01*
X123035391Y-160548660D01*
X123570000Y-160655000D01*
X124104609Y-160548660D01*
X124169292Y-160505440D01*
X124570000Y-160505440D01*
X124805317Y-160461162D01*
X125021441Y-160322090D01*
X125166431Y-160109890D01*
X125217440Y-159858000D01*
X125217440Y-158658000D01*
X125173162Y-158422683D01*
X125034090Y-158206559D01*
X124967000Y-158160718D01*
X124967000Y-155193000D01*
X124885697Y-154784263D01*
X124939585Y-154654487D01*
X124939588Y-154650325D01*
X126519587Y-154650325D01*
X126881916Y-155527229D01*
X127552242Y-156198726D01*
X128428513Y-156562585D01*
X129314702Y-156563358D01*
X129793000Y-157041656D01*
X129793000Y-158158878D01*
X129738559Y-158193910D01*
X129593569Y-158406110D01*
X129542560Y-158658000D01*
X129542560Y-159858000D01*
X129586838Y-160093317D01*
X129725910Y-160309441D01*
X129938110Y-160454431D01*
X130190000Y-160505440D01*
X130590708Y-160505440D01*
X130655391Y-160548660D01*
X131190000Y-160655000D01*
X131724609Y-160548660D01*
X131789292Y-160505440D01*
X132190000Y-160505440D01*
X132425317Y-160461162D01*
X132641441Y-160322090D01*
X132786431Y-160109890D01*
X132837440Y-159858000D01*
X132837440Y-158658000D01*
X132793162Y-158422683D01*
X132654090Y-158206559D01*
X132587000Y-158160718D01*
X132587000Y-156463000D01*
X132480660Y-155928391D01*
X132177828Y-155475172D01*
X131289644Y-154586988D01*
X131290413Y-153705675D01*
X130928084Y-152828771D01*
X130257758Y-152157274D01*
X129381487Y-151793415D01*
X128432675Y-151792587D01*
X127555771Y-152154916D01*
X126884274Y-152825242D01*
X126520415Y-153701513D01*
X126519587Y-154650325D01*
X124939588Y-154650325D01*
X124940413Y-153705675D01*
X124578084Y-152828771D01*
X123907758Y-152157274D01*
X123031487Y-151793415D01*
X122082675Y-151792587D01*
X121205771Y-152154916D01*
X120534274Y-152825242D01*
X120170415Y-153701513D01*
X120169587Y-154650325D01*
X118589588Y-154650325D01*
X118590413Y-153705675D01*
X118228084Y-152828771D01*
X117557758Y-152157274D01*
X116681487Y-151793415D01*
X115732675Y-151792587D01*
X114855771Y-152154916D01*
X114184274Y-152825242D01*
X113820415Y-153701513D01*
X113819587Y-154650325D01*
X112239588Y-154650325D01*
X112240413Y-153705675D01*
X111878084Y-152828771D01*
X111207758Y-152157274D01*
X110331487Y-151793415D01*
X109382675Y-151792587D01*
X108505771Y-152154916D01*
X107834274Y-152825242D01*
X107470415Y-153701513D01*
X107469587Y-154650325D01*
X105889588Y-154650325D01*
X105890413Y-153705675D01*
X105528084Y-152828771D01*
X104857758Y-152157274D01*
X104267000Y-151911970D01*
X104267000Y-151765000D01*
X104208996Y-151473395D01*
X104043815Y-151226185D01*
X103124000Y-150306370D01*
X103124000Y-149961901D01*
X103312110Y-150090431D01*
X103564000Y-150141440D01*
X105064000Y-150141440D01*
X105299317Y-150097162D01*
X105515441Y-149958090D01*
X105660431Y-149745890D01*
X105667191Y-149712510D01*
X105725673Y-149853699D01*
X105904302Y-150032327D01*
X106137691Y-150129000D01*
X106728250Y-150129000D01*
X106887000Y-149970250D01*
X106887000Y-148971000D01*
X107141000Y-148971000D01*
X107141000Y-149970250D01*
X107299750Y-150129000D01*
X107890309Y-150129000D01*
X108123698Y-150032327D01*
X108302327Y-149853699D01*
X108399000Y-149620310D01*
X108399000Y-149383750D01*
X119693000Y-149383750D01*
X119693000Y-149874310D01*
X119789673Y-150107699D01*
X119968302Y-150286327D01*
X120201691Y-150383000D01*
X120792250Y-150383000D01*
X120951000Y-150224250D01*
X120951000Y-149225000D01*
X119851750Y-149225000D01*
X119693000Y-149383750D01*
X108399000Y-149383750D01*
X108399000Y-149129750D01*
X108240250Y-148971000D01*
X107141000Y-148971000D01*
X106887000Y-148971000D01*
X106867000Y-148971000D01*
X106867000Y-148717000D01*
X106887000Y-148717000D01*
X106887000Y-147717750D01*
X107141000Y-147717750D01*
X107141000Y-148717000D01*
X108240250Y-148717000D01*
X108399000Y-148558250D01*
X108399000Y-148067690D01*
X108302327Y-147834301D01*
X108123698Y-147655673D01*
X107890309Y-147559000D01*
X107299750Y-147559000D01*
X107141000Y-147717750D01*
X106887000Y-147717750D01*
X106728250Y-147559000D01*
X106431896Y-147559000D01*
X106449500Y-147470500D01*
X106449500Y-147347440D01*
X107764000Y-147347440D01*
X107999317Y-147303162D01*
X108215441Y-147164090D01*
X108360431Y-146951890D01*
X108411440Y-146700000D01*
X108411440Y-146031190D01*
X111044560Y-143398070D01*
X111044560Y-144160000D01*
X111088838Y-144395317D01*
X111227910Y-144611441D01*
X111440110Y-144756431D01*
X111692000Y-144807440D01*
X112766930Y-144807440D01*
X112313810Y-145260560D01*
X111692000Y-145260560D01*
X111456683Y-145304838D01*
X111240559Y-145443910D01*
X111095569Y-145656110D01*
X111044560Y-145908000D01*
X111044560Y-147208000D01*
X111088838Y-147443317D01*
X111227910Y-147659441D01*
X111440110Y-147804431D01*
X111692000Y-147855440D01*
X113192000Y-147855440D01*
X113427317Y-147811162D01*
X113643441Y-147672090D01*
X113788431Y-147459890D01*
X113795191Y-147426510D01*
X113853673Y-147567699D01*
X114032302Y-147746327D01*
X114265691Y-147843000D01*
X114856250Y-147843000D01*
X115015000Y-147684250D01*
X115015000Y-146685000D01*
X115269000Y-146685000D01*
X115269000Y-147684250D01*
X115427750Y-147843000D01*
X116018309Y-147843000D01*
X116251698Y-147746327D01*
X116430327Y-147567699D01*
X116527000Y-147334310D01*
X116527000Y-146843750D01*
X116368250Y-146685000D01*
X115269000Y-146685000D01*
X115015000Y-146685000D01*
X114995000Y-146685000D01*
X114995000Y-146431000D01*
X115015000Y-146431000D01*
X115015000Y-145431750D01*
X115269000Y-145431750D01*
X115269000Y-146431000D01*
X116368250Y-146431000D01*
X116527000Y-146272250D01*
X116527000Y-145781690D01*
X116430327Y-145548301D01*
X116251698Y-145369673D01*
X116018309Y-145273000D01*
X115427750Y-145273000D01*
X115269000Y-145431750D01*
X115015000Y-145431750D01*
X114856250Y-145273000D01*
X114456631Y-145273000D01*
X114922191Y-144807440D01*
X115892000Y-144807440D01*
X116127317Y-144763162D01*
X116343441Y-144624090D01*
X116488431Y-144411890D01*
X116539440Y-144160000D01*
X116539440Y-142860000D01*
X116495162Y-142624683D01*
X116356090Y-142408559D01*
X116143890Y-142263569D01*
X115904000Y-142214990D01*
X115904000Y-140180384D01*
X115981192Y-140103327D01*
X116123838Y-139759799D01*
X116124162Y-139387833D01*
X115982117Y-139044057D01*
X115719327Y-138780808D01*
X115678694Y-138763936D01*
X124714000Y-129728630D01*
X124714000Y-132018369D01*
X118968185Y-137764185D01*
X118803004Y-138011395D01*
X118745000Y-138303000D01*
X118745000Y-145161000D01*
X118803004Y-145452605D01*
X118887863Y-145579605D01*
X118968185Y-145699815D01*
X119680560Y-146412191D01*
X119680560Y-147208000D01*
X119724838Y-147443317D01*
X119863910Y-147659441D01*
X120076110Y-147804431D01*
X120174350Y-147824325D01*
X119968302Y-147909673D01*
X119789673Y-148088301D01*
X119693000Y-148321690D01*
X119693000Y-148812250D01*
X119851750Y-148971000D01*
X120951000Y-148971000D01*
X120951000Y-148951000D01*
X121205000Y-148951000D01*
X121205000Y-148971000D01*
X121225000Y-148971000D01*
X121225000Y-149225000D01*
X121205000Y-149225000D01*
X121205000Y-150224250D01*
X121363750Y-150383000D01*
X121954309Y-150383000D01*
X122187698Y-150286327D01*
X122366327Y-150107699D01*
X122422654Y-149971713D01*
X122424838Y-149983317D01*
X122563910Y-150199441D01*
X122776110Y-150344431D01*
X123028000Y-150395440D01*
X124528000Y-150395440D01*
X124763317Y-150351162D01*
X124979441Y-150212090D01*
X125124431Y-149999890D01*
X125175440Y-149748000D01*
X125175440Y-149383750D01*
X128329000Y-149383750D01*
X128329000Y-149874310D01*
X128425673Y-150107699D01*
X128604302Y-150286327D01*
X128837691Y-150383000D01*
X129428250Y-150383000D01*
X129587000Y-150224250D01*
X129587000Y-149225000D01*
X128487750Y-149225000D01*
X128329000Y-149383750D01*
X125175440Y-149383750D01*
X125175440Y-148448000D01*
X125131162Y-148212683D01*
X124992090Y-147996559D01*
X124779890Y-147851569D01*
X124668477Y-147829007D01*
X124763317Y-147811162D01*
X124979441Y-147672090D01*
X125124431Y-147459890D01*
X125175440Y-147208000D01*
X125175440Y-145908000D01*
X125131162Y-145672683D01*
X124992090Y-145456559D01*
X124779890Y-145311569D01*
X124528000Y-145260560D01*
X123558190Y-145260560D01*
X122779440Y-144481810D01*
X122779440Y-144369319D01*
X122980110Y-144506431D01*
X123232000Y-144557440D01*
X125132000Y-144557440D01*
X125367317Y-144513162D01*
X125583441Y-144374090D01*
X125728431Y-144161890D01*
X125779440Y-143910000D01*
X125779440Y-143110000D01*
X125735162Y-142874683D01*
X125596090Y-142658559D01*
X125383890Y-142513569D01*
X125132000Y-142462560D01*
X124540000Y-142462560D01*
X124540000Y-141249182D01*
X124763317Y-141207162D01*
X124979441Y-141068090D01*
X125124431Y-140855890D01*
X125175440Y-140604000D01*
X125175440Y-139304000D01*
X125131162Y-139068683D01*
X124992090Y-138852559D01*
X124779890Y-138707569D01*
X124760094Y-138703560D01*
X124760162Y-138625833D01*
X124618117Y-138282057D01*
X124355327Y-138018808D01*
X124038801Y-137887374D01*
X124236192Y-137690327D01*
X124378838Y-137346799D01*
X124379162Y-136974833D01*
X124237117Y-136631057D01*
X123974327Y-136367808D01*
X123630799Y-136225162D01*
X123258833Y-136224838D01*
X122915057Y-136366883D01*
X122651808Y-136629673D01*
X122509162Y-136973201D01*
X122509124Y-137017246D01*
X120869810Y-138656560D01*
X120328000Y-138656560D01*
X120269000Y-138667662D01*
X120269000Y-138618630D01*
X126014816Y-132872815D01*
X126113834Y-132724623D01*
X126179996Y-132625605D01*
X126238000Y-132334000D01*
X126238000Y-144907000D01*
X126296004Y-145198605D01*
X126417540Y-145380496D01*
X126461185Y-145445815D01*
X127604185Y-146588815D01*
X128316560Y-147301191D01*
X128316560Y-147462000D01*
X128360838Y-147697317D01*
X128499910Y-147913441D01*
X128559689Y-147954286D01*
X128425673Y-148088301D01*
X128329000Y-148321690D01*
X128329000Y-148812250D01*
X128487750Y-148971000D01*
X129587000Y-148971000D01*
X129587000Y-148951000D01*
X129841000Y-148951000D01*
X129841000Y-148971000D01*
X129861000Y-148971000D01*
X129861000Y-149225000D01*
X129841000Y-149225000D01*
X129841000Y-150224250D01*
X129999750Y-150383000D01*
X130590309Y-150383000D01*
X130823698Y-150286327D01*
X131002327Y-150107699D01*
X131058654Y-149971713D01*
X131060838Y-149983317D01*
X131199910Y-150199441D01*
X131412110Y-150344431D01*
X131664000Y-150395440D01*
X133164000Y-150395440D01*
X133399317Y-150351162D01*
X133615441Y-150212090D01*
X133760431Y-149999890D01*
X133811440Y-149748000D01*
X133811440Y-148778191D01*
X134396815Y-148192816D01*
X134561996Y-147945605D01*
X134580701Y-147851569D01*
X134620000Y-147654000D01*
X134620000Y-145923000D01*
X134561996Y-145631395D01*
X134478212Y-145506004D01*
X134396816Y-145384185D01*
X133815191Y-144802560D01*
X134003317Y-144767162D01*
X134219441Y-144628090D01*
X134364431Y-144415890D01*
X134415440Y-144164000D01*
X134415440Y-143364000D01*
X134396466Y-143263164D01*
X134396815Y-143262815D01*
X134561996Y-143015605D01*
X134590027Y-142874683D01*
X134620000Y-142724000D01*
X134620000Y-141412630D01*
X135285815Y-140746815D01*
X135345162Y-140657996D01*
X135382000Y-140602864D01*
X135382000Y-164084000D01*
X84836000Y-164084000D01*
X84836000Y-158007047D01*
X84884950Y-158125515D01*
X85962811Y-159205259D01*
X87371825Y-159790333D01*
X88897482Y-159791664D01*
X90307515Y-159209050D01*
X91387259Y-158131189D01*
X91972333Y-156722175D01*
X91973119Y-155821723D01*
X92118580Y-156039420D01*
X99611579Y-163532420D01*
X99831821Y-163679581D01*
X99941194Y-163752662D01*
X100330000Y-163830000D01*
X125730000Y-163830000D01*
X126054300Y-163765493D01*
X126118807Y-163752662D01*
X126448420Y-163532420D01*
X128608420Y-161372421D01*
X128828661Y-161042807D01*
X128828662Y-161042806D01*
X128906000Y-160654000D01*
X128906000Y-160502429D01*
X129125317Y-160461162D01*
X129341441Y-160322090D01*
X129486431Y-160109890D01*
X129537440Y-159858000D01*
X129537440Y-158658000D01*
X129493162Y-158422683D01*
X129354090Y-158206559D01*
X129141890Y-158061569D01*
X128890000Y-158010560D01*
X126890000Y-158010560D01*
X126654683Y-158054838D01*
X126438559Y-158193910D01*
X126293569Y-158406110D01*
X126242560Y-158658000D01*
X126242560Y-159858000D01*
X126286838Y-160093317D01*
X126425910Y-160309441D01*
X126638110Y-160454431D01*
X126650266Y-160456893D01*
X125309160Y-161798000D01*
X120943841Y-161798000D01*
X120988421Y-161753420D01*
X121208662Y-161423807D01*
X121221493Y-161359300D01*
X121286000Y-161035000D01*
X121286000Y-160502429D01*
X121505317Y-160461162D01*
X121721441Y-160322090D01*
X121866431Y-160109890D01*
X121917440Y-159858000D01*
X121917440Y-158658000D01*
X121873162Y-158422683D01*
X121734090Y-158206559D01*
X121521890Y-158061569D01*
X121270000Y-158010560D01*
X119270000Y-158010560D01*
X119034683Y-158054838D01*
X118818559Y-158193910D01*
X118673569Y-158406110D01*
X118622560Y-158658000D01*
X118622560Y-159858000D01*
X118666838Y-160093317D01*
X118805910Y-160309441D01*
X119018110Y-160454431D01*
X119254000Y-160502200D01*
X119254000Y-160614159D01*
X118070160Y-161798000D01*
X100750841Y-161798000D01*
X98496591Y-159543750D01*
X104919000Y-159543750D01*
X104919000Y-159984310D01*
X105015673Y-160217699D01*
X105194302Y-160396327D01*
X105427691Y-160493000D01*
X106268250Y-160493000D01*
X106427000Y-160334250D01*
X106427000Y-159385000D01*
X106681000Y-159385000D01*
X106681000Y-160334250D01*
X106839750Y-160493000D01*
X107680309Y-160493000D01*
X107913698Y-160396327D01*
X108092327Y-160217699D01*
X108189000Y-159984310D01*
X108189000Y-159543750D01*
X108030250Y-159385000D01*
X106681000Y-159385000D01*
X106427000Y-159385000D01*
X105077750Y-159385000D01*
X104919000Y-159543750D01*
X98496591Y-159543750D01*
X97484531Y-158531690D01*
X104919000Y-158531690D01*
X104919000Y-158972250D01*
X105077750Y-159131000D01*
X106427000Y-159131000D01*
X106427000Y-158181750D01*
X106681000Y-158181750D01*
X106681000Y-159131000D01*
X108030250Y-159131000D01*
X108189000Y-158972250D01*
X108189000Y-158531690D01*
X108092327Y-158298301D01*
X107913698Y-158119673D01*
X107680309Y-158023000D01*
X106839750Y-158023000D01*
X106681000Y-158181750D01*
X106427000Y-158181750D01*
X106268250Y-158023000D01*
X105427691Y-158023000D01*
X105194302Y-158119673D01*
X105015673Y-158298301D01*
X104919000Y-158531690D01*
X97484531Y-158531690D01*
X93853000Y-154900160D01*
X93853000Y-145165287D01*
X93988916Y-145494229D01*
X94659242Y-146165726D01*
X95535513Y-146529585D01*
X96484325Y-146530413D01*
X97361229Y-146168084D01*
X98032726Y-145497758D01*
X98396585Y-144621487D01*
X98397413Y-143672675D01*
X98035084Y-142795771D01*
X97364758Y-142124274D01*
X96488487Y-141760415D01*
X95539675Y-141759587D01*
X94662771Y-142121916D01*
X93991274Y-142792242D01*
X93853000Y-143125243D01*
X93853000Y-139489528D01*
X94497077Y-139489528D01*
X94687364Y-139834271D01*
X95568591Y-140185956D01*
X96517323Y-140173641D01*
X97336636Y-139834271D01*
X97526923Y-139489528D01*
X96012000Y-137974605D01*
X94497077Y-139489528D01*
X93853000Y-139489528D01*
X93853000Y-138830584D01*
X93972729Y-139119636D01*
X94317472Y-139309923D01*
X95832395Y-137795000D01*
X96191605Y-137795000D01*
X97706528Y-139309923D01*
X98051271Y-139119636D01*
X98402956Y-138238409D01*
X98390641Y-137289677D01*
X98051271Y-136470364D01*
X97706528Y-136280077D01*
X96191605Y-137795000D01*
X95832395Y-137795000D01*
X94317472Y-136280077D01*
X93972729Y-136470364D01*
X93853000Y-136770372D01*
X93853000Y-136100472D01*
X94497077Y-136100472D01*
X96012000Y-137615395D01*
X97526923Y-136100472D01*
X97336636Y-135755729D01*
X96455409Y-135404044D01*
X95506677Y-135416359D01*
X94687364Y-135755729D01*
X94497077Y-136100472D01*
X93853000Y-136100472D01*
X93853000Y-133262840D01*
X98415841Y-128700000D01*
X98787129Y-128700000D01*
X98819630Y-128778658D01*
X99363479Y-129323457D01*
X100074416Y-129618663D01*
X100844207Y-129619335D01*
X101555658Y-129325370D01*
X102100457Y-128781521D01*
X102395663Y-128070584D01*
X102396335Y-127300793D01*
X102102370Y-126589342D01*
X101558521Y-126044543D01*
X101413238Y-125984217D01*
X101555658Y-125925370D01*
X102100457Y-125381521D01*
X102395663Y-124670584D01*
X102396335Y-123900793D01*
X102321115Y-123718746D01*
X102585185Y-123982816D01*
X102704907Y-124062811D01*
X102832395Y-124147996D01*
X103124000Y-124206000D01*
X113231534Y-124206000D01*
X113261673Y-124236192D01*
X113605201Y-124378838D01*
X113977167Y-124379162D01*
X114320943Y-124237117D01*
X114584192Y-123974327D01*
X114726838Y-123630799D01*
X114726891Y-123569759D01*
X114955943Y-123475117D01*
X115219192Y-123212327D01*
X115361838Y-122868799D01*
X115361891Y-122807759D01*
X115590943Y-122713117D01*
X115854192Y-122450327D01*
X115996838Y-122106799D01*
X115996850Y-122093151D01*
X116009167Y-122093162D01*
X116352943Y-121951117D01*
X116616192Y-121688327D01*
X116758838Y-121344799D01*
X116758850Y-121331151D01*
X116771167Y-121331162D01*
X117114943Y-121189117D01*
X117378192Y-120926327D01*
X117520838Y-120582799D01*
X117521162Y-120210833D01*
X117379117Y-119867057D01*
X117116327Y-119603808D01*
X116772799Y-119461162D01*
X116400833Y-119460838D01*
X116057057Y-119602883D01*
X116025886Y-119634000D01*
X104836630Y-119634000D01*
X104043817Y-118841187D01*
X104043815Y-118841184D01*
X103789815Y-118587185D01*
X103749124Y-118559996D01*
X103542605Y-118422004D01*
X103251000Y-118364000D01*
X99629630Y-118364000D01*
X99060000Y-117794370D01*
X99060000Y-113850167D01*
X104474838Y-113850167D01*
X104616883Y-114193943D01*
X104879673Y-114457192D01*
X105223201Y-114599838D01*
X105595167Y-114600162D01*
X105938943Y-114458117D01*
X106202192Y-114195327D01*
X106344838Y-113851799D01*
X106344939Y-113735850D01*
X106420894Y-113659895D01*
X106575062Y-113429165D01*
X106575063Y-113429164D01*
X106629200Y-113157000D01*
X106629200Y-113095988D01*
X106887938Y-113354726D01*
X106887838Y-113469167D01*
X107029883Y-113812943D01*
X107292673Y-114076192D01*
X107636201Y-114218838D01*
X108008167Y-114219162D01*
X108351943Y-114077117D01*
X108615192Y-113814327D01*
X108757838Y-113470799D01*
X108758162Y-113098833D01*
X108616117Y-112755057D01*
X108353327Y-112491808D01*
X108009799Y-112349162D01*
X107893849Y-112349061D01*
X106629200Y-111084412D01*
X106629200Y-106808669D01*
X106657673Y-106837192D01*
X107001201Y-106979838D01*
X107373167Y-106980162D01*
X107716943Y-106838117D01*
X107980192Y-106575327D01*
X108122838Y-106231799D01*
X108123162Y-105859833D01*
X107981117Y-105516057D01*
X107718327Y-105252808D01*
X107374799Y-105110162D01*
X107258850Y-105110061D01*
X106853062Y-104704274D01*
X106853162Y-104589833D01*
X106711117Y-104246057D01*
X106448327Y-103982808D01*
X106104799Y-103840162D01*
X105732833Y-103839838D01*
X105389057Y-103981883D01*
X105125808Y-104244673D01*
X104983162Y-104588201D01*
X104982838Y-104960167D01*
X105124883Y-105303943D01*
X105206800Y-105386003D01*
X105206800Y-112737289D01*
X104881057Y-112871883D01*
X104617808Y-113134673D01*
X104475162Y-113478201D01*
X104474838Y-113850167D01*
X99060000Y-113850167D01*
X99060000Y-107442000D01*
X99001996Y-107150395D01*
X98836815Y-106903185D01*
X98044000Y-106110370D01*
X98044000Y-103282000D01*
X97985996Y-102990395D01*
X97925724Y-102900192D01*
X97820815Y-102743184D01*
X96410086Y-101332456D01*
X96430750Y-101282691D01*
X96431180Y-100789745D01*
X101025861Y-100789745D01*
X101099995Y-101035864D01*
X101637223Y-101228965D01*
X102207454Y-101201778D01*
X102608005Y-101035864D01*
X102682139Y-100789745D01*
X101854000Y-99961605D01*
X101025861Y-100789745D01*
X96431180Y-100789745D01*
X96431248Y-100711813D01*
X96213243Y-100184200D01*
X95809923Y-99780176D01*
X95417940Y-99617410D01*
X95543930Y-99565223D01*
X100407035Y-99565223D01*
X100434222Y-100135454D01*
X100600136Y-100536005D01*
X100846255Y-100610139D01*
X101674395Y-99782000D01*
X102033605Y-99782000D01*
X102861745Y-100610139D01*
X103107864Y-100536005D01*
X103300965Y-99998777D01*
X103273778Y-99428546D01*
X103107864Y-99027995D01*
X102861745Y-98953861D01*
X102033605Y-99782000D01*
X101674395Y-99782000D01*
X100846255Y-98953861D01*
X100600136Y-99027995D01*
X100407035Y-99565223D01*
X95543930Y-99565223D01*
X95750005Y-99479864D01*
X95824139Y-99233745D01*
X94996000Y-98405605D01*
X94981858Y-98419748D01*
X94802252Y-98240142D01*
X94816395Y-98226000D01*
X95175605Y-98226000D01*
X96003745Y-99054139D01*
X96249864Y-98980005D01*
X96442965Y-98442777D01*
X96415778Y-97872546D01*
X96249864Y-97471995D01*
X96003745Y-97397861D01*
X95175605Y-98226000D01*
X94816395Y-98226000D01*
X94802252Y-98211858D01*
X94981858Y-98032252D01*
X94996000Y-98046395D01*
X95824139Y-97218255D01*
X95750005Y-96972136D01*
X95394062Y-96844196D01*
X95807800Y-96673243D01*
X95999376Y-96482000D01*
X100406560Y-96482000D01*
X100406560Y-98082000D01*
X100450838Y-98317317D01*
X100589910Y-98533441D01*
X100802110Y-98678431D01*
X101040201Y-98726646D01*
X101025861Y-98774255D01*
X101854000Y-99602395D01*
X102682139Y-98774255D01*
X102667855Y-98726833D01*
X102889317Y-98685162D01*
X103105441Y-98546090D01*
X103250431Y-98333890D01*
X103301440Y-98082000D01*
X103301440Y-96482000D01*
X103257162Y-96246683D01*
X103118090Y-96030559D01*
X102905890Y-95885569D01*
X102654000Y-95834560D01*
X101054000Y-95834560D01*
X100818683Y-95878838D01*
X100602559Y-96017910D01*
X100457569Y-96230110D01*
X100406560Y-96482000D01*
X95999376Y-96482000D01*
X96211824Y-96269923D01*
X96430750Y-95742691D01*
X96431248Y-95171813D01*
X96213243Y-94644200D01*
X95809923Y-94240176D01*
X95402150Y-94070854D01*
X95807800Y-93903243D01*
X96211824Y-93499923D01*
X96382609Y-93088627D01*
X96545236Y-92926000D01*
X105740560Y-92926000D01*
X105740560Y-94526000D01*
X105784838Y-94761317D01*
X105923910Y-94977441D01*
X106136110Y-95122431D01*
X106388000Y-95173440D01*
X107988000Y-95173440D01*
X108223317Y-95129162D01*
X108439441Y-94990090D01*
X108584431Y-94777890D01*
X108635440Y-94526000D01*
X108635440Y-92926000D01*
X108591162Y-92690683D01*
X108452090Y-92474559D01*
X108239890Y-92329569D01*
X108001799Y-92281354D01*
X108016139Y-92233745D01*
X107188000Y-91405605D01*
X106359861Y-92233745D01*
X106374145Y-92281167D01*
X106152683Y-92322838D01*
X105936559Y-92461910D01*
X105791569Y-92674110D01*
X105740560Y-92926000D01*
X96545236Y-92926000D01*
X98462013Y-91009223D01*
X105741035Y-91009223D01*
X105768222Y-91579454D01*
X105934136Y-91980005D01*
X106180255Y-92054139D01*
X107008395Y-91226000D01*
X106180255Y-90397861D01*
X105934136Y-90471995D01*
X105741035Y-91009223D01*
X98462013Y-91009223D01*
X99252981Y-90218255D01*
X106359861Y-90218255D01*
X107188000Y-91046395D01*
X108016139Y-90218255D01*
X107942005Y-89972136D01*
X107404777Y-89779035D01*
X106834546Y-89806222D01*
X106433995Y-89972136D01*
X106359861Y-90218255D01*
X99252981Y-90218255D01*
X100470618Y-89000618D01*
X100663329Y-88712206D01*
X100731000Y-88372000D01*
X100731000Y-88114285D01*
X100827317Y-88096162D01*
X101043441Y-87957090D01*
X101089969Y-87888994D01*
X101232302Y-88031327D01*
X101465691Y-88128000D01*
X102056250Y-88128000D01*
X102215000Y-87969250D01*
X102215000Y-86995000D01*
X102469000Y-86995000D01*
X102469000Y-87969250D01*
X102627750Y-88128000D01*
X103218309Y-88128000D01*
X103451698Y-88031327D01*
X103630327Y-87852699D01*
X103727000Y-87619310D01*
X103727000Y-87153750D01*
X103568250Y-86995000D01*
X102469000Y-86995000D01*
X102215000Y-86995000D01*
X102195000Y-86995000D01*
X102195000Y-86741000D01*
X102215000Y-86741000D01*
X102215000Y-85766750D01*
X102469000Y-85766750D01*
X102469000Y-86741000D01*
X103568250Y-86741000D01*
X103727000Y-86582250D01*
X103727000Y-86116690D01*
X103630327Y-85883301D01*
X103451698Y-85704673D01*
X103218309Y-85608000D01*
X102627750Y-85608000D01*
X102469000Y-85766750D01*
X102215000Y-85766750D01*
X102056250Y-85608000D01*
X101465691Y-85608000D01*
X101232302Y-85704673D01*
X101091064Y-85845910D01*
X101056090Y-85791559D01*
X100858000Y-85656210D01*
X100858000Y-84740530D01*
X101237357Y-85120551D01*
X101801330Y-85354733D01*
X102411991Y-85355265D01*
X102976371Y-85122068D01*
X103198668Y-84900159D01*
X103747446Y-84900159D01*
X103833852Y-85156643D01*
X104407336Y-85366458D01*
X105017460Y-85340839D01*
X105462148Y-85156643D01*
X105548554Y-84900159D01*
X104648000Y-83999605D01*
X103747446Y-84900159D01*
X103198668Y-84900159D01*
X103408551Y-84690643D01*
X103417203Y-84669806D01*
X103567841Y-84720554D01*
X104468395Y-83820000D01*
X104827605Y-83820000D01*
X105728159Y-84720554D01*
X105984643Y-84634148D01*
X106194458Y-84060664D01*
X106174248Y-83579336D01*
X108181542Y-83579336D01*
X108207161Y-84189460D01*
X108391357Y-84634148D01*
X108647841Y-84720554D01*
X109548395Y-83820000D01*
X108647841Y-82919446D01*
X108391357Y-83005852D01*
X108181542Y-83579336D01*
X106174248Y-83579336D01*
X106168839Y-83450540D01*
X105984643Y-83005852D01*
X105728159Y-82919446D01*
X104827605Y-83820000D01*
X104468395Y-83820000D01*
X103567841Y-82919446D01*
X103417673Y-82970035D01*
X103410068Y-82951629D01*
X103198650Y-82739841D01*
X103747446Y-82739841D01*
X104648000Y-83640395D01*
X105548554Y-82739841D01*
X105462148Y-82483357D01*
X104888664Y-82273542D01*
X104278540Y-82299161D01*
X103833852Y-82483357D01*
X103747446Y-82739841D01*
X103198650Y-82739841D01*
X102978643Y-82519449D01*
X102414670Y-82285267D01*
X101804009Y-82284735D01*
X101239629Y-82517932D01*
X100837677Y-82919182D01*
X100438643Y-82519449D01*
X99874670Y-82285267D01*
X99264009Y-82284735D01*
X98699629Y-82517932D01*
X98267449Y-82949357D01*
X98033267Y-83513330D01*
X98032735Y-84123991D01*
X98265932Y-84688371D01*
X98697357Y-85120551D01*
X98826000Y-85173968D01*
X98826000Y-85659582D01*
X98640559Y-85778910D01*
X98495569Y-85991110D01*
X98444560Y-86243000D01*
X98444560Y-87493000D01*
X98488838Y-87728317D01*
X98627910Y-87944441D01*
X98840110Y-88089431D01*
X98862749Y-88094015D01*
X96443440Y-90513324D01*
X96443440Y-89116000D01*
X96399162Y-88880683D01*
X96260090Y-88664559D01*
X96047890Y-88519569D01*
X95796000Y-88468560D01*
X94196000Y-88468560D01*
X93960683Y-88512838D01*
X93744559Y-88651910D01*
X93599569Y-88864110D01*
X93548560Y-89116000D01*
X93548560Y-90716000D01*
X93592838Y-90951317D01*
X93731910Y-91167441D01*
X93944110Y-91312431D01*
X94196000Y-91363440D01*
X94439087Y-91363440D01*
X94184200Y-91468757D01*
X93780176Y-91872077D01*
X93561250Y-92399309D01*
X93560752Y-92970187D01*
X93778757Y-93497800D01*
X94182077Y-93901824D01*
X94589850Y-94071146D01*
X94184200Y-94238757D01*
X93780176Y-94642077D01*
X93561250Y-95169309D01*
X93560752Y-95740187D01*
X93582222Y-95792148D01*
X93315729Y-96058641D01*
X93163745Y-96012861D01*
X92335605Y-96841000D01*
X92349748Y-96855142D01*
X92170142Y-97034748D01*
X92156000Y-97020605D01*
X91327861Y-97848745D01*
X91401995Y-98094864D01*
X91740999Y-98216716D01*
X91401995Y-98357136D01*
X91327861Y-98603255D01*
X92156000Y-99431395D01*
X92170142Y-99417252D01*
X92349748Y-99596858D01*
X92335605Y-99611000D01*
X92349748Y-99625142D01*
X92170142Y-99804748D01*
X92156000Y-99790605D01*
X91327861Y-100618745D01*
X91401995Y-100864864D01*
X91740999Y-100986716D01*
X91401995Y-101127136D01*
X91327861Y-101373255D01*
X92156000Y-102201395D01*
X92170142Y-102187252D01*
X92349748Y-102366858D01*
X92335605Y-102381000D01*
X92349748Y-102395142D01*
X92170142Y-102574748D01*
X92156000Y-102560605D01*
X91327861Y-103388745D01*
X91401995Y-103634864D01*
X91740999Y-103756716D01*
X91401995Y-103897136D01*
X91327861Y-104143255D01*
X92156000Y-104971395D01*
X92170142Y-104957252D01*
X92349748Y-105136858D01*
X92335605Y-105151000D01*
X92349748Y-105165142D01*
X92170142Y-105344748D01*
X92156000Y-105330605D01*
X91327861Y-106158745D01*
X91401995Y-106404864D01*
X91740999Y-106526716D01*
X91401995Y-106667136D01*
X91327861Y-106913255D01*
X92156000Y-107741395D01*
X92170142Y-107727252D01*
X92349748Y-107906858D01*
X92335605Y-107921000D01*
X92349748Y-107935142D01*
X92170142Y-108114748D01*
X92156000Y-108100605D01*
X91327861Y-108928745D01*
X91401995Y-109174864D01*
X91939223Y-109367965D01*
X92509454Y-109340778D01*
X92837000Y-109205104D01*
X92837000Y-111698370D01*
X90012185Y-114523185D01*
X89847004Y-114770395D01*
X89789000Y-115062000D01*
X89789000Y-117983000D01*
X89847004Y-118274605D01*
X89971005Y-118460185D01*
X90012185Y-118521815D01*
X91536184Y-120045815D01*
X91680137Y-120142001D01*
X91783395Y-120210996D01*
X92075000Y-120269000D01*
X95061370Y-120269000D01*
X96997185Y-122204815D01*
X97244395Y-122369996D01*
X97536000Y-122428000D01*
X99885787Y-122428000D01*
X99366342Y-122642630D01*
X98821543Y-123186479D01*
X98526337Y-123897416D01*
X98525665Y-124667207D01*
X98819630Y-125378658D01*
X99363479Y-125923457D01*
X99508762Y-125983783D01*
X99366342Y-126042630D01*
X98821543Y-126586479D01*
X98787693Y-126668000D01*
X97995000Y-126668000D01*
X97606193Y-126745338D01*
X97276580Y-126965579D01*
X92118580Y-132123580D01*
X91898338Y-132453193D01*
X91898338Y-132453194D01*
X91821000Y-132842000D01*
X91821000Y-154827043D01*
X91391050Y-153786485D01*
X90313189Y-152706741D01*
X88904175Y-152121667D01*
X87378518Y-152120336D01*
X85968485Y-152702950D01*
X84888741Y-153780811D01*
X84836000Y-153907825D01*
X84836000Y-124667207D01*
X85055665Y-124667207D01*
X85349630Y-125378658D01*
X85893479Y-125923457D01*
X86038762Y-125983783D01*
X85896342Y-126042630D01*
X85351543Y-126586479D01*
X85056337Y-127297416D01*
X85055665Y-128067207D01*
X85349630Y-128778658D01*
X85893479Y-129323457D01*
X86604416Y-129618663D01*
X87374207Y-129619335D01*
X88085658Y-129325370D01*
X88630457Y-128781521D01*
X88925663Y-128070584D01*
X88926335Y-127300793D01*
X88632370Y-126589342D01*
X88088521Y-126044543D01*
X87943238Y-125984217D01*
X88085658Y-125925370D01*
X88630457Y-125381521D01*
X88925663Y-124670584D01*
X88926335Y-123900793D01*
X88632370Y-123189342D01*
X88088521Y-122644543D01*
X87377584Y-122349337D01*
X86607793Y-122348665D01*
X85896342Y-122642630D01*
X85351543Y-123186479D01*
X85056337Y-123897416D01*
X85055665Y-124667207D01*
X84836000Y-124667207D01*
X84836000Y-107704223D01*
X90709035Y-107704223D01*
X90736222Y-108274454D01*
X90902136Y-108675005D01*
X91148255Y-108749139D01*
X91976395Y-107921000D01*
X91148255Y-107092861D01*
X90902136Y-107166995D01*
X90709035Y-107704223D01*
X84836000Y-107704223D01*
X84836000Y-104934223D01*
X90709035Y-104934223D01*
X90736222Y-105504454D01*
X90902136Y-105905005D01*
X91148255Y-105979139D01*
X91976395Y-105151000D01*
X91148255Y-104322861D01*
X90902136Y-104396995D01*
X90709035Y-104934223D01*
X84836000Y-104934223D01*
X84836000Y-102164223D01*
X90709035Y-102164223D01*
X90736222Y-102734454D01*
X90902136Y-103135005D01*
X91148255Y-103209139D01*
X91976395Y-102381000D01*
X91148255Y-101552861D01*
X90902136Y-101626995D01*
X90709035Y-102164223D01*
X84836000Y-102164223D01*
X84836000Y-99394223D01*
X90709035Y-99394223D01*
X90736222Y-99964454D01*
X90902136Y-100365005D01*
X91148255Y-100439139D01*
X91976395Y-99611000D01*
X91148255Y-98782861D01*
X90902136Y-98856995D01*
X90709035Y-99394223D01*
X84836000Y-99394223D01*
X84836000Y-96624223D01*
X90709035Y-96624223D01*
X90736222Y-97194454D01*
X90902136Y-97595005D01*
X91148255Y-97669139D01*
X91976395Y-96841000D01*
X91148255Y-96012861D01*
X90902136Y-96086995D01*
X90709035Y-96624223D01*
X84836000Y-96624223D01*
X84836000Y-95078745D01*
X91327861Y-95078745D01*
X91401995Y-95324864D01*
X91740999Y-95446716D01*
X91401995Y-95587136D01*
X91327861Y-95833255D01*
X92156000Y-96661395D01*
X92984139Y-95833255D01*
X92910005Y-95587136D01*
X92571001Y-95465284D01*
X92910005Y-95324864D01*
X92984139Y-95078745D01*
X92156000Y-94250605D01*
X91327861Y-95078745D01*
X84836000Y-95078745D01*
X84836000Y-93854223D01*
X90709035Y-93854223D01*
X90736222Y-94424454D01*
X90902136Y-94825005D01*
X91148255Y-94899139D01*
X91976395Y-94071000D01*
X92335605Y-94071000D01*
X93163745Y-94899139D01*
X93409864Y-94825005D01*
X93602965Y-94287777D01*
X93575778Y-93717546D01*
X93409864Y-93316995D01*
X93163745Y-93242861D01*
X92335605Y-94071000D01*
X91976395Y-94071000D01*
X91148255Y-93242861D01*
X90902136Y-93316995D01*
X90709035Y-93854223D01*
X84836000Y-93854223D01*
X84836000Y-92308745D01*
X91327861Y-92308745D01*
X91401995Y-92554864D01*
X91740999Y-92676716D01*
X91401995Y-92817136D01*
X91327861Y-93063255D01*
X92156000Y-93891395D01*
X92984139Y-93063255D01*
X92910005Y-92817136D01*
X92571001Y-92695284D01*
X92910005Y-92554864D01*
X92984139Y-92308745D01*
X92156000Y-91480605D01*
X91327861Y-92308745D01*
X84836000Y-92308745D01*
X84836000Y-91084223D01*
X90709035Y-91084223D01*
X90736222Y-91654454D01*
X90902136Y-92055005D01*
X91148255Y-92129139D01*
X91976395Y-91301000D01*
X92335605Y-91301000D01*
X93163745Y-92129139D01*
X93409864Y-92055005D01*
X93602965Y-91517777D01*
X93575778Y-90947546D01*
X93409864Y-90546995D01*
X93163745Y-90472861D01*
X92335605Y-91301000D01*
X91976395Y-91301000D01*
X91148255Y-90472861D01*
X90902136Y-90546995D01*
X90709035Y-91084223D01*
X84836000Y-91084223D01*
X84836000Y-90293255D01*
X91327861Y-90293255D01*
X92156000Y-91121395D01*
X92984139Y-90293255D01*
X92910005Y-90047136D01*
X92372777Y-89854035D01*
X91802546Y-89881222D01*
X91401995Y-90047136D01*
X91327861Y-90293255D01*
X84836000Y-90293255D01*
X84836000Y-72343207D01*
X85309665Y-72343207D01*
X85603630Y-73054658D01*
X86147479Y-73599457D01*
X86292762Y-73659783D01*
X86150342Y-73718630D01*
X85605543Y-74262479D01*
X85310337Y-74973416D01*
X85309665Y-75743207D01*
X85603630Y-76454658D01*
X86147479Y-76999457D01*
X86858416Y-77294663D01*
X87628207Y-77295335D01*
X88339658Y-77001370D01*
X88884457Y-76457521D01*
X89179663Y-75746584D01*
X89180335Y-74976793D01*
X88886370Y-74265342D01*
X88342521Y-73720543D01*
X88197238Y-73660217D01*
X88339658Y-73601370D01*
X88884457Y-73057521D01*
X89179663Y-72346584D01*
X89180335Y-71576793D01*
X88886370Y-70865342D01*
X88342521Y-70320543D01*
X87631584Y-70025337D01*
X86861793Y-70024665D01*
X86150342Y-70318630D01*
X85605543Y-70862479D01*
X85310337Y-71573416D01*
X85309665Y-72343207D01*
X84836000Y-72343207D01*
X84836000Y-64296785D01*
X85563260Y-64296785D01*
X85773669Y-64806015D01*
X86162936Y-65195961D01*
X86671798Y-65407259D01*
X87222785Y-65407740D01*
X87732015Y-65197331D01*
X87948536Y-64981187D01*
X88162936Y-65195961D01*
X88671798Y-65407259D01*
X89222785Y-65407740D01*
X89732015Y-65197331D01*
X89948536Y-64981187D01*
X90162936Y-65195961D01*
X90671798Y-65407259D01*
X91222785Y-65407740D01*
X91732015Y-65197331D01*
X91948536Y-64981187D01*
X92162936Y-65195961D01*
X92671798Y-65407259D01*
X93222785Y-65407740D01*
X93732015Y-65197331D01*
X93948536Y-64981187D01*
X94162936Y-65195961D01*
X94671798Y-65407259D01*
X95222785Y-65407740D01*
X95732015Y-65197331D01*
X95948536Y-64981187D01*
X96162936Y-65195961D01*
X96671798Y-65407259D01*
X97222785Y-65407740D01*
X97732015Y-65197331D01*
X97948536Y-64981187D01*
X98162936Y-65195961D01*
X98671798Y-65407259D01*
X99222785Y-65407740D01*
X99732015Y-65197331D01*
X99948536Y-64981187D01*
X100162936Y-65195961D01*
X100671798Y-65407259D01*
X101222785Y-65407740D01*
X101732015Y-65197331D01*
X101948536Y-64981187D01*
X102162936Y-65195961D01*
X102671798Y-65407259D01*
X103222785Y-65407740D01*
X103732015Y-65197331D01*
X103935683Y-64994017D01*
X104156588Y-64994017D01*
X104224577Y-65234960D01*
X104743671Y-65419701D01*
X105293948Y-65391730D01*
X105491864Y-65309750D01*
X108109000Y-65309750D01*
X108109000Y-65775310D01*
X108205673Y-66008699D01*
X108384302Y-66187327D01*
X108617691Y-66284000D01*
X109208250Y-66284000D01*
X109367000Y-66125250D01*
X109367000Y-65151000D01*
X108267750Y-65151000D01*
X108109000Y-65309750D01*
X105491864Y-65309750D01*
X105672423Y-65234960D01*
X105740412Y-64994017D01*
X104948500Y-64202105D01*
X104156588Y-64994017D01*
X103935683Y-64994017D01*
X104121961Y-64808064D01*
X104220401Y-64570994D01*
X104768895Y-64022500D01*
X105128105Y-64022500D01*
X105920017Y-64814412D01*
X106160960Y-64746423D01*
X106329557Y-64272690D01*
X108109000Y-64272690D01*
X108109000Y-64738250D01*
X108267750Y-64897000D01*
X109367000Y-64897000D01*
X109367000Y-63922750D01*
X109208250Y-63764000D01*
X108617691Y-63764000D01*
X108384302Y-63860673D01*
X108205673Y-64039301D01*
X108109000Y-64272690D01*
X106329557Y-64272690D01*
X106345701Y-64227329D01*
X106317730Y-63677052D01*
X106160960Y-63298577D01*
X105920017Y-63230588D01*
X105128105Y-64022500D01*
X104768895Y-64022500D01*
X104220467Y-63474072D01*
X104123331Y-63238985D01*
X103876776Y-62992000D01*
X104173232Y-62992000D01*
X104156588Y-63050983D01*
X104948500Y-63842895D01*
X105740412Y-63050983D01*
X105672423Y-62810040D01*
X105283872Y-62671758D01*
X106709880Y-61245750D01*
X108109000Y-61245750D01*
X108109000Y-61711310D01*
X108205673Y-61944699D01*
X108384302Y-62123327D01*
X108617691Y-62220000D01*
X109208250Y-62220000D01*
X109367000Y-62061250D01*
X109367000Y-61087000D01*
X108267750Y-61087000D01*
X108109000Y-61245750D01*
X106709880Y-61245750D01*
X108011630Y-59944000D01*
X108236974Y-59944000D01*
X108205673Y-59975301D01*
X108109000Y-60208690D01*
X108109000Y-60674250D01*
X108267750Y-60833000D01*
X109367000Y-60833000D01*
X109367000Y-60813000D01*
X109621000Y-60813000D01*
X109621000Y-60833000D01*
X109641000Y-60833000D01*
X109641000Y-61087000D01*
X109621000Y-61087000D01*
X109621000Y-62061250D01*
X109779750Y-62220000D01*
X110370309Y-62220000D01*
X110603698Y-62123327D01*
X110744936Y-61982090D01*
X110779910Y-62036441D01*
X110992110Y-62181431D01*
X111232000Y-62230010D01*
X111232000Y-62972000D01*
X111290004Y-63263605D01*
X111332928Y-63327845D01*
X111332838Y-63431167D01*
X111465221Y-63751560D01*
X111244000Y-63751560D01*
X111008683Y-63795838D01*
X110792559Y-63934910D01*
X110746031Y-64003006D01*
X110603698Y-63860673D01*
X110370309Y-63764000D01*
X109779750Y-63764000D01*
X109621000Y-63922750D01*
X109621000Y-64897000D01*
X109641000Y-64897000D01*
X109641000Y-65151000D01*
X109621000Y-65151000D01*
X109621000Y-66125250D01*
X109779750Y-66284000D01*
X110370309Y-66284000D01*
X110603698Y-66187327D01*
X110744936Y-66046090D01*
X110779910Y-66100441D01*
X110992110Y-66245431D01*
X111244000Y-66296440D01*
X112744000Y-66296440D01*
X112979317Y-66252162D01*
X113195441Y-66113090D01*
X113340431Y-65900890D01*
X113363697Y-65786000D01*
X113765247Y-65786000D01*
X113791838Y-65927317D01*
X113930910Y-66143441D01*
X114143110Y-66288431D01*
X114395000Y-66339440D01*
X114483000Y-66339440D01*
X114483000Y-66623949D01*
X114381162Y-66869201D01*
X114380838Y-67241167D01*
X114522883Y-67584943D01*
X114785673Y-67848192D01*
X115129201Y-67990838D01*
X115190241Y-67990891D01*
X115284883Y-68219943D01*
X115547673Y-68483192D01*
X115891201Y-68625838D01*
X116263167Y-68626162D01*
X116606943Y-68484117D01*
X116870192Y-68221327D01*
X117012838Y-67877799D01*
X117013162Y-67505833D01*
X116871117Y-67162057D01*
X116657000Y-66947566D01*
X116657000Y-66327000D01*
X116672002Y-66327000D01*
X116672002Y-66195252D01*
X116803750Y-66327000D01*
X116871310Y-66327000D01*
X117104699Y-66230327D01*
X117283327Y-66051698D01*
X117380000Y-65818309D01*
X117380000Y-65427750D01*
X117221250Y-65269000D01*
X116742440Y-65269000D01*
X116742440Y-65015000D01*
X117221250Y-65015000D01*
X117380000Y-64856250D01*
X117380000Y-64465691D01*
X117283327Y-64232302D01*
X117104699Y-64053673D01*
X116994435Y-64008000D01*
X129540000Y-64008000D01*
X129831605Y-63949996D01*
X130078815Y-63784815D01*
X130948190Y-62915440D01*
X132118000Y-62915440D01*
X132353317Y-62871162D01*
X132569441Y-62732090D01*
X132714431Y-62519890D01*
X132723370Y-62475745D01*
X132989861Y-62475745D01*
X133063995Y-62721864D01*
X133601223Y-62914965D01*
X134171454Y-62887778D01*
X134572005Y-62721864D01*
X134646139Y-62475745D01*
X133818000Y-61647605D01*
X132989861Y-62475745D01*
X132723370Y-62475745D01*
X132762646Y-62281799D01*
X132810255Y-62296139D01*
X133638395Y-61468000D01*
X133997605Y-61468000D01*
X134825745Y-62296139D01*
X135071864Y-62222005D01*
X135264965Y-61684777D01*
X135237778Y-61114546D01*
X135071864Y-60713995D01*
X134825745Y-60639861D01*
X133997605Y-61468000D01*
X133638395Y-61468000D01*
X132810255Y-60639861D01*
X132762833Y-60654145D01*
X132726351Y-60460255D01*
X132989861Y-60460255D01*
X133818000Y-61288395D01*
X134646139Y-60460255D01*
X134572005Y-60214136D01*
X134034777Y-60021035D01*
X133464546Y-60048222D01*
X133063995Y-60214136D01*
X132989861Y-60460255D01*
X132726351Y-60460255D01*
X132721162Y-60432683D01*
X132582090Y-60216559D01*
X132369890Y-60071569D01*
X132118000Y-60020560D01*
X132080000Y-60020560D01*
X132080000Y-55050366D01*
X132203317Y-55027162D01*
X132419441Y-54888090D01*
X132564431Y-54675890D01*
X132615440Y-54424000D01*
X132615440Y-52924000D01*
X132571162Y-52688683D01*
X132432090Y-52472559D01*
X132219890Y-52327569D01*
X132206803Y-52324919D01*
X132419441Y-52188090D01*
X132564431Y-51975890D01*
X132615440Y-51724000D01*
X132615440Y-50224000D01*
X132571162Y-49988683D01*
X132432090Y-49772559D01*
X132219890Y-49627569D01*
X131968000Y-49576560D01*
X130935600Y-49576560D01*
X130982838Y-49462799D01*
X130983162Y-49090833D01*
X130841117Y-48747057D01*
X130578327Y-48483808D01*
X130234799Y-48341162D01*
X129862833Y-48340838D01*
X129519057Y-48482883D01*
X129255808Y-48745673D01*
X129113162Y-49089201D01*
X129113124Y-49133246D01*
X128716370Y-49530000D01*
X110871000Y-49530000D01*
X110579395Y-49588004D01*
X110520182Y-49627569D01*
X110332185Y-49753184D01*
X109626185Y-50459185D01*
X109461004Y-50706395D01*
X109448949Y-50767000D01*
X109387998Y-50767000D01*
X109387998Y-50898748D01*
X109256250Y-50767000D01*
X109188690Y-50767000D01*
X108955301Y-50863673D01*
X108776673Y-51042302D01*
X108680000Y-51275691D01*
X108680000Y-51666250D01*
X108838750Y-51825000D01*
X109317560Y-51825000D01*
X109317560Y-52079000D01*
X108838750Y-52079000D01*
X108680000Y-52237750D01*
X108680000Y-52628309D01*
X108776673Y-52861698D01*
X108955301Y-53040327D01*
X109188690Y-53137000D01*
X109256250Y-53137000D01*
X109415000Y-52978250D01*
X109415000Y-52819933D01*
X109500910Y-52953441D01*
X109713110Y-53098431D01*
X109740785Y-53104035D01*
X109773750Y-53137000D01*
X109841310Y-53137000D01*
X109861753Y-53128532D01*
X109965000Y-53149440D01*
X109983930Y-53149440D01*
X109666370Y-53467000D01*
X108077000Y-53467000D01*
X107785395Y-53525004D01*
X107538184Y-53690185D01*
X106727255Y-54501114D01*
X106711117Y-54462057D01*
X106448327Y-54198808D01*
X106104799Y-54056162D01*
X105732833Y-54055838D01*
X105389057Y-54197883D01*
X105125808Y-54460673D01*
X104983162Y-54804201D01*
X104983124Y-54848246D01*
X102634370Y-57197000D01*
X93878182Y-57197000D01*
X93836162Y-56973683D01*
X93697090Y-56757559D01*
X93484890Y-56612569D01*
X93233000Y-56561560D01*
X91933000Y-56561560D01*
X91697683Y-56605838D01*
X91481559Y-56744910D01*
X91336569Y-56957110D01*
X91285560Y-57209000D01*
X91285560Y-58178810D01*
X90922000Y-58542370D01*
X90922000Y-58471750D01*
X90763250Y-58313000D01*
X89789000Y-58313000D01*
X89789000Y-58333000D01*
X89535000Y-58333000D01*
X89535000Y-58313000D01*
X88560750Y-58313000D01*
X88402000Y-58471750D01*
X88402000Y-58785054D01*
X88255000Y-58883277D01*
X88255000Y-58471750D01*
X88096250Y-58313000D01*
X87122000Y-58313000D01*
X87122000Y-58333000D01*
X86868000Y-58333000D01*
X86868000Y-58313000D01*
X85893750Y-58313000D01*
X85735000Y-58471750D01*
X85735000Y-59062309D01*
X85831673Y-59295698D01*
X85972910Y-59436936D01*
X85918559Y-59471910D01*
X85773569Y-59684110D01*
X85722560Y-59936000D01*
X85722560Y-61436000D01*
X85766838Y-61671317D01*
X85905910Y-61887441D01*
X86118110Y-62032431D01*
X86186500Y-62046280D01*
X86186500Y-62838779D01*
X86164985Y-62847669D01*
X85775039Y-63236936D01*
X85563741Y-63745798D01*
X85563260Y-64296785D01*
X84836000Y-64296785D01*
X84836000Y-57309691D01*
X85735000Y-57309691D01*
X85735000Y-57900250D01*
X85893750Y-58059000D01*
X86868000Y-58059000D01*
X86868000Y-56959750D01*
X87122000Y-56959750D01*
X87122000Y-58059000D01*
X88096250Y-58059000D01*
X88255000Y-57900250D01*
X88255000Y-57309691D01*
X88402000Y-57309691D01*
X88402000Y-57900250D01*
X88560750Y-58059000D01*
X89535000Y-58059000D01*
X89535000Y-56959750D01*
X89789000Y-56959750D01*
X89789000Y-58059000D01*
X90763250Y-58059000D01*
X90922000Y-57900250D01*
X90922000Y-57309691D01*
X90825327Y-57076302D01*
X90646699Y-56897673D01*
X90413310Y-56801000D01*
X89947750Y-56801000D01*
X89789000Y-56959750D01*
X89535000Y-56959750D01*
X89376250Y-56801000D01*
X88910690Y-56801000D01*
X88677301Y-56897673D01*
X88498673Y-57076302D01*
X88402000Y-57309691D01*
X88255000Y-57309691D01*
X88158327Y-57076302D01*
X87979699Y-56897673D01*
X87746310Y-56801000D01*
X87280750Y-56801000D01*
X87122000Y-56959750D01*
X86868000Y-56959750D01*
X86709250Y-56801000D01*
X86243690Y-56801000D01*
X86010301Y-56897673D01*
X85831673Y-57076302D01*
X85735000Y-57309691D01*
X84836000Y-57309691D01*
X84836000Y-48765482D01*
X87858336Y-48765482D01*
X88440950Y-50175515D01*
X89518811Y-51255259D01*
X90927825Y-51840333D01*
X92453482Y-51841664D01*
X93863515Y-51259050D01*
X94943259Y-50181189D01*
X95528333Y-48772175D01*
X95529664Y-47246518D01*
X95121940Y-46259750D01*
X108363000Y-46259750D01*
X108363000Y-46725310D01*
X108459673Y-46958699D01*
X108638302Y-47137327D01*
X108871691Y-47234000D01*
X109462250Y-47234000D01*
X109621000Y-47075250D01*
X109621000Y-46101000D01*
X108521750Y-46101000D01*
X108363000Y-46259750D01*
X95121940Y-46259750D01*
X94947050Y-45836485D01*
X94334326Y-45222690D01*
X108363000Y-45222690D01*
X108363000Y-45688250D01*
X108521750Y-45847000D01*
X109621000Y-45847000D01*
X109621000Y-44872750D01*
X109462250Y-44714000D01*
X108871691Y-44714000D01*
X108638302Y-44810673D01*
X108459673Y-44989301D01*
X108363000Y-45222690D01*
X94334326Y-45222690D01*
X93869189Y-44756741D01*
X92460175Y-44171667D01*
X90934518Y-44170336D01*
X89524485Y-44752950D01*
X88444741Y-45830811D01*
X87859667Y-47239825D01*
X87858336Y-48765482D01*
X84836000Y-48765482D01*
X84836000Y-42296785D01*
X85563260Y-42296785D01*
X85773669Y-42806015D01*
X86162936Y-43195961D01*
X86671798Y-43407259D01*
X87222785Y-43407740D01*
X87732015Y-43197331D01*
X87948536Y-42981187D01*
X88162936Y-43195961D01*
X88671798Y-43407259D01*
X89222785Y-43407740D01*
X89732015Y-43197331D01*
X89948536Y-42981187D01*
X90162936Y-43195961D01*
X90671798Y-43407259D01*
X91222785Y-43407740D01*
X91732015Y-43197331D01*
X91948536Y-42981187D01*
X92162936Y-43195961D01*
X92671798Y-43407259D01*
X93222785Y-43407740D01*
X93732015Y-43197331D01*
X93948536Y-42981187D01*
X94162936Y-43195961D01*
X94671798Y-43407259D01*
X95222785Y-43407740D01*
X95732015Y-43197331D01*
X95948536Y-42981187D01*
X96162936Y-43195961D01*
X96671798Y-43407259D01*
X97222785Y-43407740D01*
X97732015Y-43197331D01*
X97948536Y-42981187D01*
X98162936Y-43195961D01*
X98671798Y-43407259D01*
X99222785Y-43407740D01*
X99732015Y-43197331D01*
X99948536Y-42981187D01*
X100162936Y-43195961D01*
X100671798Y-43407259D01*
X101222785Y-43407740D01*
X101732015Y-43197331D01*
X101948536Y-42981187D01*
X102162936Y-43195961D01*
X102671798Y-43407259D01*
X103222785Y-43407740D01*
X103732015Y-43197331D01*
X103948536Y-42981187D01*
X104162936Y-43195961D01*
X104671798Y-43407259D01*
X105222785Y-43407740D01*
X105732015Y-43197331D01*
X106121961Y-42808064D01*
X106333259Y-42299202D01*
X106333571Y-41941750D01*
X108363000Y-41941750D01*
X108363000Y-42407310D01*
X108459673Y-42640699D01*
X108638302Y-42819327D01*
X108871691Y-42916000D01*
X109462250Y-42916000D01*
X109621000Y-42757250D01*
X109621000Y-41783000D01*
X108521750Y-41783000D01*
X108363000Y-41941750D01*
X106333571Y-41941750D01*
X106333740Y-41748215D01*
X106123331Y-41238985D01*
X105789619Y-40904690D01*
X108363000Y-40904690D01*
X108363000Y-41370250D01*
X108521750Y-41529000D01*
X109621000Y-41529000D01*
X109621000Y-40554750D01*
X109875000Y-40554750D01*
X109875000Y-41529000D01*
X109895000Y-41529000D01*
X109895000Y-41783000D01*
X109875000Y-41783000D01*
X109875000Y-42757250D01*
X110033750Y-42916000D01*
X110624309Y-42916000D01*
X110857698Y-42819327D01*
X110998936Y-42678090D01*
X111033910Y-42732441D01*
X111246110Y-42877431D01*
X111247945Y-42877803D01*
X111094808Y-43030673D01*
X110952162Y-43374201D01*
X110951838Y-43746167D01*
X111093883Y-44089943D01*
X111356673Y-44353192D01*
X111700201Y-44495838D01*
X112072167Y-44496162D01*
X112415943Y-44354117D01*
X112447114Y-44323000D01*
X112572000Y-44323000D01*
X112863605Y-44264996D01*
X113110815Y-44099815D01*
X114475190Y-42735440D01*
X114605707Y-42735440D01*
X114706185Y-42885815D01*
X115285666Y-43465296D01*
X115151395Y-43492004D01*
X114904185Y-43657185D01*
X114056185Y-44505185D01*
X113891004Y-44752395D01*
X113849354Y-44961784D01*
X113798569Y-45036110D01*
X113762950Y-45212000D01*
X113619662Y-45212000D01*
X113601162Y-45113683D01*
X113462090Y-44897559D01*
X113249890Y-44752569D01*
X112998000Y-44701560D01*
X111498000Y-44701560D01*
X111262683Y-44745838D01*
X111046559Y-44884910D01*
X111000031Y-44953006D01*
X110857698Y-44810673D01*
X110624309Y-44714000D01*
X110033750Y-44714000D01*
X109875000Y-44872750D01*
X109875000Y-45847000D01*
X109895000Y-45847000D01*
X109895000Y-46101000D01*
X109875000Y-46101000D01*
X109875000Y-47075250D01*
X110033750Y-47234000D01*
X110624309Y-47234000D01*
X110857698Y-47137327D01*
X110998936Y-46996090D01*
X111033910Y-47050441D01*
X111246110Y-47195431D01*
X111498000Y-47246440D01*
X112998000Y-47246440D01*
X113233317Y-47202162D01*
X113449441Y-47063090D01*
X113594431Y-46850890D01*
X113617697Y-46736000D01*
X113864348Y-46736000D01*
X113930910Y-46839441D01*
X114143110Y-46984431D01*
X114395000Y-47035440D01*
X114483000Y-47035440D01*
X114483000Y-47446949D01*
X114381162Y-47692201D01*
X114380838Y-48064167D01*
X114522883Y-48407943D01*
X114785673Y-48671192D01*
X115129201Y-48813838D01*
X115501167Y-48814162D01*
X115545693Y-48795764D01*
X115801673Y-49052192D01*
X116145201Y-49194838D01*
X116517167Y-49195162D01*
X116860943Y-49053117D01*
X117124192Y-48790327D01*
X117266838Y-48446799D01*
X117267162Y-48074833D01*
X117125117Y-47731057D01*
X116862327Y-47467808D01*
X116657000Y-47382548D01*
X116657000Y-47023000D01*
X116672002Y-47023000D01*
X116672002Y-46891252D01*
X116803750Y-47023000D01*
X116871310Y-47023000D01*
X117104699Y-46926327D01*
X117283327Y-46747698D01*
X117380000Y-46514309D01*
X117380000Y-46123750D01*
X117221250Y-45965000D01*
X116742440Y-45965000D01*
X116742440Y-45711000D01*
X117221250Y-45711000D01*
X117380000Y-45552250D01*
X117380000Y-45161691D01*
X117367340Y-45131128D01*
X117406167Y-45131162D01*
X117749943Y-44989117D01*
X118013192Y-44726327D01*
X118155838Y-44382799D01*
X118156162Y-44010833D01*
X118014117Y-43667057D01*
X117973705Y-43626574D01*
X118028838Y-43493799D01*
X118029162Y-43121833D01*
X117887117Y-42778057D01*
X117624327Y-42514808D01*
X117309652Y-42384143D01*
X117380000Y-42214309D01*
X117380000Y-41823750D01*
X117221250Y-41665000D01*
X116742440Y-41665000D01*
X116742440Y-41411000D01*
X117221250Y-41411000D01*
X117380000Y-41252250D01*
X117380000Y-40861691D01*
X117283327Y-40628302D01*
X117104699Y-40449673D01*
X116871310Y-40353000D01*
X116803750Y-40353000D01*
X116645000Y-40511750D01*
X116645000Y-40670067D01*
X116559090Y-40536559D01*
X116346890Y-40391569D01*
X116319215Y-40385965D01*
X116286250Y-40353000D01*
X116218690Y-40353000D01*
X116198247Y-40361468D01*
X116095000Y-40340560D01*
X115695000Y-40340560D01*
X115565411Y-40364944D01*
X115445000Y-40340560D01*
X115045000Y-40340560D01*
X114915411Y-40364944D01*
X114795000Y-40340560D01*
X114395000Y-40340560D01*
X114159683Y-40384838D01*
X113943559Y-40523910D01*
X113798569Y-40736110D01*
X113766595Y-40894000D01*
X113619662Y-40894000D01*
X113601162Y-40795683D01*
X113462090Y-40579559D01*
X113249890Y-40434569D01*
X112998000Y-40383560D01*
X111498000Y-40383560D01*
X111262683Y-40427838D01*
X111046559Y-40566910D01*
X111000031Y-40635006D01*
X110857698Y-40492673D01*
X110624309Y-40396000D01*
X110033750Y-40396000D01*
X109875000Y-40554750D01*
X109621000Y-40554750D01*
X109462250Y-40396000D01*
X108871691Y-40396000D01*
X108638302Y-40492673D01*
X108459673Y-40671301D01*
X108363000Y-40904690D01*
X105789619Y-40904690D01*
X105734064Y-40849039D01*
X105225202Y-40637741D01*
X104674215Y-40637260D01*
X104164985Y-40847669D01*
X103948464Y-41063813D01*
X103734064Y-40849039D01*
X103225202Y-40637741D01*
X102674215Y-40637260D01*
X102164985Y-40847669D01*
X101948464Y-41063813D01*
X101734064Y-40849039D01*
X101225202Y-40637741D01*
X100674215Y-40637260D01*
X100164985Y-40847669D01*
X99948464Y-41063813D01*
X99734064Y-40849039D01*
X99225202Y-40637741D01*
X98674215Y-40637260D01*
X98164985Y-40847669D01*
X97948464Y-41063813D01*
X97734064Y-40849039D01*
X97225202Y-40637741D01*
X96674215Y-40637260D01*
X96164985Y-40847669D01*
X95948464Y-41063813D01*
X95734064Y-40849039D01*
X95225202Y-40637741D01*
X94674215Y-40637260D01*
X94164985Y-40847669D01*
X93948464Y-41063813D01*
X93734064Y-40849039D01*
X93225202Y-40637741D01*
X92674215Y-40637260D01*
X92164985Y-40847669D01*
X91948464Y-41063813D01*
X91734064Y-40849039D01*
X91225202Y-40637741D01*
X90674215Y-40637260D01*
X90164985Y-40847669D01*
X89948464Y-41063813D01*
X89734064Y-40849039D01*
X89225202Y-40637741D01*
X88674215Y-40637260D01*
X88164985Y-40847669D01*
X87948464Y-41063813D01*
X87734064Y-40849039D01*
X87225202Y-40637741D01*
X86674215Y-40637260D01*
X86164985Y-40847669D01*
X85775039Y-41236936D01*
X85563741Y-41745798D01*
X85563260Y-42296785D01*
X84836000Y-42296785D01*
X84836000Y-39878000D01*
X135382000Y-39878000D01*
X135382000Y-93537369D01*
X135382000Y-93537369D01*
G37*
X135382000Y-93537369D02*
X135024228Y-93179597D01*
X135067113Y-92964000D01*
X134957880Y-92414849D01*
X134646811Y-91949302D01*
X134264725Y-91694000D01*
X134646811Y-91438698D01*
X134957880Y-90973151D01*
X135067113Y-90424000D01*
X134957880Y-89874849D01*
X134646811Y-89409302D01*
X134264725Y-89154000D01*
X134646811Y-88898698D01*
X134957880Y-88433151D01*
X135067113Y-87884000D01*
X134957880Y-87334849D01*
X134646811Y-86869302D01*
X134264725Y-86614000D01*
X134646811Y-86358698D01*
X134957880Y-85893151D01*
X135067113Y-85344000D01*
X134957880Y-84794849D01*
X134646811Y-84329302D01*
X134242297Y-84059014D01*
X134459134Y-83956389D01*
X134835041Y-83541423D01*
X134995904Y-83153039D01*
X134873915Y-82931000D01*
X133731000Y-82931000D01*
X133731000Y-82951000D01*
X133477000Y-82951000D01*
X133477000Y-82931000D01*
X132334085Y-82931000D01*
X132212096Y-83153039D01*
X132372959Y-83541423D01*
X132748866Y-83956389D01*
X132965703Y-84059014D01*
X132561189Y-84329302D01*
X132250120Y-84794849D01*
X132140887Y-85344000D01*
X132250120Y-85893151D01*
X132561189Y-86358698D01*
X132943275Y-86614000D01*
X132561189Y-86869302D01*
X132477200Y-86995000D01*
X128765236Y-86995000D01*
X126873000Y-85102764D01*
X126873000Y-81153000D01*
X126805329Y-80812794D01*
X126612618Y-80524382D01*
X125937440Y-79849204D01*
X125937440Y-79614000D01*
X125893162Y-79378683D01*
X125754090Y-79162559D01*
X125541890Y-79017569D01*
X125290000Y-78966560D01*
X125145857Y-78966560D01*
X125267838Y-78672799D01*
X125268162Y-78300833D01*
X125239721Y-78232000D01*
X130135160Y-78232000D01*
X132145246Y-80242087D01*
X132140887Y-80264000D01*
X132250120Y-80813151D01*
X132561189Y-81278698D01*
X132965703Y-81548986D01*
X132748866Y-81651611D01*
X132372959Y-82066577D01*
X132212096Y-82454961D01*
X132334085Y-82677000D01*
X133477000Y-82677000D01*
X133477000Y-82657000D01*
X133731000Y-82657000D01*
X133731000Y-82677000D01*
X134873915Y-82677000D01*
X134995904Y-82454961D01*
X134835041Y-82066577D01*
X134459134Y-81651611D01*
X134242297Y-81548986D01*
X134646811Y-81278698D01*
X134957880Y-80813151D01*
X135067113Y-80264000D01*
X134957880Y-79714849D01*
X134646811Y-79249302D01*
X134181264Y-78938233D01*
X133632113Y-78829000D01*
X133605841Y-78829000D01*
X131274420Y-76497580D01*
X130944807Y-76277338D01*
X130880300Y-76264507D01*
X130556000Y-76200000D01*
X116840000Y-76200000D01*
X116515700Y-76264507D01*
X116451193Y-76277338D01*
X116121580Y-76497579D01*
X114387160Y-78232000D01*
X112688841Y-78232000D01*
X112986421Y-77934420D01*
X113136107Y-77710400D01*
X113153317Y-77707162D01*
X113369441Y-77568090D01*
X113514431Y-77355890D01*
X113565440Y-77104000D01*
X113565440Y-75804000D01*
X113521162Y-75568683D01*
X113382090Y-75352559D01*
X113169890Y-75207569D01*
X112918000Y-75156560D01*
X112659046Y-75156560D01*
X112931729Y-75043611D01*
X112987410Y-74813016D01*
X112268000Y-74093605D01*
X111548590Y-74813016D01*
X111604271Y-75043611D01*
X111928848Y-75156560D01*
X111618000Y-75156560D01*
X111382683Y-75200838D01*
X111166559Y-75339910D01*
X111028182Y-75542431D01*
X110922090Y-75377559D01*
X110709890Y-75232569D01*
X110458000Y-75181560D01*
X108958000Y-75181560D01*
X108722683Y-75225838D01*
X108506559Y-75364910D01*
X108460031Y-75433006D01*
X108317698Y-75290673D01*
X108084309Y-75194000D01*
X107493750Y-75194000D01*
X107335000Y-75352750D01*
X107335000Y-76327000D01*
X107355000Y-76327000D01*
X107355000Y-76581000D01*
X107335000Y-76581000D01*
X107335000Y-77555250D01*
X107493750Y-77714000D01*
X108084309Y-77714000D01*
X108317698Y-77617327D01*
X108458936Y-77476090D01*
X108493910Y-77530441D01*
X108706110Y-77675431D01*
X108958000Y-77726440D01*
X110320720Y-77726440D01*
X109815160Y-78232000D01*
X93384840Y-78232000D01*
X95240841Y-76376000D01*
X99041129Y-76376000D01*
X99073630Y-76454658D01*
X99617479Y-76999457D01*
X100328416Y-77294663D01*
X101098207Y-77295335D01*
X101809658Y-77001370D01*
X102071735Y-76739750D01*
X105823000Y-76739750D01*
X105823000Y-77205310D01*
X105919673Y-77438699D01*
X106098302Y-77617327D01*
X106331691Y-77714000D01*
X106922250Y-77714000D01*
X107081000Y-77555250D01*
X107081000Y-76581000D01*
X105981750Y-76581000D01*
X105823000Y-76739750D01*
X102071735Y-76739750D01*
X102354457Y-76457521D01*
X102649663Y-75746584D01*
X102649701Y-75702690D01*
X105823000Y-75702690D01*
X105823000Y-76168250D01*
X105981750Y-76327000D01*
X107081000Y-76327000D01*
X107081000Y-75352750D01*
X106922250Y-75194000D01*
X106331691Y-75194000D01*
X106098302Y-75290673D01*
X105919673Y-75469301D01*
X105823000Y-75702690D01*
X102649701Y-75702690D01*
X102650335Y-74976793D01*
X102356370Y-74265342D01*
X101825035Y-73733078D01*
X110970378Y-73733078D01*
X110999917Y-74243428D01*
X111138389Y-74577729D01*
X111368984Y-74633410D01*
X112088395Y-73914000D01*
X112447605Y-73914000D01*
X113167016Y-74633410D01*
X113397611Y-74577729D01*
X113565622Y-74094922D01*
X113536083Y-73584572D01*
X113397611Y-73250271D01*
X113167016Y-73194590D01*
X112447605Y-73914000D01*
X112088395Y-73914000D01*
X111368984Y-73194590D01*
X111138389Y-73250271D01*
X110970378Y-73733078D01*
X101825035Y-73733078D01*
X101812521Y-73720543D01*
X101731000Y-73686693D01*
X101731000Y-73633871D01*
X101809658Y-73601370D01*
X102354457Y-73057521D01*
X102649663Y-72346584D01*
X102650262Y-71659750D01*
X105823000Y-71659750D01*
X105823000Y-72125310D01*
X105919673Y-72358699D01*
X106098302Y-72537327D01*
X106331691Y-72634000D01*
X106922250Y-72634000D01*
X107081000Y-72475250D01*
X107081000Y-71501000D01*
X105981750Y-71501000D01*
X105823000Y-71659750D01*
X102650262Y-71659750D01*
X102650335Y-71576793D01*
X102356370Y-70865342D01*
X102114142Y-70622690D01*
X105823000Y-70622690D01*
X105823000Y-71088250D01*
X105981750Y-71247000D01*
X107081000Y-71247000D01*
X107081000Y-70272750D01*
X107335000Y-70272750D01*
X107335000Y-71247000D01*
X107355000Y-71247000D01*
X107355000Y-71501000D01*
X107335000Y-71501000D01*
X107335000Y-72475250D01*
X107493750Y-72634000D01*
X108084309Y-72634000D01*
X108317698Y-72537327D01*
X108458936Y-72396090D01*
X108493910Y-72450441D01*
X108706110Y-72595431D01*
X108958000Y-72646440D01*
X110458000Y-72646440D01*
X110693317Y-72602162D01*
X110909441Y-72463090D01*
X111046157Y-72263000D01*
X111339769Y-72263000D01*
X111539155Y-72462735D01*
X111975200Y-72643797D01*
X111938572Y-72645917D01*
X111604271Y-72784389D01*
X111548590Y-73014984D01*
X112268000Y-73734395D01*
X112987410Y-73014984D01*
X112931729Y-72784389D01*
X112545140Y-72649861D01*
X112994943Y-72464005D01*
X113356735Y-72102845D01*
X113552777Y-71630724D01*
X113553223Y-71119519D01*
X113447431Y-70863482D01*
X126974336Y-70863482D01*
X127556950Y-72273515D01*
X128634811Y-73353259D01*
X130043825Y-73938333D01*
X131569482Y-73939664D01*
X132979515Y-73357050D01*
X134059259Y-72279189D01*
X134644333Y-70870175D01*
X134645664Y-69344518D01*
X134063050Y-67934485D01*
X132985189Y-66854741D01*
X131576175Y-66269667D01*
X130050518Y-66268336D01*
X128640485Y-66850950D01*
X127560741Y-67928811D01*
X126975667Y-69337825D01*
X126974336Y-70863482D01*
X113447431Y-70863482D01*
X113358005Y-70647057D01*
X112996845Y-70285265D01*
X112524724Y-70089223D01*
X112013519Y-70088777D01*
X111541057Y-70283995D01*
X111339700Y-70485000D01*
X111042705Y-70485000D01*
X110922090Y-70297559D01*
X110709890Y-70152569D01*
X110458000Y-70101560D01*
X108958000Y-70101560D01*
X108722683Y-70145838D01*
X108506559Y-70284910D01*
X108460031Y-70353006D01*
X108317698Y-70210673D01*
X108084309Y-70114000D01*
X107493750Y-70114000D01*
X107335000Y-70272750D01*
X107081000Y-70272750D01*
X106922250Y-70114000D01*
X106331691Y-70114000D01*
X106098302Y-70210673D01*
X105919673Y-70389301D01*
X105823000Y-70622690D01*
X102114142Y-70622690D01*
X101812521Y-70320543D01*
X101101584Y-70025337D01*
X100331793Y-70024665D01*
X99620342Y-70318630D01*
X99075543Y-70862479D01*
X98780337Y-71573416D01*
X98779665Y-72343207D01*
X99073630Y-73054658D01*
X99617479Y-73599457D01*
X99699000Y-73633307D01*
X99699000Y-73686129D01*
X99620342Y-73718630D01*
X99075543Y-74262479D01*
X99041693Y-74344000D01*
X94820000Y-74344000D01*
X94431194Y-74421338D01*
X94431192Y-74421339D01*
X94431193Y-74421339D01*
X94101579Y-74641580D01*
X90213582Y-78529578D01*
X90213579Y-78529580D01*
X88689580Y-80053580D01*
X88469338Y-80383193D01*
X88469338Y-80383194D01*
X88392000Y-80772000D01*
X88392000Y-88900000D01*
X88469338Y-89288806D01*
X88689580Y-89618420D01*
X89019194Y-89838662D01*
X89408000Y-89916000D01*
X89796806Y-89838662D01*
X90126420Y-89618420D01*
X90346662Y-89288806D01*
X90424000Y-88900000D01*
X90424000Y-85187019D01*
X90543193Y-85266661D01*
X90932000Y-85343999D01*
X91320807Y-85266661D01*
X91650420Y-85046420D01*
X91764357Y-84875902D01*
X92081443Y-85193542D01*
X93049567Y-85595542D01*
X94097834Y-85596457D01*
X95066658Y-85196147D01*
X95808542Y-84455557D01*
X96210542Y-83487433D01*
X96211457Y-82439166D01*
X95811147Y-81470342D01*
X95070557Y-80728458D01*
X94102433Y-80326458D01*
X93054166Y-80325543D01*
X92085342Y-80725853D01*
X91343458Y-81466443D01*
X90941458Y-82434567D01*
X90941052Y-82900211D01*
X90424000Y-82383160D01*
X90424000Y-81192840D01*
X91352841Y-80264000D01*
X109815160Y-80264000D01*
X111252000Y-81700841D01*
X111252000Y-82294387D01*
X111132683Y-82316838D01*
X110916559Y-82455910D01*
X110777402Y-82659574D01*
X110743110Y-82625282D01*
X110628553Y-82739839D01*
X110542148Y-82483357D01*
X109968664Y-82273542D01*
X109358540Y-82299161D01*
X108913852Y-82483357D01*
X108827446Y-82739841D01*
X109728000Y-83640395D01*
X109742143Y-83626253D01*
X109921748Y-83805858D01*
X109907605Y-83820000D01*
X109921748Y-83834143D01*
X109742143Y-84013748D01*
X109728000Y-83999605D01*
X108827446Y-84900159D01*
X108913852Y-85156643D01*
X109487336Y-85366458D01*
X110097460Y-85340839D01*
X110542148Y-85156643D01*
X110628553Y-84900161D01*
X110743110Y-85014718D01*
X110779588Y-84978240D01*
X110903910Y-85171441D01*
X111116110Y-85316431D01*
X111368000Y-85367440D01*
X113168000Y-85367440D01*
X113403317Y-85323162D01*
X113619441Y-85184090D01*
X113764431Y-84971890D01*
X113815440Y-84720000D01*
X113815440Y-82920000D01*
X113771162Y-82684683D01*
X113632090Y-82468559D01*
X113419890Y-82323569D01*
X113284000Y-82296051D01*
X113284000Y-81280000D01*
X113219493Y-80955700D01*
X113206662Y-80891193D01*
X112986421Y-80561580D01*
X112688841Y-80264000D01*
X114808000Y-80264000D01*
X115132300Y-80199493D01*
X115196807Y-80186662D01*
X115526420Y-79966420D01*
X117260841Y-78232000D01*
X123426066Y-78232000D01*
X123398162Y-78299201D01*
X123398124Y-78343246D01*
X122743688Y-78997682D01*
X122590000Y-78966560D01*
X121090000Y-78966560D01*
X120854683Y-79010838D01*
X120638559Y-79149910D01*
X120493569Y-79362110D01*
X120490959Y-79375000D01*
X119794693Y-79375000D01*
X119767162Y-79228683D01*
X119628090Y-79012559D01*
X119415890Y-78867569D01*
X119164000Y-78816560D01*
X117564000Y-78816560D01*
X117328683Y-78860838D01*
X117112559Y-78999910D01*
X116967569Y-79212110D01*
X116916560Y-79464000D01*
X116916560Y-81064000D01*
X116960838Y-81299317D01*
X117099910Y-81515441D01*
X117312110Y-81660431D01*
X117467089Y-81691815D01*
X117321189Y-81789302D01*
X117010120Y-82254849D01*
X116900887Y-82804000D01*
X117010120Y-83353151D01*
X117321189Y-83818698D01*
X117703275Y-84074000D01*
X117321189Y-84329302D01*
X117010120Y-84794849D01*
X116900887Y-85344000D01*
X117010120Y-85893151D01*
X117321189Y-86358698D01*
X117725703Y-86628986D01*
X117508866Y-86731611D01*
X117132959Y-87146577D01*
X116972096Y-87534961D01*
X117094085Y-87757000D01*
X118237000Y-87757000D01*
X118237000Y-87737000D01*
X118491000Y-87737000D01*
X118491000Y-87757000D01*
X119633915Y-87757000D01*
X119755904Y-87534961D01*
X119595041Y-87146577D01*
X119219134Y-86731611D01*
X119002297Y-86628986D01*
X119406811Y-86358698D01*
X119717880Y-85893151D01*
X119827113Y-85344000D01*
X119717880Y-84794849D01*
X119406811Y-84329302D01*
X119024725Y-84074000D01*
X119406811Y-83818698D01*
X119575659Y-83566000D01*
X121920000Y-83566000D01*
X122211605Y-83507996D01*
X122458815Y-83342815D01*
X122824751Y-82976880D01*
X122763162Y-83125201D01*
X122762838Y-83497167D01*
X122904883Y-83840943D01*
X122936000Y-83872114D01*
X122936000Y-87695369D01*
X119732694Y-90898676D01*
X119827113Y-90424000D01*
X119717880Y-89874849D01*
X119406811Y-89409302D01*
X119002297Y-89139014D01*
X119219134Y-89036389D01*
X119595041Y-88621423D01*
X119755904Y-88233039D01*
X119633915Y-88011000D01*
X118491000Y-88011000D01*
X118491000Y-88031000D01*
X118237000Y-88031000D01*
X118237000Y-88011000D01*
X117094085Y-88011000D01*
X116972096Y-88233039D01*
X117132959Y-88621423D01*
X117508866Y-89036389D01*
X117725703Y-89139014D01*
X117321189Y-89409302D01*
X117098975Y-89741869D01*
X116862327Y-89504808D01*
X116518799Y-89362162D01*
X116146833Y-89361838D01*
X115803057Y-89503883D01*
X115539808Y-89766673D01*
X115470313Y-89934035D01*
X115226000Y-89884560D01*
X115038000Y-89884560D01*
X115038000Y-89747630D01*
X115331505Y-89454125D01*
X115374167Y-89454162D01*
X115717943Y-89312117D01*
X115981192Y-89049327D01*
X116123838Y-88705799D01*
X116124162Y-88333833D01*
X115982117Y-87990057D01*
X115719327Y-87726808D01*
X115375799Y-87584162D01*
X115003833Y-87583838D01*
X114660057Y-87725883D01*
X114396808Y-87988673D01*
X114254162Y-88332201D01*
X114254124Y-88376246D01*
X113737185Y-88893185D01*
X113572004Y-89140395D01*
X113514000Y-89432000D01*
X113514000Y-89884560D01*
X113326000Y-89884560D01*
X113090683Y-89928838D01*
X112874559Y-90067910D01*
X112873440Y-90069548D01*
X112873440Y-89582000D01*
X112829162Y-89346683D01*
X112690090Y-89130559D01*
X112477890Y-88985569D01*
X112226000Y-88934560D01*
X110326000Y-88934560D01*
X110090683Y-88978838D01*
X109874559Y-89117910D01*
X109729569Y-89330110D01*
X109693590Y-89507780D01*
X108950495Y-90250875D01*
X108907833Y-90250838D01*
X108564057Y-90392883D01*
X108454426Y-90502323D01*
X108441864Y-90471995D01*
X108195745Y-90397861D01*
X107367605Y-91226000D01*
X108195745Y-92054139D01*
X108441864Y-91980005D01*
X108474326Y-91889691D01*
X108562673Y-91978192D01*
X108906201Y-92120838D01*
X109278167Y-92121162D01*
X109444483Y-92052442D01*
X109189808Y-92306673D01*
X109047162Y-92650201D01*
X109046838Y-93022167D01*
X109188883Y-93365943D01*
X109451673Y-93629192D01*
X109795201Y-93771838D01*
X110141147Y-93772139D01*
X109970559Y-93881910D01*
X109825569Y-94094110D01*
X109774560Y-94346000D01*
X109774560Y-95646000D01*
X109818838Y-95881317D01*
X109957910Y-96097441D01*
X110170110Y-96242431D01*
X110422000Y-96293440D01*
X111035652Y-96293440D01*
X111488772Y-96746560D01*
X110422000Y-96746560D01*
X110186683Y-96790838D01*
X109970559Y-96929910D01*
X109825569Y-97142110D01*
X109797241Y-97282000D01*
X107696000Y-97282000D01*
X107404395Y-97340004D01*
X107206857Y-97471995D01*
X107157185Y-97505185D01*
X106537495Y-98124875D01*
X106494833Y-98124838D01*
X106151057Y-98266883D01*
X105887808Y-98529673D01*
X105745162Y-98873201D01*
X105744838Y-99245167D01*
X105886883Y-99588943D01*
X106149673Y-99852192D01*
X106493201Y-99994838D01*
X106865167Y-99995162D01*
X107208943Y-99853117D01*
X107472192Y-99590327D01*
X107614838Y-99246799D01*
X107614876Y-99202754D01*
X108011630Y-98806000D01*
X109795634Y-98806000D01*
X109818838Y-98929317D01*
X109957910Y-99145441D01*
X110170110Y-99290431D01*
X110410000Y-99339010D01*
X110410000Y-99856560D01*
X110326000Y-99856560D01*
X110090683Y-99900838D01*
X109874559Y-100039910D01*
X109729569Y-100252110D01*
X109678560Y-100504000D01*
X109678560Y-101172956D01*
X109542833Y-101172838D01*
X109199057Y-101314883D01*
X108935808Y-101577673D01*
X108793162Y-101921201D01*
X108792838Y-102293167D01*
X108934883Y-102636943D01*
X109197673Y-102900192D01*
X109541201Y-103042838D01*
X109657150Y-103042939D01*
X109678560Y-103064349D01*
X109678560Y-103204000D01*
X109722838Y-103439317D01*
X109861910Y-103655441D01*
X110074110Y-103800431D01*
X110326000Y-103851440D01*
X112226000Y-103851440D01*
X112461317Y-103807162D01*
X112677441Y-103668090D01*
X112822431Y-103455890D01*
X112873440Y-103204000D01*
X112873440Y-102713319D01*
X113074110Y-102850431D01*
X113326000Y-102901440D01*
X115226000Y-102901440D01*
X115461317Y-102857162D01*
X115677441Y-102718090D01*
X115822431Y-102505890D01*
X115873440Y-102254000D01*
X115873440Y-101454000D01*
X115854466Y-101353164D01*
X116743815Y-100463815D01*
X116809838Y-100365005D01*
X116908996Y-100216605D01*
X116967000Y-99925000D01*
X116967000Y-98376372D01*
X117010120Y-98593151D01*
X117321189Y-99058698D01*
X117703275Y-99314000D01*
X117321189Y-99569302D01*
X117010120Y-100034849D01*
X116900887Y-100584000D01*
X117010120Y-101133151D01*
X117321189Y-101598698D01*
X117703275Y-101854000D01*
X117321189Y-102109302D01*
X117010120Y-102574849D01*
X116900887Y-103124000D01*
X117010120Y-103673151D01*
X117321189Y-104138698D01*
X117703275Y-104394000D01*
X117321189Y-104649302D01*
X117010120Y-105114849D01*
X116900887Y-105664000D01*
X117010120Y-106213151D01*
X117321189Y-106678698D01*
X117703275Y-106934000D01*
X117321189Y-107189302D01*
X117010120Y-107654849D01*
X116900887Y-108204000D01*
X117010120Y-108753151D01*
X117321189Y-109218698D01*
X117703275Y-109474000D01*
X117321189Y-109729302D01*
X117010120Y-110194849D01*
X116900887Y-110744000D01*
X117010120Y-111293151D01*
X117321189Y-111758698D01*
X117703275Y-112014000D01*
X117321189Y-112269302D01*
X117010120Y-112734849D01*
X116900887Y-113284000D01*
X117010120Y-113833151D01*
X117321189Y-114298698D01*
X117703275Y-114554000D01*
X117321189Y-114809302D01*
X117010120Y-115274849D01*
X116900887Y-115824000D01*
X117010120Y-116373151D01*
X117321189Y-116838698D01*
X117786736Y-117149767D01*
X118335887Y-117259000D01*
X118392113Y-117259000D01*
X118941264Y-117149767D01*
X119406811Y-116838698D01*
X119717880Y-116373151D01*
X119827113Y-115824000D01*
X119717880Y-115274849D01*
X119406811Y-114809302D01*
X119024725Y-114554000D01*
X119214794Y-114427000D01*
X119981208Y-114427000D01*
X120117910Y-114639441D01*
X120330110Y-114784431D01*
X120582000Y-114835440D01*
X122082000Y-114835440D01*
X122317317Y-114791162D01*
X122533441Y-114652090D01*
X122678431Y-114439890D01*
X122681081Y-114426803D01*
X122817910Y-114639441D01*
X123030110Y-114784431D01*
X123282000Y-114835440D01*
X124782000Y-114835440D01*
X125017317Y-114791162D01*
X125095000Y-114741174D01*
X125095000Y-115316000D01*
X125105846Y-115370524D01*
X123999255Y-116477115D01*
X123983117Y-116438057D01*
X123720327Y-116174808D01*
X123376799Y-116032162D01*
X123236151Y-116032039D01*
X123236162Y-116019833D01*
X123094117Y-115676057D01*
X122831327Y-115412808D01*
X122487799Y-115270162D01*
X122115833Y-115269838D01*
X121772057Y-115411883D01*
X121508808Y-115674673D01*
X121366162Y-116018201D01*
X121366124Y-116062246D01*
X120746185Y-116682185D01*
X120581004Y-116929395D01*
X120523000Y-117221000D01*
X120523000Y-126684369D01*
X114238370Y-132969000D01*
X106426000Y-132969000D01*
X106134395Y-133027004D01*
X105887184Y-133192185D01*
X100426185Y-138653185D01*
X100261004Y-138900395D01*
X100203000Y-139192000D01*
X100203000Y-150052369D01*
X98218292Y-152037077D01*
X97631487Y-151793415D01*
X96682675Y-151792587D01*
X95805771Y-152154916D01*
X95134274Y-152825242D01*
X94770415Y-153701513D01*
X94769587Y-154650325D01*
X95131916Y-155527229D01*
X95802242Y-156198726D01*
X96678513Y-156562585D01*
X97627325Y-156563413D01*
X98504229Y-156201084D01*
X99175726Y-155530758D01*
X99539585Y-154654487D01*
X99540413Y-153705675D01*
X99296141Y-153114490D01*
X101503816Y-150906815D01*
X101602834Y-150758623D01*
X101621592Y-150730550D01*
X101658004Y-150913605D01*
X101717736Y-151003000D01*
X101823185Y-151160815D01*
X102623871Y-151961501D01*
X102155771Y-152154916D01*
X101484274Y-152825242D01*
X101120415Y-153701513D01*
X101119587Y-154650325D01*
X101481916Y-155527229D01*
X102152242Y-156198726D01*
X103028513Y-156562585D01*
X103977325Y-156563413D01*
X104854229Y-156201084D01*
X105525726Y-155530758D01*
X105889585Y-154654487D01*
X105889588Y-154650325D01*
X107469587Y-154650325D01*
X107831916Y-155527229D01*
X108457000Y-156153405D01*
X108457000Y-158158878D01*
X108402559Y-158193910D01*
X108257569Y-158406110D01*
X108206560Y-158658000D01*
X108206560Y-159858000D01*
X108250838Y-160093317D01*
X108389910Y-160309441D01*
X108602110Y-160454431D01*
X108854000Y-160505440D01*
X109254708Y-160505440D01*
X109319391Y-160548660D01*
X109854000Y-160655000D01*
X110388609Y-160548660D01*
X110453292Y-160505440D01*
X110854000Y-160505440D01*
X111089317Y-160461162D01*
X111305441Y-160322090D01*
X111450431Y-160109890D01*
X111501440Y-159858000D01*
X111501440Y-159543750D01*
X111777000Y-159543750D01*
X111777000Y-159984310D01*
X111873673Y-160217699D01*
X112052302Y-160396327D01*
X112285691Y-160493000D01*
X113126250Y-160493000D01*
X113285000Y-160334250D01*
X113285000Y-159385000D01*
X113539000Y-159385000D01*
X113539000Y-160334250D01*
X113697750Y-160493000D01*
X114538309Y-160493000D01*
X114771698Y-160396327D01*
X114950327Y-160217699D01*
X115047000Y-159984310D01*
X115047000Y-159543750D01*
X114888250Y-159385000D01*
X113539000Y-159385000D01*
X113285000Y-159385000D01*
X111935750Y-159385000D01*
X111777000Y-159543750D01*
X111501440Y-159543750D01*
X111501440Y-158658000D01*
X111477674Y-158531690D01*
X111777000Y-158531690D01*
X111777000Y-158972250D01*
X111935750Y-159131000D01*
X113285000Y-159131000D01*
X113285000Y-158181750D01*
X113539000Y-158181750D01*
X113539000Y-159131000D01*
X114888250Y-159131000D01*
X115047000Y-158972250D01*
X115047000Y-158531690D01*
X114950327Y-158298301D01*
X114771698Y-158119673D01*
X114538309Y-158023000D01*
X113697750Y-158023000D01*
X113539000Y-158181750D01*
X113285000Y-158181750D01*
X113126250Y-158023000D01*
X112285691Y-158023000D01*
X112052302Y-158119673D01*
X111873673Y-158298301D01*
X111777000Y-158531690D01*
X111477674Y-158531690D01*
X111457162Y-158422683D01*
X111318090Y-158206559D01*
X111251000Y-158160718D01*
X111251000Y-156154395D01*
X111875726Y-155530758D01*
X112239585Y-154654487D01*
X112239588Y-154650325D01*
X113819587Y-154650325D01*
X114181916Y-155527229D01*
X114852242Y-156198726D01*
X115315000Y-156390880D01*
X115315000Y-158158878D01*
X115260559Y-158193910D01*
X115115569Y-158406110D01*
X115064560Y-158658000D01*
X115064560Y-159858000D01*
X115108838Y-160093317D01*
X115247910Y-160309441D01*
X115460110Y-160454431D01*
X115712000Y-160505440D01*
X116112708Y-160505440D01*
X116177391Y-160548660D01*
X116712000Y-160655000D01*
X117246609Y-160548660D01*
X117311292Y-160505440D01*
X117712000Y-160505440D01*
X117947317Y-160461162D01*
X118163441Y-160322090D01*
X118308431Y-160109890D01*
X118359440Y-159858000D01*
X118359440Y-158658000D01*
X118315162Y-158422683D01*
X118176090Y-158206559D01*
X118109000Y-158160718D01*
X118109000Y-155647280D01*
X118225726Y-155530758D01*
X118589585Y-154654487D01*
X118589588Y-154650325D01*
X120169587Y-154650325D01*
X120531916Y-155527229D01*
X121202242Y-156198726D01*
X122078513Y-156562585D01*
X122173000Y-156562667D01*
X122173000Y-158158878D01*
X122118559Y-158193910D01*
X121973569Y-158406110D01*
X121922560Y-158658000D01*
X121922560Y-159858000D01*
X121966838Y-160093317D01*
X122105910Y-160309441D01*
X122318110Y-160454431D01*
X122570000Y-160505440D01*
X122970708Y-160505440D01*
X123035391Y-160548660D01*
X123570000Y-160655000D01*
X124104609Y-160548660D01*
X124169292Y-160505440D01*
X124570000Y-160505440D01*
X124805317Y-160461162D01*
X125021441Y-160322090D01*
X125166431Y-160109890D01*
X125217440Y-159858000D01*
X125217440Y-158658000D01*
X125173162Y-158422683D01*
X125034090Y-158206559D01*
X124967000Y-158160718D01*
X124967000Y-155193000D01*
X124885697Y-154784263D01*
X124939585Y-154654487D01*
X124939588Y-154650325D01*
X126519587Y-154650325D01*
X126881916Y-155527229D01*
X127552242Y-156198726D01*
X128428513Y-156562585D01*
X129314702Y-156563358D01*
X129793000Y-157041656D01*
X129793000Y-158158878D01*
X129738559Y-158193910D01*
X129593569Y-158406110D01*
X129542560Y-158658000D01*
X129542560Y-159858000D01*
X129586838Y-160093317D01*
X129725910Y-160309441D01*
X129938110Y-160454431D01*
X130190000Y-160505440D01*
X130590708Y-160505440D01*
X130655391Y-160548660D01*
X131190000Y-160655000D01*
X131724609Y-160548660D01*
X131789292Y-160505440D01*
X132190000Y-160505440D01*
X132425317Y-160461162D01*
X132641441Y-160322090D01*
X132786431Y-160109890D01*
X132837440Y-159858000D01*
X132837440Y-158658000D01*
X132793162Y-158422683D01*
X132654090Y-158206559D01*
X132587000Y-158160718D01*
X132587000Y-156463000D01*
X132480660Y-155928391D01*
X132177828Y-155475172D01*
X131289644Y-154586988D01*
X131290413Y-153705675D01*
X130928084Y-152828771D01*
X130257758Y-152157274D01*
X129381487Y-151793415D01*
X128432675Y-151792587D01*
X127555771Y-152154916D01*
X126884274Y-152825242D01*
X126520415Y-153701513D01*
X126519587Y-154650325D01*
X124939588Y-154650325D01*
X124940413Y-153705675D01*
X124578084Y-152828771D01*
X123907758Y-152157274D01*
X123031487Y-151793415D01*
X122082675Y-151792587D01*
X121205771Y-152154916D01*
X120534274Y-152825242D01*
X120170415Y-153701513D01*
X120169587Y-154650325D01*
X118589588Y-154650325D01*
X118590413Y-153705675D01*
X118228084Y-152828771D01*
X117557758Y-152157274D01*
X116681487Y-151793415D01*
X115732675Y-151792587D01*
X114855771Y-152154916D01*
X114184274Y-152825242D01*
X113820415Y-153701513D01*
X113819587Y-154650325D01*
X112239588Y-154650325D01*
X112240413Y-153705675D01*
X111878084Y-152828771D01*
X111207758Y-152157274D01*
X110331487Y-151793415D01*
X109382675Y-151792587D01*
X108505771Y-152154916D01*
X107834274Y-152825242D01*
X107470415Y-153701513D01*
X107469587Y-154650325D01*
X105889588Y-154650325D01*
X105890413Y-153705675D01*
X105528084Y-152828771D01*
X104857758Y-152157274D01*
X104267000Y-151911970D01*
X104267000Y-151765000D01*
X104208996Y-151473395D01*
X104043815Y-151226185D01*
X103124000Y-150306370D01*
X103124000Y-149961901D01*
X103312110Y-150090431D01*
X103564000Y-150141440D01*
X105064000Y-150141440D01*
X105299317Y-150097162D01*
X105515441Y-149958090D01*
X105660431Y-149745890D01*
X105667191Y-149712510D01*
X105725673Y-149853699D01*
X105904302Y-150032327D01*
X106137691Y-150129000D01*
X106728250Y-150129000D01*
X106887000Y-149970250D01*
X106887000Y-148971000D01*
X107141000Y-148971000D01*
X107141000Y-149970250D01*
X107299750Y-150129000D01*
X107890309Y-150129000D01*
X108123698Y-150032327D01*
X108302327Y-149853699D01*
X108399000Y-149620310D01*
X108399000Y-149383750D01*
X119693000Y-149383750D01*
X119693000Y-149874310D01*
X119789673Y-150107699D01*
X119968302Y-150286327D01*
X120201691Y-150383000D01*
X120792250Y-150383000D01*
X120951000Y-150224250D01*
X120951000Y-149225000D01*
X119851750Y-149225000D01*
X119693000Y-149383750D01*
X108399000Y-149383750D01*
X108399000Y-149129750D01*
X108240250Y-148971000D01*
X107141000Y-148971000D01*
X106887000Y-148971000D01*
X106867000Y-148971000D01*
X106867000Y-148717000D01*
X106887000Y-148717000D01*
X106887000Y-147717750D01*
X107141000Y-147717750D01*
X107141000Y-148717000D01*
X108240250Y-148717000D01*
X108399000Y-148558250D01*
X108399000Y-148067690D01*
X108302327Y-147834301D01*
X108123698Y-147655673D01*
X107890309Y-147559000D01*
X107299750Y-147559000D01*
X107141000Y-147717750D01*
X106887000Y-147717750D01*
X106728250Y-147559000D01*
X106431896Y-147559000D01*
X106449500Y-147470500D01*
X106449500Y-147347440D01*
X107764000Y-147347440D01*
X107999317Y-147303162D01*
X108215441Y-147164090D01*
X108360431Y-146951890D01*
X108411440Y-146700000D01*
X108411440Y-146031190D01*
X111044560Y-143398070D01*
X111044560Y-144160000D01*
X111088838Y-144395317D01*
X111227910Y-144611441D01*
X111440110Y-144756431D01*
X111692000Y-144807440D01*
X112766930Y-144807440D01*
X112313810Y-145260560D01*
X111692000Y-145260560D01*
X111456683Y-145304838D01*
X111240559Y-145443910D01*
X111095569Y-145656110D01*
X111044560Y-145908000D01*
X111044560Y-147208000D01*
X111088838Y-147443317D01*
X111227910Y-147659441D01*
X111440110Y-147804431D01*
X111692000Y-147855440D01*
X113192000Y-147855440D01*
X113427317Y-147811162D01*
X113643441Y-147672090D01*
X113788431Y-147459890D01*
X113795191Y-147426510D01*
X113853673Y-147567699D01*
X114032302Y-147746327D01*
X114265691Y-147843000D01*
X114856250Y-147843000D01*
X115015000Y-147684250D01*
X115015000Y-146685000D01*
X115269000Y-146685000D01*
X115269000Y-147684250D01*
X115427750Y-147843000D01*
X116018309Y-147843000D01*
X116251698Y-147746327D01*
X116430327Y-147567699D01*
X116527000Y-147334310D01*
X116527000Y-146843750D01*
X116368250Y-146685000D01*
X115269000Y-146685000D01*
X115015000Y-146685000D01*
X114995000Y-146685000D01*
X114995000Y-146431000D01*
X115015000Y-146431000D01*
X115015000Y-145431750D01*
X115269000Y-145431750D01*
X115269000Y-146431000D01*
X116368250Y-146431000D01*
X116527000Y-146272250D01*
X116527000Y-145781690D01*
X116430327Y-145548301D01*
X116251698Y-145369673D01*
X116018309Y-145273000D01*
X115427750Y-145273000D01*
X115269000Y-145431750D01*
X115015000Y-145431750D01*
X114856250Y-145273000D01*
X114456631Y-145273000D01*
X114922191Y-144807440D01*
X115892000Y-144807440D01*
X116127317Y-144763162D01*
X116343441Y-144624090D01*
X116488431Y-144411890D01*
X116539440Y-144160000D01*
X116539440Y-142860000D01*
X116495162Y-142624683D01*
X116356090Y-142408559D01*
X116143890Y-142263569D01*
X115904000Y-142214990D01*
X115904000Y-140180384D01*
X115981192Y-140103327D01*
X116123838Y-139759799D01*
X116124162Y-139387833D01*
X115982117Y-139044057D01*
X115719327Y-138780808D01*
X115678694Y-138763936D01*
X124714000Y-129728630D01*
X124714000Y-132018369D01*
X118968185Y-137764185D01*
X118803004Y-138011395D01*
X118745000Y-138303000D01*
X118745000Y-145161000D01*
X118803004Y-145452605D01*
X118887863Y-145579605D01*
X118968185Y-145699815D01*
X119680560Y-146412191D01*
X119680560Y-147208000D01*
X119724838Y-147443317D01*
X119863910Y-147659441D01*
X120076110Y-147804431D01*
X120174350Y-147824325D01*
X119968302Y-147909673D01*
X119789673Y-148088301D01*
X119693000Y-148321690D01*
X119693000Y-148812250D01*
X119851750Y-148971000D01*
X120951000Y-148971000D01*
X120951000Y-148951000D01*
X121205000Y-148951000D01*
X121205000Y-148971000D01*
X121225000Y-148971000D01*
X121225000Y-149225000D01*
X121205000Y-149225000D01*
X121205000Y-150224250D01*
X121363750Y-150383000D01*
X121954309Y-150383000D01*
X122187698Y-150286327D01*
X122366327Y-150107699D01*
X122422654Y-149971713D01*
X122424838Y-149983317D01*
X122563910Y-150199441D01*
X122776110Y-150344431D01*
X123028000Y-150395440D01*
X124528000Y-150395440D01*
X124763317Y-150351162D01*
X124979441Y-150212090D01*
X125124431Y-149999890D01*
X125175440Y-149748000D01*
X125175440Y-149383750D01*
X128329000Y-149383750D01*
X128329000Y-149874310D01*
X128425673Y-150107699D01*
X128604302Y-150286327D01*
X128837691Y-150383000D01*
X129428250Y-150383000D01*
X129587000Y-150224250D01*
X129587000Y-149225000D01*
X128487750Y-149225000D01*
X128329000Y-149383750D01*
X125175440Y-149383750D01*
X125175440Y-148448000D01*
X125131162Y-148212683D01*
X124992090Y-147996559D01*
X124779890Y-147851569D01*
X124668477Y-147829007D01*
X124763317Y-147811162D01*
X124979441Y-147672090D01*
X125124431Y-147459890D01*
X125175440Y-147208000D01*
X125175440Y-145908000D01*
X125131162Y-145672683D01*
X124992090Y-145456559D01*
X124779890Y-145311569D01*
X124528000Y-145260560D01*
X123558190Y-145260560D01*
X122779440Y-144481810D01*
X122779440Y-144369319D01*
X122980110Y-144506431D01*
X123232000Y-144557440D01*
X125132000Y-144557440D01*
X125367317Y-144513162D01*
X125583441Y-144374090D01*
X125728431Y-144161890D01*
X125779440Y-143910000D01*
X125779440Y-143110000D01*
X125735162Y-142874683D01*
X125596090Y-142658559D01*
X125383890Y-142513569D01*
X125132000Y-142462560D01*
X124540000Y-142462560D01*
X124540000Y-141249182D01*
X124763317Y-141207162D01*
X124979441Y-141068090D01*
X125124431Y-140855890D01*
X125175440Y-140604000D01*
X125175440Y-139304000D01*
X125131162Y-139068683D01*
X124992090Y-138852559D01*
X124779890Y-138707569D01*
X124760094Y-138703560D01*
X124760162Y-138625833D01*
X124618117Y-138282057D01*
X124355327Y-138018808D01*
X124038801Y-137887374D01*
X124236192Y-137690327D01*
X124378838Y-137346799D01*
X124379162Y-136974833D01*
X124237117Y-136631057D01*
X123974327Y-136367808D01*
X123630799Y-136225162D01*
X123258833Y-136224838D01*
X122915057Y-136366883D01*
X122651808Y-136629673D01*
X122509162Y-136973201D01*
X122509124Y-137017246D01*
X120869810Y-138656560D01*
X120328000Y-138656560D01*
X120269000Y-138667662D01*
X120269000Y-138618630D01*
X126014816Y-132872815D01*
X126113834Y-132724623D01*
X126179996Y-132625605D01*
X126238000Y-132334000D01*
X126238000Y-144907000D01*
X126296004Y-145198605D01*
X126417540Y-145380496D01*
X126461185Y-145445815D01*
X127604185Y-146588815D01*
X128316560Y-147301191D01*
X128316560Y-147462000D01*
X128360838Y-147697317D01*
X128499910Y-147913441D01*
X128559689Y-147954286D01*
X128425673Y-148088301D01*
X128329000Y-148321690D01*
X128329000Y-148812250D01*
X128487750Y-148971000D01*
X129587000Y-148971000D01*
X129587000Y-148951000D01*
X129841000Y-148951000D01*
X129841000Y-148971000D01*
X129861000Y-148971000D01*
X129861000Y-149225000D01*
X129841000Y-149225000D01*
X129841000Y-150224250D01*
X129999750Y-150383000D01*
X130590309Y-150383000D01*
X130823698Y-150286327D01*
X131002327Y-150107699D01*
X131058654Y-149971713D01*
X131060838Y-149983317D01*
X131199910Y-150199441D01*
X131412110Y-150344431D01*
X131664000Y-150395440D01*
X133164000Y-150395440D01*
X133399317Y-150351162D01*
X133615441Y-150212090D01*
X133760431Y-149999890D01*
X133811440Y-149748000D01*
X133811440Y-148778191D01*
X134396815Y-148192816D01*
X134561996Y-147945605D01*
X134580701Y-147851569D01*
X134620000Y-147654000D01*
X134620000Y-145923000D01*
X134561996Y-145631395D01*
X134478212Y-145506004D01*
X134396816Y-145384185D01*
X133815191Y-144802560D01*
X134003317Y-144767162D01*
X134219441Y-144628090D01*
X134364431Y-144415890D01*
X134415440Y-144164000D01*
X134415440Y-143364000D01*
X134396466Y-143263164D01*
X134396815Y-143262815D01*
X134561996Y-143015605D01*
X134590027Y-142874683D01*
X134620000Y-142724000D01*
X134620000Y-141412630D01*
X135285815Y-140746815D01*
X135345162Y-140657996D01*
X135382000Y-140602864D01*
X135382000Y-164084000D01*
X84836000Y-164084000D01*
X84836000Y-158007047D01*
X84884950Y-158125515D01*
X85962811Y-159205259D01*
X87371825Y-159790333D01*
X88897482Y-159791664D01*
X90307515Y-159209050D01*
X91387259Y-158131189D01*
X91972333Y-156722175D01*
X91973119Y-155821723D01*
X92118580Y-156039420D01*
X99611579Y-163532420D01*
X99831821Y-163679581D01*
X99941194Y-163752662D01*
X100330000Y-163830000D01*
X125730000Y-163830000D01*
X126054300Y-163765493D01*
X126118807Y-163752662D01*
X126448420Y-163532420D01*
X128608420Y-161372421D01*
X128828661Y-161042807D01*
X128828662Y-161042806D01*
X128906000Y-160654000D01*
X128906000Y-160502429D01*
X129125317Y-160461162D01*
X129341441Y-160322090D01*
X129486431Y-160109890D01*
X129537440Y-159858000D01*
X129537440Y-158658000D01*
X129493162Y-158422683D01*
X129354090Y-158206559D01*
X129141890Y-158061569D01*
X128890000Y-158010560D01*
X126890000Y-158010560D01*
X126654683Y-158054838D01*
X126438559Y-158193910D01*
X126293569Y-158406110D01*
X126242560Y-158658000D01*
X126242560Y-159858000D01*
X126286838Y-160093317D01*
X126425910Y-160309441D01*
X126638110Y-160454431D01*
X126650266Y-160456893D01*
X125309160Y-161798000D01*
X120943841Y-161798000D01*
X120988421Y-161753420D01*
X121208662Y-161423807D01*
X121221493Y-161359300D01*
X121286000Y-161035000D01*
X121286000Y-160502429D01*
X121505317Y-160461162D01*
X121721441Y-160322090D01*
X121866431Y-160109890D01*
X121917440Y-159858000D01*
X121917440Y-158658000D01*
X121873162Y-158422683D01*
X121734090Y-158206559D01*
X121521890Y-158061569D01*
X121270000Y-158010560D01*
X119270000Y-158010560D01*
X119034683Y-158054838D01*
X118818559Y-158193910D01*
X118673569Y-158406110D01*
X118622560Y-158658000D01*
X118622560Y-159858000D01*
X118666838Y-160093317D01*
X118805910Y-160309441D01*
X119018110Y-160454431D01*
X119254000Y-160502200D01*
X119254000Y-160614159D01*
X118070160Y-161798000D01*
X100750841Y-161798000D01*
X98496591Y-159543750D01*
X104919000Y-159543750D01*
X104919000Y-159984310D01*
X105015673Y-160217699D01*
X105194302Y-160396327D01*
X105427691Y-160493000D01*
X106268250Y-160493000D01*
X106427000Y-160334250D01*
X106427000Y-159385000D01*
X106681000Y-159385000D01*
X106681000Y-160334250D01*
X106839750Y-160493000D01*
X107680309Y-160493000D01*
X107913698Y-160396327D01*
X108092327Y-160217699D01*
X108189000Y-159984310D01*
X108189000Y-159543750D01*
X108030250Y-159385000D01*
X106681000Y-159385000D01*
X106427000Y-159385000D01*
X105077750Y-159385000D01*
X104919000Y-159543750D01*
X98496591Y-159543750D01*
X97484531Y-158531690D01*
X104919000Y-158531690D01*
X104919000Y-158972250D01*
X105077750Y-159131000D01*
X106427000Y-159131000D01*
X106427000Y-158181750D01*
X106681000Y-158181750D01*
X106681000Y-159131000D01*
X108030250Y-159131000D01*
X108189000Y-158972250D01*
X108189000Y-158531690D01*
X108092327Y-158298301D01*
X107913698Y-158119673D01*
X107680309Y-158023000D01*
X106839750Y-158023000D01*
X106681000Y-158181750D01*
X106427000Y-158181750D01*
X106268250Y-158023000D01*
X105427691Y-158023000D01*
X105194302Y-158119673D01*
X105015673Y-158298301D01*
X104919000Y-158531690D01*
X97484531Y-158531690D01*
X93853000Y-154900160D01*
X93853000Y-145165287D01*
X93988916Y-145494229D01*
X94659242Y-146165726D01*
X95535513Y-146529585D01*
X96484325Y-146530413D01*
X97361229Y-146168084D01*
X98032726Y-145497758D01*
X98396585Y-144621487D01*
X98397413Y-143672675D01*
X98035084Y-142795771D01*
X97364758Y-142124274D01*
X96488487Y-141760415D01*
X95539675Y-141759587D01*
X94662771Y-142121916D01*
X93991274Y-142792242D01*
X93853000Y-143125243D01*
X93853000Y-139489528D01*
X94497077Y-139489528D01*
X94687364Y-139834271D01*
X95568591Y-140185956D01*
X96517323Y-140173641D01*
X97336636Y-139834271D01*
X97526923Y-139489528D01*
X96012000Y-137974605D01*
X94497077Y-139489528D01*
X93853000Y-139489528D01*
X93853000Y-138830584D01*
X93972729Y-139119636D01*
X94317472Y-139309923D01*
X95832395Y-137795000D01*
X96191605Y-137795000D01*
X97706528Y-139309923D01*
X98051271Y-139119636D01*
X98402956Y-138238409D01*
X98390641Y-137289677D01*
X98051271Y-136470364D01*
X97706528Y-136280077D01*
X96191605Y-137795000D01*
X95832395Y-137795000D01*
X94317472Y-136280077D01*
X93972729Y-136470364D01*
X93853000Y-136770372D01*
X93853000Y-136100472D01*
X94497077Y-136100472D01*
X96012000Y-137615395D01*
X97526923Y-136100472D01*
X97336636Y-135755729D01*
X96455409Y-135404044D01*
X95506677Y-135416359D01*
X94687364Y-135755729D01*
X94497077Y-136100472D01*
X93853000Y-136100472D01*
X93853000Y-133262840D01*
X98415841Y-128700000D01*
X98787129Y-128700000D01*
X98819630Y-128778658D01*
X99363479Y-129323457D01*
X100074416Y-129618663D01*
X100844207Y-129619335D01*
X101555658Y-129325370D01*
X102100457Y-128781521D01*
X102395663Y-128070584D01*
X102396335Y-127300793D01*
X102102370Y-126589342D01*
X101558521Y-126044543D01*
X101413238Y-125984217D01*
X101555658Y-125925370D01*
X102100457Y-125381521D01*
X102395663Y-124670584D01*
X102396335Y-123900793D01*
X102321115Y-123718746D01*
X102585185Y-123982816D01*
X102704907Y-124062811D01*
X102832395Y-124147996D01*
X103124000Y-124206000D01*
X113231534Y-124206000D01*
X113261673Y-124236192D01*
X113605201Y-124378838D01*
X113977167Y-124379162D01*
X114320943Y-124237117D01*
X114584192Y-123974327D01*
X114726838Y-123630799D01*
X114726891Y-123569759D01*
X114955943Y-123475117D01*
X115219192Y-123212327D01*
X115361838Y-122868799D01*
X115361891Y-122807759D01*
X115590943Y-122713117D01*
X115854192Y-122450327D01*
X115996838Y-122106799D01*
X115996850Y-122093151D01*
X116009167Y-122093162D01*
X116352943Y-121951117D01*
X116616192Y-121688327D01*
X116758838Y-121344799D01*
X116758850Y-121331151D01*
X116771167Y-121331162D01*
X117114943Y-121189117D01*
X117378192Y-120926327D01*
X117520838Y-120582799D01*
X117521162Y-120210833D01*
X117379117Y-119867057D01*
X117116327Y-119603808D01*
X116772799Y-119461162D01*
X116400833Y-119460838D01*
X116057057Y-119602883D01*
X116025886Y-119634000D01*
X104836630Y-119634000D01*
X104043817Y-118841187D01*
X104043815Y-118841184D01*
X103789815Y-118587185D01*
X103749124Y-118559996D01*
X103542605Y-118422004D01*
X103251000Y-118364000D01*
X99629630Y-118364000D01*
X99060000Y-117794370D01*
X99060000Y-113850167D01*
X104474838Y-113850167D01*
X104616883Y-114193943D01*
X104879673Y-114457192D01*
X105223201Y-114599838D01*
X105595167Y-114600162D01*
X105938943Y-114458117D01*
X106202192Y-114195327D01*
X106344838Y-113851799D01*
X106344939Y-113735850D01*
X106420894Y-113659895D01*
X106575062Y-113429165D01*
X106575063Y-113429164D01*
X106629200Y-113157000D01*
X106629200Y-113095988D01*
X106887938Y-113354726D01*
X106887838Y-113469167D01*
X107029883Y-113812943D01*
X107292673Y-114076192D01*
X107636201Y-114218838D01*
X108008167Y-114219162D01*
X108351943Y-114077117D01*
X108615192Y-113814327D01*
X108757838Y-113470799D01*
X108758162Y-113098833D01*
X108616117Y-112755057D01*
X108353327Y-112491808D01*
X108009799Y-112349162D01*
X107893849Y-112349061D01*
X106629200Y-111084412D01*
X106629200Y-106808669D01*
X106657673Y-106837192D01*
X107001201Y-106979838D01*
X107373167Y-106980162D01*
X107716943Y-106838117D01*
X107980192Y-106575327D01*
X108122838Y-106231799D01*
X108123162Y-105859833D01*
X107981117Y-105516057D01*
X107718327Y-105252808D01*
X107374799Y-105110162D01*
X107258850Y-105110061D01*
X106853062Y-104704274D01*
X106853162Y-104589833D01*
X106711117Y-104246057D01*
X106448327Y-103982808D01*
X106104799Y-103840162D01*
X105732833Y-103839838D01*
X105389057Y-103981883D01*
X105125808Y-104244673D01*
X104983162Y-104588201D01*
X104982838Y-104960167D01*
X105124883Y-105303943D01*
X105206800Y-105386003D01*
X105206800Y-112737289D01*
X104881057Y-112871883D01*
X104617808Y-113134673D01*
X104475162Y-113478201D01*
X104474838Y-113850167D01*
X99060000Y-113850167D01*
X99060000Y-107442000D01*
X99001996Y-107150395D01*
X98836815Y-106903185D01*
X98044000Y-106110370D01*
X98044000Y-103282000D01*
X97985996Y-102990395D01*
X97925724Y-102900192D01*
X97820815Y-102743184D01*
X96410086Y-101332456D01*
X96430750Y-101282691D01*
X96431180Y-100789745D01*
X101025861Y-100789745D01*
X101099995Y-101035864D01*
X101637223Y-101228965D01*
X102207454Y-101201778D01*
X102608005Y-101035864D01*
X102682139Y-100789745D01*
X101854000Y-99961605D01*
X101025861Y-100789745D01*
X96431180Y-100789745D01*
X96431248Y-100711813D01*
X96213243Y-100184200D01*
X95809923Y-99780176D01*
X95417940Y-99617410D01*
X95543930Y-99565223D01*
X100407035Y-99565223D01*
X100434222Y-100135454D01*
X100600136Y-100536005D01*
X100846255Y-100610139D01*
X101674395Y-99782000D01*
X102033605Y-99782000D01*
X102861745Y-100610139D01*
X103107864Y-100536005D01*
X103300965Y-99998777D01*
X103273778Y-99428546D01*
X103107864Y-99027995D01*
X102861745Y-98953861D01*
X102033605Y-99782000D01*
X101674395Y-99782000D01*
X100846255Y-98953861D01*
X100600136Y-99027995D01*
X100407035Y-99565223D01*
X95543930Y-99565223D01*
X95750005Y-99479864D01*
X95824139Y-99233745D01*
X94996000Y-98405605D01*
X94981858Y-98419748D01*
X94802252Y-98240142D01*
X94816395Y-98226000D01*
X95175605Y-98226000D01*
X96003745Y-99054139D01*
X96249864Y-98980005D01*
X96442965Y-98442777D01*
X96415778Y-97872546D01*
X96249864Y-97471995D01*
X96003745Y-97397861D01*
X95175605Y-98226000D01*
X94816395Y-98226000D01*
X94802252Y-98211858D01*
X94981858Y-98032252D01*
X94996000Y-98046395D01*
X95824139Y-97218255D01*
X95750005Y-96972136D01*
X95394062Y-96844196D01*
X95807800Y-96673243D01*
X95999376Y-96482000D01*
X100406560Y-96482000D01*
X100406560Y-98082000D01*
X100450838Y-98317317D01*
X100589910Y-98533441D01*
X100802110Y-98678431D01*
X101040201Y-98726646D01*
X101025861Y-98774255D01*
X101854000Y-99602395D01*
X102682139Y-98774255D01*
X102667855Y-98726833D01*
X102889317Y-98685162D01*
X103105441Y-98546090D01*
X103250431Y-98333890D01*
X103301440Y-98082000D01*
X103301440Y-96482000D01*
X103257162Y-96246683D01*
X103118090Y-96030559D01*
X102905890Y-95885569D01*
X102654000Y-95834560D01*
X101054000Y-95834560D01*
X100818683Y-95878838D01*
X100602559Y-96017910D01*
X100457569Y-96230110D01*
X100406560Y-96482000D01*
X95999376Y-96482000D01*
X96211824Y-96269923D01*
X96430750Y-95742691D01*
X96431248Y-95171813D01*
X96213243Y-94644200D01*
X95809923Y-94240176D01*
X95402150Y-94070854D01*
X95807800Y-93903243D01*
X96211824Y-93499923D01*
X96382609Y-93088627D01*
X96545236Y-92926000D01*
X105740560Y-92926000D01*
X105740560Y-94526000D01*
X105784838Y-94761317D01*
X105923910Y-94977441D01*
X106136110Y-95122431D01*
X106388000Y-95173440D01*
X107988000Y-95173440D01*
X108223317Y-95129162D01*
X108439441Y-94990090D01*
X108584431Y-94777890D01*
X108635440Y-94526000D01*
X108635440Y-92926000D01*
X108591162Y-92690683D01*
X108452090Y-92474559D01*
X108239890Y-92329569D01*
X108001799Y-92281354D01*
X108016139Y-92233745D01*
X107188000Y-91405605D01*
X106359861Y-92233745D01*
X106374145Y-92281167D01*
X106152683Y-92322838D01*
X105936559Y-92461910D01*
X105791569Y-92674110D01*
X105740560Y-92926000D01*
X96545236Y-92926000D01*
X98462013Y-91009223D01*
X105741035Y-91009223D01*
X105768222Y-91579454D01*
X105934136Y-91980005D01*
X106180255Y-92054139D01*
X107008395Y-91226000D01*
X106180255Y-90397861D01*
X105934136Y-90471995D01*
X105741035Y-91009223D01*
X98462013Y-91009223D01*
X99252981Y-90218255D01*
X106359861Y-90218255D01*
X107188000Y-91046395D01*
X108016139Y-90218255D01*
X107942005Y-89972136D01*
X107404777Y-89779035D01*
X106834546Y-89806222D01*
X106433995Y-89972136D01*
X106359861Y-90218255D01*
X99252981Y-90218255D01*
X100470618Y-89000618D01*
X100663329Y-88712206D01*
X100731000Y-88372000D01*
X100731000Y-88114285D01*
X100827317Y-88096162D01*
X101043441Y-87957090D01*
X101089969Y-87888994D01*
X101232302Y-88031327D01*
X101465691Y-88128000D01*
X102056250Y-88128000D01*
X102215000Y-87969250D01*
X102215000Y-86995000D01*
X102469000Y-86995000D01*
X102469000Y-87969250D01*
X102627750Y-88128000D01*
X103218309Y-88128000D01*
X103451698Y-88031327D01*
X103630327Y-87852699D01*
X103727000Y-87619310D01*
X103727000Y-87153750D01*
X103568250Y-86995000D01*
X102469000Y-86995000D01*
X102215000Y-86995000D01*
X102195000Y-86995000D01*
X102195000Y-86741000D01*
X102215000Y-86741000D01*
X102215000Y-85766750D01*
X102469000Y-85766750D01*
X102469000Y-86741000D01*
X103568250Y-86741000D01*
X103727000Y-86582250D01*
X103727000Y-86116690D01*
X103630327Y-85883301D01*
X103451698Y-85704673D01*
X103218309Y-85608000D01*
X102627750Y-85608000D01*
X102469000Y-85766750D01*
X102215000Y-85766750D01*
X102056250Y-85608000D01*
X101465691Y-85608000D01*
X101232302Y-85704673D01*
X101091064Y-85845910D01*
X101056090Y-85791559D01*
X100858000Y-85656210D01*
X100858000Y-84740530D01*
X101237357Y-85120551D01*
X101801330Y-85354733D01*
X102411991Y-85355265D01*
X102976371Y-85122068D01*
X103198668Y-84900159D01*
X103747446Y-84900159D01*
X103833852Y-85156643D01*
X104407336Y-85366458D01*
X105017460Y-85340839D01*
X105462148Y-85156643D01*
X105548554Y-84900159D01*
X104648000Y-83999605D01*
X103747446Y-84900159D01*
X103198668Y-84900159D01*
X103408551Y-84690643D01*
X103417203Y-84669806D01*
X103567841Y-84720554D01*
X104468395Y-83820000D01*
X104827605Y-83820000D01*
X105728159Y-84720554D01*
X105984643Y-84634148D01*
X106194458Y-84060664D01*
X106174248Y-83579336D01*
X108181542Y-83579336D01*
X108207161Y-84189460D01*
X108391357Y-84634148D01*
X108647841Y-84720554D01*
X109548395Y-83820000D01*
X108647841Y-82919446D01*
X108391357Y-83005852D01*
X108181542Y-83579336D01*
X106174248Y-83579336D01*
X106168839Y-83450540D01*
X105984643Y-83005852D01*
X105728159Y-82919446D01*
X104827605Y-83820000D01*
X104468395Y-83820000D01*
X103567841Y-82919446D01*
X103417673Y-82970035D01*
X103410068Y-82951629D01*
X103198650Y-82739841D01*
X103747446Y-82739841D01*
X104648000Y-83640395D01*
X105548554Y-82739841D01*
X105462148Y-82483357D01*
X104888664Y-82273542D01*
X104278540Y-82299161D01*
X103833852Y-82483357D01*
X103747446Y-82739841D01*
X103198650Y-82739841D01*
X102978643Y-82519449D01*
X102414670Y-82285267D01*
X101804009Y-82284735D01*
X101239629Y-82517932D01*
X100837677Y-82919182D01*
X100438643Y-82519449D01*
X99874670Y-82285267D01*
X99264009Y-82284735D01*
X98699629Y-82517932D01*
X98267449Y-82949357D01*
X98033267Y-83513330D01*
X98032735Y-84123991D01*
X98265932Y-84688371D01*
X98697357Y-85120551D01*
X98826000Y-85173968D01*
X98826000Y-85659582D01*
X98640559Y-85778910D01*
X98495569Y-85991110D01*
X98444560Y-86243000D01*
X98444560Y-87493000D01*
X98488838Y-87728317D01*
X98627910Y-87944441D01*
X98840110Y-88089431D01*
X98862749Y-88094015D01*
X96443440Y-90513324D01*
X96443440Y-89116000D01*
X96399162Y-88880683D01*
X96260090Y-88664559D01*
X96047890Y-88519569D01*
X95796000Y-88468560D01*
X94196000Y-88468560D01*
X93960683Y-88512838D01*
X93744559Y-88651910D01*
X93599569Y-88864110D01*
X93548560Y-89116000D01*
X93548560Y-90716000D01*
X93592838Y-90951317D01*
X93731910Y-91167441D01*
X93944110Y-91312431D01*
X94196000Y-91363440D01*
X94439087Y-91363440D01*
X94184200Y-91468757D01*
X93780176Y-91872077D01*
X93561250Y-92399309D01*
X93560752Y-92970187D01*
X93778757Y-93497800D01*
X94182077Y-93901824D01*
X94589850Y-94071146D01*
X94184200Y-94238757D01*
X93780176Y-94642077D01*
X93561250Y-95169309D01*
X93560752Y-95740187D01*
X93582222Y-95792148D01*
X93315729Y-96058641D01*
X93163745Y-96012861D01*
X92335605Y-96841000D01*
X92349748Y-96855142D01*
X92170142Y-97034748D01*
X92156000Y-97020605D01*
X91327861Y-97848745D01*
X91401995Y-98094864D01*
X91740999Y-98216716D01*
X91401995Y-98357136D01*
X91327861Y-98603255D01*
X92156000Y-99431395D01*
X92170142Y-99417252D01*
X92349748Y-99596858D01*
X92335605Y-99611000D01*
X92349748Y-99625142D01*
X92170142Y-99804748D01*
X92156000Y-99790605D01*
X91327861Y-100618745D01*
X91401995Y-100864864D01*
X91740999Y-100986716D01*
X91401995Y-101127136D01*
X91327861Y-101373255D01*
X92156000Y-102201395D01*
X92170142Y-102187252D01*
X92349748Y-102366858D01*
X92335605Y-102381000D01*
X92349748Y-102395142D01*
X92170142Y-102574748D01*
X92156000Y-102560605D01*
X91327861Y-103388745D01*
X91401995Y-103634864D01*
X91740999Y-103756716D01*
X91401995Y-103897136D01*
X91327861Y-104143255D01*
X92156000Y-104971395D01*
X92170142Y-104957252D01*
X92349748Y-105136858D01*
X92335605Y-105151000D01*
X92349748Y-105165142D01*
X92170142Y-105344748D01*
X92156000Y-105330605D01*
X91327861Y-106158745D01*
X91401995Y-106404864D01*
X91740999Y-106526716D01*
X91401995Y-106667136D01*
X91327861Y-106913255D01*
X92156000Y-107741395D01*
X92170142Y-107727252D01*
X92349748Y-107906858D01*
X92335605Y-107921000D01*
X92349748Y-107935142D01*
X92170142Y-108114748D01*
X92156000Y-108100605D01*
X91327861Y-108928745D01*
X91401995Y-109174864D01*
X91939223Y-109367965D01*
X92509454Y-109340778D01*
X92837000Y-109205104D01*
X92837000Y-111698370D01*
X90012185Y-114523185D01*
X89847004Y-114770395D01*
X89789000Y-115062000D01*
X89789000Y-117983000D01*
X89847004Y-118274605D01*
X89971005Y-118460185D01*
X90012185Y-118521815D01*
X91536184Y-120045815D01*
X91680137Y-120142001D01*
X91783395Y-120210996D01*
X92075000Y-120269000D01*
X95061370Y-120269000D01*
X96997185Y-122204815D01*
X97244395Y-122369996D01*
X97536000Y-122428000D01*
X99885787Y-122428000D01*
X99366342Y-122642630D01*
X98821543Y-123186479D01*
X98526337Y-123897416D01*
X98525665Y-124667207D01*
X98819630Y-125378658D01*
X99363479Y-125923457D01*
X99508762Y-125983783D01*
X99366342Y-126042630D01*
X98821543Y-126586479D01*
X98787693Y-126668000D01*
X97995000Y-126668000D01*
X97606193Y-126745338D01*
X97276580Y-126965579D01*
X92118580Y-132123580D01*
X91898338Y-132453193D01*
X91898338Y-132453194D01*
X91821000Y-132842000D01*
X91821000Y-154827043D01*
X91391050Y-153786485D01*
X90313189Y-152706741D01*
X88904175Y-152121667D01*
X87378518Y-152120336D01*
X85968485Y-152702950D01*
X84888741Y-153780811D01*
X84836000Y-153907825D01*
X84836000Y-124667207D01*
X85055665Y-124667207D01*
X85349630Y-125378658D01*
X85893479Y-125923457D01*
X86038762Y-125983783D01*
X85896342Y-126042630D01*
X85351543Y-126586479D01*
X85056337Y-127297416D01*
X85055665Y-128067207D01*
X85349630Y-128778658D01*
X85893479Y-129323457D01*
X86604416Y-129618663D01*
X87374207Y-129619335D01*
X88085658Y-129325370D01*
X88630457Y-128781521D01*
X88925663Y-128070584D01*
X88926335Y-127300793D01*
X88632370Y-126589342D01*
X88088521Y-126044543D01*
X87943238Y-125984217D01*
X88085658Y-125925370D01*
X88630457Y-125381521D01*
X88925663Y-124670584D01*
X88926335Y-123900793D01*
X88632370Y-123189342D01*
X88088521Y-122644543D01*
X87377584Y-122349337D01*
X86607793Y-122348665D01*
X85896342Y-122642630D01*
X85351543Y-123186479D01*
X85056337Y-123897416D01*
X85055665Y-124667207D01*
X84836000Y-124667207D01*
X84836000Y-107704223D01*
X90709035Y-107704223D01*
X90736222Y-108274454D01*
X90902136Y-108675005D01*
X91148255Y-108749139D01*
X91976395Y-107921000D01*
X91148255Y-107092861D01*
X90902136Y-107166995D01*
X90709035Y-107704223D01*
X84836000Y-107704223D01*
X84836000Y-104934223D01*
X90709035Y-104934223D01*
X90736222Y-105504454D01*
X90902136Y-105905005D01*
X91148255Y-105979139D01*
X91976395Y-105151000D01*
X91148255Y-104322861D01*
X90902136Y-104396995D01*
X90709035Y-104934223D01*
X84836000Y-104934223D01*
X84836000Y-102164223D01*
X90709035Y-102164223D01*
X90736222Y-102734454D01*
X90902136Y-103135005D01*
X91148255Y-103209139D01*
X91976395Y-102381000D01*
X91148255Y-101552861D01*
X90902136Y-101626995D01*
X90709035Y-102164223D01*
X84836000Y-102164223D01*
X84836000Y-99394223D01*
X90709035Y-99394223D01*
X90736222Y-99964454D01*
X90902136Y-100365005D01*
X91148255Y-100439139D01*
X91976395Y-99611000D01*
X91148255Y-98782861D01*
X90902136Y-98856995D01*
X90709035Y-99394223D01*
X84836000Y-99394223D01*
X84836000Y-96624223D01*
X90709035Y-96624223D01*
X90736222Y-97194454D01*
X90902136Y-97595005D01*
X91148255Y-97669139D01*
X91976395Y-96841000D01*
X91148255Y-96012861D01*
X90902136Y-96086995D01*
X90709035Y-96624223D01*
X84836000Y-96624223D01*
X84836000Y-95078745D01*
X91327861Y-95078745D01*
X91401995Y-95324864D01*
X91740999Y-95446716D01*
X91401995Y-95587136D01*
X91327861Y-95833255D01*
X92156000Y-96661395D01*
X92984139Y-95833255D01*
X92910005Y-95587136D01*
X92571001Y-95465284D01*
X92910005Y-95324864D01*
X92984139Y-95078745D01*
X92156000Y-94250605D01*
X91327861Y-95078745D01*
X84836000Y-95078745D01*
X84836000Y-93854223D01*
X90709035Y-93854223D01*
X90736222Y-94424454D01*
X90902136Y-94825005D01*
X91148255Y-94899139D01*
X91976395Y-94071000D01*
X92335605Y-94071000D01*
X93163745Y-94899139D01*
X93409864Y-94825005D01*
X93602965Y-94287777D01*
X93575778Y-93717546D01*
X93409864Y-93316995D01*
X93163745Y-93242861D01*
X92335605Y-94071000D01*
X91976395Y-94071000D01*
X91148255Y-93242861D01*
X90902136Y-93316995D01*
X90709035Y-93854223D01*
X84836000Y-93854223D01*
X84836000Y-92308745D01*
X91327861Y-92308745D01*
X91401995Y-92554864D01*
X91740999Y-92676716D01*
X91401995Y-92817136D01*
X91327861Y-93063255D01*
X92156000Y-93891395D01*
X92984139Y-93063255D01*
X92910005Y-92817136D01*
X92571001Y-92695284D01*
X92910005Y-92554864D01*
X92984139Y-92308745D01*
X92156000Y-91480605D01*
X91327861Y-92308745D01*
X84836000Y-92308745D01*
X84836000Y-91084223D01*
X90709035Y-91084223D01*
X90736222Y-91654454D01*
X90902136Y-92055005D01*
X91148255Y-92129139D01*
X91976395Y-91301000D01*
X92335605Y-91301000D01*
X93163745Y-92129139D01*
X93409864Y-92055005D01*
X93602965Y-91517777D01*
X93575778Y-90947546D01*
X93409864Y-90546995D01*
X93163745Y-90472861D01*
X92335605Y-91301000D01*
X91976395Y-91301000D01*
X91148255Y-90472861D01*
X90902136Y-90546995D01*
X90709035Y-91084223D01*
X84836000Y-91084223D01*
X84836000Y-90293255D01*
X91327861Y-90293255D01*
X92156000Y-91121395D01*
X92984139Y-90293255D01*
X92910005Y-90047136D01*
X92372777Y-89854035D01*
X91802546Y-89881222D01*
X91401995Y-90047136D01*
X91327861Y-90293255D01*
X84836000Y-90293255D01*
X84836000Y-72343207D01*
X85309665Y-72343207D01*
X85603630Y-73054658D01*
X86147479Y-73599457D01*
X86292762Y-73659783D01*
X86150342Y-73718630D01*
X85605543Y-74262479D01*
X85310337Y-74973416D01*
X85309665Y-75743207D01*
X85603630Y-76454658D01*
X86147479Y-76999457D01*
X86858416Y-77294663D01*
X87628207Y-77295335D01*
X88339658Y-77001370D01*
X88884457Y-76457521D01*
X89179663Y-75746584D01*
X89180335Y-74976793D01*
X88886370Y-74265342D01*
X88342521Y-73720543D01*
X88197238Y-73660217D01*
X88339658Y-73601370D01*
X88884457Y-73057521D01*
X89179663Y-72346584D01*
X89180335Y-71576793D01*
X88886370Y-70865342D01*
X88342521Y-70320543D01*
X87631584Y-70025337D01*
X86861793Y-70024665D01*
X86150342Y-70318630D01*
X85605543Y-70862479D01*
X85310337Y-71573416D01*
X85309665Y-72343207D01*
X84836000Y-72343207D01*
X84836000Y-64296785D01*
X85563260Y-64296785D01*
X85773669Y-64806015D01*
X86162936Y-65195961D01*
X86671798Y-65407259D01*
X87222785Y-65407740D01*
X87732015Y-65197331D01*
X87948536Y-64981187D01*
X88162936Y-65195961D01*
X88671798Y-65407259D01*
X89222785Y-65407740D01*
X89732015Y-65197331D01*
X89948536Y-64981187D01*
X90162936Y-65195961D01*
X90671798Y-65407259D01*
X91222785Y-65407740D01*
X91732015Y-65197331D01*
X91948536Y-64981187D01*
X92162936Y-65195961D01*
X92671798Y-65407259D01*
X93222785Y-65407740D01*
X93732015Y-65197331D01*
X93948536Y-64981187D01*
X94162936Y-65195961D01*
X94671798Y-65407259D01*
X95222785Y-65407740D01*
X95732015Y-65197331D01*
X95948536Y-64981187D01*
X96162936Y-65195961D01*
X96671798Y-65407259D01*
X97222785Y-65407740D01*
X97732015Y-65197331D01*
X97948536Y-64981187D01*
X98162936Y-65195961D01*
X98671798Y-65407259D01*
X99222785Y-65407740D01*
X99732015Y-65197331D01*
X99948536Y-64981187D01*
X100162936Y-65195961D01*
X100671798Y-65407259D01*
X101222785Y-65407740D01*
X101732015Y-65197331D01*
X101948536Y-64981187D01*
X102162936Y-65195961D01*
X102671798Y-65407259D01*
X103222785Y-65407740D01*
X103732015Y-65197331D01*
X103935683Y-64994017D01*
X104156588Y-64994017D01*
X104224577Y-65234960D01*
X104743671Y-65419701D01*
X105293948Y-65391730D01*
X105491864Y-65309750D01*
X108109000Y-65309750D01*
X108109000Y-65775310D01*
X108205673Y-66008699D01*
X108384302Y-66187327D01*
X108617691Y-66284000D01*
X109208250Y-66284000D01*
X109367000Y-66125250D01*
X109367000Y-65151000D01*
X108267750Y-65151000D01*
X108109000Y-65309750D01*
X105491864Y-65309750D01*
X105672423Y-65234960D01*
X105740412Y-64994017D01*
X104948500Y-64202105D01*
X104156588Y-64994017D01*
X103935683Y-64994017D01*
X104121961Y-64808064D01*
X104220401Y-64570994D01*
X104768895Y-64022500D01*
X105128105Y-64022500D01*
X105920017Y-64814412D01*
X106160960Y-64746423D01*
X106329557Y-64272690D01*
X108109000Y-64272690D01*
X108109000Y-64738250D01*
X108267750Y-64897000D01*
X109367000Y-64897000D01*
X109367000Y-63922750D01*
X109208250Y-63764000D01*
X108617691Y-63764000D01*
X108384302Y-63860673D01*
X108205673Y-64039301D01*
X108109000Y-64272690D01*
X106329557Y-64272690D01*
X106345701Y-64227329D01*
X106317730Y-63677052D01*
X106160960Y-63298577D01*
X105920017Y-63230588D01*
X105128105Y-64022500D01*
X104768895Y-64022500D01*
X104220467Y-63474072D01*
X104123331Y-63238985D01*
X103876776Y-62992000D01*
X104173232Y-62992000D01*
X104156588Y-63050983D01*
X104948500Y-63842895D01*
X105740412Y-63050983D01*
X105672423Y-62810040D01*
X105283872Y-62671758D01*
X106709880Y-61245750D01*
X108109000Y-61245750D01*
X108109000Y-61711310D01*
X108205673Y-61944699D01*
X108384302Y-62123327D01*
X108617691Y-62220000D01*
X109208250Y-62220000D01*
X109367000Y-62061250D01*
X109367000Y-61087000D01*
X108267750Y-61087000D01*
X108109000Y-61245750D01*
X106709880Y-61245750D01*
X108011630Y-59944000D01*
X108236974Y-59944000D01*
X108205673Y-59975301D01*
X108109000Y-60208690D01*
X108109000Y-60674250D01*
X108267750Y-60833000D01*
X109367000Y-60833000D01*
X109367000Y-60813000D01*
X109621000Y-60813000D01*
X109621000Y-60833000D01*
X109641000Y-60833000D01*
X109641000Y-61087000D01*
X109621000Y-61087000D01*
X109621000Y-62061250D01*
X109779750Y-62220000D01*
X110370309Y-62220000D01*
X110603698Y-62123327D01*
X110744936Y-61982090D01*
X110779910Y-62036441D01*
X110992110Y-62181431D01*
X111232000Y-62230010D01*
X111232000Y-62972000D01*
X111290004Y-63263605D01*
X111332928Y-63327845D01*
X111332838Y-63431167D01*
X111465221Y-63751560D01*
X111244000Y-63751560D01*
X111008683Y-63795838D01*
X110792559Y-63934910D01*
X110746031Y-64003006D01*
X110603698Y-63860673D01*
X110370309Y-63764000D01*
X109779750Y-63764000D01*
X109621000Y-63922750D01*
X109621000Y-64897000D01*
X109641000Y-64897000D01*
X109641000Y-65151000D01*
X109621000Y-65151000D01*
X109621000Y-66125250D01*
X109779750Y-66284000D01*
X110370309Y-66284000D01*
X110603698Y-66187327D01*
X110744936Y-66046090D01*
X110779910Y-66100441D01*
X110992110Y-66245431D01*
X111244000Y-66296440D01*
X112744000Y-66296440D01*
X112979317Y-66252162D01*
X113195441Y-66113090D01*
X113340431Y-65900890D01*
X113363697Y-65786000D01*
X113765247Y-65786000D01*
X113791838Y-65927317D01*
X113930910Y-66143441D01*
X114143110Y-66288431D01*
X114395000Y-66339440D01*
X114483000Y-66339440D01*
X114483000Y-66623949D01*
X114381162Y-66869201D01*
X114380838Y-67241167D01*
X114522883Y-67584943D01*
X114785673Y-67848192D01*
X115129201Y-67990838D01*
X115190241Y-67990891D01*
X115284883Y-68219943D01*
X115547673Y-68483192D01*
X115891201Y-68625838D01*
X116263167Y-68626162D01*
X116606943Y-68484117D01*
X116870192Y-68221327D01*
X117012838Y-67877799D01*
X117013162Y-67505833D01*
X116871117Y-67162057D01*
X116657000Y-66947566D01*
X116657000Y-66327000D01*
X116672002Y-66327000D01*
X116672002Y-66195252D01*
X116803750Y-66327000D01*
X116871310Y-66327000D01*
X117104699Y-66230327D01*
X117283327Y-66051698D01*
X117380000Y-65818309D01*
X117380000Y-65427750D01*
X117221250Y-65269000D01*
X116742440Y-65269000D01*
X116742440Y-65015000D01*
X117221250Y-65015000D01*
X117380000Y-64856250D01*
X117380000Y-64465691D01*
X117283327Y-64232302D01*
X117104699Y-64053673D01*
X116994435Y-64008000D01*
X129540000Y-64008000D01*
X129831605Y-63949996D01*
X130078815Y-63784815D01*
X130948190Y-62915440D01*
X132118000Y-62915440D01*
X132353317Y-62871162D01*
X132569441Y-62732090D01*
X132714431Y-62519890D01*
X132723370Y-62475745D01*
X132989861Y-62475745D01*
X133063995Y-62721864D01*
X133601223Y-62914965D01*
X134171454Y-62887778D01*
X134572005Y-62721864D01*
X134646139Y-62475745D01*
X133818000Y-61647605D01*
X132989861Y-62475745D01*
X132723370Y-62475745D01*
X132762646Y-62281799D01*
X132810255Y-62296139D01*
X133638395Y-61468000D01*
X133997605Y-61468000D01*
X134825745Y-62296139D01*
X135071864Y-62222005D01*
X135264965Y-61684777D01*
X135237778Y-61114546D01*
X135071864Y-60713995D01*
X134825745Y-60639861D01*
X133997605Y-61468000D01*
X133638395Y-61468000D01*
X132810255Y-60639861D01*
X132762833Y-60654145D01*
X132726351Y-60460255D01*
X132989861Y-60460255D01*
X133818000Y-61288395D01*
X134646139Y-60460255D01*
X134572005Y-60214136D01*
X134034777Y-60021035D01*
X133464546Y-60048222D01*
X133063995Y-60214136D01*
X132989861Y-60460255D01*
X132726351Y-60460255D01*
X132721162Y-60432683D01*
X132582090Y-60216559D01*
X132369890Y-60071569D01*
X132118000Y-60020560D01*
X132080000Y-60020560D01*
X132080000Y-55050366D01*
X132203317Y-55027162D01*
X132419441Y-54888090D01*
X132564431Y-54675890D01*
X132615440Y-54424000D01*
X132615440Y-52924000D01*
X132571162Y-52688683D01*
X132432090Y-52472559D01*
X132219890Y-52327569D01*
X132206803Y-52324919D01*
X132419441Y-52188090D01*
X132564431Y-51975890D01*
X132615440Y-51724000D01*
X132615440Y-50224000D01*
X132571162Y-49988683D01*
X132432090Y-49772559D01*
X132219890Y-49627569D01*
X131968000Y-49576560D01*
X130935600Y-49576560D01*
X130982838Y-49462799D01*
X130983162Y-49090833D01*
X130841117Y-48747057D01*
X130578327Y-48483808D01*
X130234799Y-48341162D01*
X129862833Y-48340838D01*
X129519057Y-48482883D01*
X129255808Y-48745673D01*
X129113162Y-49089201D01*
X129113124Y-49133246D01*
X128716370Y-49530000D01*
X110871000Y-49530000D01*
X110579395Y-49588004D01*
X110520182Y-49627569D01*
X110332185Y-49753184D01*
X109626185Y-50459185D01*
X109461004Y-50706395D01*
X109448949Y-50767000D01*
X109387998Y-50767000D01*
X109387998Y-50898748D01*
X109256250Y-50767000D01*
X109188690Y-50767000D01*
X108955301Y-50863673D01*
X108776673Y-51042302D01*
X108680000Y-51275691D01*
X108680000Y-51666250D01*
X108838750Y-51825000D01*
X109317560Y-51825000D01*
X109317560Y-52079000D01*
X108838750Y-52079000D01*
X108680000Y-52237750D01*
X108680000Y-52628309D01*
X108776673Y-52861698D01*
X108955301Y-53040327D01*
X109188690Y-53137000D01*
X109256250Y-53137000D01*
X109415000Y-52978250D01*
X109415000Y-52819933D01*
X109500910Y-52953441D01*
X109713110Y-53098431D01*
X109740785Y-53104035D01*
X109773750Y-53137000D01*
X109841310Y-53137000D01*
X109861753Y-53128532D01*
X109965000Y-53149440D01*
X109983930Y-53149440D01*
X109666370Y-53467000D01*
X108077000Y-53467000D01*
X107785395Y-53525004D01*
X107538184Y-53690185D01*
X106727255Y-54501114D01*
X106711117Y-54462057D01*
X106448327Y-54198808D01*
X106104799Y-54056162D01*
X105732833Y-54055838D01*
X105389057Y-54197883D01*
X105125808Y-54460673D01*
X104983162Y-54804201D01*
X104983124Y-54848246D01*
X102634370Y-57197000D01*
X93878182Y-57197000D01*
X93836162Y-56973683D01*
X93697090Y-56757559D01*
X93484890Y-56612569D01*
X93233000Y-56561560D01*
X91933000Y-56561560D01*
X91697683Y-56605838D01*
X91481559Y-56744910D01*
X91336569Y-56957110D01*
X91285560Y-57209000D01*
X91285560Y-58178810D01*
X90922000Y-58542370D01*
X90922000Y-58471750D01*
X90763250Y-58313000D01*
X89789000Y-58313000D01*
X89789000Y-58333000D01*
X89535000Y-58333000D01*
X89535000Y-58313000D01*
X88560750Y-58313000D01*
X88402000Y-58471750D01*
X88402000Y-58785054D01*
X88255000Y-58883277D01*
X88255000Y-58471750D01*
X88096250Y-58313000D01*
X87122000Y-58313000D01*
X87122000Y-58333000D01*
X86868000Y-58333000D01*
X86868000Y-58313000D01*
X85893750Y-58313000D01*
X85735000Y-58471750D01*
X85735000Y-59062309D01*
X85831673Y-59295698D01*
X85972910Y-59436936D01*
X85918559Y-59471910D01*
X85773569Y-59684110D01*
X85722560Y-59936000D01*
X85722560Y-61436000D01*
X85766838Y-61671317D01*
X85905910Y-61887441D01*
X86118110Y-62032431D01*
X86186500Y-62046280D01*
X86186500Y-62838779D01*
X86164985Y-62847669D01*
X85775039Y-63236936D01*
X85563741Y-63745798D01*
X85563260Y-64296785D01*
X84836000Y-64296785D01*
X84836000Y-57309691D01*
X85735000Y-57309691D01*
X85735000Y-57900250D01*
X85893750Y-58059000D01*
X86868000Y-58059000D01*
X86868000Y-56959750D01*
X87122000Y-56959750D01*
X87122000Y-58059000D01*
X88096250Y-58059000D01*
X88255000Y-57900250D01*
X88255000Y-57309691D01*
X88402000Y-57309691D01*
X88402000Y-57900250D01*
X88560750Y-58059000D01*
X89535000Y-58059000D01*
X89535000Y-56959750D01*
X89789000Y-56959750D01*
X89789000Y-58059000D01*
X90763250Y-58059000D01*
X90922000Y-57900250D01*
X90922000Y-57309691D01*
X90825327Y-57076302D01*
X90646699Y-56897673D01*
X90413310Y-56801000D01*
X89947750Y-56801000D01*
X89789000Y-56959750D01*
X89535000Y-56959750D01*
X89376250Y-56801000D01*
X88910690Y-56801000D01*
X88677301Y-56897673D01*
X88498673Y-57076302D01*
X88402000Y-57309691D01*
X88255000Y-57309691D01*
X88158327Y-57076302D01*
X87979699Y-56897673D01*
X87746310Y-56801000D01*
X87280750Y-56801000D01*
X87122000Y-56959750D01*
X86868000Y-56959750D01*
X86709250Y-56801000D01*
X86243690Y-56801000D01*
X86010301Y-56897673D01*
X85831673Y-57076302D01*
X85735000Y-57309691D01*
X84836000Y-57309691D01*
X84836000Y-48765482D01*
X87858336Y-48765482D01*
X88440950Y-50175515D01*
X89518811Y-51255259D01*
X90927825Y-51840333D01*
X92453482Y-51841664D01*
X93863515Y-51259050D01*
X94943259Y-50181189D01*
X95528333Y-48772175D01*
X95529664Y-47246518D01*
X95121940Y-46259750D01*
X108363000Y-46259750D01*
X108363000Y-46725310D01*
X108459673Y-46958699D01*
X108638302Y-47137327D01*
X108871691Y-47234000D01*
X109462250Y-47234000D01*
X109621000Y-47075250D01*
X109621000Y-46101000D01*
X108521750Y-46101000D01*
X108363000Y-46259750D01*
X95121940Y-46259750D01*
X94947050Y-45836485D01*
X94334326Y-45222690D01*
X108363000Y-45222690D01*
X108363000Y-45688250D01*
X108521750Y-45847000D01*
X109621000Y-45847000D01*
X109621000Y-44872750D01*
X109462250Y-44714000D01*
X108871691Y-44714000D01*
X108638302Y-44810673D01*
X108459673Y-44989301D01*
X108363000Y-45222690D01*
X94334326Y-45222690D01*
X93869189Y-44756741D01*
X92460175Y-44171667D01*
X90934518Y-44170336D01*
X89524485Y-44752950D01*
X88444741Y-45830811D01*
X87859667Y-47239825D01*
X87858336Y-48765482D01*
X84836000Y-48765482D01*
X84836000Y-42296785D01*
X85563260Y-42296785D01*
X85773669Y-42806015D01*
X86162936Y-43195961D01*
X86671798Y-43407259D01*
X87222785Y-43407740D01*
X87732015Y-43197331D01*
X87948536Y-42981187D01*
X88162936Y-43195961D01*
X88671798Y-43407259D01*
X89222785Y-43407740D01*
X89732015Y-43197331D01*
X89948536Y-42981187D01*
X90162936Y-43195961D01*
X90671798Y-43407259D01*
X91222785Y-43407740D01*
X91732015Y-43197331D01*
X91948536Y-42981187D01*
X92162936Y-43195961D01*
X92671798Y-43407259D01*
X93222785Y-43407740D01*
X93732015Y-43197331D01*
X93948536Y-42981187D01*
X94162936Y-43195961D01*
X94671798Y-43407259D01*
X95222785Y-43407740D01*
X95732015Y-43197331D01*
X95948536Y-42981187D01*
X96162936Y-43195961D01*
X96671798Y-43407259D01*
X97222785Y-43407740D01*
X97732015Y-43197331D01*
X97948536Y-42981187D01*
X98162936Y-43195961D01*
X98671798Y-43407259D01*
X99222785Y-43407740D01*
X99732015Y-43197331D01*
X99948536Y-42981187D01*
X100162936Y-43195961D01*
X100671798Y-43407259D01*
X101222785Y-43407740D01*
X101732015Y-43197331D01*
X101948536Y-42981187D01*
X102162936Y-43195961D01*
X102671798Y-43407259D01*
X103222785Y-43407740D01*
X103732015Y-43197331D01*
X103948536Y-42981187D01*
X104162936Y-43195961D01*
X104671798Y-43407259D01*
X105222785Y-43407740D01*
X105732015Y-43197331D01*
X106121961Y-42808064D01*
X106333259Y-42299202D01*
X106333571Y-41941750D01*
X108363000Y-41941750D01*
X108363000Y-42407310D01*
X108459673Y-42640699D01*
X108638302Y-42819327D01*
X108871691Y-42916000D01*
X109462250Y-42916000D01*
X109621000Y-42757250D01*
X109621000Y-41783000D01*
X108521750Y-41783000D01*
X108363000Y-41941750D01*
X106333571Y-41941750D01*
X106333740Y-41748215D01*
X106123331Y-41238985D01*
X105789619Y-40904690D01*
X108363000Y-40904690D01*
X108363000Y-41370250D01*
X108521750Y-41529000D01*
X109621000Y-41529000D01*
X109621000Y-40554750D01*
X109875000Y-40554750D01*
X109875000Y-41529000D01*
X109895000Y-41529000D01*
X109895000Y-41783000D01*
X109875000Y-41783000D01*
X109875000Y-42757250D01*
X110033750Y-42916000D01*
X110624309Y-42916000D01*
X110857698Y-42819327D01*
X110998936Y-42678090D01*
X111033910Y-42732441D01*
X111246110Y-42877431D01*
X111247945Y-42877803D01*
X111094808Y-43030673D01*
X110952162Y-43374201D01*
X110951838Y-43746167D01*
X111093883Y-44089943D01*
X111356673Y-44353192D01*
X111700201Y-44495838D01*
X112072167Y-44496162D01*
X112415943Y-44354117D01*
X112447114Y-44323000D01*
X112572000Y-44323000D01*
X112863605Y-44264996D01*
X113110815Y-44099815D01*
X114475190Y-42735440D01*
X114605707Y-42735440D01*
X114706185Y-42885815D01*
X115285666Y-43465296D01*
X115151395Y-43492004D01*
X114904185Y-43657185D01*
X114056185Y-44505185D01*
X113891004Y-44752395D01*
X113849354Y-44961784D01*
X113798569Y-45036110D01*
X113762950Y-45212000D01*
X113619662Y-45212000D01*
X113601162Y-45113683D01*
X113462090Y-44897559D01*
X113249890Y-44752569D01*
X112998000Y-44701560D01*
X111498000Y-44701560D01*
X111262683Y-44745838D01*
X111046559Y-44884910D01*
X111000031Y-44953006D01*
X110857698Y-44810673D01*
X110624309Y-44714000D01*
X110033750Y-44714000D01*
X109875000Y-44872750D01*
X109875000Y-45847000D01*
X109895000Y-45847000D01*
X109895000Y-46101000D01*
X109875000Y-46101000D01*
X109875000Y-47075250D01*
X110033750Y-47234000D01*
X110624309Y-47234000D01*
X110857698Y-47137327D01*
X110998936Y-46996090D01*
X111033910Y-47050441D01*
X111246110Y-47195431D01*
X111498000Y-47246440D01*
X112998000Y-47246440D01*
X113233317Y-47202162D01*
X113449441Y-47063090D01*
X113594431Y-46850890D01*
X113617697Y-46736000D01*
X113864348Y-46736000D01*
X113930910Y-46839441D01*
X114143110Y-46984431D01*
X114395000Y-47035440D01*
X114483000Y-47035440D01*
X114483000Y-47446949D01*
X114381162Y-47692201D01*
X114380838Y-48064167D01*
X114522883Y-48407943D01*
X114785673Y-48671192D01*
X115129201Y-48813838D01*
X115501167Y-48814162D01*
X115545693Y-48795764D01*
X115801673Y-49052192D01*
X116145201Y-49194838D01*
X116517167Y-49195162D01*
X116860943Y-49053117D01*
X117124192Y-48790327D01*
X117266838Y-48446799D01*
X117267162Y-48074833D01*
X117125117Y-47731057D01*
X116862327Y-47467808D01*
X116657000Y-47382548D01*
X116657000Y-47023000D01*
X116672002Y-47023000D01*
X116672002Y-46891252D01*
X116803750Y-47023000D01*
X116871310Y-47023000D01*
X117104699Y-46926327D01*
X117283327Y-46747698D01*
X117380000Y-46514309D01*
X117380000Y-46123750D01*
X117221250Y-45965000D01*
X116742440Y-45965000D01*
X116742440Y-45711000D01*
X117221250Y-45711000D01*
X117380000Y-45552250D01*
X117380000Y-45161691D01*
X117367340Y-45131128D01*
X117406167Y-45131162D01*
X117749943Y-44989117D01*
X118013192Y-44726327D01*
X118155838Y-44382799D01*
X118156162Y-44010833D01*
X118014117Y-43667057D01*
X117973705Y-43626574D01*
X118028838Y-43493799D01*
X118029162Y-43121833D01*
X117887117Y-42778057D01*
X117624327Y-42514808D01*
X117309652Y-42384143D01*
X117380000Y-42214309D01*
X117380000Y-41823750D01*
X117221250Y-41665000D01*
X116742440Y-41665000D01*
X116742440Y-41411000D01*
X117221250Y-41411000D01*
X117380000Y-41252250D01*
X117380000Y-40861691D01*
X117283327Y-40628302D01*
X117104699Y-40449673D01*
X116871310Y-40353000D01*
X116803750Y-40353000D01*
X116645000Y-40511750D01*
X116645000Y-40670067D01*
X116559090Y-40536559D01*
X116346890Y-40391569D01*
X116319215Y-40385965D01*
X116286250Y-40353000D01*
X116218690Y-40353000D01*
X116198247Y-40361468D01*
X116095000Y-40340560D01*
X115695000Y-40340560D01*
X115565411Y-40364944D01*
X115445000Y-40340560D01*
X115045000Y-40340560D01*
X114915411Y-40364944D01*
X114795000Y-40340560D01*
X114395000Y-40340560D01*
X114159683Y-40384838D01*
X113943559Y-40523910D01*
X113798569Y-40736110D01*
X113766595Y-40894000D01*
X113619662Y-40894000D01*
X113601162Y-40795683D01*
X113462090Y-40579559D01*
X113249890Y-40434569D01*
X112998000Y-40383560D01*
X111498000Y-40383560D01*
X111262683Y-40427838D01*
X111046559Y-40566910D01*
X111000031Y-40635006D01*
X110857698Y-40492673D01*
X110624309Y-40396000D01*
X110033750Y-40396000D01*
X109875000Y-40554750D01*
X109621000Y-40554750D01*
X109462250Y-40396000D01*
X108871691Y-40396000D01*
X108638302Y-40492673D01*
X108459673Y-40671301D01*
X108363000Y-40904690D01*
X105789619Y-40904690D01*
X105734064Y-40849039D01*
X105225202Y-40637741D01*
X104674215Y-40637260D01*
X104164985Y-40847669D01*
X103948464Y-41063813D01*
X103734064Y-40849039D01*
X103225202Y-40637741D01*
X102674215Y-40637260D01*
X102164985Y-40847669D01*
X101948464Y-41063813D01*
X101734064Y-40849039D01*
X101225202Y-40637741D01*
X100674215Y-40637260D01*
X100164985Y-40847669D01*
X99948464Y-41063813D01*
X99734064Y-40849039D01*
X99225202Y-40637741D01*
X98674215Y-40637260D01*
X98164985Y-40847669D01*
X97948464Y-41063813D01*
X97734064Y-40849039D01*
X97225202Y-40637741D01*
X96674215Y-40637260D01*
X96164985Y-40847669D01*
X95948464Y-41063813D01*
X95734064Y-40849039D01*
X95225202Y-40637741D01*
X94674215Y-40637260D01*
X94164985Y-40847669D01*
X93948464Y-41063813D01*
X93734064Y-40849039D01*
X93225202Y-40637741D01*
X92674215Y-40637260D01*
X92164985Y-40847669D01*
X91948464Y-41063813D01*
X91734064Y-40849039D01*
X91225202Y-40637741D01*
X90674215Y-40637260D01*
X90164985Y-40847669D01*
X89948464Y-41063813D01*
X89734064Y-40849039D01*
X89225202Y-40637741D01*
X88674215Y-40637260D01*
X88164985Y-40847669D01*
X87948464Y-41063813D01*
X87734064Y-40849039D01*
X87225202Y-40637741D01*
X86674215Y-40637260D01*
X86164985Y-40847669D01*
X85775039Y-41236936D01*
X85563741Y-41745798D01*
X85563260Y-42296785D01*
X84836000Y-42296785D01*
X84836000Y-39878000D01*
X135382000Y-39878000D01*
X135382000Y-93537369D01*
G36*
X127778185Y-51512816D02*
X127926377Y-51611834D01*
X128025395Y-51677996D01*
X128317000Y-51736000D01*
X130022818Y-51736000D01*
X130064838Y-51959317D01*
X130203910Y-52175441D01*
X130416110Y-52320431D01*
X130429197Y-52323081D01*
X130216559Y-52459910D01*
X130071569Y-52672110D01*
X130020560Y-52924000D01*
X130020560Y-54424000D01*
X130064838Y-54659317D01*
X130203910Y-54875441D01*
X130416110Y-55020431D01*
X130556000Y-55048759D01*
X130556000Y-60020560D01*
X130518000Y-60020560D01*
X130282683Y-60064838D01*
X130066559Y-60203910D01*
X129921569Y-60416110D01*
X129870560Y-60668000D01*
X129870560Y-61837810D01*
X129224370Y-62484000D01*
X112828466Y-62484000D01*
X112798327Y-62453808D01*
X112756000Y-62436232D01*
X112756000Y-62230182D01*
X112979317Y-62188162D01*
X113195441Y-62049090D01*
X113340431Y-61836890D01*
X113361874Y-61731000D01*
X113858556Y-61731000D01*
X113930910Y-61843441D01*
X114143110Y-61988431D01*
X114395000Y-62039440D01*
X114795000Y-62039440D01*
X114924589Y-62015056D01*
X115045000Y-62039440D01*
X115445000Y-62039440D01*
X115574589Y-62015056D01*
X115695000Y-62039440D01*
X116095000Y-62039440D01*
X116200705Y-62019550D01*
X116218690Y-62027000D01*
X116286250Y-62027000D01*
X116315254Y-61997996D01*
X116330317Y-61995162D01*
X116546441Y-61856090D01*
X116645000Y-61711844D01*
X116645000Y-61868250D01*
X116803750Y-62027000D01*
X116871310Y-62027000D01*
X117104699Y-61930327D01*
X117283327Y-61751698D01*
X117380000Y-61518309D01*
X117380000Y-61127750D01*
X117221250Y-60969000D01*
X116742440Y-60969000D01*
X116742440Y-60715000D01*
X117221250Y-60715000D01*
X117380000Y-60556250D01*
X117380000Y-60165691D01*
X117340778Y-60071000D01*
X120523000Y-60071000D01*
X120814605Y-60012996D01*
X121061815Y-59847815D01*
X123459506Y-57450125D01*
X123502167Y-57450162D01*
X123845943Y-57308117D01*
X124109192Y-57045327D01*
X124251838Y-56701799D01*
X124252162Y-56329833D01*
X124110117Y-55986057D01*
X123847327Y-55722808D01*
X123503799Y-55580162D01*
X123131833Y-55579838D01*
X122788057Y-55721883D01*
X122524808Y-55984673D01*
X122382162Y-56328201D01*
X122382124Y-56372246D01*
X120207370Y-58547000D01*
X116713000Y-58547000D01*
X116421395Y-58605004D01*
X116334604Y-58662996D01*
X116174185Y-58770184D01*
X115760500Y-59183869D01*
X115219815Y-58643185D01*
X115075864Y-58547000D01*
X114972605Y-58478004D01*
X114681000Y-58420000D01*
X112561463Y-58420000D01*
X112694838Y-58098799D01*
X112695162Y-57726833D01*
X112553117Y-57383057D01*
X112290327Y-57119808D01*
X112232732Y-57095892D01*
X112261431Y-57053890D01*
X112269509Y-57014000D01*
X112471504Y-57014000D01*
X112597910Y-57210441D01*
X112810110Y-57355431D01*
X113062000Y-57406440D01*
X114562000Y-57406440D01*
X114797317Y-57362162D01*
X115013441Y-57223090D01*
X115059969Y-57154994D01*
X115202302Y-57297327D01*
X115435691Y-57394000D01*
X116026250Y-57394000D01*
X116185000Y-57235250D01*
X116185000Y-56261000D01*
X116439000Y-56261000D01*
X116439000Y-57235250D01*
X116597750Y-57394000D01*
X117188309Y-57394000D01*
X117421698Y-57297327D01*
X117600327Y-57118699D01*
X117697000Y-56885310D01*
X117697000Y-56419750D01*
X117538250Y-56261000D01*
X116439000Y-56261000D01*
X116185000Y-56261000D01*
X116165000Y-56261000D01*
X116165000Y-56007000D01*
X116185000Y-56007000D01*
X116185000Y-55032750D01*
X116439000Y-55032750D01*
X116439000Y-56007000D01*
X117538250Y-56007000D01*
X117697000Y-55848250D01*
X117697000Y-55382690D01*
X117600327Y-55149301D01*
X117421698Y-54970673D01*
X117188309Y-54874000D01*
X116597750Y-54874000D01*
X116439000Y-55032750D01*
X116185000Y-55032750D01*
X116026250Y-54874000D01*
X115435691Y-54874000D01*
X115202302Y-54970673D01*
X115061064Y-55111910D01*
X115026090Y-55057559D01*
X114813890Y-54912569D01*
X114562000Y-54861560D01*
X113338559Y-54861560D01*
X113568192Y-54632327D01*
X113710838Y-54288799D01*
X113711162Y-53916833D01*
X113569117Y-53573057D01*
X113338902Y-53342440D01*
X114562000Y-53342440D01*
X114797317Y-53298162D01*
X115013441Y-53159090D01*
X115059969Y-53090994D01*
X115202302Y-53233327D01*
X115435691Y-53330000D01*
X116026250Y-53330000D01*
X116185000Y-53171250D01*
X116185000Y-52197000D01*
X116439000Y-52197000D01*
X116439000Y-53171250D01*
X116597750Y-53330000D01*
X117188309Y-53330000D01*
X117421698Y-53233327D01*
X117600327Y-53054699D01*
X117697000Y-52821310D01*
X117697000Y-52355750D01*
X117538250Y-52197000D01*
X116439000Y-52197000D01*
X116185000Y-52197000D01*
X116165000Y-52197000D01*
X116165000Y-51943000D01*
X116185000Y-51943000D01*
X116185000Y-51923000D01*
X116439000Y-51923000D01*
X116439000Y-51943000D01*
X117538250Y-51943000D01*
X117697000Y-51784250D01*
X117697000Y-51318690D01*
X117600327Y-51085301D01*
X117569026Y-51054000D01*
X127319370Y-51054000D01*
X127778185Y-51512816D01*
X127778185Y-51512816D01*
G37*
X127778185Y-51512816D02*
X127926377Y-51611834D01*
X128025395Y-51677996D01*
X128317000Y-51736000D01*
X130022818Y-51736000D01*
X130064838Y-51959317D01*
X130203910Y-52175441D01*
X130416110Y-52320431D01*
X130429197Y-52323081D01*
X130216559Y-52459910D01*
X130071569Y-52672110D01*
X130020560Y-52924000D01*
X130020560Y-54424000D01*
X130064838Y-54659317D01*
X130203910Y-54875441D01*
X130416110Y-55020431D01*
X130556000Y-55048759D01*
X130556000Y-60020560D01*
X130518000Y-60020560D01*
X130282683Y-60064838D01*
X130066559Y-60203910D01*
X129921569Y-60416110D01*
X129870560Y-60668000D01*
X129870560Y-61837810D01*
X129224370Y-62484000D01*
X112828466Y-62484000D01*
X112798327Y-62453808D01*
X112756000Y-62436232D01*
X112756000Y-62230182D01*
X112979317Y-62188162D01*
X113195441Y-62049090D01*
X113340431Y-61836890D01*
X113361874Y-61731000D01*
X113858556Y-61731000D01*
X113930910Y-61843441D01*
X114143110Y-61988431D01*
X114395000Y-62039440D01*
X114795000Y-62039440D01*
X114924589Y-62015056D01*
X115045000Y-62039440D01*
X115445000Y-62039440D01*
X115574589Y-62015056D01*
X115695000Y-62039440D01*
X116095000Y-62039440D01*
X116200705Y-62019550D01*
X116218690Y-62027000D01*
X116286250Y-62027000D01*
X116315254Y-61997996D01*
X116330317Y-61995162D01*
X116546441Y-61856090D01*
X116645000Y-61711844D01*
X116645000Y-61868250D01*
X116803750Y-62027000D01*
X116871310Y-62027000D01*
X117104699Y-61930327D01*
X117283327Y-61751698D01*
X117380000Y-61518309D01*
X117380000Y-61127750D01*
X117221250Y-60969000D01*
X116742440Y-60969000D01*
X116742440Y-60715000D01*
X117221250Y-60715000D01*
X117380000Y-60556250D01*
X117380000Y-60165691D01*
X117340778Y-60071000D01*
X120523000Y-60071000D01*
X120814605Y-60012996D01*
X121061815Y-59847815D01*
X123459506Y-57450125D01*
X123502167Y-57450162D01*
X123845943Y-57308117D01*
X124109192Y-57045327D01*
X124251838Y-56701799D01*
X124252162Y-56329833D01*
X124110117Y-55986057D01*
X123847327Y-55722808D01*
X123503799Y-55580162D01*
X123131833Y-55579838D01*
X122788057Y-55721883D01*
X122524808Y-55984673D01*
X122382162Y-56328201D01*
X122382124Y-56372246D01*
X120207370Y-58547000D01*
X116713000Y-58547000D01*
X116421395Y-58605004D01*
X116334604Y-58662996D01*
X116174185Y-58770184D01*
X115760500Y-59183869D01*
X115219815Y-58643185D01*
X115075864Y-58547000D01*
X114972605Y-58478004D01*
X114681000Y-58420000D01*
X112561463Y-58420000D01*
X112694838Y-58098799D01*
X112695162Y-57726833D01*
X112553117Y-57383057D01*
X112290327Y-57119808D01*
X112232732Y-57095892D01*
X112261431Y-57053890D01*
X112269509Y-57014000D01*
X112471504Y-57014000D01*
X112597910Y-57210441D01*
X112810110Y-57355431D01*
X113062000Y-57406440D01*
X114562000Y-57406440D01*
X114797317Y-57362162D01*
X115013441Y-57223090D01*
X115059969Y-57154994D01*
X115202302Y-57297327D01*
X115435691Y-57394000D01*
X116026250Y-57394000D01*
X116185000Y-57235250D01*
X116185000Y-56261000D01*
X116439000Y-56261000D01*
X116439000Y-57235250D01*
X116597750Y-57394000D01*
X117188309Y-57394000D01*
X117421698Y-57297327D01*
X117600327Y-57118699D01*
X117697000Y-56885310D01*
X117697000Y-56419750D01*
X117538250Y-56261000D01*
X116439000Y-56261000D01*
X116185000Y-56261000D01*
X116165000Y-56261000D01*
X116165000Y-56007000D01*
X116185000Y-56007000D01*
X116185000Y-55032750D01*
X116439000Y-55032750D01*
X116439000Y-56007000D01*
X117538250Y-56007000D01*
X117697000Y-55848250D01*
X117697000Y-55382690D01*
X117600327Y-55149301D01*
X117421698Y-54970673D01*
X117188309Y-54874000D01*
X116597750Y-54874000D01*
X116439000Y-55032750D01*
X116185000Y-55032750D01*
X116026250Y-54874000D01*
X115435691Y-54874000D01*
X115202302Y-54970673D01*
X115061064Y-55111910D01*
X115026090Y-55057559D01*
X114813890Y-54912569D01*
X114562000Y-54861560D01*
X113338559Y-54861560D01*
X113568192Y-54632327D01*
X113710838Y-54288799D01*
X113711162Y-53916833D01*
X113569117Y-53573057D01*
X113338902Y-53342440D01*
X114562000Y-53342440D01*
X114797317Y-53298162D01*
X115013441Y-53159090D01*
X115059969Y-53090994D01*
X115202302Y-53233327D01*
X115435691Y-53330000D01*
X116026250Y-53330000D01*
X116185000Y-53171250D01*
X116185000Y-52197000D01*
X116439000Y-52197000D01*
X116439000Y-53171250D01*
X116597750Y-53330000D01*
X117188309Y-53330000D01*
X117421698Y-53233327D01*
X117600327Y-53054699D01*
X117697000Y-52821310D01*
X117697000Y-52355750D01*
X117538250Y-52197000D01*
X116439000Y-52197000D01*
X116185000Y-52197000D01*
X116165000Y-52197000D01*
X116165000Y-51943000D01*
X116185000Y-51943000D01*
X116185000Y-51923000D01*
X116439000Y-51923000D01*
X116439000Y-51943000D01*
X117538250Y-51943000D01*
X117697000Y-51784250D01*
X117697000Y-51318690D01*
X117600327Y-51085301D01*
X117569026Y-51054000D01*
X127319370Y-51054000D01*
X127778185Y-51512816D01*
G36*
X112414560Y-52405190D02*
X112414560Y-52695000D01*
X112458838Y-52930317D01*
X112597910Y-53146441D01*
X112627809Y-53166870D01*
X112590833Y-53166838D01*
X112247057Y-53308883D01*
X111983808Y-53571673D01*
X111841162Y-53915201D01*
X111841124Y-53959246D01*
X110926185Y-54874185D01*
X110805662Y-55054560D01*
X110615000Y-55054560D01*
X110485411Y-55078944D01*
X110365000Y-55054560D01*
X109965000Y-55054560D01*
X109859295Y-55074450D01*
X109841310Y-55067000D01*
X109773750Y-55067000D01*
X109744746Y-55096004D01*
X109729683Y-55098838D01*
X109513559Y-55237910D01*
X109415000Y-55382156D01*
X109415000Y-55225750D01*
X109256250Y-55067000D01*
X109188690Y-55067000D01*
X108955301Y-55163673D01*
X108776673Y-55342302D01*
X108680000Y-55575691D01*
X108680000Y-55966250D01*
X108838750Y-56125000D01*
X109317560Y-56125000D01*
X109317560Y-56379000D01*
X108838750Y-56379000D01*
X108680000Y-56537750D01*
X108680000Y-56928309D01*
X108776673Y-57161698D01*
X108955301Y-57340327D01*
X109188690Y-57437000D01*
X109256250Y-57437000D01*
X109301120Y-57392130D01*
X109300838Y-57716167D01*
X109442883Y-58059943D01*
X109705673Y-58323192D01*
X109938811Y-58420000D01*
X107696000Y-58420000D01*
X107404395Y-58478004D01*
X107301136Y-58547000D01*
X107157185Y-58643185D01*
X104332370Y-61468000D01*
X93868492Y-61468000D01*
X93878010Y-61421000D01*
X101647000Y-61421000D01*
X101938605Y-61362996D01*
X102185815Y-61197815D01*
X108392631Y-54991000D01*
X109982000Y-54991000D01*
X110273605Y-54932996D01*
X110520815Y-54767815D01*
X111353815Y-53934815D01*
X111436949Y-53810396D01*
X111518996Y-53687605D01*
X111577000Y-53396000D01*
X111577000Y-53149440D01*
X111665000Y-53149440D01*
X111900317Y-53105162D01*
X112116441Y-52966090D01*
X112261431Y-52753890D01*
X112312440Y-52502000D01*
X112312440Y-52303070D01*
X112414560Y-52405190D01*
X112414560Y-52405190D01*
G37*
X112414560Y-52405190D02*
X112414560Y-52695000D01*
X112458838Y-52930317D01*
X112597910Y-53146441D01*
X112627809Y-53166870D01*
X112590833Y-53166838D01*
X112247057Y-53308883D01*
X111983808Y-53571673D01*
X111841162Y-53915201D01*
X111841124Y-53959246D01*
X110926185Y-54874185D01*
X110805662Y-55054560D01*
X110615000Y-55054560D01*
X110485411Y-55078944D01*
X110365000Y-55054560D01*
X109965000Y-55054560D01*
X109859295Y-55074450D01*
X109841310Y-55067000D01*
X109773750Y-55067000D01*
X109744746Y-55096004D01*
X109729683Y-55098838D01*
X109513559Y-55237910D01*
X109415000Y-55382156D01*
X109415000Y-55225750D01*
X109256250Y-55067000D01*
X109188690Y-55067000D01*
X108955301Y-55163673D01*
X108776673Y-55342302D01*
X108680000Y-55575691D01*
X108680000Y-55966250D01*
X108838750Y-56125000D01*
X109317560Y-56125000D01*
X109317560Y-56379000D01*
X108838750Y-56379000D01*
X108680000Y-56537750D01*
X108680000Y-56928309D01*
X108776673Y-57161698D01*
X108955301Y-57340327D01*
X109188690Y-57437000D01*
X109256250Y-57437000D01*
X109301120Y-57392130D01*
X109300838Y-57716167D01*
X109442883Y-58059943D01*
X109705673Y-58323192D01*
X109938811Y-58420000D01*
X107696000Y-58420000D01*
X107404395Y-58478004D01*
X107301136Y-58547000D01*
X107157185Y-58643185D01*
X104332370Y-61468000D01*
X93868492Y-61468000D01*
X93878010Y-61421000D01*
X101647000Y-61421000D01*
X101938605Y-61362996D01*
X102185815Y-61197815D01*
X108392631Y-54991000D01*
X109982000Y-54991000D01*
X110273605Y-54932996D01*
X110520815Y-54767815D01*
X111353815Y-53934815D01*
X111436949Y-53810396D01*
X111518996Y-53687605D01*
X111577000Y-53396000D01*
X111577000Y-53149440D01*
X111665000Y-53149440D01*
X111900317Y-53105162D01*
X112116441Y-52966090D01*
X112261431Y-52753890D01*
X112312440Y-52502000D01*
X112312440Y-52303070D01*
X112414560Y-52405190D01*
G36*
X128316560Y-139808190D02*
X128316560Y-140604000D01*
X128360838Y-140839317D01*
X128499910Y-141055441D01*
X128712110Y-141200431D01*
X128964000Y-141251440D01*
X130464000Y-141251440D01*
X130699317Y-141207162D01*
X130915441Y-141068090D01*
X131060431Y-140855890D01*
X131063081Y-140842803D01*
X131199910Y-141055441D01*
X131412110Y-141200431D01*
X131652000Y-141249010D01*
X131652000Y-141463370D01*
X131183698Y-141931672D01*
X131127698Y-141875673D01*
X130894309Y-141779000D01*
X130103750Y-141779000D01*
X129945000Y-141937750D01*
X129945000Y-142687000D01*
X129965000Y-142687000D01*
X129965000Y-142941000D01*
X129945000Y-142941000D01*
X129945000Y-142961000D01*
X129691000Y-142961000D01*
X129691000Y-142941000D01*
X128391750Y-142941000D01*
X128233000Y-143099750D01*
X128233000Y-143340310D01*
X128329673Y-143573699D01*
X128508302Y-143752327D01*
X128544747Y-143767423D01*
X128416559Y-143849910D01*
X128271569Y-144062110D01*
X128220560Y-144314000D01*
X128220560Y-145049930D01*
X127762000Y-144591370D01*
X127762000Y-142287690D01*
X128233000Y-142287690D01*
X128233000Y-142528250D01*
X128391750Y-142687000D01*
X129691000Y-142687000D01*
X129691000Y-141937750D01*
X129532250Y-141779000D01*
X128741691Y-141779000D01*
X128508302Y-141875673D01*
X128329673Y-142054301D01*
X128233000Y-142287690D01*
X127762000Y-142287690D01*
X127762000Y-139253630D01*
X128316560Y-139808190D01*
X128316560Y-139808190D01*
G37*
X128316560Y-139808190D02*
X128316560Y-140604000D01*
X128360838Y-140839317D01*
X128499910Y-141055441D01*
X128712110Y-141200431D01*
X128964000Y-141251440D01*
X130464000Y-141251440D01*
X130699317Y-141207162D01*
X130915441Y-141068090D01*
X131060431Y-140855890D01*
X131063081Y-140842803D01*
X131199910Y-141055441D01*
X131412110Y-141200431D01*
X131652000Y-141249010D01*
X131652000Y-141463370D01*
X131183698Y-141931672D01*
X131127698Y-141875673D01*
X130894309Y-141779000D01*
X130103750Y-141779000D01*
X129945000Y-141937750D01*
X129945000Y-142687000D01*
X129965000Y-142687000D01*
X129965000Y-142941000D01*
X129945000Y-142941000D01*
X129945000Y-142961000D01*
X129691000Y-142961000D01*
X129691000Y-142941000D01*
X128391750Y-142941000D01*
X128233000Y-143099750D01*
X128233000Y-143340310D01*
X128329673Y-143573699D01*
X128508302Y-143752327D01*
X128544747Y-143767423D01*
X128416559Y-143849910D01*
X128271569Y-144062110D01*
X128220560Y-144314000D01*
X128220560Y-145049930D01*
X127762000Y-144591370D01*
X127762000Y-142287690D01*
X128233000Y-142287690D01*
X128233000Y-142528250D01*
X128391750Y-142687000D01*
X129691000Y-142687000D01*
X129691000Y-141937750D01*
X129532250Y-141779000D01*
X128741691Y-141779000D01*
X128508302Y-141875673D01*
X128329673Y-142054301D01*
X128233000Y-142287690D01*
X127762000Y-142287690D01*
X127762000Y-139253630D01*
X128316560Y-139808190D01*
G36*
X122563910Y-141055441D02*
X122776110Y-141200431D01*
X123016000Y-141249010D01*
X123016000Y-142503203D01*
X122996683Y-142506838D01*
X122780559Y-142645910D01*
X122693936Y-142772686D01*
X122608250Y-142687000D01*
X121309000Y-142687000D01*
X121309000Y-142707000D01*
X121055000Y-142707000D01*
X121055000Y-142687000D01*
X121035000Y-142687000D01*
X121035000Y-142433000D01*
X121055000Y-142433000D01*
X121055000Y-141683750D01*
X121309000Y-141683750D01*
X121309000Y-142433000D01*
X122608250Y-142433000D01*
X122767000Y-142274250D01*
X122767000Y-142033690D01*
X122670327Y-141800301D01*
X122491698Y-141621673D01*
X122258309Y-141525000D01*
X121467750Y-141525000D01*
X121309000Y-141683750D01*
X121055000Y-141683750D01*
X120896250Y-141525000D01*
X120269000Y-141525000D01*
X120269000Y-141239492D01*
X120328000Y-141251440D01*
X121828000Y-141251440D01*
X122063317Y-141207162D01*
X122279441Y-141068090D01*
X122424431Y-140855890D01*
X122427081Y-140842803D01*
X122563910Y-141055441D01*
X122563910Y-141055441D01*
G37*
X122563910Y-141055441D02*
X122776110Y-141200431D01*
X123016000Y-141249010D01*
X123016000Y-142503203D01*
X122996683Y-142506838D01*
X122780559Y-142645910D01*
X122693936Y-142772686D01*
X122608250Y-142687000D01*
X121309000Y-142687000D01*
X121309000Y-142707000D01*
X121055000Y-142707000D01*
X121055000Y-142687000D01*
X121035000Y-142687000D01*
X121035000Y-142433000D01*
X121055000Y-142433000D01*
X121055000Y-141683750D01*
X121309000Y-141683750D01*
X121309000Y-142433000D01*
X122608250Y-142433000D01*
X122767000Y-142274250D01*
X122767000Y-142033690D01*
X122670327Y-141800301D01*
X122491698Y-141621673D01*
X122258309Y-141525000D01*
X121467750Y-141525000D01*
X121309000Y-141683750D01*
X121055000Y-141683750D01*
X120896250Y-141525000D01*
X120269000Y-141525000D01*
X120269000Y-141239492D01*
X120328000Y-141251440D01*
X121828000Y-141251440D01*
X122063317Y-141207162D01*
X122279441Y-141068090D01*
X122424431Y-140855890D01*
X122427081Y-140842803D01*
X122563910Y-141055441D01*
G36*
X135382000Y-138631664D02*
X135277327Y-138526808D01*
X134933799Y-138384162D01*
X134620000Y-138383889D01*
X134620000Y-138303000D01*
X134561996Y-138011395D01*
X134396815Y-137764185D01*
X133811440Y-137178810D01*
X133811440Y-136510000D01*
X133767162Y-136274683D01*
X133628090Y-136058559D01*
X133415890Y-135913569D01*
X133164000Y-135862560D01*
X131664000Y-135862560D01*
X131428683Y-135906838D01*
X131212559Y-136045910D01*
X131067569Y-136258110D01*
X131064919Y-136271197D01*
X130928090Y-136058559D01*
X130718962Y-135915668D01*
X131841505Y-134793125D01*
X131884167Y-134793162D01*
X132227943Y-134651117D01*
X132491192Y-134388327D01*
X132633838Y-134044799D01*
X132634162Y-133672833D01*
X132492117Y-133329057D01*
X132229327Y-133065808D01*
X131885799Y-132923162D01*
X131513833Y-132922838D01*
X131170057Y-133064883D01*
X130906808Y-133327673D01*
X130764162Y-133671201D01*
X130764124Y-133715246D01*
X129175185Y-135304185D01*
X129010004Y-135551395D01*
X128952000Y-135843000D01*
X128952000Y-135864818D01*
X128728683Y-135906838D01*
X128512559Y-136045910D01*
X128397000Y-136215036D01*
X128397000Y-134046630D01*
X130617631Y-131826000D01*
X131699000Y-131826000D01*
X131990605Y-131767996D01*
X132237815Y-131602815D01*
X135031816Y-128808815D01*
X135156199Y-128622662D01*
X135196996Y-128561605D01*
X135255000Y-128270000D01*
X135255000Y-124206000D01*
X135196996Y-123914395D01*
X135031815Y-123667185D01*
X132060503Y-120695873D01*
X132392167Y-120696162D01*
X132735943Y-120554117D01*
X132999192Y-120291327D01*
X133141838Y-119947799D01*
X133141987Y-119776643D01*
X135382000Y-117536631D01*
X135382000Y-138631664D01*
X135382000Y-138631664D01*
G37*
X135382000Y-138631664D02*
X135277327Y-138526808D01*
X134933799Y-138384162D01*
X134620000Y-138383889D01*
X134620000Y-138303000D01*
X134561996Y-138011395D01*
X134396815Y-137764185D01*
X133811440Y-137178810D01*
X133811440Y-136510000D01*
X133767162Y-136274683D01*
X133628090Y-136058559D01*
X133415890Y-135913569D01*
X133164000Y-135862560D01*
X131664000Y-135862560D01*
X131428683Y-135906838D01*
X131212559Y-136045910D01*
X131067569Y-136258110D01*
X131064919Y-136271197D01*
X130928090Y-136058559D01*
X130718962Y-135915668D01*
X131841505Y-134793125D01*
X131884167Y-134793162D01*
X132227943Y-134651117D01*
X132491192Y-134388327D01*
X132633838Y-134044799D01*
X132634162Y-133672833D01*
X132492117Y-133329057D01*
X132229327Y-133065808D01*
X131885799Y-132923162D01*
X131513833Y-132922838D01*
X131170057Y-133064883D01*
X130906808Y-133327673D01*
X130764162Y-133671201D01*
X130764124Y-133715246D01*
X129175185Y-135304185D01*
X129010004Y-135551395D01*
X128952000Y-135843000D01*
X128952000Y-135864818D01*
X128728683Y-135906838D01*
X128512559Y-136045910D01*
X128397000Y-136215036D01*
X128397000Y-134046630D01*
X130617631Y-131826000D01*
X131699000Y-131826000D01*
X131990605Y-131767996D01*
X132237815Y-131602815D01*
X135031816Y-128808815D01*
X135156199Y-128622662D01*
X135196996Y-128561605D01*
X135255000Y-128270000D01*
X135255000Y-124206000D01*
X135196996Y-123914395D01*
X135031815Y-123667185D01*
X132060503Y-120695873D01*
X132392167Y-120696162D01*
X132735943Y-120554117D01*
X132999192Y-120291327D01*
X133141838Y-119947799D01*
X133141987Y-119776643D01*
X135382000Y-117536631D01*
X135382000Y-138631664D01*
M02*
