G04 #@! TF.FileFunction,Copper,L1,Top,Signal*
%FSLAX46Y46*%
G04 Gerber Fmt 4.6, Leading zero omitted, Abs format (unit mm)*
G04 Created by KiCad (PCBNEW 4.0.7) date Wednesday, May 09, 2018 'PMt' 10:09:01 PM*
%MOMM*%
%LPD*%
G01*
G04 APERTURE LIST*
%ADD10C,0.100000*%
%ADD11R,0.200000X1.200000*%
%ADD12R,1.200000X0.200000*%
%ADD13R,1.600000X1.600000*%
%ADD14O,1.600000X1.600000*%
%ADD15R,1.500000X1.250000*%
%ADD16C,1.600000*%
%ADD17C,2.600000*%
%ADD18C,4.000000*%
%ADD19C,3.500000*%
%ADD20R,0.800000X1.500000*%
%ADD21R,1.450000X2.000000*%
%ADD22R,1.200000X2.200000*%
%ADD23R,5.800000X6.400000*%
%ADD24R,2.750000X3.050000*%
%ADD25R,1.500000X1.300000*%
%ADD26C,1.300000*%
%ADD27R,1.300000X1.300000*%
%ADD28C,1.500000*%
%ADD29R,1.560000X0.650000*%
%ADD30R,1.400000X0.250000*%
%ADD31R,0.250000X1.400000*%
%ADD32R,2.000000X0.530000*%
%ADD33R,1.800000X1.800000*%
%ADD34C,1.800000*%
%ADD35C,6.400000*%
%ADD36C,0.600000*%
%ADD37C,0.254000*%
%ADD38C,0.152400*%
%ADD39C,3.556000*%
%ADD40C,0.762000*%
G04 APERTURE END LIST*
D10*
D11*
X111235000Y-114738000D03*
X111585000Y-114738000D03*
X111935000Y-114738000D03*
X112285000Y-114738000D03*
D12*
X112960000Y-113888000D03*
X112960000Y-113538000D03*
X112960000Y-113188000D03*
D11*
X112285000Y-112338000D03*
X111935000Y-112338000D03*
X111585000Y-112338000D03*
X111235000Y-112338000D03*
D12*
X110560000Y-113188000D03*
X110560000Y-113538000D03*
X110560000Y-113888000D03*
D11*
X111235000Y-109404000D03*
X111585000Y-109404000D03*
X111935000Y-109404000D03*
X112285000Y-109404000D03*
D12*
X112960000Y-108554000D03*
X112960000Y-108204000D03*
X112960000Y-107854000D03*
D11*
X112285000Y-107004000D03*
X111935000Y-107004000D03*
X111585000Y-107004000D03*
X111235000Y-107004000D03*
D12*
X110560000Y-107854000D03*
X110560000Y-108204000D03*
X110560000Y-108554000D03*
D13*
X118364000Y-80264000D03*
D14*
X133604000Y-113284000D03*
X118364000Y-82804000D03*
X133604000Y-110744000D03*
X118364000Y-85344000D03*
X133604000Y-108204000D03*
X118364000Y-87884000D03*
X133604000Y-105664000D03*
X118364000Y-90424000D03*
X133604000Y-103124000D03*
X118364000Y-92964000D03*
X133604000Y-100584000D03*
X118364000Y-95504000D03*
X133604000Y-98044000D03*
X118364000Y-98044000D03*
X133604000Y-95504000D03*
X118364000Y-100584000D03*
X133604000Y-92964000D03*
X118364000Y-103124000D03*
X133604000Y-90424000D03*
X118364000Y-105664000D03*
X133604000Y-87884000D03*
X118364000Y-108204000D03*
X133604000Y-85344000D03*
X118364000Y-110744000D03*
X133604000Y-82804000D03*
X118364000Y-113284000D03*
X133604000Y-80264000D03*
X118364000Y-115824000D03*
X133604000Y-115824000D03*
D15*
X111526000Y-118110000D03*
X114026000Y-118110000D03*
X101366000Y-118110000D03*
X103866000Y-118110000D03*
D13*
X101854000Y-97282000D03*
D16*
X101854000Y-99782000D03*
D13*
X107188000Y-93726000D03*
D16*
X107188000Y-91226000D03*
D15*
X111272000Y-104140000D03*
X113772000Y-104140000D03*
X101366000Y-103124000D03*
X103866000Y-103124000D03*
D17*
X87245000Y-71960000D03*
X87245000Y-75360000D03*
X100715000Y-71960000D03*
X100715000Y-75360000D03*
X86991000Y-124284000D03*
X86991000Y-127684000D03*
X100461000Y-124284000D03*
X100461000Y-127684000D03*
D13*
X94996000Y-89916000D03*
D16*
X94996000Y-92686000D03*
X94996000Y-95456000D03*
X94996000Y-98226000D03*
X94996000Y-100996000D03*
X94996000Y-103766000D03*
X94996000Y-106536000D03*
X94996000Y-109306000D03*
X92156000Y-91301000D03*
X92156000Y-94071000D03*
X92156000Y-96841000D03*
X92156000Y-99611000D03*
X92156000Y-102381000D03*
X92156000Y-105151000D03*
X92156000Y-107921000D03*
D18*
X93576000Y-82961000D03*
X93576000Y-116261000D03*
D19*
X96012000Y-144145000D03*
X96012000Y-137795000D03*
D20*
X124540000Y-47558000D03*
X125640000Y-47558000D03*
X126740000Y-47558000D03*
X127840000Y-47558000D03*
X128940000Y-47558000D03*
X130040000Y-47558000D03*
X131140000Y-47558000D03*
X132240000Y-47558000D03*
D21*
X120870000Y-53258000D03*
X134620000Y-53258000D03*
X120870000Y-44958000D03*
X134620000Y-44958000D03*
D19*
X128905000Y-154178000D03*
X122555000Y-154178000D03*
X116205000Y-154178000D03*
X109855000Y-154178000D03*
X103505000Y-154178000D03*
X97155000Y-154178000D03*
D22*
X124962000Y-138548000D03*
X120402000Y-138548000D03*
D23*
X122682000Y-144848000D03*
D24*
X121157000Y-146523000D03*
X124207000Y-143173000D03*
X124207000Y-146523000D03*
X121157000Y-143173000D03*
D22*
X133598000Y-138548000D03*
X129038000Y-138548000D03*
D23*
X131318000Y-144848000D03*
D24*
X129793000Y-146523000D03*
X132843000Y-143173000D03*
X132843000Y-146523000D03*
X129793000Y-143173000D03*
D22*
X107690000Y-138548000D03*
X103130000Y-138548000D03*
D23*
X105410000Y-144848000D03*
D24*
X103885000Y-146523000D03*
X106935000Y-143173000D03*
X106935000Y-146523000D03*
X103885000Y-143173000D03*
D22*
X116326000Y-138548000D03*
X111766000Y-138548000D03*
D23*
X114046000Y-144848000D03*
D24*
X112521000Y-146523000D03*
X115571000Y-143173000D03*
X115571000Y-146523000D03*
X112521000Y-143173000D03*
D25*
X108284000Y-124714000D03*
X105584000Y-124714000D03*
D26*
X112268000Y-71374000D03*
D27*
X112268000Y-76454000D03*
D26*
X112268000Y-73914000D03*
D28*
X86948500Y-42022500D03*
X86948500Y-64022500D03*
X88948500Y-42022500D03*
X88948500Y-64022500D03*
X90948500Y-42022500D03*
X90948500Y-64022500D03*
X92948500Y-42022500D03*
X92948500Y-64022500D03*
X94948500Y-42022500D03*
X94948500Y-64022500D03*
X96948500Y-42022500D03*
X96948500Y-64022500D03*
X98948500Y-42022500D03*
X98948500Y-64022500D03*
X100948500Y-42022500D03*
X100948500Y-64022500D03*
X102948500Y-42022500D03*
X102948500Y-64022500D03*
X104948500Y-42022500D03*
X104948500Y-64022500D03*
D29*
X100250000Y-92014000D03*
X100250000Y-92964000D03*
X100250000Y-93914000D03*
X102950000Y-93914000D03*
X102950000Y-92014000D03*
D30*
X103996000Y-113792000D03*
X103996000Y-113292000D03*
X103996000Y-114292000D03*
X101236000Y-113292000D03*
X101236000Y-113792000D03*
X101236000Y-114292000D03*
D31*
X103366000Y-112172000D03*
X102866000Y-112172000D03*
X102366000Y-112172000D03*
X101866000Y-112172000D03*
X101866000Y-115412000D03*
X102366000Y-115412000D03*
X102866000Y-115412000D03*
X103366000Y-115412000D03*
D32*
X101116000Y-105821000D03*
X104116000Y-105821000D03*
X101116000Y-107071000D03*
X101116000Y-108321000D03*
X101116000Y-109571000D03*
X104116000Y-109571000D03*
X104116000Y-108321000D03*
X104116000Y-107071000D03*
D33*
X112268000Y-83820000D03*
D34*
X109728000Y-83820000D03*
X104648000Y-83820000D03*
X102108000Y-83820000D03*
X99568000Y-83820000D03*
D13*
X131318000Y-61468000D03*
D16*
X133818000Y-61468000D03*
D35*
X91694000Y-48006000D03*
X130810000Y-70104000D03*
X130302000Y-126238000D03*
X88138000Y-155956000D03*
D36*
X115316000Y-67056000D03*
X111760000Y-57912000D03*
X124333000Y-78486000D03*
X114427000Y-122682000D03*
X118237000Y-64643000D03*
X118237000Y-61849000D03*
X100711000Y-56515000D03*
X106299000Y-57150000D03*
X112014000Y-110490000D03*
X119761000Y-125984000D03*
X131953000Y-135128000D03*
X101600000Y-93091000D03*
X114427000Y-105537000D03*
X114173000Y-112776000D03*
X114046000Y-107442000D03*
X105029000Y-101854000D03*
X99568000Y-108839000D03*
X99822000Y-115570000D03*
X105537000Y-116713000D03*
X112014000Y-115951000D03*
X115824000Y-118491000D03*
X129667000Y-45847000D03*
X115062000Y-121920000D03*
X122301000Y-116205000D03*
X115824000Y-121158000D03*
X123190000Y-116967000D03*
X116586000Y-120396000D03*
X125476000Y-118364000D03*
X116332000Y-90297000D03*
X123952000Y-118618000D03*
X115189000Y-88519000D03*
X126111000Y-119126000D03*
X113792000Y-123444000D03*
X132207000Y-119761000D03*
X124714000Y-117856000D03*
X114046000Y-64135000D03*
X112776000Y-54102000D03*
X117221000Y-44196000D03*
X123698000Y-83312000D03*
X120142000Y-96774000D03*
X116078000Y-67691000D03*
X115316000Y-47879000D03*
X122047000Y-93980000D03*
X125222000Y-84074000D03*
X90932000Y-84328000D03*
X89408000Y-88900000D03*
X124460000Y-82296000D03*
X121031000Y-91694000D03*
X110236000Y-57531000D03*
X116332000Y-48260000D03*
X129540000Y-93599000D03*
X105918000Y-54991000D03*
X112141000Y-51054000D03*
X111887000Y-43561000D03*
X112268000Y-63246000D03*
X109982000Y-92837000D03*
X109728000Y-102108000D03*
X113665000Y-96774000D03*
X123444000Y-137160000D03*
X131699000Y-133858000D03*
X123317000Y-56515000D03*
X117094000Y-43307000D03*
X116332000Y-42545000D03*
X130048000Y-49276000D03*
X107823000Y-113284000D03*
X105410000Y-113665000D03*
X105918000Y-104775000D03*
X107188000Y-106045000D03*
X109093000Y-91186000D03*
X106680000Y-99060000D03*
X123825000Y-138811000D03*
X134747000Y-139319000D03*
X109220000Y-139573000D03*
X115189000Y-139573000D03*
D37*
X118364000Y-80264000D02*
X117729000Y-80264000D01*
X117729000Y-80264000D02*
X115316000Y-77851000D01*
X115316000Y-77851000D02*
X115316000Y-67056000D01*
X120396000Y-57912000D02*
X111760000Y-57912000D01*
X124460000Y-61976000D02*
X120396000Y-57912000D01*
X124460000Y-78359000D02*
X124460000Y-61976000D01*
X124333000Y-78486000D02*
X124460000Y-78359000D01*
X130810000Y-108204000D02*
X128905000Y-110109000D01*
X128905000Y-110109000D02*
X128905000Y-120142000D01*
X128905000Y-120142000D02*
X126365000Y-122682000D01*
X126365000Y-122682000D02*
X114427000Y-122682000D01*
X133604000Y-108204000D02*
X130810000Y-108204000D01*
X118237000Y-64643000D02*
X118237000Y-61849000D01*
D38*
X101727000Y-57531000D02*
X100711000Y-56515000D01*
X105918000Y-57531000D02*
X101727000Y-57531000D01*
X106299000Y-57150000D02*
X105918000Y-57531000D01*
X111235000Y-109404000D02*
X111235000Y-110219000D01*
X111506000Y-110490000D02*
X112014000Y-110490000D01*
X111235000Y-110219000D02*
X111506000Y-110490000D01*
X111585000Y-109404000D02*
X111585000Y-110061000D01*
X111935000Y-110411000D02*
X112014000Y-110490000D01*
X111935000Y-110411000D02*
X111935000Y-109404000D01*
X111585000Y-110061000D02*
X112014000Y-110490000D01*
D37*
X124206000Y-125984000D02*
X119761000Y-125984000D01*
X128524000Y-130302000D02*
X124206000Y-125984000D01*
X130175000Y-130302000D02*
X128524000Y-130302000D01*
X132842000Y-132969000D02*
X130175000Y-130302000D01*
X132842000Y-134239000D02*
X132842000Y-132969000D01*
X131953000Y-135128000D02*
X132842000Y-134239000D01*
X100250000Y-92964000D02*
X101473000Y-92964000D01*
X101473000Y-92964000D02*
X101600000Y-93091000D01*
D38*
X113772000Y-104140000D02*
X113772000Y-104882000D01*
X113772000Y-104882000D02*
X114427000Y-105537000D01*
X112960000Y-113538000D02*
X113792000Y-113538000D01*
X113761000Y-113188000D02*
X114173000Y-112776000D01*
X113761000Y-113188000D02*
X112960000Y-113188000D01*
X114173000Y-113157000D02*
X114173000Y-112776000D01*
X113792000Y-113538000D02*
X114173000Y-113157000D01*
X112960000Y-108204000D02*
X113665000Y-108204000D01*
X113634000Y-107854000D02*
X114046000Y-107442000D01*
X113634000Y-107854000D02*
X112960000Y-107854000D01*
X114046000Y-107823000D02*
X114046000Y-107442000D01*
X113665000Y-108204000D02*
X114046000Y-107823000D01*
X103866000Y-103124000D02*
X103866000Y-103017000D01*
X103866000Y-103017000D02*
X105029000Y-101854000D01*
X100086000Y-108321000D02*
X99568000Y-108839000D01*
X101116000Y-108321000D02*
X100086000Y-108321000D01*
X101236000Y-113792000D02*
X100457000Y-113792000D01*
X99822000Y-115570000D02*
X101100000Y-114292000D01*
X99822000Y-114427000D02*
X99822000Y-115570000D01*
X100457000Y-113792000D02*
X99822000Y-114427000D01*
X101236000Y-114292000D02*
X101100000Y-114292000D01*
X103866000Y-118110000D02*
X104140000Y-118110000D01*
X104140000Y-118110000D02*
X105537000Y-116713000D01*
X111585000Y-114738000D02*
X111585000Y-115522000D01*
X111935000Y-115872000D02*
X112014000Y-115951000D01*
X111935000Y-115872000D02*
X111935000Y-114738000D01*
X111585000Y-115522000D02*
X112014000Y-115951000D01*
X114026000Y-118110000D02*
X115443000Y-118110000D01*
X115443000Y-118110000D02*
X115824000Y-118491000D01*
D37*
X130040000Y-46220000D02*
X130040000Y-47558000D01*
X129667000Y-45847000D02*
X130040000Y-46220000D01*
D39*
X103130000Y-138548000D02*
X103130000Y-137674000D01*
X103130000Y-137674000D02*
X99568000Y-134112000D01*
X96012000Y-137795000D02*
X96012000Y-137668000D01*
X96012000Y-137668000D02*
X99568000Y-134112000D01*
X99568000Y-134112000D02*
X109982000Y-134112000D01*
X109982000Y-134112000D02*
X111766000Y-135896000D01*
X111766000Y-135896000D02*
X111766000Y-138548000D01*
D37*
X130048000Y-105664000D02*
X128143000Y-107569000D01*
X128143000Y-107569000D02*
X128143000Y-120015000D01*
X128143000Y-120015000D02*
X126238000Y-121920000D01*
X126238000Y-121920000D02*
X115062000Y-121920000D01*
X133604000Y-105664000D02*
X130048000Y-105664000D01*
X120142000Y-103124000D02*
X118364000Y-103124000D01*
X122428000Y-105410000D02*
X120142000Y-103124000D01*
X122428000Y-116078000D02*
X122428000Y-105410000D01*
X122301000Y-116205000D02*
X122428000Y-116078000D01*
X128270000Y-103124000D02*
X127508000Y-103886000D01*
X127508000Y-103886000D02*
X127508000Y-119634000D01*
X127508000Y-119634000D02*
X125984000Y-121158000D01*
X125984000Y-121158000D02*
X115824000Y-121158000D01*
X133604000Y-103124000D02*
X128270000Y-103124000D01*
X121285000Y-100584000D02*
X118364000Y-100584000D01*
X123317000Y-102616000D02*
X121285000Y-100584000D01*
X123317000Y-116840000D02*
X123317000Y-102616000D01*
X123190000Y-116967000D02*
X123317000Y-116840000D01*
X128778000Y-100584000D02*
X126746000Y-102616000D01*
X126746000Y-102616000D02*
X126746000Y-119634000D01*
X126746000Y-119634000D02*
X125984000Y-120396000D01*
X125984000Y-120396000D02*
X116586000Y-120396000D01*
X133604000Y-100584000D02*
X128778000Y-100584000D01*
X125476000Y-118364000D02*
X125476000Y-113030000D01*
X125476000Y-113030000D02*
X125476000Y-107950000D01*
X125476000Y-107950000D02*
X125476000Y-103759000D01*
X125476000Y-103759000D02*
X125476000Y-96266000D01*
X125476000Y-96266000D02*
X121920000Y-92710000D01*
X121920000Y-92710000D02*
X118618000Y-92710000D01*
X118618000Y-92710000D02*
X118364000Y-92964000D01*
X133604000Y-98044000D02*
X130175000Y-98044000D01*
X117475000Y-89154000D02*
X116332000Y-90297000D01*
X121285000Y-89154000D02*
X117475000Y-89154000D01*
X130175000Y-98044000D02*
X121285000Y-89154000D01*
X123952000Y-118618000D02*
X123952000Y-110871000D01*
X118364000Y-98044000D02*
X121158000Y-98044000D01*
X123952000Y-100838000D02*
X121158000Y-98044000D01*
X123952000Y-110871000D02*
X123952000Y-100838000D01*
X133604000Y-95504000D02*
X130175000Y-95504000D01*
X117094000Y-86614000D02*
X115189000Y-88519000D01*
X121285000Y-86614000D02*
X117094000Y-86614000D01*
X130175000Y-95504000D02*
X121285000Y-86614000D01*
X126111000Y-119126000D02*
X126111000Y-116332000D01*
X126111000Y-116332000D02*
X126111000Y-111887000D01*
X126111000Y-111887000D02*
X126111000Y-103378000D01*
X126111000Y-103378000D02*
X125984000Y-103251000D01*
X125984000Y-103251000D02*
X125984000Y-95758000D01*
X125984000Y-95758000D02*
X120650000Y-90424000D01*
X118364000Y-90424000D02*
X120650000Y-90424000D01*
X126619000Y-123444000D02*
X113792000Y-123444000D01*
X128905000Y-121158000D02*
X126619000Y-123444000D01*
X130810000Y-121158000D02*
X128905000Y-121158000D01*
X132207000Y-119761000D02*
X130810000Y-121158000D01*
X122301000Y-95504000D02*
X118364000Y-95504000D01*
X124714000Y-97917000D02*
X122301000Y-95504000D01*
X124714000Y-105410000D02*
X124714000Y-97917000D01*
X124714000Y-117475000D02*
X124714000Y-105410000D01*
X124714000Y-117856000D02*
X124714000Y-117475000D01*
X111633000Y-53467000D02*
X112776000Y-52324000D01*
X109347000Y-53467000D02*
X111633000Y-53467000D01*
X107823000Y-54991000D02*
X109347000Y-53467000D01*
X107823000Y-56515000D02*
X107823000Y-54991000D01*
X113411000Y-62103000D02*
X107823000Y-56515000D01*
X113411000Y-63500000D02*
X113411000Y-62103000D01*
X114046000Y-64135000D02*
X113411000Y-63500000D01*
X117221000Y-44196000D02*
X115316000Y-44196000D01*
X115316000Y-44196000D02*
X112776000Y-46736000D01*
X112776000Y-46736000D02*
X112776000Y-52324000D01*
X112776000Y-52324000D02*
X112776000Y-54102000D01*
X133604000Y-87884000D02*
X131826000Y-87884000D01*
X118491000Y-45466000D02*
X117221000Y-44196000D01*
X118491000Y-46609000D02*
X118491000Y-45466000D01*
X122301000Y-50419000D02*
X118491000Y-46609000D01*
X122301000Y-56388000D02*
X122301000Y-50419000D01*
X126746000Y-60833000D02*
X122301000Y-56388000D01*
X126746000Y-82804000D02*
X126746000Y-60833000D01*
X131826000Y-87884000D02*
X126746000Y-82804000D01*
X117729000Y-96774000D02*
X119253000Y-96774000D01*
X116840000Y-108966000D02*
X116840000Y-97663000D01*
X116840000Y-97663000D02*
X117602000Y-96901000D01*
X117602000Y-96901000D02*
X117729000Y-96774000D01*
X118364000Y-110490000D02*
X116840000Y-108966000D01*
X116078000Y-75692000D02*
X116078000Y-74168000D01*
X123698000Y-83312000D02*
X116078000Y-75692000D01*
X119761000Y-96774000D02*
X120142000Y-96774000D01*
X119253000Y-96774000D02*
X119761000Y-96774000D01*
X116078000Y-74041000D02*
X116078000Y-67691000D01*
X118364000Y-110744000D02*
X118364000Y-110490000D01*
X115316000Y-47879000D02*
X115316000Y-48260000D01*
X116332000Y-111506000D02*
X116332000Y-96393000D01*
X116332000Y-96393000D02*
X116332000Y-95377000D01*
X116332000Y-95377000D02*
X117475000Y-94234000D01*
X117475000Y-94234000D02*
X121793000Y-94234000D01*
X121793000Y-94234000D02*
X122047000Y-93980000D01*
X116332000Y-111506000D02*
X118110000Y-113284000D01*
X125222000Y-61722000D02*
X125222000Y-84074000D01*
X118364000Y-54864000D02*
X125222000Y-61722000D01*
X118364000Y-51308000D02*
X118364000Y-54864000D01*
X115316000Y-48260000D02*
X118364000Y-51308000D01*
X118364000Y-113284000D02*
X118110000Y-113284000D01*
D40*
X100250000Y-93914000D02*
X100250000Y-95678000D01*
X100250000Y-95678000D02*
X101854000Y-97282000D01*
X100250000Y-93914000D02*
X98994000Y-93914000D01*
X98044000Y-92964000D02*
X98044000Y-89916000D01*
X98994000Y-93914000D02*
X98044000Y-92964000D01*
X100250000Y-92014000D02*
X100142000Y-92014000D01*
X100142000Y-92014000D02*
X98044000Y-89916000D01*
X98044000Y-89916000D02*
X96012000Y-87884000D01*
X96012000Y-87884000D02*
X94488000Y-87884000D01*
X94488000Y-87884000D02*
X90932000Y-84328000D01*
X108284000Y-124714000D02*
X108284000Y-124540000D01*
X108284000Y-124540000D02*
X105156000Y-121412000D01*
X105156000Y-121412000D02*
X92456000Y-121412000D01*
X92456000Y-121412000D02*
X89408000Y-118364000D01*
X89408000Y-118364000D02*
X89408000Y-88900000D01*
D37*
X110998000Y-58293000D02*
X111252000Y-58547000D01*
X120142000Y-91694000D02*
X121031000Y-91694000D01*
X117221000Y-91694000D02*
X120142000Y-91694000D01*
X115697000Y-93218000D02*
X117221000Y-91694000D01*
X115697000Y-113284000D02*
X115697000Y-93218000D01*
X118237000Y-115824000D02*
X115697000Y-113284000D01*
X110998000Y-58293000D02*
X110236000Y-57531000D01*
X123063000Y-80899000D02*
X124460000Y-82296000D01*
X123063000Y-78105000D02*
X123063000Y-80899000D01*
X123825000Y-77343000D02*
X123063000Y-78105000D01*
X123825000Y-62230000D02*
X123825000Y-77343000D01*
X120142000Y-58547000D02*
X123825000Y-62230000D01*
X111252000Y-58547000D02*
X120142000Y-58547000D01*
X118364000Y-115824000D02*
X118237000Y-115824000D01*
X119253000Y-51181000D02*
X116332000Y-48260000D01*
X119253000Y-54356000D02*
X119253000Y-51181000D01*
X126111000Y-61214000D02*
X119253000Y-54356000D01*
X126111000Y-90170000D02*
X126111000Y-61214000D01*
X129540000Y-93599000D02*
X126111000Y-90170000D01*
X131318000Y-61468000D02*
X131318000Y-57658000D01*
X127840000Y-54180000D02*
X127840000Y-47558000D01*
X131318000Y-57658000D02*
X127840000Y-54180000D01*
X107061000Y-53848000D02*
X107061000Y-53721000D01*
X105918000Y-54991000D02*
X107061000Y-53848000D01*
X108712000Y-50546000D02*
X107061000Y-48895000D01*
X111633000Y-50546000D02*
X108712000Y-50546000D01*
X112141000Y-51054000D02*
X111633000Y-50546000D01*
X107061000Y-48895000D02*
X107061000Y-45212000D01*
X108712000Y-43561000D02*
X111887000Y-43561000D01*
X107061000Y-45212000D02*
X108712000Y-43561000D01*
X107061000Y-57023000D02*
X107061000Y-53594000D01*
X112268000Y-63246000D02*
X111379000Y-62357000D01*
X111379000Y-62357000D02*
X111379000Y-61341000D01*
X111379000Y-61341000D02*
X107061000Y-57023000D01*
X107061000Y-53594000D02*
X107061000Y-48895000D01*
X112268000Y-71374000D02*
X112268000Y-63246000D01*
D38*
X111235000Y-114738000D02*
X111235000Y-115460000D01*
X113411000Y-115316000D02*
X114554000Y-114173000D01*
X113411000Y-116205000D02*
X113411000Y-115316000D01*
X112776000Y-116840000D02*
X113411000Y-116205000D01*
X110998000Y-116840000D02*
X112776000Y-116840000D01*
X110744000Y-116586000D02*
X110998000Y-116840000D01*
X110744000Y-115951000D02*
X110744000Y-116586000D01*
X111235000Y-115460000D02*
X110744000Y-115951000D01*
X112285000Y-112338000D02*
X113100000Y-112338000D01*
X114554000Y-113792000D02*
X114554000Y-114046000D01*
X114935000Y-113411000D02*
X114554000Y-113792000D01*
X114935000Y-112141000D02*
X114935000Y-113411000D01*
X114808000Y-112014000D02*
X114935000Y-112141000D01*
X114440000Y-111646000D02*
X114808000Y-112014000D01*
X113792000Y-111646000D02*
X114440000Y-111646000D01*
X113100000Y-112338000D02*
X113792000Y-111646000D01*
X114554000Y-114046000D02*
X114396000Y-113888000D01*
X114396000Y-113888000D02*
X112960000Y-113888000D01*
X112285000Y-112338000D02*
X112285000Y-111523000D01*
X109601000Y-112903000D02*
X109886000Y-113188000D01*
X109601000Y-112522000D02*
X109601000Y-112903000D01*
X110363000Y-111760000D02*
X109601000Y-112522000D01*
X110363000Y-111633000D02*
X110363000Y-111760000D01*
X110871000Y-111125000D02*
X110363000Y-111633000D01*
X111887000Y-111125000D02*
X110871000Y-111125000D01*
X112285000Y-111523000D02*
X111887000Y-111125000D01*
X109886000Y-113188000D02*
X110560000Y-113188000D01*
X112285000Y-107004000D02*
X112973000Y-107004000D01*
X114427000Y-108585000D02*
X112991000Y-108585000D01*
X114935000Y-108077000D02*
X114427000Y-108585000D01*
X114935000Y-107061000D02*
X114935000Y-108077000D01*
X114427000Y-106553000D02*
X114935000Y-107061000D01*
X113424000Y-106553000D02*
X114427000Y-106553000D01*
X112973000Y-107004000D02*
X113424000Y-106553000D01*
X112991000Y-108585000D02*
X112960000Y-108554000D01*
X112285000Y-107004000D02*
X112960000Y-107004000D01*
X112960000Y-107004000D02*
X113030000Y-106934000D01*
X112285000Y-112338000D02*
X112285000Y-111362000D01*
X112285000Y-111362000D02*
X113030000Y-110617000D01*
X112285000Y-107004000D02*
X112285000Y-105901000D01*
X112285000Y-105901000D02*
X112522000Y-105664000D01*
X112285000Y-107004000D02*
X112706000Y-107004000D01*
X112960000Y-108554000D02*
X114015000Y-108554000D01*
X114015000Y-108554000D02*
X114300000Y-108839000D01*
X101866000Y-115412000D02*
X101866000Y-116574000D01*
X101866000Y-116574000D02*
X101727000Y-116713000D01*
X101236000Y-113292000D02*
X101236000Y-112793000D01*
X101236000Y-112793000D02*
X100838000Y-112395000D01*
X101866000Y-115412000D02*
X101758000Y-115412000D01*
X101758000Y-115412000D02*
X101600000Y-115570000D01*
X101866000Y-115412000D02*
X101823000Y-115412000D01*
X101823000Y-115412000D02*
X101727000Y-115316000D01*
X103996000Y-114292000D02*
X103996000Y-114791000D01*
X103996000Y-114791000D02*
X104140000Y-114935000D01*
X103366000Y-112172000D02*
X103728000Y-112172000D01*
X103728000Y-112172000D02*
X103759000Y-112141000D01*
X110560000Y-107854000D02*
X110013000Y-107854000D01*
X110013000Y-107854000D02*
X109347000Y-107188000D01*
X112706000Y-107004000D02*
X112846000Y-107004000D01*
X112846000Y-107004000D02*
X112903000Y-107061000D01*
X112960000Y-108554000D02*
X114142000Y-108554000D01*
X114142000Y-108554000D02*
X114300000Y-108712000D01*
X111235000Y-114738000D02*
X111235000Y-115587000D01*
X111235000Y-115587000D02*
X110490000Y-116332000D01*
X110560000Y-113188000D02*
X109886000Y-113188000D01*
X109886000Y-113188000D02*
X109220000Y-112522000D01*
X114396000Y-113888000D02*
X114554000Y-114046000D01*
X112960000Y-113888000D02*
X114396000Y-113888000D01*
X112285000Y-111362000D02*
X112649000Y-110998000D01*
D37*
X123444000Y-137160000D02*
X123444000Y-134112000D01*
X123444000Y-134112000D02*
X122936000Y-133604000D01*
X122936000Y-133604000D02*
X118618000Y-133604000D01*
X130937000Y-132461000D02*
X127127000Y-132461000D01*
X131699000Y-133223000D02*
X130937000Y-132461000D01*
X131699000Y-133858000D02*
X131699000Y-133223000D01*
D40*
X100461000Y-124284000D02*
X105154000Y-124284000D01*
X105154000Y-124284000D02*
X105584000Y-124714000D01*
D39*
X113714000Y-128700000D02*
X101477000Y-128700000D01*
X101477000Y-128700000D02*
X100461000Y-127684000D01*
X100461000Y-124284000D02*
X100461000Y-127684000D01*
X113714000Y-128700000D02*
X123366000Y-128700000D01*
X123366000Y-128700000D02*
X127127000Y-132461000D01*
X129038000Y-134372000D02*
X129038000Y-138548000D01*
X128524000Y-133858000D02*
X129038000Y-134372000D01*
X127127000Y-132461000D02*
X128524000Y-133858000D01*
X120402000Y-135388000D02*
X120402000Y-138548000D01*
X113714000Y-128700000D02*
X118618000Y-133604000D01*
X118618000Y-133604000D02*
X120402000Y-135388000D01*
X122555000Y-154178000D02*
X122555000Y-144975000D01*
X122555000Y-144975000D02*
X122682000Y-144848000D01*
X128905000Y-154178000D02*
X129286000Y-154178000D01*
X129286000Y-154178000D02*
X131318000Y-152146000D01*
X131318000Y-152146000D02*
X131318000Y-144848000D01*
X105410000Y-144848000D02*
X105410000Y-149733000D01*
X105410000Y-149733000D02*
X109855000Y-154178000D01*
X116205000Y-154178000D02*
X116205000Y-152781000D01*
X116205000Y-152781000D02*
X114046000Y-150622000D01*
X114046000Y-150622000D02*
X114046000Y-144848000D01*
D40*
X87245000Y-75360000D02*
X87245000Y-82673000D01*
X87245000Y-82673000D02*
X94488000Y-89916000D01*
X94488000Y-89916000D02*
X94996000Y-89916000D01*
X87245000Y-71960000D02*
X87245000Y-75360000D01*
D39*
X86991000Y-124284000D02*
X86991000Y-127684000D01*
X86991000Y-127684000D02*
X86969600Y-127705400D01*
X86969600Y-127705400D02*
X86969600Y-137591800D01*
X86969600Y-137591800D02*
X93522800Y-144145000D01*
X93522800Y-144145000D02*
X96012000Y-144145000D01*
D37*
X125640000Y-54192000D02*
X125640000Y-47558000D01*
X123317000Y-56515000D02*
X125640000Y-54192000D01*
X126740000Y-44952000D02*
X126740000Y-47558000D01*
X125095000Y-43307000D02*
X126740000Y-44952000D01*
X124460000Y-43307000D02*
X125095000Y-43307000D01*
X123952000Y-43307000D02*
X124460000Y-43307000D01*
X122555000Y-43307000D02*
X123952000Y-43307000D01*
X117094000Y-43307000D02*
X122555000Y-43307000D01*
X128940000Y-44612000D02*
X128940000Y-47558000D01*
X127000000Y-42672000D02*
X128940000Y-44612000D01*
X116459000Y-42672000D02*
X127000000Y-42672000D01*
X116332000Y-42545000D02*
X116459000Y-42672000D01*
X131140000Y-47558000D02*
X131140000Y-48184000D01*
X131140000Y-48184000D02*
X130048000Y-49276000D01*
D38*
X110560000Y-113538000D02*
X108077000Y-113538000D01*
X108077000Y-113538000D02*
X107823000Y-113284000D01*
X105283000Y-113792000D02*
X103996000Y-113792000D01*
X105410000Y-113665000D02*
X105283000Y-113792000D01*
X110560000Y-108204000D02*
X109347000Y-108204000D01*
X105857500Y-104714500D02*
X105857500Y-104079500D01*
X105918000Y-104775000D02*
X105857500Y-104714500D01*
X109347000Y-108204000D02*
X107188000Y-106045000D01*
D37*
X106045000Y-103892000D02*
X105857500Y-104079500D01*
X105857500Y-104079500D02*
X104116000Y-105821000D01*
X106045000Y-98171000D02*
X106045000Y-103892000D01*
X108585000Y-95631000D02*
X107315000Y-96901000D01*
X107315000Y-96901000D02*
X106045000Y-98171000D01*
X108585000Y-91694000D02*
X108585000Y-95631000D01*
X109093000Y-91186000D02*
X108585000Y-91694000D01*
D38*
X110560000Y-113888000D02*
X107538000Y-113888000D01*
X107538000Y-113888000D02*
X105791000Y-112141000D01*
X103996000Y-113292000D02*
X104640000Y-113292000D01*
X104640000Y-113292000D02*
X105791000Y-112141000D01*
X105791000Y-112141000D02*
X105791000Y-106680000D01*
X110560000Y-108554000D02*
X108935000Y-108554000D01*
X106553000Y-106172000D02*
X106553000Y-105918000D01*
X108935000Y-108554000D02*
X106553000Y-106172000D01*
D37*
X105400000Y-107071000D02*
X104116000Y-107071000D01*
X106553000Y-105918000D02*
X105791000Y-106680000D01*
X105791000Y-106680000D02*
X105400000Y-107071000D01*
X106553000Y-99187000D02*
X106553000Y-105918000D01*
X106680000Y-99060000D02*
X106553000Y-99187000D01*
X124088000Y-138548000D02*
X124962000Y-138548000D01*
X123825000Y-138811000D02*
X124088000Y-138548000D01*
X133598000Y-138548000D02*
X133976000Y-138548000D01*
X133976000Y-138548000D02*
X134747000Y-139319000D01*
X109220000Y-139573000D02*
X108195000Y-138548000D01*
X108195000Y-138548000D02*
X107690000Y-138548000D01*
X115189000Y-139573000D02*
X116214000Y-138548000D01*
X116214000Y-138548000D02*
X116326000Y-138548000D01*
G36*
X98774883Y-109367943D02*
X99037673Y-109631192D01*
X99381201Y-109773838D01*
X99468560Y-109773914D01*
X99468560Y-109836000D01*
X99512838Y-110071317D01*
X99651910Y-110287441D01*
X99864110Y-110432431D01*
X100116000Y-110483440D01*
X102116000Y-110483440D01*
X102351317Y-110439162D01*
X102567441Y-110300090D01*
X102613969Y-110231994D01*
X102756302Y-110374327D01*
X102989691Y-110471000D01*
X103830250Y-110471000D01*
X103989000Y-110312250D01*
X103989000Y-109698000D01*
X103969000Y-109698000D01*
X103969000Y-109444000D01*
X103989000Y-109444000D01*
X103989000Y-109424000D01*
X104243000Y-109424000D01*
X104243000Y-109444000D01*
X104263000Y-109444000D01*
X104263000Y-109698000D01*
X104243000Y-109698000D01*
X104243000Y-110312250D01*
X104401750Y-110471000D01*
X105079800Y-110471000D01*
X105079800Y-111846412D01*
X104406652Y-112519560D01*
X104126000Y-112519560D01*
X104126000Y-112457750D01*
X103967250Y-112299000D01*
X103638440Y-112299000D01*
X103638440Y-112045000D01*
X103967250Y-112045000D01*
X104126000Y-111886250D01*
X104126000Y-111345691D01*
X104029327Y-111112302D01*
X103850699Y-110933673D01*
X103617310Y-110837000D01*
X103587250Y-110837000D01*
X103428500Y-110995750D01*
X103428500Y-111002391D01*
X103242890Y-110875569D01*
X103168192Y-110860442D01*
X103144750Y-110837000D01*
X103114690Y-110837000D01*
X103094247Y-110845468D01*
X102991000Y-110824560D01*
X102741000Y-110824560D01*
X102611411Y-110848944D01*
X102491000Y-110824560D01*
X102241000Y-110824560D01*
X102111411Y-110848944D01*
X101991000Y-110824560D01*
X101741000Y-110824560D01*
X101505683Y-110868838D01*
X101289559Y-111007910D01*
X101144569Y-111220110D01*
X101093560Y-111472000D01*
X101093560Y-112675310D01*
X100950250Y-112532000D01*
X100409690Y-112532000D01*
X100176301Y-112628673D01*
X99997673Y-112807302D01*
X99901000Y-113040691D01*
X99901000Y-113070750D01*
X100053166Y-113222916D01*
X99954106Y-113289105D01*
X99319106Y-113924106D01*
X99164937Y-114154835D01*
X99146423Y-114247910D01*
X99110800Y-114427000D01*
X99110800Y-114958822D01*
X99029808Y-115039673D01*
X98887162Y-115383201D01*
X98886838Y-115755167D01*
X99028883Y-116098943D01*
X99291673Y-116362192D01*
X99635201Y-116504838D01*
X100007167Y-116505162D01*
X100350943Y-116363117D01*
X100614192Y-116100327D01*
X100756838Y-115756799D01*
X100756939Y-115640849D01*
X101188769Y-115209019D01*
X101264750Y-115285000D01*
X101593560Y-115285000D01*
X101593560Y-115539000D01*
X101264750Y-115539000D01*
X101106000Y-115697750D01*
X101106000Y-116238309D01*
X101202673Y-116471698D01*
X101381301Y-116650327D01*
X101614690Y-116747000D01*
X101644750Y-116747000D01*
X101803500Y-116588250D01*
X101803500Y-116581609D01*
X101989110Y-116708431D01*
X102063808Y-116723558D01*
X102087250Y-116747000D01*
X102117310Y-116747000D01*
X102137753Y-116738532D01*
X102241000Y-116759440D01*
X102491000Y-116759440D01*
X102620589Y-116735056D01*
X102741000Y-116759440D01*
X102991000Y-116759440D01*
X103120589Y-116735056D01*
X103241000Y-116759440D01*
X103491000Y-116759440D01*
X103726317Y-116715162D01*
X103942441Y-116576090D01*
X104087431Y-116363890D01*
X104138440Y-116112000D01*
X104138440Y-114908690D01*
X104281750Y-115052000D01*
X104822310Y-115052000D01*
X105055699Y-114955327D01*
X105234327Y-114776698D01*
X105307554Y-114599911D01*
X105595167Y-114600162D01*
X105938943Y-114458117D01*
X106202192Y-114195327D01*
X106344838Y-113851799D01*
X106344970Y-113700758D01*
X107035106Y-114390894D01*
X107265835Y-114545063D01*
X107310990Y-114554045D01*
X107538000Y-114599200D01*
X109781042Y-114599200D01*
X109960000Y-114635440D01*
X110837560Y-114635440D01*
X110837560Y-114865000D01*
X110658750Y-114865000D01*
X110500000Y-115023750D01*
X110500000Y-115464309D01*
X110596673Y-115697698D01*
X110775301Y-115876327D01*
X111008690Y-115973000D01*
X111026250Y-115973000D01*
X111038947Y-115960303D01*
X111078939Y-116020154D01*
X111078838Y-116136167D01*
X111220883Y-116479943D01*
X111483673Y-116743192D01*
X111790960Y-116870790D01*
X111653000Y-117008750D01*
X111653000Y-117983000D01*
X111673000Y-117983000D01*
X111673000Y-118237000D01*
X111653000Y-118237000D01*
X111653000Y-119211250D01*
X111811750Y-119370000D01*
X112402309Y-119370000D01*
X112635698Y-119273327D01*
X112776936Y-119132090D01*
X112811910Y-119186441D01*
X113024110Y-119331431D01*
X113276000Y-119382440D01*
X114776000Y-119382440D01*
X115011317Y-119338162D01*
X115189000Y-119223826D01*
X115189000Y-119761000D01*
X98679000Y-119761000D01*
X98679000Y-118395750D01*
X99981000Y-118395750D01*
X99981000Y-118861310D01*
X100077673Y-119094699D01*
X100256302Y-119273327D01*
X100489691Y-119370000D01*
X101080250Y-119370000D01*
X101239000Y-119211250D01*
X101239000Y-118237000D01*
X100139750Y-118237000D01*
X99981000Y-118395750D01*
X98679000Y-118395750D01*
X98679000Y-117358690D01*
X99981000Y-117358690D01*
X99981000Y-117824250D01*
X100139750Y-117983000D01*
X101239000Y-117983000D01*
X101239000Y-117008750D01*
X101493000Y-117008750D01*
X101493000Y-117983000D01*
X101513000Y-117983000D01*
X101513000Y-118237000D01*
X101493000Y-118237000D01*
X101493000Y-119211250D01*
X101651750Y-119370000D01*
X102242309Y-119370000D01*
X102475698Y-119273327D01*
X102616936Y-119132090D01*
X102651910Y-119186441D01*
X102864110Y-119331431D01*
X103116000Y-119382440D01*
X104616000Y-119382440D01*
X104851317Y-119338162D01*
X105067441Y-119199090D01*
X105212431Y-118986890D01*
X105263440Y-118735000D01*
X105263440Y-118395750D01*
X110141000Y-118395750D01*
X110141000Y-118861310D01*
X110237673Y-119094699D01*
X110416302Y-119273327D01*
X110649691Y-119370000D01*
X111240250Y-119370000D01*
X111399000Y-119211250D01*
X111399000Y-118237000D01*
X110299750Y-118237000D01*
X110141000Y-118395750D01*
X105263440Y-118395750D01*
X105263440Y-117992348D01*
X105607726Y-117648062D01*
X105722167Y-117648162D01*
X106065943Y-117506117D01*
X106213627Y-117358690D01*
X110141000Y-117358690D01*
X110141000Y-117824250D01*
X110299750Y-117983000D01*
X111399000Y-117983000D01*
X111399000Y-117008750D01*
X111240250Y-116850000D01*
X110649691Y-116850000D01*
X110416302Y-116946673D01*
X110237673Y-117125301D01*
X110141000Y-117358690D01*
X106213627Y-117358690D01*
X106329192Y-117243327D01*
X106471838Y-116899799D01*
X106472162Y-116527833D01*
X106330117Y-116184057D01*
X106067327Y-115920808D01*
X105723799Y-115778162D01*
X105351833Y-115777838D01*
X105008057Y-115919883D01*
X104744808Y-116182673D01*
X104602162Y-116526201D01*
X104602061Y-116642150D01*
X104406651Y-116837560D01*
X103116000Y-116837560D01*
X102880683Y-116881838D01*
X102664559Y-117020910D01*
X102618031Y-117089006D01*
X102475698Y-116946673D01*
X102242309Y-116850000D01*
X101651750Y-116850000D01*
X101493000Y-117008750D01*
X101239000Y-117008750D01*
X101080250Y-116850000D01*
X100489691Y-116850000D01*
X100256302Y-116946673D01*
X100077673Y-117125301D01*
X99981000Y-117358690D01*
X98679000Y-117358690D01*
X98679000Y-109135888D01*
X98774883Y-109367943D01*
X98774883Y-109367943D01*
G37*
X98774883Y-109367943D02*
X99037673Y-109631192D01*
X99381201Y-109773838D01*
X99468560Y-109773914D01*
X99468560Y-109836000D01*
X99512838Y-110071317D01*
X99651910Y-110287441D01*
X99864110Y-110432431D01*
X100116000Y-110483440D01*
X102116000Y-110483440D01*
X102351317Y-110439162D01*
X102567441Y-110300090D01*
X102613969Y-110231994D01*
X102756302Y-110374327D01*
X102989691Y-110471000D01*
X103830250Y-110471000D01*
X103989000Y-110312250D01*
X103989000Y-109698000D01*
X103969000Y-109698000D01*
X103969000Y-109444000D01*
X103989000Y-109444000D01*
X103989000Y-109424000D01*
X104243000Y-109424000D01*
X104243000Y-109444000D01*
X104263000Y-109444000D01*
X104263000Y-109698000D01*
X104243000Y-109698000D01*
X104243000Y-110312250D01*
X104401750Y-110471000D01*
X105079800Y-110471000D01*
X105079800Y-111846412D01*
X104406652Y-112519560D01*
X104126000Y-112519560D01*
X104126000Y-112457750D01*
X103967250Y-112299000D01*
X103638440Y-112299000D01*
X103638440Y-112045000D01*
X103967250Y-112045000D01*
X104126000Y-111886250D01*
X104126000Y-111345691D01*
X104029327Y-111112302D01*
X103850699Y-110933673D01*
X103617310Y-110837000D01*
X103587250Y-110837000D01*
X103428500Y-110995750D01*
X103428500Y-111002391D01*
X103242890Y-110875569D01*
X103168192Y-110860442D01*
X103144750Y-110837000D01*
X103114690Y-110837000D01*
X103094247Y-110845468D01*
X102991000Y-110824560D01*
X102741000Y-110824560D01*
X102611411Y-110848944D01*
X102491000Y-110824560D01*
X102241000Y-110824560D01*
X102111411Y-110848944D01*
X101991000Y-110824560D01*
X101741000Y-110824560D01*
X101505683Y-110868838D01*
X101289559Y-111007910D01*
X101144569Y-111220110D01*
X101093560Y-111472000D01*
X101093560Y-112675310D01*
X100950250Y-112532000D01*
X100409690Y-112532000D01*
X100176301Y-112628673D01*
X99997673Y-112807302D01*
X99901000Y-113040691D01*
X99901000Y-113070750D01*
X100053166Y-113222916D01*
X99954106Y-113289105D01*
X99319106Y-113924106D01*
X99164937Y-114154835D01*
X99146423Y-114247910D01*
X99110800Y-114427000D01*
X99110800Y-114958822D01*
X99029808Y-115039673D01*
X98887162Y-115383201D01*
X98886838Y-115755167D01*
X99028883Y-116098943D01*
X99291673Y-116362192D01*
X99635201Y-116504838D01*
X100007167Y-116505162D01*
X100350943Y-116363117D01*
X100614192Y-116100327D01*
X100756838Y-115756799D01*
X100756939Y-115640849D01*
X101188769Y-115209019D01*
X101264750Y-115285000D01*
X101593560Y-115285000D01*
X101593560Y-115539000D01*
X101264750Y-115539000D01*
X101106000Y-115697750D01*
X101106000Y-116238309D01*
X101202673Y-116471698D01*
X101381301Y-116650327D01*
X101614690Y-116747000D01*
X101644750Y-116747000D01*
X101803500Y-116588250D01*
X101803500Y-116581609D01*
X101989110Y-116708431D01*
X102063808Y-116723558D01*
X102087250Y-116747000D01*
X102117310Y-116747000D01*
X102137753Y-116738532D01*
X102241000Y-116759440D01*
X102491000Y-116759440D01*
X102620589Y-116735056D01*
X102741000Y-116759440D01*
X102991000Y-116759440D01*
X103120589Y-116735056D01*
X103241000Y-116759440D01*
X103491000Y-116759440D01*
X103726317Y-116715162D01*
X103942441Y-116576090D01*
X104087431Y-116363890D01*
X104138440Y-116112000D01*
X104138440Y-114908690D01*
X104281750Y-115052000D01*
X104822310Y-115052000D01*
X105055699Y-114955327D01*
X105234327Y-114776698D01*
X105307554Y-114599911D01*
X105595167Y-114600162D01*
X105938943Y-114458117D01*
X106202192Y-114195327D01*
X106344838Y-113851799D01*
X106344970Y-113700758D01*
X107035106Y-114390894D01*
X107265835Y-114545063D01*
X107310990Y-114554045D01*
X107538000Y-114599200D01*
X109781042Y-114599200D01*
X109960000Y-114635440D01*
X110837560Y-114635440D01*
X110837560Y-114865000D01*
X110658750Y-114865000D01*
X110500000Y-115023750D01*
X110500000Y-115464309D01*
X110596673Y-115697698D01*
X110775301Y-115876327D01*
X111008690Y-115973000D01*
X111026250Y-115973000D01*
X111038947Y-115960303D01*
X111078939Y-116020154D01*
X111078838Y-116136167D01*
X111220883Y-116479943D01*
X111483673Y-116743192D01*
X111790960Y-116870790D01*
X111653000Y-117008750D01*
X111653000Y-117983000D01*
X111673000Y-117983000D01*
X111673000Y-118237000D01*
X111653000Y-118237000D01*
X111653000Y-119211250D01*
X111811750Y-119370000D01*
X112402309Y-119370000D01*
X112635698Y-119273327D01*
X112776936Y-119132090D01*
X112811910Y-119186441D01*
X113024110Y-119331431D01*
X113276000Y-119382440D01*
X114776000Y-119382440D01*
X115011317Y-119338162D01*
X115189000Y-119223826D01*
X115189000Y-119761000D01*
X98679000Y-119761000D01*
X98679000Y-118395750D01*
X99981000Y-118395750D01*
X99981000Y-118861310D01*
X100077673Y-119094699D01*
X100256302Y-119273327D01*
X100489691Y-119370000D01*
X101080250Y-119370000D01*
X101239000Y-119211250D01*
X101239000Y-118237000D01*
X100139750Y-118237000D01*
X99981000Y-118395750D01*
X98679000Y-118395750D01*
X98679000Y-117358690D01*
X99981000Y-117358690D01*
X99981000Y-117824250D01*
X100139750Y-117983000D01*
X101239000Y-117983000D01*
X101239000Y-117008750D01*
X101493000Y-117008750D01*
X101493000Y-117983000D01*
X101513000Y-117983000D01*
X101513000Y-118237000D01*
X101493000Y-118237000D01*
X101493000Y-119211250D01*
X101651750Y-119370000D01*
X102242309Y-119370000D01*
X102475698Y-119273327D01*
X102616936Y-119132090D01*
X102651910Y-119186441D01*
X102864110Y-119331431D01*
X103116000Y-119382440D01*
X104616000Y-119382440D01*
X104851317Y-119338162D01*
X105067441Y-119199090D01*
X105212431Y-118986890D01*
X105263440Y-118735000D01*
X105263440Y-118395750D01*
X110141000Y-118395750D01*
X110141000Y-118861310D01*
X110237673Y-119094699D01*
X110416302Y-119273327D01*
X110649691Y-119370000D01*
X111240250Y-119370000D01*
X111399000Y-119211250D01*
X111399000Y-118237000D01*
X110299750Y-118237000D01*
X110141000Y-118395750D01*
X105263440Y-118395750D01*
X105263440Y-117992348D01*
X105607726Y-117648062D01*
X105722167Y-117648162D01*
X106065943Y-117506117D01*
X106213627Y-117358690D01*
X110141000Y-117358690D01*
X110141000Y-117824250D01*
X110299750Y-117983000D01*
X111399000Y-117983000D01*
X111399000Y-117008750D01*
X111240250Y-116850000D01*
X110649691Y-116850000D01*
X110416302Y-116946673D01*
X110237673Y-117125301D01*
X110141000Y-117358690D01*
X106213627Y-117358690D01*
X106329192Y-117243327D01*
X106471838Y-116899799D01*
X106472162Y-116527833D01*
X106330117Y-116184057D01*
X106067327Y-115920808D01*
X105723799Y-115778162D01*
X105351833Y-115777838D01*
X105008057Y-115919883D01*
X104744808Y-116182673D01*
X104602162Y-116526201D01*
X104602061Y-116642150D01*
X104406651Y-116837560D01*
X103116000Y-116837560D01*
X102880683Y-116881838D01*
X102664559Y-117020910D01*
X102618031Y-117089006D01*
X102475698Y-116946673D01*
X102242309Y-116850000D01*
X101651750Y-116850000D01*
X101493000Y-117008750D01*
X101239000Y-117008750D01*
X101080250Y-116850000D01*
X100489691Y-116850000D01*
X100256302Y-116946673D01*
X100077673Y-117125301D01*
X99981000Y-117358690D01*
X98679000Y-117358690D01*
X98679000Y-109135888D01*
X98774883Y-109367943D01*
G36*
X114993004Y-113575605D02*
X115158185Y-113822815D01*
X115189000Y-113853630D01*
X115189000Y-116998651D01*
X115027890Y-116888569D01*
X114776000Y-116837560D01*
X113276000Y-116837560D01*
X113040683Y-116881838D01*
X112824559Y-117020910D01*
X112778031Y-117089006D01*
X112635698Y-116946673D01*
X112402309Y-116850000D01*
X112286686Y-116850000D01*
X112542943Y-116744117D01*
X112806192Y-116481327D01*
X112948838Y-116137799D01*
X112949162Y-115765833D01*
X112916020Y-115685623D01*
X112981431Y-115589890D01*
X113032440Y-115338000D01*
X113032440Y-114623000D01*
X113087002Y-114623000D01*
X113087002Y-114464252D01*
X113245750Y-114623000D01*
X113686309Y-114623000D01*
X113919698Y-114526327D01*
X114098327Y-114347699D01*
X114195000Y-114114310D01*
X114195000Y-114107641D01*
X114294894Y-114040894D01*
X114675894Y-113659895D01*
X114803334Y-113469167D01*
X114805870Y-113465371D01*
X114943707Y-113327774D01*
X114993004Y-113575605D01*
X114993004Y-113575605D01*
G37*
X114993004Y-113575605D02*
X115158185Y-113822815D01*
X115189000Y-113853630D01*
X115189000Y-116998651D01*
X115027890Y-116888569D01*
X114776000Y-116837560D01*
X113276000Y-116837560D01*
X113040683Y-116881838D01*
X112824559Y-117020910D01*
X112778031Y-117089006D01*
X112635698Y-116946673D01*
X112402309Y-116850000D01*
X112286686Y-116850000D01*
X112542943Y-116744117D01*
X112806192Y-116481327D01*
X112948838Y-116137799D01*
X112949162Y-115765833D01*
X112916020Y-115685623D01*
X112981431Y-115589890D01*
X113032440Y-115338000D01*
X113032440Y-114623000D01*
X113087002Y-114623000D01*
X113087002Y-114464252D01*
X113245750Y-114623000D01*
X113686309Y-114623000D01*
X113919698Y-114526327D01*
X114098327Y-114347699D01*
X114195000Y-114114310D01*
X114195000Y-114107641D01*
X114294894Y-114040894D01*
X114675894Y-113659895D01*
X114803334Y-113469167D01*
X114805870Y-113465371D01*
X114943707Y-113327774D01*
X114993004Y-113575605D01*
G36*
X108432106Y-109056895D02*
X108662836Y-109211063D01*
X108935000Y-109265200D01*
X109781042Y-109265200D01*
X109960000Y-109301440D01*
X110487560Y-109301440D01*
X110487560Y-110004000D01*
X110523800Y-110196599D01*
X110523800Y-110219000D01*
X110577937Y-110491165D01*
X110732106Y-110721894D01*
X111003106Y-110992894D01*
X111149273Y-111090560D01*
X111135000Y-111090560D01*
X110899683Y-111134838D01*
X110683559Y-111273910D01*
X110538569Y-111486110D01*
X110487560Y-111738000D01*
X110487560Y-112453000D01*
X110432998Y-112453000D01*
X110432998Y-112611748D01*
X110274250Y-112453000D01*
X109833691Y-112453000D01*
X109600302Y-112549673D01*
X109421673Y-112728301D01*
X109380873Y-112826800D01*
X108645761Y-112826800D01*
X108616117Y-112755057D01*
X108353327Y-112491808D01*
X108009799Y-112349162D01*
X107637833Y-112348838D01*
X107294057Y-112490883D01*
X107220300Y-112564512D01*
X106502200Y-111846412D01*
X106502200Y-107126988D01*
X108432106Y-109056895D01*
X108432106Y-109056895D01*
G37*
X108432106Y-109056895D02*
X108662836Y-109211063D01*
X108935000Y-109265200D01*
X109781042Y-109265200D01*
X109960000Y-109301440D01*
X110487560Y-109301440D01*
X110487560Y-110004000D01*
X110523800Y-110196599D01*
X110523800Y-110219000D01*
X110577937Y-110491165D01*
X110732106Y-110721894D01*
X111003106Y-110992894D01*
X111149273Y-111090560D01*
X111135000Y-111090560D01*
X110899683Y-111134838D01*
X110683559Y-111273910D01*
X110538569Y-111486110D01*
X110487560Y-111738000D01*
X110487560Y-112453000D01*
X110432998Y-112453000D01*
X110432998Y-112611748D01*
X110274250Y-112453000D01*
X109833691Y-112453000D01*
X109600302Y-112549673D01*
X109421673Y-112728301D01*
X109380873Y-112826800D01*
X108645761Y-112826800D01*
X108616117Y-112755057D01*
X108353327Y-112491808D01*
X108009799Y-112349162D01*
X107637833Y-112348838D01*
X107294057Y-112490883D01*
X107220300Y-112564512D01*
X106502200Y-111846412D01*
X106502200Y-107126988D01*
X108432106Y-109056895D01*
G36*
X114935000Y-112215886D02*
X114703327Y-111983808D01*
X114359799Y-111841162D01*
X113987833Y-111840838D01*
X113644057Y-111982883D01*
X113380808Y-112245673D01*
X113299883Y-112440560D01*
X112682440Y-112440560D01*
X112682440Y-112211000D01*
X112861250Y-112211000D01*
X113020000Y-112052250D01*
X113020000Y-111611691D01*
X112923327Y-111378302D01*
X112744699Y-111199673D01*
X112661186Y-111165081D01*
X112806192Y-111020327D01*
X112948838Y-110676799D01*
X112949162Y-110304833D01*
X112948720Y-110303764D01*
X112981431Y-110255890D01*
X113032440Y-110004000D01*
X113032440Y-109289000D01*
X113087002Y-109289000D01*
X113087002Y-109130252D01*
X113245750Y-109289000D01*
X113686309Y-109289000D01*
X113919698Y-109192327D01*
X114098327Y-109013699D01*
X114195000Y-108780310D01*
X114195000Y-108762750D01*
X114150660Y-108718410D01*
X114167894Y-108706894D01*
X114193786Y-108681002D01*
X114195000Y-108681002D01*
X114195000Y-108679788D01*
X114548894Y-108325895D01*
X114678870Y-108131371D01*
X114838192Y-107972327D01*
X114935000Y-107739189D01*
X114935000Y-112215886D01*
X114935000Y-112215886D01*
G37*
X114935000Y-112215886D02*
X114703327Y-111983808D01*
X114359799Y-111841162D01*
X113987833Y-111840838D01*
X113644057Y-111982883D01*
X113380808Y-112245673D01*
X113299883Y-112440560D01*
X112682440Y-112440560D01*
X112682440Y-112211000D01*
X112861250Y-112211000D01*
X113020000Y-112052250D01*
X113020000Y-111611691D01*
X112923327Y-111378302D01*
X112744699Y-111199673D01*
X112661186Y-111165081D01*
X112806192Y-111020327D01*
X112948838Y-110676799D01*
X112949162Y-110304833D01*
X112948720Y-110303764D01*
X112981431Y-110255890D01*
X113032440Y-110004000D01*
X113032440Y-109289000D01*
X113087002Y-109289000D01*
X113087002Y-109130252D01*
X113245750Y-109289000D01*
X113686309Y-109289000D01*
X113919698Y-109192327D01*
X114098327Y-109013699D01*
X114195000Y-108780310D01*
X114195000Y-108762750D01*
X114150660Y-108718410D01*
X114167894Y-108706894D01*
X114193786Y-108681002D01*
X114195000Y-108681002D01*
X114195000Y-108679788D01*
X114548894Y-108325895D01*
X114678870Y-108131371D01*
X114838192Y-107972327D01*
X114935000Y-107739189D01*
X114935000Y-112215886D01*
G36*
X115189000Y-92648370D02*
X115158185Y-92679185D01*
X114993004Y-92926395D01*
X114935000Y-93218000D01*
X114935000Y-103028651D01*
X114773890Y-102918569D01*
X114522000Y-102867560D01*
X113022000Y-102867560D01*
X112786683Y-102911838D01*
X112570559Y-103050910D01*
X112524031Y-103119006D01*
X112381698Y-102976673D01*
X112148309Y-102880000D01*
X111557750Y-102880000D01*
X111399000Y-103038750D01*
X111399000Y-104013000D01*
X111419000Y-104013000D01*
X111419000Y-104267000D01*
X111399000Y-104267000D01*
X111399000Y-105241250D01*
X111557750Y-105400000D01*
X112148309Y-105400000D01*
X112381698Y-105303327D01*
X112522936Y-105162090D01*
X112557910Y-105216441D01*
X112770110Y-105361431D01*
X113022000Y-105412440D01*
X113296652Y-105412440D01*
X113491938Y-105607726D01*
X113491838Y-105722167D01*
X113633883Y-106065943D01*
X113896673Y-106329192D01*
X114240201Y-106471838D01*
X114612167Y-106472162D01*
X114935000Y-106338770D01*
X114935000Y-107145112D01*
X114839117Y-106913057D01*
X114576327Y-106649808D01*
X114232799Y-106507162D01*
X113860833Y-106506838D01*
X113517057Y-106648883D01*
X113253808Y-106911673D01*
X113172883Y-107106560D01*
X112682440Y-107106560D01*
X112682440Y-106877000D01*
X112861250Y-106877000D01*
X113020000Y-106718250D01*
X113020000Y-106277691D01*
X112923327Y-106044302D01*
X112744699Y-105865673D01*
X112511310Y-105769000D01*
X112493750Y-105769000D01*
X112386869Y-105875881D01*
X112286890Y-105807569D01*
X112035000Y-105756560D01*
X111835000Y-105756560D01*
X111757247Y-105771190D01*
X111685000Y-105756560D01*
X111485000Y-105756560D01*
X111407247Y-105771190D01*
X111335000Y-105756560D01*
X111135000Y-105756560D01*
X110899683Y-105800838D01*
X110683559Y-105939910D01*
X110538569Y-106152110D01*
X110487560Y-106404000D01*
X110487560Y-107119000D01*
X110432998Y-107119000D01*
X110432998Y-107277748D01*
X110274250Y-107119000D01*
X109833691Y-107119000D01*
X109600302Y-107215673D01*
X109482381Y-107333593D01*
X108123062Y-105974274D01*
X108123162Y-105859833D01*
X107981117Y-105516057D01*
X107718327Y-105252808D01*
X107374799Y-105110162D01*
X107315000Y-105110110D01*
X107315000Y-104425750D01*
X109887000Y-104425750D01*
X109887000Y-104891310D01*
X109983673Y-105124699D01*
X110162302Y-105303327D01*
X110395691Y-105400000D01*
X110986250Y-105400000D01*
X111145000Y-105241250D01*
X111145000Y-104267000D01*
X110045750Y-104267000D01*
X109887000Y-104425750D01*
X107315000Y-104425750D01*
X107315000Y-103388690D01*
X109887000Y-103388690D01*
X109887000Y-103854250D01*
X110045750Y-104013000D01*
X111145000Y-104013000D01*
X111145000Y-103038750D01*
X110986250Y-102880000D01*
X110395691Y-102880000D01*
X110162302Y-102976673D01*
X109983673Y-103155301D01*
X109887000Y-103388690D01*
X107315000Y-103388690D01*
X107315000Y-99747245D01*
X107472192Y-99590327D01*
X107614838Y-99246799D01*
X107615162Y-98874833D01*
X107473117Y-98531057D01*
X107210327Y-98267808D01*
X107079957Y-98213673D01*
X107853815Y-97439816D01*
X107853817Y-97439813D01*
X109123815Y-96169816D01*
X109288996Y-95922605D01*
X109306509Y-95834560D01*
X109347000Y-95631000D01*
X109347000Y-92092721D01*
X109621943Y-91979117D01*
X109885192Y-91716327D01*
X110027838Y-91372799D01*
X110028162Y-91000833D01*
X109886117Y-90657057D01*
X109623327Y-90393808D01*
X109279799Y-90251162D01*
X108907833Y-90250838D01*
X108564057Y-90392883D01*
X108445384Y-90511349D01*
X108405243Y-90414200D01*
X108001923Y-90010176D01*
X107474691Y-89791250D01*
X106903813Y-89790752D01*
X106376200Y-90008757D01*
X105972176Y-90412077D01*
X105753250Y-90939309D01*
X105752752Y-91510187D01*
X105970757Y-92037800D01*
X106234683Y-92302187D01*
X106028301Y-92387673D01*
X105849673Y-92566302D01*
X105753000Y-92799691D01*
X105753000Y-93440250D01*
X105911750Y-93599000D01*
X107061000Y-93599000D01*
X107061000Y-93579000D01*
X107315000Y-93579000D01*
X107315000Y-93599000D01*
X107335000Y-93599000D01*
X107335000Y-93853000D01*
X107315000Y-93853000D01*
X107315000Y-95002250D01*
X107473750Y-95161000D01*
X107823000Y-95161000D01*
X107823000Y-95315369D01*
X106776187Y-96362183D01*
X106776184Y-96362185D01*
X105506185Y-97632185D01*
X105341004Y-97879395D01*
X105283000Y-98171000D01*
X105283000Y-100947066D01*
X105215799Y-100919162D01*
X104843833Y-100918838D01*
X104500057Y-101060883D01*
X104236808Y-101323673D01*
X104094162Y-101667201D01*
X104094061Y-101783150D01*
X104025651Y-101851560D01*
X103116000Y-101851560D01*
X102880683Y-101895838D01*
X102664559Y-102034910D01*
X102618031Y-102103006D01*
X102475698Y-101960673D01*
X102242309Y-101864000D01*
X101651750Y-101864000D01*
X101493000Y-102022750D01*
X101493000Y-102997000D01*
X101513000Y-102997000D01*
X101513000Y-103251000D01*
X101493000Y-103251000D01*
X101493000Y-104225250D01*
X101651750Y-104384000D01*
X102242309Y-104384000D01*
X102475698Y-104287327D01*
X102616936Y-104146090D01*
X102651910Y-104200441D01*
X102864110Y-104345431D01*
X103116000Y-104396440D01*
X104462930Y-104396440D01*
X103950810Y-104908560D01*
X103116000Y-104908560D01*
X102880683Y-104952838D01*
X102664559Y-105091910D01*
X102618031Y-105160006D01*
X102475698Y-105017673D01*
X102242309Y-104921000D01*
X101401750Y-104921000D01*
X101243000Y-105079750D01*
X101243000Y-105694000D01*
X101263000Y-105694000D01*
X101263000Y-105948000D01*
X101243000Y-105948000D01*
X101243000Y-106944000D01*
X101263000Y-106944000D01*
X101263000Y-107198000D01*
X101243000Y-107198000D01*
X101243000Y-107218000D01*
X100989000Y-107218000D01*
X100989000Y-107198000D01*
X99639750Y-107198000D01*
X99481000Y-107356750D01*
X99481000Y-107462310D01*
X99577673Y-107695699D01*
X99587161Y-107705186D01*
X99519569Y-107804110D01*
X99499882Y-107901330D01*
X99497273Y-107903938D01*
X99382833Y-107903838D01*
X99039057Y-108045883D01*
X98775808Y-108308673D01*
X98679000Y-108541811D01*
X98679000Y-106106750D01*
X99481000Y-106106750D01*
X99481000Y-106212310D01*
X99577673Y-106445699D01*
X99577974Y-106446000D01*
X99577673Y-106446301D01*
X99481000Y-106679690D01*
X99481000Y-106785250D01*
X99639750Y-106944000D01*
X100989000Y-106944000D01*
X100989000Y-105948000D01*
X99639750Y-105948000D01*
X99481000Y-106106750D01*
X98679000Y-106106750D01*
X98679000Y-105429690D01*
X99481000Y-105429690D01*
X99481000Y-105535250D01*
X99639750Y-105694000D01*
X100989000Y-105694000D01*
X100989000Y-105079750D01*
X100830250Y-104921000D01*
X99989691Y-104921000D01*
X99756302Y-105017673D01*
X99577673Y-105196301D01*
X99481000Y-105429690D01*
X98679000Y-105429690D01*
X98679000Y-103409750D01*
X99981000Y-103409750D01*
X99981000Y-103875310D01*
X100077673Y-104108699D01*
X100256302Y-104287327D01*
X100489691Y-104384000D01*
X101080250Y-104384000D01*
X101239000Y-104225250D01*
X101239000Y-103251000D01*
X100139750Y-103251000D01*
X99981000Y-103409750D01*
X98679000Y-103409750D01*
X98679000Y-102372690D01*
X99981000Y-102372690D01*
X99981000Y-102838250D01*
X100139750Y-102997000D01*
X101239000Y-102997000D01*
X101239000Y-102022750D01*
X101080250Y-101864000D01*
X100489691Y-101864000D01*
X100256302Y-101960673D01*
X100077673Y-102139301D01*
X99981000Y-102372690D01*
X98679000Y-102372690D01*
X98679000Y-94867343D01*
X98994000Y-94930000D01*
X99234000Y-94930000D01*
X99234000Y-95678000D01*
X99265142Y-95834560D01*
X99311338Y-96066807D01*
X99531580Y-96396420D01*
X100406560Y-97271401D01*
X100406560Y-98082000D01*
X100450838Y-98317317D01*
X100589910Y-98533441D01*
X100802110Y-98678431D01*
X100907041Y-98699680D01*
X100638176Y-98968077D01*
X100419250Y-99495309D01*
X100418752Y-100066187D01*
X100636757Y-100593800D01*
X101040077Y-100997824D01*
X101567309Y-101216750D01*
X102138187Y-101217248D01*
X102665800Y-100999243D01*
X103069824Y-100595923D01*
X103288750Y-100068691D01*
X103289248Y-99497813D01*
X103071243Y-98970200D01*
X102802928Y-98701417D01*
X102889317Y-98685162D01*
X103105441Y-98546090D01*
X103250431Y-98333890D01*
X103301440Y-98082000D01*
X103301440Y-96482000D01*
X103257162Y-96246683D01*
X103118090Y-96030559D01*
X102905890Y-95885569D01*
X102654000Y-95834560D01*
X101843401Y-95834560D01*
X101266000Y-95257160D01*
X101266000Y-94841723D01*
X101481441Y-94703090D01*
X101601233Y-94527768D01*
X101705910Y-94690441D01*
X101918110Y-94835431D01*
X102170000Y-94886440D01*
X103730000Y-94886440D01*
X103965317Y-94842162D01*
X104181441Y-94703090D01*
X104326431Y-94490890D01*
X104377440Y-94239000D01*
X104377440Y-94011750D01*
X105753000Y-94011750D01*
X105753000Y-94652309D01*
X105849673Y-94885698D01*
X106028301Y-95064327D01*
X106261690Y-95161000D01*
X106902250Y-95161000D01*
X107061000Y-95002250D01*
X107061000Y-93853000D01*
X105911750Y-93853000D01*
X105753000Y-94011750D01*
X104377440Y-94011750D01*
X104377440Y-93589000D01*
X104333162Y-93353683D01*
X104194090Y-93137559D01*
X103981890Y-92992569D01*
X103867435Y-92969391D01*
X104089698Y-92877327D01*
X104268327Y-92698699D01*
X104365000Y-92465310D01*
X104365000Y-92299750D01*
X104206250Y-92141000D01*
X103077000Y-92141000D01*
X103077000Y-92161000D01*
X102823000Y-92161000D01*
X102823000Y-92141000D01*
X102803000Y-92141000D01*
X102803000Y-91887000D01*
X102823000Y-91887000D01*
X102823000Y-91212750D01*
X103077000Y-91212750D01*
X103077000Y-91887000D01*
X104206250Y-91887000D01*
X104365000Y-91728250D01*
X104365000Y-91562690D01*
X104268327Y-91329301D01*
X104089698Y-91150673D01*
X103856309Y-91054000D01*
X103235750Y-91054000D01*
X103077000Y-91212750D01*
X102823000Y-91212750D01*
X102664250Y-91054000D01*
X102043691Y-91054000D01*
X101810302Y-91150673D01*
X101631673Y-91329301D01*
X101600912Y-91403565D01*
X101494090Y-91237559D01*
X101281890Y-91092569D01*
X101030000Y-91041560D01*
X100606401Y-91041560D01*
X99099840Y-89535000D01*
X115189000Y-89535000D01*
X115189000Y-92648370D01*
X115189000Y-92648370D01*
G37*
X115189000Y-92648370D02*
X115158185Y-92679185D01*
X114993004Y-92926395D01*
X114935000Y-93218000D01*
X114935000Y-103028651D01*
X114773890Y-102918569D01*
X114522000Y-102867560D01*
X113022000Y-102867560D01*
X112786683Y-102911838D01*
X112570559Y-103050910D01*
X112524031Y-103119006D01*
X112381698Y-102976673D01*
X112148309Y-102880000D01*
X111557750Y-102880000D01*
X111399000Y-103038750D01*
X111399000Y-104013000D01*
X111419000Y-104013000D01*
X111419000Y-104267000D01*
X111399000Y-104267000D01*
X111399000Y-105241250D01*
X111557750Y-105400000D01*
X112148309Y-105400000D01*
X112381698Y-105303327D01*
X112522936Y-105162090D01*
X112557910Y-105216441D01*
X112770110Y-105361431D01*
X113022000Y-105412440D01*
X113296652Y-105412440D01*
X113491938Y-105607726D01*
X113491838Y-105722167D01*
X113633883Y-106065943D01*
X113896673Y-106329192D01*
X114240201Y-106471838D01*
X114612167Y-106472162D01*
X114935000Y-106338770D01*
X114935000Y-107145112D01*
X114839117Y-106913057D01*
X114576327Y-106649808D01*
X114232799Y-106507162D01*
X113860833Y-106506838D01*
X113517057Y-106648883D01*
X113253808Y-106911673D01*
X113172883Y-107106560D01*
X112682440Y-107106560D01*
X112682440Y-106877000D01*
X112861250Y-106877000D01*
X113020000Y-106718250D01*
X113020000Y-106277691D01*
X112923327Y-106044302D01*
X112744699Y-105865673D01*
X112511310Y-105769000D01*
X112493750Y-105769000D01*
X112386869Y-105875881D01*
X112286890Y-105807569D01*
X112035000Y-105756560D01*
X111835000Y-105756560D01*
X111757247Y-105771190D01*
X111685000Y-105756560D01*
X111485000Y-105756560D01*
X111407247Y-105771190D01*
X111335000Y-105756560D01*
X111135000Y-105756560D01*
X110899683Y-105800838D01*
X110683559Y-105939910D01*
X110538569Y-106152110D01*
X110487560Y-106404000D01*
X110487560Y-107119000D01*
X110432998Y-107119000D01*
X110432998Y-107277748D01*
X110274250Y-107119000D01*
X109833691Y-107119000D01*
X109600302Y-107215673D01*
X109482381Y-107333593D01*
X108123062Y-105974274D01*
X108123162Y-105859833D01*
X107981117Y-105516057D01*
X107718327Y-105252808D01*
X107374799Y-105110162D01*
X107315000Y-105110110D01*
X107315000Y-104425750D01*
X109887000Y-104425750D01*
X109887000Y-104891310D01*
X109983673Y-105124699D01*
X110162302Y-105303327D01*
X110395691Y-105400000D01*
X110986250Y-105400000D01*
X111145000Y-105241250D01*
X111145000Y-104267000D01*
X110045750Y-104267000D01*
X109887000Y-104425750D01*
X107315000Y-104425750D01*
X107315000Y-103388690D01*
X109887000Y-103388690D01*
X109887000Y-103854250D01*
X110045750Y-104013000D01*
X111145000Y-104013000D01*
X111145000Y-103038750D01*
X110986250Y-102880000D01*
X110395691Y-102880000D01*
X110162302Y-102976673D01*
X109983673Y-103155301D01*
X109887000Y-103388690D01*
X107315000Y-103388690D01*
X107315000Y-99747245D01*
X107472192Y-99590327D01*
X107614838Y-99246799D01*
X107615162Y-98874833D01*
X107473117Y-98531057D01*
X107210327Y-98267808D01*
X107079957Y-98213673D01*
X107853815Y-97439816D01*
X107853817Y-97439813D01*
X109123815Y-96169816D01*
X109288996Y-95922605D01*
X109306509Y-95834560D01*
X109347000Y-95631000D01*
X109347000Y-92092721D01*
X109621943Y-91979117D01*
X109885192Y-91716327D01*
X110027838Y-91372799D01*
X110028162Y-91000833D01*
X109886117Y-90657057D01*
X109623327Y-90393808D01*
X109279799Y-90251162D01*
X108907833Y-90250838D01*
X108564057Y-90392883D01*
X108445384Y-90511349D01*
X108405243Y-90414200D01*
X108001923Y-90010176D01*
X107474691Y-89791250D01*
X106903813Y-89790752D01*
X106376200Y-90008757D01*
X105972176Y-90412077D01*
X105753250Y-90939309D01*
X105752752Y-91510187D01*
X105970757Y-92037800D01*
X106234683Y-92302187D01*
X106028301Y-92387673D01*
X105849673Y-92566302D01*
X105753000Y-92799691D01*
X105753000Y-93440250D01*
X105911750Y-93599000D01*
X107061000Y-93599000D01*
X107061000Y-93579000D01*
X107315000Y-93579000D01*
X107315000Y-93599000D01*
X107335000Y-93599000D01*
X107335000Y-93853000D01*
X107315000Y-93853000D01*
X107315000Y-95002250D01*
X107473750Y-95161000D01*
X107823000Y-95161000D01*
X107823000Y-95315369D01*
X106776187Y-96362183D01*
X106776184Y-96362185D01*
X105506185Y-97632185D01*
X105341004Y-97879395D01*
X105283000Y-98171000D01*
X105283000Y-100947066D01*
X105215799Y-100919162D01*
X104843833Y-100918838D01*
X104500057Y-101060883D01*
X104236808Y-101323673D01*
X104094162Y-101667201D01*
X104094061Y-101783150D01*
X104025651Y-101851560D01*
X103116000Y-101851560D01*
X102880683Y-101895838D01*
X102664559Y-102034910D01*
X102618031Y-102103006D01*
X102475698Y-101960673D01*
X102242309Y-101864000D01*
X101651750Y-101864000D01*
X101493000Y-102022750D01*
X101493000Y-102997000D01*
X101513000Y-102997000D01*
X101513000Y-103251000D01*
X101493000Y-103251000D01*
X101493000Y-104225250D01*
X101651750Y-104384000D01*
X102242309Y-104384000D01*
X102475698Y-104287327D01*
X102616936Y-104146090D01*
X102651910Y-104200441D01*
X102864110Y-104345431D01*
X103116000Y-104396440D01*
X104462930Y-104396440D01*
X103950810Y-104908560D01*
X103116000Y-104908560D01*
X102880683Y-104952838D01*
X102664559Y-105091910D01*
X102618031Y-105160006D01*
X102475698Y-105017673D01*
X102242309Y-104921000D01*
X101401750Y-104921000D01*
X101243000Y-105079750D01*
X101243000Y-105694000D01*
X101263000Y-105694000D01*
X101263000Y-105948000D01*
X101243000Y-105948000D01*
X101243000Y-106944000D01*
X101263000Y-106944000D01*
X101263000Y-107198000D01*
X101243000Y-107198000D01*
X101243000Y-107218000D01*
X100989000Y-107218000D01*
X100989000Y-107198000D01*
X99639750Y-107198000D01*
X99481000Y-107356750D01*
X99481000Y-107462310D01*
X99577673Y-107695699D01*
X99587161Y-107705186D01*
X99519569Y-107804110D01*
X99499882Y-107901330D01*
X99497273Y-107903938D01*
X99382833Y-107903838D01*
X99039057Y-108045883D01*
X98775808Y-108308673D01*
X98679000Y-108541811D01*
X98679000Y-106106750D01*
X99481000Y-106106750D01*
X99481000Y-106212310D01*
X99577673Y-106445699D01*
X99577974Y-106446000D01*
X99577673Y-106446301D01*
X99481000Y-106679690D01*
X99481000Y-106785250D01*
X99639750Y-106944000D01*
X100989000Y-106944000D01*
X100989000Y-105948000D01*
X99639750Y-105948000D01*
X99481000Y-106106750D01*
X98679000Y-106106750D01*
X98679000Y-105429690D01*
X99481000Y-105429690D01*
X99481000Y-105535250D01*
X99639750Y-105694000D01*
X100989000Y-105694000D01*
X100989000Y-105079750D01*
X100830250Y-104921000D01*
X99989691Y-104921000D01*
X99756302Y-105017673D01*
X99577673Y-105196301D01*
X99481000Y-105429690D01*
X98679000Y-105429690D01*
X98679000Y-103409750D01*
X99981000Y-103409750D01*
X99981000Y-103875310D01*
X100077673Y-104108699D01*
X100256302Y-104287327D01*
X100489691Y-104384000D01*
X101080250Y-104384000D01*
X101239000Y-104225250D01*
X101239000Y-103251000D01*
X100139750Y-103251000D01*
X99981000Y-103409750D01*
X98679000Y-103409750D01*
X98679000Y-102372690D01*
X99981000Y-102372690D01*
X99981000Y-102838250D01*
X100139750Y-102997000D01*
X101239000Y-102997000D01*
X101239000Y-102022750D01*
X101080250Y-101864000D01*
X100489691Y-101864000D01*
X100256302Y-101960673D01*
X100077673Y-102139301D01*
X99981000Y-102372690D01*
X98679000Y-102372690D01*
X98679000Y-94867343D01*
X98994000Y-94930000D01*
X99234000Y-94930000D01*
X99234000Y-95678000D01*
X99265142Y-95834560D01*
X99311338Y-96066807D01*
X99531580Y-96396420D01*
X100406560Y-97271401D01*
X100406560Y-98082000D01*
X100450838Y-98317317D01*
X100589910Y-98533441D01*
X100802110Y-98678431D01*
X100907041Y-98699680D01*
X100638176Y-98968077D01*
X100419250Y-99495309D01*
X100418752Y-100066187D01*
X100636757Y-100593800D01*
X101040077Y-100997824D01*
X101567309Y-101216750D01*
X102138187Y-101217248D01*
X102665800Y-100999243D01*
X103069824Y-100595923D01*
X103288750Y-100068691D01*
X103289248Y-99497813D01*
X103071243Y-98970200D01*
X102802928Y-98701417D01*
X102889317Y-98685162D01*
X103105441Y-98546090D01*
X103250431Y-98333890D01*
X103301440Y-98082000D01*
X103301440Y-96482000D01*
X103257162Y-96246683D01*
X103118090Y-96030559D01*
X102905890Y-95885569D01*
X102654000Y-95834560D01*
X101843401Y-95834560D01*
X101266000Y-95257160D01*
X101266000Y-94841723D01*
X101481441Y-94703090D01*
X101601233Y-94527768D01*
X101705910Y-94690441D01*
X101918110Y-94835431D01*
X102170000Y-94886440D01*
X103730000Y-94886440D01*
X103965317Y-94842162D01*
X104181441Y-94703090D01*
X104326431Y-94490890D01*
X104377440Y-94239000D01*
X104377440Y-94011750D01*
X105753000Y-94011750D01*
X105753000Y-94652309D01*
X105849673Y-94885698D01*
X106028301Y-95064327D01*
X106261690Y-95161000D01*
X106902250Y-95161000D01*
X107061000Y-95002250D01*
X107061000Y-93853000D01*
X105911750Y-93853000D01*
X105753000Y-94011750D01*
X104377440Y-94011750D01*
X104377440Y-93589000D01*
X104333162Y-93353683D01*
X104194090Y-93137559D01*
X103981890Y-92992569D01*
X103867435Y-92969391D01*
X104089698Y-92877327D01*
X104268327Y-92698699D01*
X104365000Y-92465310D01*
X104365000Y-92299750D01*
X104206250Y-92141000D01*
X103077000Y-92141000D01*
X103077000Y-92161000D01*
X102823000Y-92161000D01*
X102823000Y-92141000D01*
X102803000Y-92141000D01*
X102803000Y-91887000D01*
X102823000Y-91887000D01*
X102823000Y-91212750D01*
X103077000Y-91212750D01*
X103077000Y-91887000D01*
X104206250Y-91887000D01*
X104365000Y-91728250D01*
X104365000Y-91562690D01*
X104268327Y-91329301D01*
X104089698Y-91150673D01*
X103856309Y-91054000D01*
X103235750Y-91054000D01*
X103077000Y-91212750D01*
X102823000Y-91212750D01*
X102664250Y-91054000D01*
X102043691Y-91054000D01*
X101810302Y-91150673D01*
X101631673Y-91329301D01*
X101600912Y-91403565D01*
X101494090Y-91237559D01*
X101281890Y-91092569D01*
X101030000Y-91041560D01*
X100606401Y-91041560D01*
X99099840Y-89535000D01*
X115189000Y-89535000D01*
X115189000Y-92648370D01*
M02*
