G04 #@! TF.FileFunction,Legend,Top*
%FSLAX46Y46*%
G04 Gerber Fmt 4.6, Leading zero omitted, Abs format (unit mm)*
G04 Created by KiCad (PCBNEW 4.0.7) date Thursday, May 10, 2018 'AMt' 07:54:42 AM*
%MOMM*%
%LPD*%
G01*
G04 APERTURE LIST*
%ADD10C,0.100000*%
%ADD11C,0.127000*%
%ADD12C,0.300000*%
%ADD13C,0.150000*%
%ADD14C,0.120000*%
%ADD15C,0.200000*%
%ADD16C,0.010000*%
%ADD17C,0.250000*%
%ADD18C,0.050000*%
G04 APERTURE END LIST*
D10*
D11*
X85888286Y-144870714D02*
X85888286Y-144108714D01*
X86178571Y-144108714D01*
X86251143Y-144145000D01*
X86287428Y-144181286D01*
X86323714Y-144253857D01*
X86323714Y-144362714D01*
X86287428Y-144435286D01*
X86251143Y-144471571D01*
X86178571Y-144507857D01*
X85888286Y-144507857D01*
X86795428Y-144108714D02*
X86940571Y-144108714D01*
X87013143Y-144145000D01*
X87085714Y-144217571D01*
X87122000Y-144362714D01*
X87122000Y-144616714D01*
X87085714Y-144761857D01*
X87013143Y-144834429D01*
X86940571Y-144870714D01*
X86795428Y-144870714D01*
X86722857Y-144834429D01*
X86650286Y-144761857D01*
X86614000Y-144616714D01*
X86614000Y-144362714D01*
X86650286Y-144217571D01*
X86722857Y-144145000D01*
X86795428Y-144108714D01*
X87376000Y-144108714D02*
X87557429Y-144870714D01*
X87702572Y-144326429D01*
X87847714Y-144870714D01*
X88029143Y-144108714D01*
X88319429Y-144471571D02*
X88573429Y-144471571D01*
X88682286Y-144870714D02*
X88319429Y-144870714D01*
X88319429Y-144108714D01*
X88682286Y-144108714D01*
X89444286Y-144870714D02*
X89190286Y-144507857D01*
X89008858Y-144870714D02*
X89008858Y-144108714D01*
X89299143Y-144108714D01*
X89371715Y-144145000D01*
X89408000Y-144181286D01*
X89444286Y-144253857D01*
X89444286Y-144362714D01*
X89408000Y-144435286D01*
X89371715Y-144471571D01*
X89299143Y-144507857D01*
X89008858Y-144507857D01*
X90351429Y-144870714D02*
X90351429Y-144108714D01*
X90714286Y-144870714D02*
X90714286Y-144108714D01*
X91149714Y-144870714D01*
X91149714Y-144108714D01*
X88065428Y-137033000D02*
X87992857Y-136996714D01*
X87884000Y-136996714D01*
X87775143Y-137033000D01*
X87702571Y-137105571D01*
X87666286Y-137178143D01*
X87630000Y-137323286D01*
X87630000Y-137432143D01*
X87666286Y-137577286D01*
X87702571Y-137649857D01*
X87775143Y-137722429D01*
X87884000Y-137758714D01*
X87956571Y-137758714D01*
X88065428Y-137722429D01*
X88101714Y-137686143D01*
X88101714Y-137432143D01*
X87956571Y-137432143D01*
X88428286Y-137758714D02*
X88428286Y-136996714D01*
X88863714Y-137758714D01*
X88863714Y-136996714D01*
X89226572Y-137758714D02*
X89226572Y-136996714D01*
X89408000Y-136996714D01*
X89516857Y-137033000D01*
X89589429Y-137105571D01*
X89625714Y-137178143D01*
X89662000Y-137323286D01*
X89662000Y-137432143D01*
X89625714Y-137577286D01*
X89589429Y-137649857D01*
X89516857Y-137722429D01*
X89408000Y-137758714D01*
X89226572Y-137758714D01*
X127616856Y-156935714D02*
X127761999Y-156935714D01*
X127834571Y-156972000D01*
X127907142Y-157044571D01*
X127943428Y-157189714D01*
X127943428Y-157443714D01*
X127907142Y-157588857D01*
X127834571Y-157661429D01*
X127761999Y-157697714D01*
X127616856Y-157697714D01*
X127544285Y-157661429D01*
X127471714Y-157588857D01*
X127435428Y-157443714D01*
X127435428Y-157189714D01*
X127471714Y-157044571D01*
X127544285Y-156972000D01*
X127616856Y-156935714D01*
X128270000Y-157697714D02*
X128270000Y-156935714D01*
X128560285Y-156935714D01*
X128632857Y-156972000D01*
X128669142Y-157008286D01*
X128705428Y-157080857D01*
X128705428Y-157189714D01*
X128669142Y-157262286D01*
X128632857Y-157298571D01*
X128560285Y-157334857D01*
X128270000Y-157334857D01*
X129032000Y-157298571D02*
X129286000Y-157298571D01*
X129394857Y-157697714D02*
X129032000Y-157697714D01*
X129032000Y-156935714D01*
X129394857Y-156935714D01*
X129721429Y-157697714D02*
X129721429Y-156935714D01*
X130156857Y-157697714D01*
X130156857Y-156935714D01*
X130519715Y-157407429D02*
X131100286Y-157407429D01*
X130810000Y-157697714D02*
X130810000Y-157117143D01*
X121158000Y-157625143D02*
X121121714Y-157661429D01*
X121012857Y-157697714D01*
X120940286Y-157697714D01*
X120831429Y-157661429D01*
X120758857Y-157588857D01*
X120722572Y-157516286D01*
X120686286Y-157371143D01*
X120686286Y-157262286D01*
X120722572Y-157117143D01*
X120758857Y-157044571D01*
X120831429Y-156972000D01*
X120940286Y-156935714D01*
X121012857Y-156935714D01*
X121121714Y-156972000D01*
X121158000Y-157008286D01*
X121847429Y-157697714D02*
X121484572Y-157697714D01*
X121484572Y-156935714D01*
X122246571Y-156935714D02*
X122391714Y-156935714D01*
X122464286Y-156972000D01*
X122536857Y-157044571D01*
X122573143Y-157189714D01*
X122573143Y-157443714D01*
X122536857Y-157588857D01*
X122464286Y-157661429D01*
X122391714Y-157697714D01*
X122246571Y-157697714D01*
X122174000Y-157661429D01*
X122101429Y-157588857D01*
X122065143Y-157443714D01*
X122065143Y-157189714D01*
X122101429Y-157044571D01*
X122174000Y-156972000D01*
X122246571Y-156935714D01*
X122863429Y-157661429D02*
X122972286Y-157697714D01*
X123153715Y-157697714D01*
X123226286Y-157661429D01*
X123262572Y-157625143D01*
X123298857Y-157552571D01*
X123298857Y-157480000D01*
X123262572Y-157407429D01*
X123226286Y-157371143D01*
X123153715Y-157334857D01*
X123008572Y-157298571D01*
X122936000Y-157262286D01*
X122899715Y-157226000D01*
X122863429Y-157153429D01*
X122863429Y-157080857D01*
X122899715Y-157008286D01*
X122936000Y-156972000D01*
X123008572Y-156935714D01*
X123190000Y-156935714D01*
X123298857Y-156972000D01*
X123625429Y-157298571D02*
X123879429Y-157298571D01*
X123988286Y-157697714D02*
X123625429Y-157697714D01*
X123625429Y-156935714D01*
X123988286Y-156935714D01*
X124314858Y-157407429D02*
X124895429Y-157407429D01*
X124605143Y-157697714D02*
X124605143Y-157117143D01*
X115062000Y-157625143D02*
X115025714Y-157661429D01*
X114916857Y-157697714D01*
X114844286Y-157697714D01*
X114735429Y-157661429D01*
X114662857Y-157588857D01*
X114626572Y-157516286D01*
X114590286Y-157371143D01*
X114590286Y-157262286D01*
X114626572Y-157117143D01*
X114662857Y-157044571D01*
X114735429Y-156972000D01*
X114844286Y-156935714D01*
X114916857Y-156935714D01*
X115025714Y-156972000D01*
X115062000Y-157008286D01*
X115751429Y-157697714D02*
X115388572Y-157697714D01*
X115388572Y-156935714D01*
X116150571Y-156935714D02*
X116295714Y-156935714D01*
X116368286Y-156972000D01*
X116440857Y-157044571D01*
X116477143Y-157189714D01*
X116477143Y-157443714D01*
X116440857Y-157588857D01*
X116368286Y-157661429D01*
X116295714Y-157697714D01*
X116150571Y-157697714D01*
X116078000Y-157661429D01*
X116005429Y-157588857D01*
X115969143Y-157443714D01*
X115969143Y-157189714D01*
X116005429Y-157044571D01*
X116078000Y-156972000D01*
X116150571Y-156935714D01*
X116767429Y-157661429D02*
X116876286Y-157697714D01*
X117057715Y-157697714D01*
X117130286Y-157661429D01*
X117166572Y-157625143D01*
X117202857Y-157552571D01*
X117202857Y-157480000D01*
X117166572Y-157407429D01*
X117130286Y-157371143D01*
X117057715Y-157334857D01*
X116912572Y-157298571D01*
X116840000Y-157262286D01*
X116803715Y-157226000D01*
X116767429Y-157153429D01*
X116767429Y-157080857D01*
X116803715Y-157008286D01*
X116840000Y-156972000D01*
X116912572Y-156935714D01*
X117094000Y-156935714D01*
X117202857Y-156972000D01*
X117529429Y-157298571D02*
X117783429Y-157298571D01*
X117892286Y-157697714D02*
X117529429Y-157697714D01*
X117529429Y-156935714D01*
X117892286Y-156935714D01*
X118218858Y-157407429D02*
X118799429Y-157407429D01*
X108566856Y-157062714D02*
X108711999Y-157062714D01*
X108784571Y-157099000D01*
X108857142Y-157171571D01*
X108893428Y-157316714D01*
X108893428Y-157570714D01*
X108857142Y-157715857D01*
X108784571Y-157788429D01*
X108711999Y-157824714D01*
X108566856Y-157824714D01*
X108494285Y-157788429D01*
X108421714Y-157715857D01*
X108385428Y-157570714D01*
X108385428Y-157316714D01*
X108421714Y-157171571D01*
X108494285Y-157099000D01*
X108566856Y-157062714D01*
X109220000Y-157824714D02*
X109220000Y-157062714D01*
X109510285Y-157062714D01*
X109582857Y-157099000D01*
X109619142Y-157135286D01*
X109655428Y-157207857D01*
X109655428Y-157316714D01*
X109619142Y-157389286D01*
X109582857Y-157425571D01*
X109510285Y-157461857D01*
X109220000Y-157461857D01*
X109982000Y-157425571D02*
X110236000Y-157425571D01*
X110344857Y-157824714D02*
X109982000Y-157824714D01*
X109982000Y-157062714D01*
X110344857Y-157062714D01*
X110671429Y-157824714D02*
X110671429Y-157062714D01*
X111106857Y-157824714D01*
X111106857Y-157062714D01*
X111469715Y-157534429D02*
X112050286Y-157534429D01*
X101563715Y-157951714D02*
X101200858Y-157951714D01*
X101200858Y-157189714D01*
X101817715Y-157951714D02*
X101817715Y-157189714D01*
X102180572Y-157951714D02*
X102180572Y-157189714D01*
X102434572Y-157734000D01*
X102688572Y-157189714D01*
X102688572Y-157951714D01*
X102870000Y-158024286D02*
X103450571Y-158024286D01*
X103777142Y-157189714D02*
X103922285Y-157189714D01*
X103994857Y-157226000D01*
X104067428Y-157298571D01*
X104103714Y-157443714D01*
X104103714Y-157697714D01*
X104067428Y-157842857D01*
X103994857Y-157915429D01*
X103922285Y-157951714D01*
X103777142Y-157951714D01*
X103704571Y-157915429D01*
X103632000Y-157842857D01*
X103595714Y-157697714D01*
X103595714Y-157443714D01*
X103632000Y-157298571D01*
X103704571Y-157226000D01*
X103777142Y-157189714D01*
X104430286Y-157951714D02*
X104430286Y-157189714D01*
X104720571Y-157189714D01*
X104793143Y-157226000D01*
X104829428Y-157262286D01*
X104865714Y-157334857D01*
X104865714Y-157443714D01*
X104829428Y-157516286D01*
X104793143Y-157552571D01*
X104720571Y-157588857D01*
X104430286Y-157588857D01*
X105192286Y-157552571D02*
X105446286Y-157552571D01*
X105555143Y-157951714D02*
X105192286Y-157951714D01*
X105192286Y-157189714D01*
X105555143Y-157189714D01*
X105881715Y-157951714D02*
X105881715Y-157189714D01*
X106317143Y-157951714D01*
X106317143Y-157189714D01*
X94814572Y-157951714D02*
X94451715Y-157951714D01*
X94451715Y-157189714D01*
X95068572Y-157951714D02*
X95068572Y-157189714D01*
X95431429Y-157951714D02*
X95431429Y-157189714D01*
X95685429Y-157734000D01*
X95939429Y-157189714D01*
X95939429Y-157951714D01*
X96120857Y-158024286D02*
X96701428Y-158024286D01*
X97318285Y-157879143D02*
X97281999Y-157915429D01*
X97173142Y-157951714D01*
X97100571Y-157951714D01*
X96991714Y-157915429D01*
X96919142Y-157842857D01*
X96882857Y-157770286D01*
X96846571Y-157625143D01*
X96846571Y-157516286D01*
X96882857Y-157371143D01*
X96919142Y-157298571D01*
X96991714Y-157226000D01*
X97100571Y-157189714D01*
X97173142Y-157189714D01*
X97281999Y-157226000D01*
X97318285Y-157262286D01*
X98007714Y-157951714D02*
X97644857Y-157951714D01*
X97644857Y-157189714D01*
X98406856Y-157189714D02*
X98551999Y-157189714D01*
X98624571Y-157226000D01*
X98697142Y-157298571D01*
X98733428Y-157443714D01*
X98733428Y-157697714D01*
X98697142Y-157842857D01*
X98624571Y-157915429D01*
X98551999Y-157951714D01*
X98406856Y-157951714D01*
X98334285Y-157915429D01*
X98261714Y-157842857D01*
X98225428Y-157697714D01*
X98225428Y-157443714D01*
X98261714Y-157298571D01*
X98334285Y-157226000D01*
X98406856Y-157189714D01*
X99023714Y-157915429D02*
X99132571Y-157951714D01*
X99314000Y-157951714D01*
X99386571Y-157915429D01*
X99422857Y-157879143D01*
X99459142Y-157806571D01*
X99459142Y-157734000D01*
X99422857Y-157661429D01*
X99386571Y-157625143D01*
X99314000Y-157588857D01*
X99168857Y-157552571D01*
X99096285Y-157516286D01*
X99060000Y-157480000D01*
X99023714Y-157407429D01*
X99023714Y-157334857D01*
X99060000Y-157262286D01*
X99096285Y-157226000D01*
X99168857Y-157189714D01*
X99350285Y-157189714D01*
X99459142Y-157226000D01*
X99785714Y-157552571D02*
X100039714Y-157552571D01*
X100148571Y-157951714D02*
X99785714Y-157951714D01*
X99785714Y-157189714D01*
X100148571Y-157189714D01*
X110435571Y-124786571D02*
X110544428Y-124822857D01*
X110580713Y-124859143D01*
X110616999Y-124931714D01*
X110616999Y-125040571D01*
X110580713Y-125113143D01*
X110544428Y-125149429D01*
X110471856Y-125185714D01*
X110181571Y-125185714D01*
X110181571Y-124423714D01*
X110435571Y-124423714D01*
X110508142Y-124460000D01*
X110544428Y-124496286D01*
X110580713Y-124568857D01*
X110580713Y-124641429D01*
X110544428Y-124714000D01*
X110508142Y-124750286D01*
X110435571Y-124786571D01*
X110181571Y-124786571D01*
X111270142Y-125185714D02*
X111270142Y-124786571D01*
X111233856Y-124714000D01*
X111161285Y-124677714D01*
X111016142Y-124677714D01*
X110943571Y-124714000D01*
X111270142Y-125149429D02*
X111197571Y-125185714D01*
X111016142Y-125185714D01*
X110943571Y-125149429D01*
X110907285Y-125076857D01*
X110907285Y-125004286D01*
X110943571Y-124931714D01*
X111016142Y-124895429D01*
X111197571Y-124895429D01*
X111270142Y-124859143D01*
X111524142Y-124677714D02*
X111814428Y-124677714D01*
X111633000Y-124423714D02*
X111633000Y-125076857D01*
X111669285Y-125149429D01*
X111741857Y-125185714D01*
X111814428Y-125185714D01*
X111959571Y-124677714D02*
X112249857Y-124677714D01*
X112068429Y-124423714D02*
X112068429Y-125076857D01*
X112104714Y-125149429D01*
X112177286Y-125185714D01*
X112249857Y-125185714D01*
X113048143Y-125149429D02*
X113120714Y-125185714D01*
X113265857Y-125185714D01*
X113338429Y-125149429D01*
X113374714Y-125076857D01*
X113374714Y-125040571D01*
X113338429Y-124968000D01*
X113265857Y-124931714D01*
X113157000Y-124931714D01*
X113084429Y-124895429D01*
X113048143Y-124822857D01*
X113048143Y-124786571D01*
X113084429Y-124714000D01*
X113157000Y-124677714D01*
X113265857Y-124677714D01*
X113338429Y-124714000D01*
X113991571Y-125149429D02*
X113919000Y-125185714D01*
X113773857Y-125185714D01*
X113701286Y-125149429D01*
X113665000Y-125076857D01*
X113665000Y-124786571D01*
X113701286Y-124714000D01*
X113773857Y-124677714D01*
X113919000Y-124677714D01*
X113991571Y-124714000D01*
X114027857Y-124786571D01*
X114027857Y-124859143D01*
X113665000Y-124931714D01*
X114463286Y-125185714D02*
X114390714Y-125149429D01*
X114354429Y-125076857D01*
X114354429Y-124423714D01*
X115043857Y-125149429D02*
X114971286Y-125185714D01*
X114826143Y-125185714D01*
X114753572Y-125149429D01*
X114717286Y-125076857D01*
X114717286Y-124786571D01*
X114753572Y-124714000D01*
X114826143Y-124677714D01*
X114971286Y-124677714D01*
X115043857Y-124714000D01*
X115080143Y-124786571D01*
X115080143Y-124859143D01*
X114717286Y-124931714D01*
X115733286Y-125149429D02*
X115660715Y-125185714D01*
X115515572Y-125185714D01*
X115443000Y-125149429D01*
X115406715Y-125113143D01*
X115370429Y-125040571D01*
X115370429Y-124822857D01*
X115406715Y-124750286D01*
X115443000Y-124714000D01*
X115515572Y-124677714D01*
X115660715Y-124677714D01*
X115733286Y-124714000D01*
X115951000Y-124677714D02*
X116241286Y-124677714D01*
X116059858Y-124423714D02*
X116059858Y-125076857D01*
X116096143Y-125149429D01*
X116168715Y-125185714D01*
X116241286Y-125185714D01*
X115334143Y-133223000D02*
X115697000Y-133223000D01*
X115261571Y-133440714D02*
X115515571Y-132678714D01*
X115769571Y-133440714D01*
X116132429Y-133440714D02*
X116059857Y-133404429D01*
X116023572Y-133331857D01*
X116023572Y-132678714D01*
X116713000Y-133404429D02*
X116640429Y-133440714D01*
X116495286Y-133440714D01*
X116422715Y-133404429D01*
X116386429Y-133331857D01*
X116386429Y-133041571D01*
X116422715Y-132969000D01*
X116495286Y-132932714D01*
X116640429Y-132932714D01*
X116713000Y-132969000D01*
X116749286Y-133041571D01*
X116749286Y-133114143D01*
X116386429Y-133186714D01*
X117003286Y-133440714D02*
X117402429Y-132932714D01*
X117003286Y-132932714D02*
X117402429Y-133440714D01*
X118273286Y-133440714D02*
X118273286Y-132678714D01*
X118527286Y-133223000D01*
X118781286Y-132678714D01*
X118781286Y-133440714D01*
X119144143Y-133440714D02*
X119144143Y-132932714D01*
X119144143Y-132678714D02*
X119107857Y-132715000D01*
X119144143Y-132751286D01*
X119180428Y-132715000D01*
X119144143Y-132678714D01*
X119144143Y-132751286D01*
X119507000Y-133440714D02*
X119507000Y-132678714D01*
X119833571Y-133440714D02*
X119833571Y-133041571D01*
X119797285Y-132969000D01*
X119724714Y-132932714D01*
X119615857Y-132932714D01*
X119543285Y-132969000D01*
X119507000Y-133005286D01*
X120523000Y-133440714D02*
X120523000Y-133041571D01*
X120486714Y-132969000D01*
X120414143Y-132932714D01*
X120269000Y-132932714D01*
X120196429Y-132969000D01*
X120523000Y-133404429D02*
X120450429Y-133440714D01*
X120269000Y-133440714D01*
X120196429Y-133404429D01*
X120160143Y-133331857D01*
X120160143Y-133259286D01*
X120196429Y-133186714D01*
X120269000Y-133150429D01*
X120450429Y-133150429D01*
X120523000Y-133114143D01*
X120885858Y-133440714D02*
X120885858Y-132932714D01*
X120885858Y-132678714D02*
X120849572Y-132715000D01*
X120885858Y-132751286D01*
X120922143Y-132715000D01*
X120885858Y-132678714D01*
X120885858Y-132751286D01*
X121357572Y-133440714D02*
X121285000Y-133404429D01*
X121248715Y-133331857D01*
X121248715Y-132678714D01*
X121974429Y-133440714D02*
X121974429Y-133041571D01*
X121938143Y-132969000D01*
X121865572Y-132932714D01*
X121720429Y-132932714D01*
X121647858Y-132969000D01*
X121974429Y-133404429D02*
X121901858Y-133440714D01*
X121720429Y-133440714D01*
X121647858Y-133404429D01*
X121611572Y-133331857D01*
X121611572Y-133259286D01*
X121647858Y-133186714D01*
X121720429Y-133150429D01*
X121901858Y-133150429D01*
X121974429Y-133114143D01*
X115769571Y-134710714D02*
X115334143Y-134710714D01*
X115551857Y-134710714D02*
X115551857Y-133948714D01*
X115479286Y-134057571D01*
X115406714Y-134130143D01*
X115334143Y-134166429D01*
X116241285Y-133948714D02*
X116313857Y-133948714D01*
X116386428Y-133985000D01*
X116422714Y-134021286D01*
X116459000Y-134093857D01*
X116495285Y-134239000D01*
X116495285Y-134420429D01*
X116459000Y-134565571D01*
X116422714Y-134638143D01*
X116386428Y-134674429D01*
X116313857Y-134710714D01*
X116241285Y-134710714D01*
X116168714Y-134674429D01*
X116132428Y-134638143D01*
X116096143Y-134565571D01*
X116059857Y-134420429D01*
X116059857Y-134239000D01*
X116096143Y-134093857D01*
X116132428Y-134021286D01*
X116168714Y-133985000D01*
X116241285Y-133948714D01*
X117366142Y-133912429D02*
X116712999Y-134892143D01*
X117765285Y-133948714D02*
X117837857Y-133948714D01*
X117910428Y-133985000D01*
X117946714Y-134021286D01*
X117983000Y-134093857D01*
X118019285Y-134239000D01*
X118019285Y-134420429D01*
X117983000Y-134565571D01*
X117946714Y-134638143D01*
X117910428Y-134674429D01*
X117837857Y-134710714D01*
X117765285Y-134710714D01*
X117692714Y-134674429D01*
X117656428Y-134638143D01*
X117620143Y-134565571D01*
X117583857Y-134420429D01*
X117583857Y-134239000D01*
X117620143Y-134093857D01*
X117656428Y-134021286D01*
X117692714Y-133985000D01*
X117765285Y-133948714D01*
X118672428Y-134202714D02*
X118672428Y-134710714D01*
X118490999Y-133912429D02*
X118309571Y-134456714D01*
X118781285Y-134456714D01*
X119615856Y-133912429D02*
X118962713Y-134892143D01*
X120268999Y-134710714D02*
X119833571Y-134710714D01*
X120051285Y-134710714D02*
X120051285Y-133948714D01*
X119978714Y-134057571D01*
X119906142Y-134130143D01*
X119833571Y-134166429D01*
X120704428Y-134275286D02*
X120631856Y-134239000D01*
X120595571Y-134202714D01*
X120559285Y-134130143D01*
X120559285Y-134093857D01*
X120595571Y-134021286D01*
X120631856Y-133985000D01*
X120704428Y-133948714D01*
X120849571Y-133948714D01*
X120922142Y-133985000D01*
X120958428Y-134021286D01*
X120994713Y-134093857D01*
X120994713Y-134130143D01*
X120958428Y-134202714D01*
X120922142Y-134239000D01*
X120849571Y-134275286D01*
X120704428Y-134275286D01*
X120631856Y-134311571D01*
X120595571Y-134347857D01*
X120559285Y-134420429D01*
X120559285Y-134565571D01*
X120595571Y-134638143D01*
X120631856Y-134674429D01*
X120704428Y-134710714D01*
X120849571Y-134710714D01*
X120922142Y-134674429D01*
X120958428Y-134638143D01*
X120994713Y-134565571D01*
X120994713Y-134420429D01*
X120958428Y-134347857D01*
X120922142Y-134311571D01*
X120849571Y-134275286D01*
D12*
X115888286Y-130441000D02*
X115745429Y-130369571D01*
X115531143Y-130369571D01*
X115316858Y-130441000D01*
X115174000Y-130583857D01*
X115102572Y-130726714D01*
X115031143Y-131012429D01*
X115031143Y-131226714D01*
X115102572Y-131512429D01*
X115174000Y-131655286D01*
X115316858Y-131798143D01*
X115531143Y-131869571D01*
X115674000Y-131869571D01*
X115888286Y-131798143D01*
X115959715Y-131726714D01*
X115959715Y-131226714D01*
X115674000Y-131226714D01*
X116602572Y-131869571D02*
X116602572Y-130869571D01*
X116602572Y-130369571D02*
X116531143Y-130441000D01*
X116602572Y-130512429D01*
X116674000Y-130441000D01*
X116602572Y-130369571D01*
X116602572Y-130512429D01*
X117531144Y-131869571D02*
X117388286Y-131798143D01*
X117316858Y-131655286D01*
X117316858Y-130369571D01*
X118102572Y-131869571D02*
X118102572Y-130869571D01*
X118102572Y-131012429D02*
X118174000Y-130941000D01*
X118316858Y-130869571D01*
X118531143Y-130869571D01*
X118674000Y-130941000D01*
X118745429Y-131083857D01*
X118745429Y-131869571D01*
X118745429Y-131083857D02*
X118816858Y-130941000D01*
X118959715Y-130869571D01*
X119174000Y-130869571D01*
X119316858Y-130941000D01*
X119388286Y-131083857D01*
X119388286Y-131869571D01*
X120316858Y-131869571D02*
X120174000Y-131798143D01*
X120102572Y-131726714D01*
X120031143Y-131583857D01*
X120031143Y-131155286D01*
X120102572Y-131012429D01*
X120174000Y-130941000D01*
X120316858Y-130869571D01*
X120531143Y-130869571D01*
X120674000Y-130941000D01*
X120745429Y-131012429D01*
X120816858Y-131155286D01*
X120816858Y-131583857D01*
X120745429Y-131726714D01*
X120674000Y-131798143D01*
X120531143Y-131869571D01*
X120316858Y-131869571D01*
X121459715Y-131869571D02*
X121459715Y-130869571D01*
X121459715Y-131155286D02*
X121531143Y-131012429D01*
X121602572Y-130941000D01*
X121745429Y-130869571D01*
X121888286Y-130869571D01*
X122959714Y-131798143D02*
X122816857Y-131869571D01*
X122531143Y-131869571D01*
X122388286Y-131798143D01*
X122316857Y-131655286D01*
X122316857Y-131083857D01*
X122388286Y-130941000D01*
X122531143Y-130869571D01*
X122816857Y-130869571D01*
X122959714Y-130941000D01*
X123031143Y-131083857D01*
X123031143Y-131226714D01*
X122316857Y-131369571D01*
X125602571Y-130441000D02*
X125459714Y-130369571D01*
X125245428Y-130369571D01*
X125031143Y-130441000D01*
X124888285Y-130583857D01*
X124816857Y-130726714D01*
X124745428Y-131012429D01*
X124745428Y-131226714D01*
X124816857Y-131512429D01*
X124888285Y-131655286D01*
X125031143Y-131798143D01*
X125245428Y-131869571D01*
X125388285Y-131869571D01*
X125602571Y-131798143D01*
X125674000Y-131726714D01*
X125674000Y-131226714D01*
X125388285Y-131226714D01*
X126316857Y-131869571D02*
X126316857Y-130869571D01*
X126316857Y-130369571D02*
X126245428Y-130441000D01*
X126316857Y-130512429D01*
X126388285Y-130441000D01*
X126316857Y-130369571D01*
X126316857Y-130512429D01*
X127031143Y-131869571D02*
X127031143Y-130869571D01*
X127031143Y-131155286D02*
X127102571Y-131012429D01*
X127174000Y-130941000D01*
X127316857Y-130869571D01*
X127459714Y-130869571D01*
X128174000Y-131869571D02*
X128031142Y-131798143D01*
X127959714Y-131655286D01*
X127959714Y-130369571D01*
X128673999Y-131798143D02*
X128816856Y-131869571D01*
X129102571Y-131869571D01*
X129245428Y-131798143D01*
X129316856Y-131655286D01*
X129316856Y-131583857D01*
X129245428Y-131441000D01*
X129102571Y-131369571D01*
X128888285Y-131369571D01*
X128745428Y-131298143D01*
X128673999Y-131155286D01*
X128673999Y-131083857D01*
X128745428Y-130941000D01*
X128888285Y-130869571D01*
X129102571Y-130869571D01*
X129245428Y-130941000D01*
D11*
X110950000Y-114618000D02*
X110680000Y-114618000D01*
X110680000Y-114618000D02*
X110680000Y-114168000D01*
X110680000Y-112908000D02*
X110680000Y-112458000D01*
X110680000Y-112458000D02*
X110950000Y-112458000D01*
X112570000Y-112458000D02*
X112840000Y-112458000D01*
X112840000Y-112458000D02*
X112840000Y-112908000D01*
X112570000Y-114618000D02*
X112840000Y-114618000D01*
X112840000Y-114618000D02*
X112840000Y-114168000D01*
D13*
X110946400Y-115062000D02*
G75*
G03X110946400Y-115062000I-50000J0D01*
G01*
D11*
X110950000Y-109284000D02*
X110680000Y-109284000D01*
X110680000Y-109284000D02*
X110680000Y-108834000D01*
X110680000Y-107574000D02*
X110680000Y-107124000D01*
X110680000Y-107124000D02*
X110950000Y-107124000D01*
X112570000Y-107124000D02*
X112840000Y-107124000D01*
X112840000Y-107124000D02*
X112840000Y-107574000D01*
X112570000Y-109284000D02*
X112840000Y-109284000D01*
X112840000Y-109284000D02*
X112840000Y-108834000D01*
D13*
X110946400Y-109728000D02*
G75*
G03X110946400Y-109728000I-50000J0D01*
G01*
D14*
X119634000Y-81534000D02*
X119634000Y-78994000D01*
X119634000Y-78994000D02*
X116964000Y-78994000D01*
X116964000Y-81534000D02*
X116964000Y-119764000D01*
X116964000Y-76324000D02*
X116964000Y-78994000D01*
X132334000Y-78994000D02*
X135004000Y-78994000D01*
X132334000Y-78994000D02*
X132334000Y-117094000D01*
X132334000Y-117094000D02*
X135004000Y-117094000D01*
X119634000Y-81534000D02*
X116964000Y-81534000D01*
X119634000Y-81534000D02*
X119634000Y-117094000D01*
X119634000Y-117094000D02*
X116964000Y-117094000D01*
X116964000Y-119764000D02*
X135004000Y-119764000D01*
X135004000Y-119764000D02*
X135004000Y-76324000D01*
X135004000Y-76324000D02*
X116964000Y-76324000D01*
X113276000Y-117260000D02*
X112276000Y-117260000D01*
X112276000Y-118960000D02*
X113276000Y-118960000D01*
X103116000Y-117260000D02*
X102116000Y-117260000D01*
X102116000Y-118960000D02*
X103116000Y-118960000D01*
X103033723Y-100837722D02*
G75*
G03X103034000Y-96226420I-1179723J2305722D01*
G01*
X100674277Y-100837722D02*
G75*
G02X100674000Y-96226420I1179723J2305722D01*
G01*
X100674277Y-100837722D02*
G75*
G03X103034000Y-100837580I1179723J2305722D01*
G01*
X101854000Y-95082000D02*
X101854000Y-96282000D01*
X102504000Y-95682000D02*
X101204000Y-95682000D01*
X106008277Y-90170278D02*
G75*
G03X106008000Y-94781580I1179723J-2305722D01*
G01*
X108367723Y-90170278D02*
G75*
G02X108368000Y-94781580I-1179723J-2305722D01*
G01*
X108367723Y-90170278D02*
G75*
G03X106008000Y-90170420I-1179723J-2305722D01*
G01*
X107188000Y-95926000D02*
X107188000Y-94726000D01*
X106538000Y-95326000D02*
X107838000Y-95326000D01*
X113022000Y-103290000D02*
X112022000Y-103290000D01*
X112022000Y-104990000D02*
X113022000Y-104990000D01*
X103116000Y-102274000D02*
X102116000Y-102274000D01*
X102116000Y-103974000D02*
X103116000Y-103974000D01*
D13*
X84295000Y-78309999D02*
X103665000Y-78310000D01*
X103665000Y-78310000D02*
X103665000Y-69010001D01*
X103665000Y-69010001D02*
X84295000Y-69010000D01*
X84295000Y-69010000D02*
X84295000Y-72110000D01*
X84295000Y-72110000D02*
X84745000Y-72110000D01*
X84745000Y-72110000D02*
X84745000Y-75209999D01*
X84745000Y-75209999D02*
X84295000Y-75209999D01*
X84295000Y-75209999D02*
X84295000Y-78309999D01*
X84041000Y-130633999D02*
X103411000Y-130634000D01*
X103411000Y-130634000D02*
X103411000Y-121334001D01*
X103411000Y-121334001D02*
X84041000Y-121334000D01*
X84041000Y-121334000D02*
X84041000Y-124434000D01*
X84041000Y-124434000D02*
X84491000Y-124434000D01*
X84491000Y-124434000D02*
X84491000Y-127533999D01*
X84491000Y-127533999D02*
X84041000Y-127533999D01*
X84041000Y-127533999D02*
X84041000Y-130633999D01*
D14*
X84516000Y-79951000D02*
X96856000Y-79951000D01*
X96856000Y-79951000D02*
X96856000Y-119271000D01*
X96856000Y-119271000D02*
X84516000Y-119271000D01*
X97750338Y-89666000D02*
X97750338Y-90166000D01*
X97750338Y-90166000D02*
X97317325Y-89916000D01*
X97317325Y-89916000D02*
X97750338Y-89666000D01*
D13*
X99812000Y-149595000D02*
X99812000Y-132345000D01*
X84062000Y-149595000D02*
X84062000Y-132345000D01*
X84062000Y-132345000D02*
X99812000Y-132345000D01*
X99812000Y-149595000D02*
X84062000Y-149595000D01*
X84062000Y-140970000D02*
X99812000Y-140970000D01*
X135520000Y-42408000D02*
X119970000Y-42408000D01*
X135520000Y-56908000D02*
X119970000Y-56908000D01*
X119970000Y-42408000D02*
X119970000Y-56908000D01*
X135520000Y-42408000D02*
X135520000Y-56908000D01*
X134355000Y-166128000D02*
X91705000Y-166128000D01*
X91705000Y-166128000D02*
X91705000Y-150378000D01*
X91705000Y-150356000D02*
X134355000Y-150356000D01*
X134355000Y-150378000D02*
X134355000Y-166128000D01*
X125730000Y-166128000D02*
X125730000Y-150378000D01*
D14*
X126132000Y-141778000D02*
X126132000Y-140278000D01*
X126132000Y-140278000D02*
X125862000Y-140278000D01*
X125862000Y-140278000D02*
X125862000Y-137448000D01*
X119232000Y-141778000D02*
X119232000Y-140278000D01*
X119232000Y-140278000D02*
X119502000Y-140278000D01*
X119502000Y-140278000D02*
X119502000Y-139178000D01*
X134768000Y-141778000D02*
X134768000Y-140278000D01*
X134768000Y-140278000D02*
X134498000Y-140278000D01*
X134498000Y-140278000D02*
X134498000Y-137448000D01*
X127868000Y-141778000D02*
X127868000Y-140278000D01*
X127868000Y-140278000D02*
X128138000Y-140278000D01*
X128138000Y-140278000D02*
X128138000Y-139178000D01*
X108860000Y-141778000D02*
X108860000Y-140278000D01*
X108860000Y-140278000D02*
X108590000Y-140278000D01*
X108590000Y-140278000D02*
X108590000Y-137448000D01*
X101960000Y-141778000D02*
X101960000Y-140278000D01*
X101960000Y-140278000D02*
X102230000Y-140278000D01*
X102230000Y-140278000D02*
X102230000Y-139178000D01*
X117496000Y-141778000D02*
X117496000Y-140278000D01*
X117496000Y-140278000D02*
X117226000Y-140278000D01*
X117226000Y-140278000D02*
X117226000Y-137448000D01*
X110596000Y-141778000D02*
X110596000Y-140278000D01*
X110596000Y-140278000D02*
X110866000Y-140278000D01*
X110866000Y-140278000D02*
X110866000Y-139178000D01*
X106334000Y-123834000D02*
X107534000Y-123834000D01*
X107534000Y-125594000D02*
X106334000Y-125594000D01*
D13*
X114368000Y-77914000D02*
X114368000Y-68014000D01*
X112368000Y-79814000D02*
X105668000Y-79814000D01*
X105668000Y-79814000D02*
X105668000Y-68014000D01*
X105668000Y-68014000D02*
X114368000Y-68014000D01*
X79629000Y-48260000D02*
X79629000Y-46355000D01*
X79629000Y-59690000D02*
X79629000Y-57785000D01*
X87630000Y-38735000D02*
X107188000Y-38735000D01*
X87630000Y-67310000D02*
X107061000Y-67310000D01*
X87630000Y-38772501D02*
X79698500Y-46329000D01*
X87630000Y-67272499D02*
X79698500Y-59716000D01*
X107245500Y-67272500D02*
X107245500Y-38772501D01*
X79698500Y-48272500D02*
X80148500Y-48272500D01*
X80148500Y-48272500D02*
X80148500Y-57772499D01*
X80148500Y-57772499D02*
X79698500Y-57772499D01*
D14*
X100700000Y-94574000D02*
X102500000Y-94574000D01*
X102500000Y-91354000D02*
X100050000Y-91354000D01*
D10*
X103966000Y-112092000D02*
X103966000Y-112912000D01*
X101266000Y-112192000D02*
X101266000Y-112912000D01*
X101266000Y-112192000D02*
X101486000Y-112192000D01*
X101486000Y-115392000D02*
X101266000Y-115392000D01*
X101266000Y-115392000D02*
X101266000Y-114672000D01*
X103966000Y-114672000D02*
X103966000Y-115392000D01*
X103966000Y-115392000D02*
X103746000Y-115392000D01*
D11*
X101116000Y-105196000D02*
X104116000Y-105196000D01*
X101116000Y-110196000D02*
X104116000Y-110196000D01*
D15*
X100089000Y-104902000D02*
G75*
G03X100089000Y-104902000I-100000J0D01*
G01*
D13*
X102108000Y-82118200D02*
X97983000Y-82118200D01*
X101981000Y-88315800D02*
X97983000Y-88315800D01*
X110808000Y-82120000D02*
X110808000Y-82820000D01*
X110808000Y-88320000D02*
X110808000Y-84820000D01*
X102108000Y-82120000D02*
X114068000Y-82120000D01*
X114070000Y-82120000D02*
X114070000Y-82420000D01*
X97893000Y-85020000D02*
X97893000Y-84820000D01*
X97893000Y-82120000D02*
X97893000Y-82820000D01*
X102008000Y-88320000D02*
X114068000Y-88320000D01*
X114070000Y-88320000D02*
X114070000Y-85220000D01*
X97893000Y-88320000D02*
X97893000Y-84920000D01*
D14*
X134873722Y-60288277D02*
G75*
G03X130262420Y-60288000I-2305722J-1179723D01*
G01*
X134873722Y-62647723D02*
G75*
G02X130262420Y-62648000I-2305722J1179723D01*
G01*
X134873722Y-62647723D02*
G75*
G03X134873580Y-60288000I-2305722J1179723D01*
G01*
X129118000Y-61468000D02*
X130318000Y-61468000D01*
X129718000Y-60818000D02*
X129718000Y-62118000D01*
D16*
G36*
X104421393Y-129997939D02*
X104460066Y-130004799D01*
X104520704Y-130016060D01*
X104600638Y-130031210D01*
X104697198Y-130049742D01*
X104807717Y-130071144D01*
X104929524Y-130094909D01*
X105059951Y-130120526D01*
X105062188Y-130120967D01*
X105223354Y-130152947D01*
X105358950Y-130180363D01*
X105470792Y-130203630D01*
X105560695Y-130223159D01*
X105630478Y-130239365D01*
X105681956Y-130252660D01*
X105716947Y-130263457D01*
X105737265Y-130272169D01*
X105742204Y-130275608D01*
X105767147Y-130302453D01*
X105805452Y-130349311D01*
X105854893Y-130413132D01*
X105913247Y-130490866D01*
X105978288Y-130579463D01*
X106047792Y-130675874D01*
X106119533Y-130777048D01*
X106191288Y-130879937D01*
X106260830Y-130981490D01*
X106304546Y-131046467D01*
X106511083Y-131364668D01*
X106713437Y-131693552D01*
X106909308Y-132028858D01*
X107096397Y-132366325D01*
X107272403Y-132701694D01*
X107435026Y-133030703D01*
X107581968Y-133349092D01*
X107709563Y-133649233D01*
X107741732Y-133731260D01*
X107776699Y-133824875D01*
X107812821Y-133925236D01*
X107848460Y-134027498D01*
X107881973Y-134126817D01*
X107911720Y-134218352D01*
X107936060Y-134297258D01*
X107953352Y-134358691D01*
X107960777Y-134390744D01*
X107969293Y-134424030D01*
X107978240Y-134441689D01*
X107980153Y-134442548D01*
X107993508Y-134432468D01*
X108022144Y-134404284D01*
X108063291Y-134361081D01*
X108114176Y-134305946D01*
X108172031Y-134241962D01*
X108234084Y-134172216D01*
X108297564Y-134099793D01*
X108359702Y-134027778D01*
X108417727Y-133959256D01*
X108460098Y-133908079D01*
X108589862Y-133744280D01*
X108709359Y-133582245D01*
X108822834Y-133415624D01*
X108934535Y-133238069D01*
X109048707Y-133043229D01*
X109101623Y-132948942D01*
X109141026Y-132879513D01*
X109176331Y-132820332D01*
X109205240Y-132775010D01*
X109225455Y-132747158D01*
X109234518Y-132740175D01*
X109245052Y-132756292D01*
X109265685Y-132791695D01*
X109293410Y-132841112D01*
X109324356Y-132897672D01*
X109478177Y-133169432D01*
X109634493Y-133419619D01*
X109797420Y-133654450D01*
X109971074Y-133880139D01*
X109992674Y-133906713D01*
X110045561Y-133970421D01*
X110104768Y-134040080D01*
X110167533Y-134112611D01*
X110231090Y-134184936D01*
X110292678Y-134253977D01*
X110349532Y-134316657D01*
X110398889Y-134369896D01*
X110437984Y-134410618D01*
X110464055Y-134435743D01*
X110473765Y-134442548D01*
X110482257Y-134430361D01*
X110491219Y-134400137D01*
X110493141Y-134390744D01*
X110503971Y-134345851D01*
X110523097Y-134279800D01*
X110548879Y-134197434D01*
X110579676Y-134103597D01*
X110613847Y-134003133D01*
X110649751Y-133900886D01*
X110685746Y-133801697D01*
X110720193Y-133710412D01*
X110744355Y-133649233D01*
X110870984Y-133351402D01*
X111015317Y-133038521D01*
X111175035Y-132714883D01*
X111347823Y-132384779D01*
X111531365Y-132052501D01*
X111723344Y-131722342D01*
X111921444Y-131398592D01*
X112123349Y-131085543D01*
X112147990Y-131048501D01*
X112214755Y-130949644D01*
X112285222Y-130847388D01*
X112357169Y-130744778D01*
X112428376Y-130644859D01*
X112496624Y-130550678D01*
X112559690Y-130465278D01*
X112615356Y-130391707D01*
X112661400Y-130333008D01*
X112695603Y-130292228D01*
X112711106Y-130276158D01*
X112725812Y-130268221D01*
X112755581Y-130258132D01*
X112802113Y-130245504D01*
X112867103Y-130229953D01*
X112952248Y-130211094D01*
X113059247Y-130188541D01*
X113189795Y-130161909D01*
X113345590Y-130130813D01*
X113391122Y-130121816D01*
X113521732Y-130096127D01*
X113643767Y-130072273D01*
X113754562Y-130050763D01*
X113851447Y-130032110D01*
X113931755Y-130016824D01*
X113992818Y-130005415D01*
X114031970Y-129998395D01*
X114046541Y-129996274D01*
X114046563Y-129996286D01*
X114043741Y-130009686D01*
X114034714Y-130047291D01*
X114020183Y-130106342D01*
X114000847Y-130184077D01*
X113977407Y-130277738D01*
X113950564Y-130384563D01*
X113921017Y-130501794D01*
X113889466Y-130626668D01*
X113856613Y-130756427D01*
X113823157Y-130888310D01*
X113789798Y-131019557D01*
X113757237Y-131147407D01*
X113726174Y-131269102D01*
X113697310Y-131381880D01*
X113671344Y-131482981D01*
X113648976Y-131569645D01*
X113630908Y-131639113D01*
X113617839Y-131688623D01*
X113610469Y-131715416D01*
X113610151Y-131716481D01*
X113613530Y-131727082D01*
X113630135Y-131743195D01*
X113662117Y-131766232D01*
X113711630Y-131797607D01*
X113780826Y-131838732D01*
X113871858Y-131891021D01*
X113902930Y-131908633D01*
X113985389Y-131955680D01*
X114059168Y-131998570D01*
X114120988Y-132035331D01*
X114167572Y-132063994D01*
X114195641Y-132082588D01*
X114202575Y-132088799D01*
X114191149Y-132097622D01*
X114157818Y-132120694D01*
X114104005Y-132157075D01*
X114031133Y-132205826D01*
X113940623Y-132266007D01*
X113833899Y-132336680D01*
X113712383Y-132416904D01*
X113577497Y-132505740D01*
X113430663Y-132602249D01*
X113273305Y-132705492D01*
X113106845Y-132814528D01*
X112932704Y-132928419D01*
X112797038Y-133017030D01*
X112618018Y-133134004D01*
X112445600Y-133246882D01*
X112281210Y-133354720D01*
X112126271Y-133456575D01*
X111982205Y-133551504D01*
X111850436Y-133638564D01*
X111732387Y-133716813D01*
X111629481Y-133785307D01*
X111543143Y-133843102D01*
X111474795Y-133889257D01*
X111425860Y-133922828D01*
X111397762Y-133942872D01*
X111391218Y-133948466D01*
X111395233Y-133964370D01*
X111406810Y-134003896D01*
X111425054Y-134064145D01*
X111449073Y-134142218D01*
X111477973Y-134235218D01*
X111510860Y-134340245D01*
X111546841Y-134454400D01*
X111559797Y-134495334D01*
X111596373Y-134611683D01*
X111629781Y-134719715D01*
X111659176Y-134816568D01*
X111683716Y-134899382D01*
X111702557Y-134965297D01*
X111714856Y-135011452D01*
X111719770Y-135034987D01*
X111719579Y-135037362D01*
X111704731Y-135037074D01*
X111664222Y-135033633D01*
X111600023Y-135027262D01*
X111514104Y-135018180D01*
X111408433Y-135006609D01*
X111284982Y-134992769D01*
X111145721Y-134976882D01*
X110992618Y-134959167D01*
X110827645Y-134939847D01*
X110652771Y-134919142D01*
X110469966Y-134897273D01*
X110468729Y-134897124D01*
X109226959Y-134747808D01*
X108010636Y-134894411D01*
X107829041Y-134916254D01*
X107654917Y-134937114D01*
X107490308Y-134956748D01*
X107337255Y-134974919D01*
X107197803Y-134991387D01*
X107073994Y-135005911D01*
X106967870Y-135018251D01*
X106881476Y-135028169D01*
X106816854Y-135035423D01*
X106776047Y-135039775D01*
X106761512Y-135041014D01*
X106736314Y-135036837D01*
X106728712Y-135029463D01*
X106732788Y-135014076D01*
X106744416Y-134975068D01*
X106762696Y-134915338D01*
X106786727Y-134837788D01*
X106815611Y-134745316D01*
X106848446Y-134640824D01*
X106884334Y-134527210D01*
X106895726Y-134491261D01*
X106932385Y-134375287D01*
X106966257Y-134267408D01*
X106996441Y-134170546D01*
X107022035Y-134087627D01*
X107042139Y-134021575D01*
X107055851Y-133975316D01*
X107062270Y-133951773D01*
X107062639Y-133949579D01*
X107051197Y-133940202D01*
X107017846Y-133916590D01*
X106964007Y-133879688D01*
X106891106Y-133830439D01*
X106800565Y-133769787D01*
X106693806Y-133698679D01*
X106572253Y-133618056D01*
X106437329Y-133528865D01*
X106290457Y-133432049D01*
X106133060Y-133328552D01*
X105966562Y-133219319D01*
X105792384Y-133105295D01*
X105656941Y-133016790D01*
X105477949Y-132899835D01*
X105305562Y-132787031D01*
X105141203Y-132679315D01*
X104986295Y-132577627D01*
X104842259Y-132482907D01*
X104710517Y-132396094D01*
X104592492Y-132318127D01*
X104489606Y-132249944D01*
X104403282Y-132192487D01*
X104334941Y-132146692D01*
X104286006Y-132113501D01*
X104257899Y-132093852D01*
X104251343Y-132088559D01*
X104262951Y-132079112D01*
X104295593Y-132058074D01*
X104345989Y-132027414D01*
X104410863Y-131989099D01*
X104486936Y-131945097D01*
X104550988Y-131908633D01*
X104648815Y-131852812D01*
X104724177Y-131808567D01*
X104779226Y-131774486D01*
X104816114Y-131749155D01*
X104836994Y-131731163D01*
X104844020Y-131719095D01*
X104843767Y-131716481D01*
X104836832Y-131691447D01*
X104824147Y-131643491D01*
X104806413Y-131575374D01*
X104784330Y-131489855D01*
X104758598Y-131389697D01*
X104729918Y-131277658D01*
X104698989Y-131156500D01*
X104666512Y-131028983D01*
X104633186Y-130897868D01*
X104599713Y-130765914D01*
X104566792Y-130635882D01*
X104535124Y-130510534D01*
X104505409Y-130392628D01*
X104478346Y-130284926D01*
X104454637Y-130190188D01*
X104434981Y-130111175D01*
X104420079Y-130050647D01*
X104410630Y-130011364D01*
X104407335Y-129996087D01*
X104407354Y-129995987D01*
X104421393Y-129997939D01*
X104421393Y-129997939D01*
G37*
X104421393Y-129997939D02*
X104460066Y-130004799D01*
X104520704Y-130016060D01*
X104600638Y-130031210D01*
X104697198Y-130049742D01*
X104807717Y-130071144D01*
X104929524Y-130094909D01*
X105059951Y-130120526D01*
X105062188Y-130120967D01*
X105223354Y-130152947D01*
X105358950Y-130180363D01*
X105470792Y-130203630D01*
X105560695Y-130223159D01*
X105630478Y-130239365D01*
X105681956Y-130252660D01*
X105716947Y-130263457D01*
X105737265Y-130272169D01*
X105742204Y-130275608D01*
X105767147Y-130302453D01*
X105805452Y-130349311D01*
X105854893Y-130413132D01*
X105913247Y-130490866D01*
X105978288Y-130579463D01*
X106047792Y-130675874D01*
X106119533Y-130777048D01*
X106191288Y-130879937D01*
X106260830Y-130981490D01*
X106304546Y-131046467D01*
X106511083Y-131364668D01*
X106713437Y-131693552D01*
X106909308Y-132028858D01*
X107096397Y-132366325D01*
X107272403Y-132701694D01*
X107435026Y-133030703D01*
X107581968Y-133349092D01*
X107709563Y-133649233D01*
X107741732Y-133731260D01*
X107776699Y-133824875D01*
X107812821Y-133925236D01*
X107848460Y-134027498D01*
X107881973Y-134126817D01*
X107911720Y-134218352D01*
X107936060Y-134297258D01*
X107953352Y-134358691D01*
X107960777Y-134390744D01*
X107969293Y-134424030D01*
X107978240Y-134441689D01*
X107980153Y-134442548D01*
X107993508Y-134432468D01*
X108022144Y-134404284D01*
X108063291Y-134361081D01*
X108114176Y-134305946D01*
X108172031Y-134241962D01*
X108234084Y-134172216D01*
X108297564Y-134099793D01*
X108359702Y-134027778D01*
X108417727Y-133959256D01*
X108460098Y-133908079D01*
X108589862Y-133744280D01*
X108709359Y-133582245D01*
X108822834Y-133415624D01*
X108934535Y-133238069D01*
X109048707Y-133043229D01*
X109101623Y-132948942D01*
X109141026Y-132879513D01*
X109176331Y-132820332D01*
X109205240Y-132775010D01*
X109225455Y-132747158D01*
X109234518Y-132740175D01*
X109245052Y-132756292D01*
X109265685Y-132791695D01*
X109293410Y-132841112D01*
X109324356Y-132897672D01*
X109478177Y-133169432D01*
X109634493Y-133419619D01*
X109797420Y-133654450D01*
X109971074Y-133880139D01*
X109992674Y-133906713D01*
X110045561Y-133970421D01*
X110104768Y-134040080D01*
X110167533Y-134112611D01*
X110231090Y-134184936D01*
X110292678Y-134253977D01*
X110349532Y-134316657D01*
X110398889Y-134369896D01*
X110437984Y-134410618D01*
X110464055Y-134435743D01*
X110473765Y-134442548D01*
X110482257Y-134430361D01*
X110491219Y-134400137D01*
X110493141Y-134390744D01*
X110503971Y-134345851D01*
X110523097Y-134279800D01*
X110548879Y-134197434D01*
X110579676Y-134103597D01*
X110613847Y-134003133D01*
X110649751Y-133900886D01*
X110685746Y-133801697D01*
X110720193Y-133710412D01*
X110744355Y-133649233D01*
X110870984Y-133351402D01*
X111015317Y-133038521D01*
X111175035Y-132714883D01*
X111347823Y-132384779D01*
X111531365Y-132052501D01*
X111723344Y-131722342D01*
X111921444Y-131398592D01*
X112123349Y-131085543D01*
X112147990Y-131048501D01*
X112214755Y-130949644D01*
X112285222Y-130847388D01*
X112357169Y-130744778D01*
X112428376Y-130644859D01*
X112496624Y-130550678D01*
X112559690Y-130465278D01*
X112615356Y-130391707D01*
X112661400Y-130333008D01*
X112695603Y-130292228D01*
X112711106Y-130276158D01*
X112725812Y-130268221D01*
X112755581Y-130258132D01*
X112802113Y-130245504D01*
X112867103Y-130229953D01*
X112952248Y-130211094D01*
X113059247Y-130188541D01*
X113189795Y-130161909D01*
X113345590Y-130130813D01*
X113391122Y-130121816D01*
X113521732Y-130096127D01*
X113643767Y-130072273D01*
X113754562Y-130050763D01*
X113851447Y-130032110D01*
X113931755Y-130016824D01*
X113992818Y-130005415D01*
X114031970Y-129998395D01*
X114046541Y-129996274D01*
X114046563Y-129996286D01*
X114043741Y-130009686D01*
X114034714Y-130047291D01*
X114020183Y-130106342D01*
X114000847Y-130184077D01*
X113977407Y-130277738D01*
X113950564Y-130384563D01*
X113921017Y-130501794D01*
X113889466Y-130626668D01*
X113856613Y-130756427D01*
X113823157Y-130888310D01*
X113789798Y-131019557D01*
X113757237Y-131147407D01*
X113726174Y-131269102D01*
X113697310Y-131381880D01*
X113671344Y-131482981D01*
X113648976Y-131569645D01*
X113630908Y-131639113D01*
X113617839Y-131688623D01*
X113610469Y-131715416D01*
X113610151Y-131716481D01*
X113613530Y-131727082D01*
X113630135Y-131743195D01*
X113662117Y-131766232D01*
X113711630Y-131797607D01*
X113780826Y-131838732D01*
X113871858Y-131891021D01*
X113902930Y-131908633D01*
X113985389Y-131955680D01*
X114059168Y-131998570D01*
X114120988Y-132035331D01*
X114167572Y-132063994D01*
X114195641Y-132082588D01*
X114202575Y-132088799D01*
X114191149Y-132097622D01*
X114157818Y-132120694D01*
X114104005Y-132157075D01*
X114031133Y-132205826D01*
X113940623Y-132266007D01*
X113833899Y-132336680D01*
X113712383Y-132416904D01*
X113577497Y-132505740D01*
X113430663Y-132602249D01*
X113273305Y-132705492D01*
X113106845Y-132814528D01*
X112932704Y-132928419D01*
X112797038Y-133017030D01*
X112618018Y-133134004D01*
X112445600Y-133246882D01*
X112281210Y-133354720D01*
X112126271Y-133456575D01*
X111982205Y-133551504D01*
X111850436Y-133638564D01*
X111732387Y-133716813D01*
X111629481Y-133785307D01*
X111543143Y-133843102D01*
X111474795Y-133889257D01*
X111425860Y-133922828D01*
X111397762Y-133942872D01*
X111391218Y-133948466D01*
X111395233Y-133964370D01*
X111406810Y-134003896D01*
X111425054Y-134064145D01*
X111449073Y-134142218D01*
X111477973Y-134235218D01*
X111510860Y-134340245D01*
X111546841Y-134454400D01*
X111559797Y-134495334D01*
X111596373Y-134611683D01*
X111629781Y-134719715D01*
X111659176Y-134816568D01*
X111683716Y-134899382D01*
X111702557Y-134965297D01*
X111714856Y-135011452D01*
X111719770Y-135034987D01*
X111719579Y-135037362D01*
X111704731Y-135037074D01*
X111664222Y-135033633D01*
X111600023Y-135027262D01*
X111514104Y-135018180D01*
X111408433Y-135006609D01*
X111284982Y-134992769D01*
X111145721Y-134976882D01*
X110992618Y-134959167D01*
X110827645Y-134939847D01*
X110652771Y-134919142D01*
X110469966Y-134897273D01*
X110468729Y-134897124D01*
X109226959Y-134747808D01*
X108010636Y-134894411D01*
X107829041Y-134916254D01*
X107654917Y-134937114D01*
X107490308Y-134956748D01*
X107337255Y-134974919D01*
X107197803Y-134991387D01*
X107073994Y-135005911D01*
X106967870Y-135018251D01*
X106881476Y-135028169D01*
X106816854Y-135035423D01*
X106776047Y-135039775D01*
X106761512Y-135041014D01*
X106736314Y-135036837D01*
X106728712Y-135029463D01*
X106732788Y-135014076D01*
X106744416Y-134975068D01*
X106762696Y-134915338D01*
X106786727Y-134837788D01*
X106815611Y-134745316D01*
X106848446Y-134640824D01*
X106884334Y-134527210D01*
X106895726Y-134491261D01*
X106932385Y-134375287D01*
X106966257Y-134267408D01*
X106996441Y-134170546D01*
X107022035Y-134087627D01*
X107042139Y-134021575D01*
X107055851Y-133975316D01*
X107062270Y-133951773D01*
X107062639Y-133949579D01*
X107051197Y-133940202D01*
X107017846Y-133916590D01*
X106964007Y-133879688D01*
X106891106Y-133830439D01*
X106800565Y-133769787D01*
X106693806Y-133698679D01*
X106572253Y-133618056D01*
X106437329Y-133528865D01*
X106290457Y-133432049D01*
X106133060Y-133328552D01*
X105966562Y-133219319D01*
X105792384Y-133105295D01*
X105656941Y-133016790D01*
X105477949Y-132899835D01*
X105305562Y-132787031D01*
X105141203Y-132679315D01*
X104986295Y-132577627D01*
X104842259Y-132482907D01*
X104710517Y-132396094D01*
X104592492Y-132318127D01*
X104489606Y-132249944D01*
X104403282Y-132192487D01*
X104334941Y-132146692D01*
X104286006Y-132113501D01*
X104257899Y-132093852D01*
X104251343Y-132088559D01*
X104262951Y-132079112D01*
X104295593Y-132058074D01*
X104345989Y-132027414D01*
X104410863Y-131989099D01*
X104486936Y-131945097D01*
X104550988Y-131908633D01*
X104648815Y-131852812D01*
X104724177Y-131808567D01*
X104779226Y-131774486D01*
X104816114Y-131749155D01*
X104836994Y-131731163D01*
X104844020Y-131719095D01*
X104843767Y-131716481D01*
X104836832Y-131691447D01*
X104824147Y-131643491D01*
X104806413Y-131575374D01*
X104784330Y-131489855D01*
X104758598Y-131389697D01*
X104729918Y-131277658D01*
X104698989Y-131156500D01*
X104666512Y-131028983D01*
X104633186Y-130897868D01*
X104599713Y-130765914D01*
X104566792Y-130635882D01*
X104535124Y-130510534D01*
X104505409Y-130392628D01*
X104478346Y-130284926D01*
X104454637Y-130190188D01*
X104434981Y-130111175D01*
X104420079Y-130050647D01*
X104410630Y-130011364D01*
X104407335Y-129996087D01*
X104407354Y-129995987D01*
X104421393Y-129997939D01*
G36*
X109235828Y-126605810D02*
X109257031Y-126640138D01*
X109289466Y-126694988D01*
X109332034Y-126768430D01*
X109383634Y-126858537D01*
X109443166Y-126963380D01*
X109509530Y-127081029D01*
X109581626Y-127209556D01*
X109658352Y-127347033D01*
X109724894Y-127466787D01*
X109804738Y-127610733D01*
X109880795Y-127747789D01*
X109951965Y-127875976D01*
X110017147Y-127993311D01*
X110075238Y-128097816D01*
X110125138Y-128187509D01*
X110165745Y-128260410D01*
X110195959Y-128314539D01*
X110214678Y-128347916D01*
X110220667Y-128358394D01*
X110229114Y-128361201D01*
X110248819Y-128357900D01*
X110281826Y-128347702D01*
X110330180Y-128329817D01*
X110395923Y-128303456D01*
X110481102Y-128267831D01*
X110587760Y-128222152D01*
X110701565Y-128172770D01*
X110808458Y-128126519D01*
X110907265Y-128084396D01*
X110995109Y-128047580D01*
X111069113Y-128017250D01*
X111126398Y-127994585D01*
X111164086Y-127980763D01*
X111179301Y-127976964D01*
X111179399Y-127977034D01*
X111179360Y-127991846D01*
X111176790Y-128032416D01*
X111171859Y-128096798D01*
X111164742Y-128183044D01*
X111155610Y-128289209D01*
X111144635Y-128413346D01*
X111131990Y-128553509D01*
X111117848Y-128707751D01*
X111102380Y-128874127D01*
X111085760Y-129050690D01*
X111068159Y-129235493D01*
X111065212Y-129266226D01*
X111047441Y-129452115D01*
X111030564Y-129630027D01*
X111014758Y-129798020D01*
X111000198Y-129954154D01*
X110987063Y-130096488D01*
X110975528Y-130223082D01*
X110965769Y-130331995D01*
X110957965Y-130421285D01*
X110952291Y-130489013D01*
X110948923Y-130533238D01*
X110948040Y-130552019D01*
X110948145Y-130552538D01*
X110959303Y-130544621D01*
X110989375Y-130519773D01*
X111036513Y-130479605D01*
X111098867Y-130425726D01*
X111174591Y-130359745D01*
X111261835Y-130283272D01*
X111358751Y-130197918D01*
X111463490Y-130105291D01*
X111556122Y-130023079D01*
X111666216Y-129925387D01*
X111770199Y-129833446D01*
X111866200Y-129748890D01*
X111952348Y-129673352D01*
X112026769Y-129608465D01*
X112087594Y-129555861D01*
X112132949Y-129517174D01*
X112160964Y-129494035D01*
X112169706Y-129487809D01*
X112173955Y-129490925D01*
X112180484Y-129501816D01*
X112190198Y-129522795D01*
X112204002Y-129556177D01*
X112222801Y-129604276D01*
X112247501Y-129669404D01*
X112279006Y-129753877D01*
X112318222Y-129860007D01*
X112363506Y-129983166D01*
X112404853Y-130095784D01*
X112286252Y-130232604D01*
X112133232Y-130413611D01*
X111972733Y-130611790D01*
X111807007Y-130823920D01*
X111638306Y-131046782D01*
X111468879Y-131277156D01*
X111300979Y-131511821D01*
X111136857Y-131747558D01*
X110978764Y-131981146D01*
X110828952Y-132209366D01*
X110689672Y-132428997D01*
X110563174Y-132636819D01*
X110451711Y-132829613D01*
X110384384Y-132952873D01*
X110308801Y-133095245D01*
X110262889Y-133028515D01*
X110175367Y-132891790D01*
X110084677Y-132732444D01*
X109992999Y-132555174D01*
X109902514Y-132364674D01*
X109815404Y-132165642D01*
X109733849Y-131962774D01*
X109660031Y-131760765D01*
X109623615Y-131652028D01*
X109557949Y-131437960D01*
X109492222Y-131202794D01*
X109428089Y-130953211D01*
X109367209Y-130695896D01*
X109311237Y-130437531D01*
X109267692Y-130216394D01*
X109228258Y-130005527D01*
X109156607Y-130362531D01*
X109077426Y-130734304D01*
X108994014Y-131080580D01*
X108905620Y-131403476D01*
X108811494Y-131705112D01*
X108710885Y-131987606D01*
X108603043Y-132253077D01*
X108487218Y-132503644D01*
X108362660Y-132741427D01*
X108240537Y-132949377D01*
X108207287Y-133002208D01*
X108178863Y-133045711D01*
X108158714Y-133074711D01*
X108150892Y-133083978D01*
X108140561Y-133075278D01*
X108121331Y-133046679D01*
X108096473Y-133003318D01*
X108081925Y-132975697D01*
X108001030Y-132824968D01*
X107903782Y-132656122D01*
X107792158Y-132471990D01*
X107668132Y-132275403D01*
X107533681Y-132069194D01*
X107390781Y-131856193D01*
X107241408Y-131639232D01*
X107087538Y-131421144D01*
X106931147Y-131204758D01*
X106774211Y-130992908D01*
X106618706Y-130788425D01*
X106466608Y-130594139D01*
X106319893Y-130412884D01*
X106180537Y-130247489D01*
X106167666Y-130232604D01*
X106049065Y-130095784D01*
X106090412Y-129983166D01*
X106137808Y-129854271D01*
X106176631Y-129749236D01*
X106207783Y-129665748D01*
X106232169Y-129601495D01*
X106250693Y-129554164D01*
X106264259Y-129521443D01*
X106273771Y-129501020D01*
X106280133Y-129490582D01*
X106284064Y-129487809D01*
X106296244Y-129496801D01*
X106327327Y-129522689D01*
X106375439Y-129563841D01*
X106438710Y-129618626D01*
X106515267Y-129685411D01*
X106603239Y-129762565D01*
X106700755Y-129848455D01*
X106805942Y-129941451D01*
X106897802Y-130022924D01*
X107007727Y-130120381D01*
X107111373Y-130211924D01*
X107206892Y-130295945D01*
X107292436Y-130370835D01*
X107366156Y-130434983D01*
X107426204Y-130486780D01*
X107470732Y-130524618D01*
X107497890Y-130546887D01*
X107505928Y-130552383D01*
X107505449Y-130538018D01*
X107502459Y-130497887D01*
X107497133Y-130433932D01*
X107489650Y-130348093D01*
X107480186Y-130242309D01*
X107468917Y-130118522D01*
X107456021Y-129978672D01*
X107441675Y-129824699D01*
X107426054Y-129658543D01*
X107409337Y-129482146D01*
X107407177Y-129459517D01*
X108721239Y-129459517D01*
X108726325Y-129461002D01*
X108746776Y-129445940D01*
X108778335Y-129417527D01*
X108782419Y-129413611D01*
X108831655Y-129372626D01*
X108892836Y-129330615D01*
X108948603Y-129298857D01*
X109072824Y-129251687D01*
X109198922Y-129231548D01*
X109324146Y-129238020D01*
X109445743Y-129270685D01*
X109560961Y-129329125D01*
X109660904Y-129407106D01*
X109696523Y-129438838D01*
X109721807Y-129458248D01*
X109732583Y-129462247D01*
X109732361Y-129459973D01*
X109726993Y-129443234D01*
X109714093Y-129402302D01*
X109694407Y-129339562D01*
X109668681Y-129257396D01*
X109637659Y-129158191D01*
X109602088Y-129044328D01*
X109562713Y-128918193D01*
X109520280Y-128782169D01*
X109477759Y-128645781D01*
X109433294Y-128503200D01*
X109391315Y-128368742D01*
X109352546Y-128244722D01*
X109317713Y-128133456D01*
X109287542Y-128037256D01*
X109262760Y-127958438D01*
X109244091Y-127899316D01*
X109232262Y-127862205D01*
X109228008Y-127849424D01*
X109223539Y-127861775D01*
X109211530Y-127898420D01*
X109192703Y-127957072D01*
X109167782Y-128035444D01*
X109137489Y-128131248D01*
X109102548Y-128242199D01*
X109063682Y-128366009D01*
X109021614Y-128500391D01*
X108977166Y-128642739D01*
X108932402Y-128786217D01*
X108889981Y-128922064D01*
X108850647Y-129047901D01*
X108815146Y-129161353D01*
X108784223Y-129260042D01*
X108758622Y-129341590D01*
X108739087Y-129403621D01*
X108726365Y-129443757D01*
X108721239Y-129459517D01*
X107407177Y-129459517D01*
X107391700Y-129297447D01*
X107388706Y-129266226D01*
X107370963Y-129080262D01*
X107354175Y-128902220D01*
X107338514Y-128734045D01*
X107324152Y-128577685D01*
X107311262Y-128435086D01*
X107300016Y-128308195D01*
X107290586Y-128198958D01*
X107283144Y-128109322D01*
X107277862Y-128041233D01*
X107274913Y-127996639D01*
X107274469Y-127977484D01*
X107274646Y-127976907D01*
X107288971Y-127980256D01*
X107325875Y-127993663D01*
X107382472Y-128015948D01*
X107455875Y-128045932D01*
X107543197Y-128082435D01*
X107641550Y-128124277D01*
X107748048Y-128170278D01*
X107750249Y-128171236D01*
X107856771Y-128217540D01*
X107955011Y-128260138D01*
X108042105Y-128297797D01*
X108115192Y-128329284D01*
X108171410Y-128353366D01*
X108207897Y-128368809D01*
X108221790Y-128374382D01*
X108221818Y-128374384D01*
X108229169Y-128362521D01*
X108248919Y-128328206D01*
X108280004Y-128273344D01*
X108321354Y-128199843D01*
X108371904Y-128109612D01*
X108430586Y-128004557D01*
X108496333Y-127886586D01*
X108568079Y-127757607D01*
X108644755Y-127619526D01*
X108719822Y-127484132D01*
X108800297Y-127339212D01*
X108877063Y-127201622D01*
X108949032Y-127073271D01*
X109015116Y-126956072D01*
X109074226Y-126851933D01*
X109125275Y-126762764D01*
X109167174Y-126690476D01*
X109198835Y-126636978D01*
X109219169Y-126604182D01*
X109226959Y-126593933D01*
X109235828Y-126605810D01*
X109235828Y-126605810D01*
G37*
X109235828Y-126605810D02*
X109257031Y-126640138D01*
X109289466Y-126694988D01*
X109332034Y-126768430D01*
X109383634Y-126858537D01*
X109443166Y-126963380D01*
X109509530Y-127081029D01*
X109581626Y-127209556D01*
X109658352Y-127347033D01*
X109724894Y-127466787D01*
X109804738Y-127610733D01*
X109880795Y-127747789D01*
X109951965Y-127875976D01*
X110017147Y-127993311D01*
X110075238Y-128097816D01*
X110125138Y-128187509D01*
X110165745Y-128260410D01*
X110195959Y-128314539D01*
X110214678Y-128347916D01*
X110220667Y-128358394D01*
X110229114Y-128361201D01*
X110248819Y-128357900D01*
X110281826Y-128347702D01*
X110330180Y-128329817D01*
X110395923Y-128303456D01*
X110481102Y-128267831D01*
X110587760Y-128222152D01*
X110701565Y-128172770D01*
X110808458Y-128126519D01*
X110907265Y-128084396D01*
X110995109Y-128047580D01*
X111069113Y-128017250D01*
X111126398Y-127994585D01*
X111164086Y-127980763D01*
X111179301Y-127976964D01*
X111179399Y-127977034D01*
X111179360Y-127991846D01*
X111176790Y-128032416D01*
X111171859Y-128096798D01*
X111164742Y-128183044D01*
X111155610Y-128289209D01*
X111144635Y-128413346D01*
X111131990Y-128553509D01*
X111117848Y-128707751D01*
X111102380Y-128874127D01*
X111085760Y-129050690D01*
X111068159Y-129235493D01*
X111065212Y-129266226D01*
X111047441Y-129452115D01*
X111030564Y-129630027D01*
X111014758Y-129798020D01*
X111000198Y-129954154D01*
X110987063Y-130096488D01*
X110975528Y-130223082D01*
X110965769Y-130331995D01*
X110957965Y-130421285D01*
X110952291Y-130489013D01*
X110948923Y-130533238D01*
X110948040Y-130552019D01*
X110948145Y-130552538D01*
X110959303Y-130544621D01*
X110989375Y-130519773D01*
X111036513Y-130479605D01*
X111098867Y-130425726D01*
X111174591Y-130359745D01*
X111261835Y-130283272D01*
X111358751Y-130197918D01*
X111463490Y-130105291D01*
X111556122Y-130023079D01*
X111666216Y-129925387D01*
X111770199Y-129833446D01*
X111866200Y-129748890D01*
X111952348Y-129673352D01*
X112026769Y-129608465D01*
X112087594Y-129555861D01*
X112132949Y-129517174D01*
X112160964Y-129494035D01*
X112169706Y-129487809D01*
X112173955Y-129490925D01*
X112180484Y-129501816D01*
X112190198Y-129522795D01*
X112204002Y-129556177D01*
X112222801Y-129604276D01*
X112247501Y-129669404D01*
X112279006Y-129753877D01*
X112318222Y-129860007D01*
X112363506Y-129983166D01*
X112404853Y-130095784D01*
X112286252Y-130232604D01*
X112133232Y-130413611D01*
X111972733Y-130611790D01*
X111807007Y-130823920D01*
X111638306Y-131046782D01*
X111468879Y-131277156D01*
X111300979Y-131511821D01*
X111136857Y-131747558D01*
X110978764Y-131981146D01*
X110828952Y-132209366D01*
X110689672Y-132428997D01*
X110563174Y-132636819D01*
X110451711Y-132829613D01*
X110384384Y-132952873D01*
X110308801Y-133095245D01*
X110262889Y-133028515D01*
X110175367Y-132891790D01*
X110084677Y-132732444D01*
X109992999Y-132555174D01*
X109902514Y-132364674D01*
X109815404Y-132165642D01*
X109733849Y-131962774D01*
X109660031Y-131760765D01*
X109623615Y-131652028D01*
X109557949Y-131437960D01*
X109492222Y-131202794D01*
X109428089Y-130953211D01*
X109367209Y-130695896D01*
X109311237Y-130437531D01*
X109267692Y-130216394D01*
X109228258Y-130005527D01*
X109156607Y-130362531D01*
X109077426Y-130734304D01*
X108994014Y-131080580D01*
X108905620Y-131403476D01*
X108811494Y-131705112D01*
X108710885Y-131987606D01*
X108603043Y-132253077D01*
X108487218Y-132503644D01*
X108362660Y-132741427D01*
X108240537Y-132949377D01*
X108207287Y-133002208D01*
X108178863Y-133045711D01*
X108158714Y-133074711D01*
X108150892Y-133083978D01*
X108140561Y-133075278D01*
X108121331Y-133046679D01*
X108096473Y-133003318D01*
X108081925Y-132975697D01*
X108001030Y-132824968D01*
X107903782Y-132656122D01*
X107792158Y-132471990D01*
X107668132Y-132275403D01*
X107533681Y-132069194D01*
X107390781Y-131856193D01*
X107241408Y-131639232D01*
X107087538Y-131421144D01*
X106931147Y-131204758D01*
X106774211Y-130992908D01*
X106618706Y-130788425D01*
X106466608Y-130594139D01*
X106319893Y-130412884D01*
X106180537Y-130247489D01*
X106167666Y-130232604D01*
X106049065Y-130095784D01*
X106090412Y-129983166D01*
X106137808Y-129854271D01*
X106176631Y-129749236D01*
X106207783Y-129665748D01*
X106232169Y-129601495D01*
X106250693Y-129554164D01*
X106264259Y-129521443D01*
X106273771Y-129501020D01*
X106280133Y-129490582D01*
X106284064Y-129487809D01*
X106296244Y-129496801D01*
X106327327Y-129522689D01*
X106375439Y-129563841D01*
X106438710Y-129618626D01*
X106515267Y-129685411D01*
X106603239Y-129762565D01*
X106700755Y-129848455D01*
X106805942Y-129941451D01*
X106897802Y-130022924D01*
X107007727Y-130120381D01*
X107111373Y-130211924D01*
X107206892Y-130295945D01*
X107292436Y-130370835D01*
X107366156Y-130434983D01*
X107426204Y-130486780D01*
X107470732Y-130524618D01*
X107497890Y-130546887D01*
X107505928Y-130552383D01*
X107505449Y-130538018D01*
X107502459Y-130497887D01*
X107497133Y-130433932D01*
X107489650Y-130348093D01*
X107480186Y-130242309D01*
X107468917Y-130118522D01*
X107456021Y-129978672D01*
X107441675Y-129824699D01*
X107426054Y-129658543D01*
X107409337Y-129482146D01*
X107407177Y-129459517D01*
X108721239Y-129459517D01*
X108726325Y-129461002D01*
X108746776Y-129445940D01*
X108778335Y-129417527D01*
X108782419Y-129413611D01*
X108831655Y-129372626D01*
X108892836Y-129330615D01*
X108948603Y-129298857D01*
X109072824Y-129251687D01*
X109198922Y-129231548D01*
X109324146Y-129238020D01*
X109445743Y-129270685D01*
X109560961Y-129329125D01*
X109660904Y-129407106D01*
X109696523Y-129438838D01*
X109721807Y-129458248D01*
X109732583Y-129462247D01*
X109732361Y-129459973D01*
X109726993Y-129443234D01*
X109714093Y-129402302D01*
X109694407Y-129339562D01*
X109668681Y-129257396D01*
X109637659Y-129158191D01*
X109602088Y-129044328D01*
X109562713Y-128918193D01*
X109520280Y-128782169D01*
X109477759Y-128645781D01*
X109433294Y-128503200D01*
X109391315Y-128368742D01*
X109352546Y-128244722D01*
X109317713Y-128133456D01*
X109287542Y-128037256D01*
X109262760Y-127958438D01*
X109244091Y-127899316D01*
X109232262Y-127862205D01*
X109228008Y-127849424D01*
X109223539Y-127861775D01*
X109211530Y-127898420D01*
X109192703Y-127957072D01*
X109167782Y-128035444D01*
X109137489Y-128131248D01*
X109102548Y-128242199D01*
X109063682Y-128366009D01*
X109021614Y-128500391D01*
X108977166Y-128642739D01*
X108932402Y-128786217D01*
X108889981Y-128922064D01*
X108850647Y-129047901D01*
X108815146Y-129161353D01*
X108784223Y-129260042D01*
X108758622Y-129341590D01*
X108739087Y-129403621D01*
X108726365Y-129443757D01*
X108721239Y-129459517D01*
X107407177Y-129459517D01*
X107391700Y-129297447D01*
X107388706Y-129266226D01*
X107370963Y-129080262D01*
X107354175Y-128902220D01*
X107338514Y-128734045D01*
X107324152Y-128577685D01*
X107311262Y-128435086D01*
X107300016Y-128308195D01*
X107290586Y-128198958D01*
X107283144Y-128109322D01*
X107277862Y-128041233D01*
X107274913Y-127996639D01*
X107274469Y-127977484D01*
X107274646Y-127976907D01*
X107288971Y-127980256D01*
X107325875Y-127993663D01*
X107382472Y-128015948D01*
X107455875Y-128045932D01*
X107543197Y-128082435D01*
X107641550Y-128124277D01*
X107748048Y-128170278D01*
X107750249Y-128171236D01*
X107856771Y-128217540D01*
X107955011Y-128260138D01*
X108042105Y-128297797D01*
X108115192Y-128329284D01*
X108171410Y-128353366D01*
X108207897Y-128368809D01*
X108221790Y-128374382D01*
X108221818Y-128374384D01*
X108229169Y-128362521D01*
X108248919Y-128328206D01*
X108280004Y-128273344D01*
X108321354Y-128199843D01*
X108371904Y-128109612D01*
X108430586Y-128004557D01*
X108496333Y-127886586D01*
X108568079Y-127757607D01*
X108644755Y-127619526D01*
X108719822Y-127484132D01*
X108800297Y-127339212D01*
X108877063Y-127201622D01*
X108949032Y-127073271D01*
X109015116Y-126956072D01*
X109074226Y-126851933D01*
X109125275Y-126762764D01*
X109167174Y-126690476D01*
X109198835Y-126636978D01*
X109219169Y-126604182D01*
X109226959Y-126593933D01*
X109235828Y-126605810D01*
D13*
X108671959Y-114097291D02*
X109482106Y-114097291D01*
X109577418Y-114049636D01*
X109625074Y-114001980D01*
X109672729Y-113906669D01*
X109672729Y-113716046D01*
X109625074Y-113620734D01*
X109577418Y-113573079D01*
X109482106Y-113525423D01*
X108671959Y-113525423D01*
X108671959Y-113144177D02*
X108671959Y-112476997D01*
X109672729Y-112905898D01*
X108671959Y-108763291D02*
X109482106Y-108763291D01*
X109577418Y-108715636D01*
X109625074Y-108667980D01*
X109672729Y-108572669D01*
X109672729Y-108382046D01*
X109625074Y-108286734D01*
X109577418Y-108239079D01*
X109482106Y-108191423D01*
X108671959Y-108191423D01*
X109672729Y-107667210D02*
X109672729Y-107476587D01*
X109625074Y-107381275D01*
X109577418Y-107333620D01*
X109434451Y-107238308D01*
X109243828Y-107190653D01*
X108862582Y-107190653D01*
X108767271Y-107238308D01*
X108719615Y-107285964D01*
X108671959Y-107381275D01*
X108671959Y-107571898D01*
X108719615Y-107667210D01*
X108767271Y-107714865D01*
X108862582Y-107762521D01*
X109100861Y-107762521D01*
X109196172Y-107714865D01*
X109243828Y-107667210D01*
X109291484Y-107571898D01*
X109291484Y-107381275D01*
X109243828Y-107285964D01*
X109196172Y-107238308D01*
X109100861Y-107190653D01*
X125269714Y-75350667D02*
X125745905Y-75350667D01*
X125174476Y-75636381D02*
X125507809Y-74636381D01*
X125841143Y-75636381D01*
X126698286Y-75636381D02*
X126126857Y-75636381D01*
X126412571Y-75636381D02*
X126412571Y-74636381D01*
X126317333Y-74779238D01*
X126222095Y-74874476D01*
X126126857Y-74922095D01*
X111117143Y-120245143D02*
X111069524Y-120292762D01*
X110926667Y-120340381D01*
X110831429Y-120340381D01*
X110688571Y-120292762D01*
X110593333Y-120197524D01*
X110545714Y-120102286D01*
X110498095Y-119911810D01*
X110498095Y-119768952D01*
X110545714Y-119578476D01*
X110593333Y-119483238D01*
X110688571Y-119388000D01*
X110831429Y-119340381D01*
X110926667Y-119340381D01*
X111069524Y-119388000D01*
X111117143Y-119435619D01*
X112069524Y-120340381D02*
X111498095Y-120340381D01*
X111783809Y-120340381D02*
X111783809Y-119340381D01*
X111688571Y-119483238D01*
X111593333Y-119578476D01*
X111498095Y-119626095D01*
X112450476Y-119435619D02*
X112498095Y-119388000D01*
X112593333Y-119340381D01*
X112831429Y-119340381D01*
X112926667Y-119388000D01*
X112974286Y-119435619D01*
X113021905Y-119530857D01*
X113021905Y-119626095D01*
X112974286Y-119768952D01*
X112402857Y-120340381D01*
X113021905Y-120340381D01*
X101211143Y-120245143D02*
X101163524Y-120292762D01*
X101020667Y-120340381D01*
X100925429Y-120340381D01*
X100782571Y-120292762D01*
X100687333Y-120197524D01*
X100639714Y-120102286D01*
X100592095Y-119911810D01*
X100592095Y-119768952D01*
X100639714Y-119578476D01*
X100687333Y-119483238D01*
X100782571Y-119388000D01*
X100925429Y-119340381D01*
X101020667Y-119340381D01*
X101163524Y-119388000D01*
X101211143Y-119435619D01*
X102163524Y-120340381D02*
X101592095Y-120340381D01*
X101877809Y-120340381D02*
X101877809Y-119340381D01*
X101782571Y-119483238D01*
X101687333Y-119578476D01*
X101592095Y-119626095D01*
X102496857Y-119340381D02*
X103115905Y-119340381D01*
X102782571Y-119721333D01*
X102925429Y-119721333D01*
X103020667Y-119768952D01*
X103068286Y-119816571D01*
X103115905Y-119911810D01*
X103115905Y-120149905D01*
X103068286Y-120245143D01*
X103020667Y-120292762D01*
X102925429Y-120340381D01*
X102639714Y-120340381D01*
X102544476Y-120292762D01*
X102496857Y-120245143D01*
X98163143Y-96369143D02*
X98115524Y-96416762D01*
X97972667Y-96464381D01*
X97877429Y-96464381D01*
X97734571Y-96416762D01*
X97639333Y-96321524D01*
X97591714Y-96226286D01*
X97544095Y-96035810D01*
X97544095Y-95892952D01*
X97591714Y-95702476D01*
X97639333Y-95607238D01*
X97734571Y-95512000D01*
X97877429Y-95464381D01*
X97972667Y-95464381D01*
X98115524Y-95512000D01*
X98163143Y-95559619D01*
X99115524Y-96464381D02*
X98544095Y-96464381D01*
X98829809Y-96464381D02*
X98829809Y-95464381D01*
X98734571Y-95607238D01*
X98639333Y-95702476D01*
X98544095Y-95750095D01*
X99972667Y-95797714D02*
X99972667Y-96464381D01*
X99734571Y-95416762D02*
X99496476Y-96131048D01*
X100115524Y-96131048D01*
X103735143Y-93118857D02*
X103782762Y-93166476D01*
X103830381Y-93309333D01*
X103830381Y-93404571D01*
X103782762Y-93547429D01*
X103687524Y-93642667D01*
X103592286Y-93690286D01*
X103401810Y-93737905D01*
X103258952Y-93737905D01*
X103068476Y-93690286D01*
X102973238Y-93642667D01*
X102878000Y-93547429D01*
X102830381Y-93404571D01*
X102830381Y-93309333D01*
X102878000Y-93166476D01*
X102925619Y-93118857D01*
X103830381Y-92166476D02*
X103830381Y-92737905D01*
X103830381Y-92452191D02*
X102830381Y-92452191D01*
X102973238Y-92547429D01*
X103068476Y-92642667D01*
X103116095Y-92737905D01*
X102830381Y-91261714D02*
X102830381Y-91737905D01*
X103306571Y-91785524D01*
X103258952Y-91737905D01*
X103211333Y-91642667D01*
X103211333Y-91404571D01*
X103258952Y-91309333D01*
X103306571Y-91261714D01*
X103401810Y-91214095D01*
X103639905Y-91214095D01*
X103735143Y-91261714D01*
X103782762Y-91309333D01*
X103830381Y-91404571D01*
X103830381Y-91642667D01*
X103782762Y-91737905D01*
X103735143Y-91785524D01*
X111879143Y-102747143D02*
X111831524Y-102794762D01*
X111688667Y-102842381D01*
X111593429Y-102842381D01*
X111450571Y-102794762D01*
X111355333Y-102699524D01*
X111307714Y-102604286D01*
X111260095Y-102413810D01*
X111260095Y-102270952D01*
X111307714Y-102080476D01*
X111355333Y-101985238D01*
X111450571Y-101890000D01*
X111593429Y-101842381D01*
X111688667Y-101842381D01*
X111831524Y-101890000D01*
X111879143Y-101937619D01*
X112831524Y-102842381D02*
X112260095Y-102842381D01*
X112545809Y-102842381D02*
X112545809Y-101842381D01*
X112450571Y-101985238D01*
X112355333Y-102080476D01*
X112260095Y-102128095D01*
X113688667Y-101842381D02*
X113498190Y-101842381D01*
X113402952Y-101890000D01*
X113355333Y-101937619D01*
X113260095Y-102080476D01*
X113212476Y-102270952D01*
X113212476Y-102651905D01*
X113260095Y-102747143D01*
X113307714Y-102794762D01*
X113402952Y-102842381D01*
X113593429Y-102842381D01*
X113688667Y-102794762D01*
X113736286Y-102747143D01*
X113783905Y-102651905D01*
X113783905Y-102413810D01*
X113736286Y-102318571D01*
X113688667Y-102270952D01*
X113593429Y-102223333D01*
X113402952Y-102223333D01*
X113307714Y-102270952D01*
X113260095Y-102318571D01*
X113212476Y-102413810D01*
X98163143Y-103481143D02*
X98115524Y-103528762D01*
X97972667Y-103576381D01*
X97877429Y-103576381D01*
X97734571Y-103528762D01*
X97639333Y-103433524D01*
X97591714Y-103338286D01*
X97544095Y-103147810D01*
X97544095Y-103004952D01*
X97591714Y-102814476D01*
X97639333Y-102719238D01*
X97734571Y-102624000D01*
X97877429Y-102576381D01*
X97972667Y-102576381D01*
X98115524Y-102624000D01*
X98163143Y-102671619D01*
X99115524Y-103576381D02*
X98544095Y-103576381D01*
X98829809Y-103576381D02*
X98829809Y-102576381D01*
X98734571Y-102719238D01*
X98639333Y-102814476D01*
X98544095Y-102862095D01*
X99448857Y-102576381D02*
X100115524Y-102576381D01*
X99686952Y-103576381D01*
X85385286Y-67964000D02*
X85385286Y-68364000D01*
X86013857Y-68364000D02*
X84813857Y-68364000D01*
X84813857Y-67792571D01*
X86013857Y-66706857D02*
X86013857Y-67392572D01*
X86013857Y-67049714D02*
X84813857Y-67049714D01*
X84985286Y-67164000D01*
X85099571Y-67278286D01*
X85156714Y-67392572D01*
X92624286Y-126638000D02*
X92624286Y-127038000D01*
X93252857Y-127038000D02*
X92052857Y-127038000D01*
X92052857Y-126466571D01*
X92167143Y-126066572D02*
X92110000Y-126009429D01*
X92052857Y-125895143D01*
X92052857Y-125609429D01*
X92110000Y-125495143D01*
X92167143Y-125438000D01*
X92281429Y-125380857D01*
X92395714Y-125380857D01*
X92567143Y-125438000D01*
X93252857Y-126123714D01*
X93252857Y-125380857D01*
X100561857Y-147847000D02*
X101419000Y-147847000D01*
X101590429Y-147904142D01*
X101704714Y-148018428D01*
X101761857Y-148189857D01*
X101761857Y-148304142D01*
X100676143Y-147332714D02*
X100619000Y-147275571D01*
X100561857Y-147161285D01*
X100561857Y-146875571D01*
X100619000Y-146761285D01*
X100676143Y-146704142D01*
X100790429Y-146646999D01*
X100904714Y-146646999D01*
X101076143Y-146704142D01*
X101761857Y-147389856D01*
X101761857Y-146646999D01*
X119840477Y-40600381D02*
X119840477Y-41314667D01*
X119792857Y-41457524D01*
X119697619Y-41552762D01*
X119554762Y-41600381D01*
X119459524Y-41600381D01*
X120840477Y-41600381D02*
X120269048Y-41600381D01*
X120554762Y-41600381D02*
X120554762Y-40600381D01*
X120459524Y-40743238D01*
X120364286Y-40838476D01*
X120269048Y-40886095D01*
X121792858Y-41600381D02*
X121221429Y-41600381D01*
X121507143Y-41600381D02*
X121507143Y-40600381D01*
X121411905Y-40743238D01*
X121316667Y-40838476D01*
X121221429Y-40886095D01*
X131108571Y-148567857D02*
X131108571Y-149425000D01*
X131051429Y-149596429D01*
X130937143Y-149710714D01*
X130765714Y-149767857D01*
X130651429Y-149767857D01*
X132308572Y-149767857D02*
X131622857Y-149767857D01*
X131965715Y-149767857D02*
X131965715Y-148567857D01*
X131851429Y-148739286D01*
X131737143Y-148853571D01*
X131622857Y-148910714D01*
X133337143Y-148967857D02*
X133337143Y-149767857D01*
X133051429Y-148510714D02*
X132765714Y-149367857D01*
X133508572Y-149367857D01*
X127039619Y-142843238D02*
X126992000Y-142938476D01*
X126896762Y-143033714D01*
X126753905Y-143176571D01*
X126706286Y-143271810D01*
X126706286Y-143367048D01*
X126944381Y-143319429D02*
X126896762Y-143414667D01*
X126801524Y-143509905D01*
X126611048Y-143557524D01*
X126277714Y-143557524D01*
X126087238Y-143509905D01*
X125992000Y-143414667D01*
X125944381Y-143319429D01*
X125944381Y-143128952D01*
X125992000Y-143033714D01*
X126087238Y-142938476D01*
X126277714Y-142890857D01*
X126611048Y-142890857D01*
X126801524Y-142938476D01*
X126896762Y-143033714D01*
X126944381Y-143128952D01*
X126944381Y-143319429D01*
X125944381Y-142557524D02*
X125944381Y-141938476D01*
X126325333Y-142271810D01*
X126325333Y-142128952D01*
X126372952Y-142033714D01*
X126420571Y-141986095D01*
X126515810Y-141938476D01*
X126753905Y-141938476D01*
X126849143Y-141986095D01*
X126896762Y-142033714D01*
X126944381Y-142128952D01*
X126944381Y-142414667D01*
X126896762Y-142509905D01*
X126849143Y-142557524D01*
X135802619Y-142843238D02*
X135755000Y-142938476D01*
X135659762Y-143033714D01*
X135516905Y-143176571D01*
X135469286Y-143271810D01*
X135469286Y-143367048D01*
X135707381Y-143319429D02*
X135659762Y-143414667D01*
X135564524Y-143509905D01*
X135374048Y-143557524D01*
X135040714Y-143557524D01*
X134850238Y-143509905D01*
X134755000Y-143414667D01*
X134707381Y-143319429D01*
X134707381Y-143128952D01*
X134755000Y-143033714D01*
X134850238Y-142938476D01*
X135040714Y-142890857D01*
X135374048Y-142890857D01*
X135564524Y-142938476D01*
X135659762Y-143033714D01*
X135707381Y-143128952D01*
X135707381Y-143319429D01*
X135040714Y-142033714D02*
X135707381Y-142033714D01*
X134659762Y-142271810D02*
X135374048Y-142509905D01*
X135374048Y-141890857D01*
X109767619Y-142843238D02*
X109720000Y-142938476D01*
X109624762Y-143033714D01*
X109481905Y-143176571D01*
X109434286Y-143271810D01*
X109434286Y-143367048D01*
X109672381Y-143319429D02*
X109624762Y-143414667D01*
X109529524Y-143509905D01*
X109339048Y-143557524D01*
X109005714Y-143557524D01*
X108815238Y-143509905D01*
X108720000Y-143414667D01*
X108672381Y-143319429D01*
X108672381Y-143128952D01*
X108720000Y-143033714D01*
X108815238Y-142938476D01*
X109005714Y-142890857D01*
X109339048Y-142890857D01*
X109529524Y-142938476D01*
X109624762Y-143033714D01*
X109672381Y-143128952D01*
X109672381Y-143319429D01*
X108672381Y-142557524D02*
X108672381Y-141890857D01*
X109672381Y-142319429D01*
X118403619Y-142843238D02*
X118356000Y-142938476D01*
X118260762Y-143033714D01*
X118117905Y-143176571D01*
X118070286Y-143271810D01*
X118070286Y-143367048D01*
X118308381Y-143319429D02*
X118260762Y-143414667D01*
X118165524Y-143509905D01*
X117975048Y-143557524D01*
X117641714Y-143557524D01*
X117451238Y-143509905D01*
X117356000Y-143414667D01*
X117308381Y-143319429D01*
X117308381Y-143128952D01*
X117356000Y-143033714D01*
X117451238Y-142938476D01*
X117641714Y-142890857D01*
X117975048Y-142890857D01*
X118165524Y-142938476D01*
X118260762Y-143033714D01*
X118308381Y-143128952D01*
X118308381Y-143319429D01*
X117736952Y-142319429D02*
X117689333Y-142414667D01*
X117641714Y-142462286D01*
X117546476Y-142509905D01*
X117498857Y-142509905D01*
X117403619Y-142462286D01*
X117356000Y-142414667D01*
X117308381Y-142319429D01*
X117308381Y-142128952D01*
X117356000Y-142033714D01*
X117403619Y-141986095D01*
X117498857Y-141938476D01*
X117546476Y-141938476D01*
X117641714Y-141986095D01*
X117689333Y-142033714D01*
X117736952Y-142128952D01*
X117736952Y-142319429D01*
X117784571Y-142414667D01*
X117832190Y-142462286D01*
X117927429Y-142509905D01*
X118117905Y-142509905D01*
X118213143Y-142462286D01*
X118260762Y-142414667D01*
X118308381Y-142319429D01*
X118308381Y-142128952D01*
X118260762Y-142033714D01*
X118213143Y-141986095D01*
X118117905Y-141938476D01*
X117927429Y-141938476D01*
X117832190Y-141986095D01*
X117784571Y-142033714D01*
X117736952Y-142128952D01*
X106767334Y-126866381D02*
X106434000Y-126390190D01*
X106195905Y-126866381D02*
X106195905Y-125866381D01*
X106576858Y-125866381D01*
X106672096Y-125914000D01*
X106719715Y-125961619D01*
X106767334Y-126056857D01*
X106767334Y-126199714D01*
X106719715Y-126294952D01*
X106672096Y-126342571D01*
X106576858Y-126390190D01*
X106195905Y-126390190D01*
X107719715Y-126866381D02*
X107148286Y-126866381D01*
X107434000Y-126866381D02*
X107434000Y-125866381D01*
X107338762Y-126009238D01*
X107243524Y-126104476D01*
X107148286Y-126152095D01*
X115020381Y-74675905D02*
X115829905Y-74675905D01*
X115925143Y-74628286D01*
X115972762Y-74580667D01*
X116020381Y-74485429D01*
X116020381Y-74294952D01*
X115972762Y-74199714D01*
X115925143Y-74152095D01*
X115829905Y-74104476D01*
X115020381Y-74104476D01*
X116020381Y-73104476D02*
X116020381Y-73675905D01*
X116020381Y-73390191D02*
X115020381Y-73390191D01*
X115163238Y-73485429D01*
X115258476Y-73580667D01*
X115306095Y-73675905D01*
X107800857Y-53111286D02*
X108772286Y-53111286D01*
X108886571Y-53054143D01*
X108943714Y-52997000D01*
X109000857Y-52882714D01*
X109000857Y-52654143D01*
X108943714Y-52539857D01*
X108886571Y-52482714D01*
X108772286Y-52425571D01*
X107800857Y-52425571D01*
X107800857Y-51968428D02*
X107800857Y-51225571D01*
X108258000Y-51625571D01*
X108258000Y-51454143D01*
X108315143Y-51339857D01*
X108372286Y-51282714D01*
X108486571Y-51225571D01*
X108772286Y-51225571D01*
X108886571Y-51282714D01*
X108943714Y-51339857D01*
X109000857Y-51454143D01*
X109000857Y-51797000D01*
X108943714Y-51911286D01*
X108886571Y-51968428D01*
X97750381Y-93725905D02*
X98559905Y-93725905D01*
X98655143Y-93678286D01*
X98702762Y-93630667D01*
X98750381Y-93535429D01*
X98750381Y-93344952D01*
X98702762Y-93249714D01*
X98655143Y-93202095D01*
X98559905Y-93154476D01*
X97750381Y-93154476D01*
X97750381Y-92249714D02*
X97750381Y-92440191D01*
X97798000Y-92535429D01*
X97845619Y-92583048D01*
X97988476Y-92678286D01*
X98178952Y-92725905D01*
X98559905Y-92725905D01*
X98655143Y-92678286D01*
X98702762Y-92630667D01*
X98750381Y-92535429D01*
X98750381Y-92344952D01*
X98702762Y-92249714D01*
X98655143Y-92202095D01*
X98559905Y-92154476D01*
X98321810Y-92154476D01*
X98226571Y-92202095D01*
X98178952Y-92249714D01*
X98131333Y-92344952D01*
X98131333Y-92535429D01*
X98178952Y-92630667D01*
X98226571Y-92678286D01*
X98321810Y-92725905D01*
X98766381Y-115061905D02*
X99575905Y-115061905D01*
X99671143Y-115014286D01*
X99718762Y-114966667D01*
X99766381Y-114871429D01*
X99766381Y-114680952D01*
X99718762Y-114585714D01*
X99671143Y-114538095D01*
X99575905Y-114490476D01*
X98766381Y-114490476D01*
X99194952Y-113871429D02*
X99147333Y-113966667D01*
X99099714Y-114014286D01*
X99004476Y-114061905D01*
X98956857Y-114061905D01*
X98861619Y-114014286D01*
X98814000Y-113966667D01*
X98766381Y-113871429D01*
X98766381Y-113680952D01*
X98814000Y-113585714D01*
X98861619Y-113538095D01*
X98956857Y-113490476D01*
X99004476Y-113490476D01*
X99099714Y-113538095D01*
X99147333Y-113585714D01*
X99194952Y-113680952D01*
X99194952Y-113871429D01*
X99242571Y-113966667D01*
X99290190Y-114014286D01*
X99385429Y-114061905D01*
X99575905Y-114061905D01*
X99671143Y-114014286D01*
X99718762Y-113966667D01*
X99766381Y-113871429D01*
X99766381Y-113680952D01*
X99718762Y-113585714D01*
X99671143Y-113538095D01*
X99575905Y-113490476D01*
X99385429Y-113490476D01*
X99290190Y-113538095D01*
X99242571Y-113585714D01*
X99194952Y-113680952D01*
D17*
X104243143Y-111506000D02*
X104290762Y-111458381D01*
X104338381Y-111506000D01*
X104290762Y-111553619D01*
X104243143Y-111506000D01*
X104338381Y-111506000D01*
D13*
X97186905Y-105243381D02*
X97186905Y-106052905D01*
X97234524Y-106148143D01*
X97282143Y-106195762D01*
X97377381Y-106243381D01*
X97567858Y-106243381D01*
X97663096Y-106195762D01*
X97710715Y-106148143D01*
X97758334Y-106052905D01*
X97758334Y-105243381D01*
X98758334Y-106243381D02*
X98186905Y-106243381D01*
X98472619Y-106243381D02*
X98472619Y-105243381D01*
X98377381Y-105386238D01*
X98282143Y-105481476D01*
X98186905Y-105529095D01*
X99377381Y-105243381D02*
X99472620Y-105243381D01*
X99567858Y-105291000D01*
X99615477Y-105338619D01*
X99663096Y-105433857D01*
X99710715Y-105624333D01*
X99710715Y-105862429D01*
X99663096Y-106052905D01*
X99615477Y-106148143D01*
X99567858Y-106195762D01*
X99472620Y-106243381D01*
X99377381Y-106243381D01*
X99282143Y-106195762D01*
X99234524Y-106148143D01*
X99186905Y-106052905D01*
X99139286Y-105862429D01*
X99139286Y-105624333D01*
X99186905Y-105433857D01*
X99234524Y-105338619D01*
X99282143Y-105291000D01*
X99377381Y-105243381D01*
D18*
X98559963Y-111346456D02*
X98559963Y-110704816D01*
X98773843Y-111163130D01*
X98987723Y-110704816D01*
X98987723Y-111346456D01*
X99262712Y-111315901D02*
X99354375Y-111346456D01*
X99507146Y-111346456D01*
X99568255Y-111315901D01*
X99598809Y-111285347D01*
X99629364Y-111224239D01*
X99629364Y-111163130D01*
X99598809Y-111102021D01*
X99568255Y-111071467D01*
X99507146Y-111040913D01*
X99384929Y-111010359D01*
X99323821Y-110979804D01*
X99293266Y-110949250D01*
X99262712Y-110888141D01*
X99262712Y-110827033D01*
X99293266Y-110765924D01*
X99323821Y-110735370D01*
X99384929Y-110704816D01*
X99537701Y-110704816D01*
X99629364Y-110735370D01*
X100209895Y-110704816D02*
X99904352Y-110704816D01*
X99873798Y-111010359D01*
X99904352Y-110979804D01*
X99965461Y-110949250D01*
X100118232Y-110949250D01*
X100179341Y-110979804D01*
X100209895Y-111010359D01*
X100240450Y-111071467D01*
X100240450Y-111224239D01*
X100209895Y-111285347D01*
X100179341Y-111315901D01*
X100118232Y-111346456D01*
X99965461Y-111346456D01*
X99904352Y-111315901D01*
X99873798Y-111285347D01*
X100790427Y-110704816D02*
X100668210Y-110704816D01*
X100607101Y-110735370D01*
X100576547Y-110765924D01*
X100515438Y-110857587D01*
X100484884Y-110979804D01*
X100484884Y-111224239D01*
X100515438Y-111285347D01*
X100545993Y-111315901D01*
X100607101Y-111346456D01*
X100729318Y-111346456D01*
X100790427Y-111315901D01*
X100820981Y-111285347D01*
X100851536Y-111224239D01*
X100851536Y-111071467D01*
X100820981Y-111010359D01*
X100790427Y-110979804D01*
X100729318Y-110949250D01*
X100607101Y-110949250D01*
X100545993Y-110979804D01*
X100515438Y-111010359D01*
X100484884Y-111071467D01*
X101248742Y-110704816D02*
X101309850Y-110704816D01*
X101370959Y-110735370D01*
X101401513Y-110765924D01*
X101432067Y-110827033D01*
X101462622Y-110949250D01*
X101462622Y-111102021D01*
X101432067Y-111224239D01*
X101401513Y-111285347D01*
X101370959Y-111315901D01*
X101309850Y-111346456D01*
X101248742Y-111346456D01*
X101187633Y-111315901D01*
X101157079Y-111285347D01*
X101126524Y-111224239D01*
X101095970Y-111102021D01*
X101095970Y-110949250D01*
X101126524Y-110827033D01*
X101157079Y-110765924D01*
X101187633Y-110735370D01*
X101248742Y-110704816D01*
X101676502Y-110704816D02*
X102104262Y-110704816D01*
X101829273Y-111346456D01*
X102348696Y-111102021D02*
X102837565Y-111102021D01*
X103265325Y-110704816D02*
X103326433Y-110704816D01*
X103387542Y-110735370D01*
X103418096Y-110765924D01*
X103448650Y-110827033D01*
X103479205Y-110949250D01*
X103479205Y-111102021D01*
X103448650Y-111224239D01*
X103418096Y-111285347D01*
X103387542Y-111315901D01*
X103326433Y-111346456D01*
X103265325Y-111346456D01*
X103204216Y-111315901D01*
X103173662Y-111285347D01*
X103143107Y-111224239D01*
X103112553Y-111102021D01*
X103112553Y-110949250D01*
X103143107Y-110827033D01*
X103173662Y-110765924D01*
X103204216Y-110735370D01*
X103265325Y-110704816D01*
X103723639Y-110765924D02*
X103754193Y-110735370D01*
X103815302Y-110704816D01*
X103968073Y-110704816D01*
X104029182Y-110735370D01*
X104059736Y-110765924D01*
X104090291Y-110827033D01*
X104090291Y-110888141D01*
X104059736Y-110979804D01*
X103693085Y-111346456D01*
X104090291Y-111346456D01*
X104579159Y-111010359D02*
X104670822Y-111040913D01*
X104701377Y-111071467D01*
X104731931Y-111132576D01*
X104731931Y-111224239D01*
X104701377Y-111285347D01*
X104670822Y-111315901D01*
X104609714Y-111346456D01*
X104365279Y-111346456D01*
X104365279Y-110704816D01*
X104579159Y-110704816D01*
X104640268Y-110735370D01*
X104670822Y-110765924D01*
X104701377Y-110827033D01*
X104701377Y-110888141D01*
X104670822Y-110949250D01*
X104640268Y-110979804D01*
X104579159Y-111010359D01*
X104365279Y-111010359D01*
X104976365Y-111163130D02*
X105281908Y-111163130D01*
X104915257Y-111346456D02*
X105129137Y-110704816D01*
X105343017Y-111346456D01*
X105679114Y-110704816D02*
X105740222Y-110704816D01*
X105801331Y-110735370D01*
X105831885Y-110765924D01*
X105862439Y-110827033D01*
X105892994Y-110949250D01*
X105892994Y-111102021D01*
X105862439Y-111224239D01*
X105831885Y-111285347D01*
X105801331Y-111315901D01*
X105740222Y-111346456D01*
X105679114Y-111346456D01*
X105618005Y-111315901D01*
X105587451Y-111285347D01*
X105556896Y-111224239D01*
X105526342Y-111102021D01*
X105526342Y-110949250D01*
X105556896Y-110827033D01*
X105587451Y-110765924D01*
X105618005Y-110735370D01*
X105679114Y-110704816D01*
X106106874Y-110704816D02*
X106504080Y-110704816D01*
X106290200Y-110949250D01*
X106381862Y-110949250D01*
X106442971Y-110979804D01*
X106473525Y-111010359D01*
X106504080Y-111071467D01*
X106504080Y-111224239D01*
X106473525Y-111285347D01*
X106442971Y-111315901D01*
X106381862Y-111346456D01*
X106198537Y-111346456D01*
X106137428Y-111315901D01*
X106106874Y-111285347D01*
D13*
X114514381Y-88106095D02*
X115323905Y-88106095D01*
X115419143Y-88058476D01*
X115466762Y-88010857D01*
X115514381Y-87915619D01*
X115514381Y-87725142D01*
X115466762Y-87629904D01*
X115419143Y-87582285D01*
X115323905Y-87534666D01*
X114514381Y-87534666D01*
X115514381Y-86534666D02*
X115514381Y-87106095D01*
X115514381Y-86820381D02*
X114514381Y-86820381D01*
X114657238Y-86915619D01*
X114752476Y-87010857D01*
X114800095Y-87106095D01*
X115514381Y-85582285D02*
X115514381Y-86153714D01*
X115514381Y-85868000D02*
X114514381Y-85868000D01*
X114657238Y-85963238D01*
X114752476Y-86058476D01*
X114800095Y-86153714D01*
X132401334Y-58015143D02*
X132353715Y-58062762D01*
X132210858Y-58110381D01*
X132115620Y-58110381D01*
X131972762Y-58062762D01*
X131877524Y-57967524D01*
X131829905Y-57872286D01*
X131782286Y-57681810D01*
X131782286Y-57538952D01*
X131829905Y-57348476D01*
X131877524Y-57253238D01*
X131972762Y-57158000D01*
X132115620Y-57110381D01*
X132210858Y-57110381D01*
X132353715Y-57158000D01*
X132401334Y-57205619D01*
X132734667Y-57110381D02*
X133353715Y-57110381D01*
X133020381Y-57491333D01*
X133163239Y-57491333D01*
X133258477Y-57538952D01*
X133306096Y-57586571D01*
X133353715Y-57681810D01*
X133353715Y-57919905D01*
X133306096Y-58015143D01*
X133258477Y-58062762D01*
X133163239Y-58110381D01*
X132877524Y-58110381D01*
X132782286Y-58062762D01*
X132734667Y-58015143D01*
M02*
