G04 #@! TF.FileFunction,Legend,Bot*
%FSLAX46Y46*%
G04 Gerber Fmt 4.6, Leading zero omitted, Abs format (unit mm)*
G04 Created by KiCad (PCBNEW 4.0.7) date Wednesday, May 09, 2018 'PMt' 10:18:29 PM*
%MOMM*%
%LPD*%
G01*
G04 APERTURE LIST*
%ADD10C,0.100000*%
%ADD11C,0.120000*%
%ADD12C,0.150000*%
G04 APERTURE END LIST*
D10*
D11*
X107958000Y-75604000D02*
X108958000Y-75604000D01*
X108958000Y-77304000D02*
X107958000Y-77304000D01*
X107958000Y-70524000D02*
X108958000Y-70524000D01*
X108958000Y-72224000D02*
X107958000Y-72224000D01*
X111498000Y-46824000D02*
X110498000Y-46824000D01*
X110498000Y-45124000D02*
X111498000Y-45124000D01*
X111498000Y-42506000D02*
X110498000Y-42506000D01*
X110498000Y-40806000D02*
X111498000Y-40806000D01*
X90512000Y-58936000D02*
X90512000Y-59936000D01*
X88812000Y-59936000D02*
X88812000Y-58936000D01*
X87845000Y-58936000D02*
X87845000Y-59936000D01*
X86145000Y-59936000D02*
X86145000Y-58936000D01*
X111244000Y-65874000D02*
X110244000Y-65874000D01*
X110244000Y-64174000D02*
X111244000Y-64174000D01*
X111244000Y-61810000D02*
X110244000Y-61810000D01*
X110244000Y-60110000D02*
X111244000Y-60110000D01*
X114562000Y-55284000D02*
X115562000Y-55284000D01*
X115562000Y-56984000D02*
X114562000Y-56984000D01*
X114562000Y-51220000D02*
X115562000Y-51220000D01*
X115562000Y-52920000D02*
X114562000Y-52920000D01*
X119670000Y-160258000D02*
X119670000Y-158258000D01*
X119670000Y-158258000D02*
X123570000Y-158258000D01*
X119670000Y-160258000D02*
X123570000Y-160258000D01*
X127290000Y-160258000D02*
X127290000Y-158258000D01*
X127290000Y-158258000D02*
X131190000Y-158258000D01*
X127290000Y-160258000D02*
X131190000Y-160258000D01*
X110454000Y-158258000D02*
X110454000Y-160258000D01*
X110454000Y-160258000D02*
X106554000Y-160258000D01*
X110454000Y-158258000D02*
X106554000Y-158258000D01*
X117312000Y-158258000D02*
X117312000Y-160258000D01*
X117312000Y-160258000D02*
X113412000Y-160258000D01*
X117312000Y-158258000D02*
X113412000Y-158258000D01*
X113536000Y-89352000D02*
X113536000Y-90282000D01*
X113536000Y-92512000D02*
X113536000Y-91582000D01*
X113536000Y-92512000D02*
X110376000Y-92512000D01*
X113536000Y-89352000D02*
X112076000Y-89352000D01*
X113536000Y-100274000D02*
X113536000Y-101204000D01*
X113536000Y-103434000D02*
X113536000Y-102504000D01*
X113536000Y-103434000D02*
X110376000Y-103434000D01*
X113536000Y-100274000D02*
X112076000Y-100274000D01*
X123442000Y-141930000D02*
X123442000Y-142860000D01*
X123442000Y-145090000D02*
X123442000Y-144160000D01*
X123442000Y-145090000D02*
X120282000Y-145090000D01*
X123442000Y-141930000D02*
X121982000Y-141930000D01*
X132078000Y-142184000D02*
X132078000Y-143114000D01*
X132078000Y-145344000D02*
X132078000Y-144414000D01*
X132078000Y-145344000D02*
X128918000Y-145344000D01*
X132078000Y-142184000D02*
X130618000Y-142184000D01*
X130140000Y-97164000D02*
X128940000Y-97164000D01*
X128940000Y-98924000D02*
X130140000Y-98924000D01*
X130140000Y-94624000D02*
X128940000Y-94624000D01*
X128940000Y-96384000D02*
X130140000Y-96384000D01*
X122082000Y-114418000D02*
X123282000Y-114418000D01*
X123282000Y-112658000D02*
X122082000Y-112658000D01*
X130013000Y-115198000D02*
X128813000Y-115198000D01*
X128813000Y-116958000D02*
X130013000Y-116958000D01*
X122590000Y-81144000D02*
X123790000Y-81144000D01*
X123790000Y-79384000D02*
X122590000Y-79384000D01*
X122082000Y-111624000D02*
X123282000Y-111624000D01*
X123282000Y-109864000D02*
X122082000Y-109864000D01*
X93463000Y-59909000D02*
X93463000Y-58709000D01*
X91703000Y-58709000D02*
X91703000Y-59909000D01*
X130438000Y-51724000D02*
X130438000Y-52924000D01*
X132198000Y-52924000D02*
X132198000Y-51724000D01*
X113122000Y-94116000D02*
X111922000Y-94116000D01*
X111922000Y-95876000D02*
X113122000Y-95876000D01*
X111922000Y-98924000D02*
X113122000Y-98924000D01*
X113122000Y-97164000D02*
X111922000Y-97164000D01*
X121828000Y-101337000D02*
X123028000Y-101337000D01*
X123028000Y-99577000D02*
X121828000Y-99577000D01*
X121828000Y-104004000D02*
X123028000Y-104004000D01*
X123028000Y-102244000D02*
X121828000Y-102244000D01*
X123028000Y-139074000D02*
X121828000Y-139074000D01*
X121828000Y-140834000D02*
X123028000Y-140834000D01*
X131664000Y-136280000D02*
X130464000Y-136280000D01*
X130464000Y-138040000D02*
X131664000Y-138040000D01*
X131664000Y-139074000D02*
X130464000Y-139074000D01*
X130464000Y-140834000D02*
X131664000Y-140834000D01*
X121828000Y-147438000D02*
X123028000Y-147438000D01*
X123028000Y-145678000D02*
X121828000Y-145678000D01*
X131664000Y-145932000D02*
X130464000Y-145932000D01*
X130464000Y-147692000D02*
X131664000Y-147692000D01*
X121828000Y-149978000D02*
X123028000Y-149978000D01*
X123028000Y-148218000D02*
X121828000Y-148218000D01*
X106264000Y-142630000D02*
X105064000Y-142630000D01*
X105064000Y-144390000D02*
X106264000Y-144390000D01*
X106264000Y-145170000D02*
X105064000Y-145170000D01*
X105064000Y-146930000D02*
X106264000Y-146930000D01*
X114392000Y-142630000D02*
X113192000Y-142630000D01*
X113192000Y-144390000D02*
X114392000Y-144390000D01*
X114392000Y-145678000D02*
X113192000Y-145678000D01*
X113192000Y-147438000D02*
X114392000Y-147438000D01*
X130140000Y-107324000D02*
X128940000Y-107324000D01*
X128940000Y-109084000D02*
X130140000Y-109084000D01*
X130140000Y-102244000D02*
X128940000Y-102244000D01*
X128940000Y-104004000D02*
X130140000Y-104004000D01*
X130140000Y-104784000D02*
X128940000Y-104784000D01*
X128940000Y-106544000D02*
X130140000Y-106544000D01*
X130140000Y-99704000D02*
X128940000Y-99704000D01*
X128940000Y-101464000D02*
X130140000Y-101464000D01*
X130464000Y-149978000D02*
X131664000Y-149978000D01*
X131664000Y-148218000D02*
X130464000Y-148218000D01*
X106264000Y-147964000D02*
X105064000Y-147964000D01*
X105064000Y-149724000D02*
X106264000Y-149724000D01*
D12*
X113945000Y-42063000D02*
X114070000Y-42063000D01*
X113945000Y-45313000D02*
X114170000Y-45313000D01*
X117195000Y-45313000D02*
X116970000Y-45313000D01*
X117195000Y-42063000D02*
X116970000Y-42063000D01*
X113945000Y-42063000D02*
X113945000Y-45313000D01*
X117195000Y-42063000D02*
X117195000Y-45313000D01*
X114070000Y-42063000D02*
X114070000Y-40988000D01*
X113945000Y-61367000D02*
X114070000Y-61367000D01*
X113945000Y-64617000D02*
X114170000Y-64617000D01*
X117195000Y-64617000D02*
X116970000Y-64617000D01*
X117195000Y-61367000D02*
X116970000Y-61367000D01*
X113945000Y-61367000D02*
X113945000Y-64617000D01*
X117195000Y-61367000D02*
X117195000Y-64617000D01*
X114070000Y-61367000D02*
X114070000Y-60292000D01*
X112115000Y-55727000D02*
X111990000Y-55727000D01*
X112115000Y-52477000D02*
X111890000Y-52477000D01*
X108865000Y-52477000D02*
X109090000Y-52477000D01*
X108865000Y-55727000D02*
X109090000Y-55727000D01*
X112115000Y-55727000D02*
X112115000Y-52477000D01*
X108865000Y-55727000D02*
X108865000Y-52477000D01*
X111990000Y-55727000D02*
X111990000Y-56802000D01*
D11*
X101592000Y-87718000D02*
X100592000Y-87718000D01*
X100592000Y-86018000D02*
X101592000Y-86018000D01*
D12*
X108624666Y-75061143D02*
X108672285Y-75108762D01*
X108815142Y-75156381D01*
X108910380Y-75156381D01*
X109053238Y-75108762D01*
X109148476Y-75013524D01*
X109196095Y-74918286D01*
X109243714Y-74727810D01*
X109243714Y-74584952D01*
X109196095Y-74394476D01*
X109148476Y-74299238D01*
X109053238Y-74204000D01*
X108910380Y-74156381D01*
X108815142Y-74156381D01*
X108672285Y-74204000D01*
X108624666Y-74251619D01*
X107672285Y-75156381D02*
X108243714Y-75156381D01*
X107958000Y-75156381D02*
X107958000Y-74156381D01*
X108053238Y-74299238D01*
X108148476Y-74394476D01*
X108243714Y-74442095D01*
X108624666Y-69981143D02*
X108672285Y-70028762D01*
X108815142Y-70076381D01*
X108910380Y-70076381D01*
X109053238Y-70028762D01*
X109148476Y-69933524D01*
X109196095Y-69838286D01*
X109243714Y-69647810D01*
X109243714Y-69504952D01*
X109196095Y-69314476D01*
X109148476Y-69219238D01*
X109053238Y-69124000D01*
X108910380Y-69076381D01*
X108815142Y-69076381D01*
X108672285Y-69124000D01*
X108624666Y-69171619D01*
X108243714Y-69171619D02*
X108196095Y-69124000D01*
X108100857Y-69076381D01*
X107862761Y-69076381D01*
X107767523Y-69124000D01*
X107719904Y-69171619D01*
X107672285Y-69266857D01*
X107672285Y-69362095D01*
X107719904Y-69504952D01*
X108291333Y-70076381D01*
X107672285Y-70076381D01*
X111164666Y-48081143D02*
X111212285Y-48128762D01*
X111355142Y-48176381D01*
X111450380Y-48176381D01*
X111593238Y-48128762D01*
X111688476Y-48033524D01*
X111736095Y-47938286D01*
X111783714Y-47747810D01*
X111783714Y-47604952D01*
X111736095Y-47414476D01*
X111688476Y-47319238D01*
X111593238Y-47224000D01*
X111450380Y-47176381D01*
X111355142Y-47176381D01*
X111212285Y-47224000D01*
X111164666Y-47271619D01*
X110307523Y-47509714D02*
X110307523Y-48176381D01*
X110545619Y-47128762D02*
X110783714Y-47843048D01*
X110164666Y-47843048D01*
X111164666Y-43763143D02*
X111212285Y-43810762D01*
X111355142Y-43858381D01*
X111450380Y-43858381D01*
X111593238Y-43810762D01*
X111688476Y-43715524D01*
X111736095Y-43620286D01*
X111783714Y-43429810D01*
X111783714Y-43286952D01*
X111736095Y-43096476D01*
X111688476Y-43001238D01*
X111593238Y-42906000D01*
X111450380Y-42858381D01*
X111355142Y-42858381D01*
X111212285Y-42906000D01*
X111164666Y-42953619D01*
X110259904Y-42858381D02*
X110736095Y-42858381D01*
X110783714Y-43334571D01*
X110736095Y-43286952D01*
X110640857Y-43239333D01*
X110402761Y-43239333D01*
X110307523Y-43286952D01*
X110259904Y-43334571D01*
X110212285Y-43429810D01*
X110212285Y-43667905D01*
X110259904Y-43763143D01*
X110307523Y-43810762D01*
X110402761Y-43858381D01*
X110640857Y-43858381D01*
X110736095Y-43810762D01*
X110783714Y-43763143D01*
X90019143Y-55713334D02*
X90066762Y-55665715D01*
X90114381Y-55522858D01*
X90114381Y-55427620D01*
X90066762Y-55284762D01*
X89971524Y-55189524D01*
X89876286Y-55141905D01*
X89685810Y-55094286D01*
X89542952Y-55094286D01*
X89352476Y-55141905D01*
X89257238Y-55189524D01*
X89162000Y-55284762D01*
X89114381Y-55427620D01*
X89114381Y-55522858D01*
X89162000Y-55665715D01*
X89209619Y-55713334D01*
X89114381Y-56570477D02*
X89114381Y-56380000D01*
X89162000Y-56284762D01*
X89209619Y-56237143D01*
X89352476Y-56141905D01*
X89542952Y-56094286D01*
X89923905Y-56094286D01*
X90019143Y-56141905D01*
X90066762Y-56189524D01*
X90114381Y-56284762D01*
X90114381Y-56475239D01*
X90066762Y-56570477D01*
X90019143Y-56618096D01*
X89923905Y-56665715D01*
X89685810Y-56665715D01*
X89590571Y-56618096D01*
X89542952Y-56570477D01*
X89495333Y-56475239D01*
X89495333Y-56284762D01*
X89542952Y-56189524D01*
X89590571Y-56141905D01*
X89685810Y-56094286D01*
X87479143Y-55840334D02*
X87526762Y-55792715D01*
X87574381Y-55649858D01*
X87574381Y-55554620D01*
X87526762Y-55411762D01*
X87431524Y-55316524D01*
X87336286Y-55268905D01*
X87145810Y-55221286D01*
X87002952Y-55221286D01*
X86812476Y-55268905D01*
X86717238Y-55316524D01*
X86622000Y-55411762D01*
X86574381Y-55554620D01*
X86574381Y-55649858D01*
X86622000Y-55792715D01*
X86669619Y-55840334D01*
X86574381Y-56173667D02*
X86574381Y-56840334D01*
X87574381Y-56411762D01*
X110910666Y-67131143D02*
X110958285Y-67178762D01*
X111101142Y-67226381D01*
X111196380Y-67226381D01*
X111339238Y-67178762D01*
X111434476Y-67083524D01*
X111482095Y-66988286D01*
X111529714Y-66797810D01*
X111529714Y-66654952D01*
X111482095Y-66464476D01*
X111434476Y-66369238D01*
X111339238Y-66274000D01*
X111196380Y-66226381D01*
X111101142Y-66226381D01*
X110958285Y-66274000D01*
X110910666Y-66321619D01*
X110339238Y-66654952D02*
X110434476Y-66607333D01*
X110482095Y-66559714D01*
X110529714Y-66464476D01*
X110529714Y-66416857D01*
X110482095Y-66321619D01*
X110434476Y-66274000D01*
X110339238Y-66226381D01*
X110148761Y-66226381D01*
X110053523Y-66274000D01*
X110005904Y-66321619D01*
X109958285Y-66416857D01*
X109958285Y-66464476D01*
X110005904Y-66559714D01*
X110053523Y-66607333D01*
X110148761Y-66654952D01*
X110339238Y-66654952D01*
X110434476Y-66702571D01*
X110482095Y-66750190D01*
X110529714Y-66845429D01*
X110529714Y-67035905D01*
X110482095Y-67131143D01*
X110434476Y-67178762D01*
X110339238Y-67226381D01*
X110148761Y-67226381D01*
X110053523Y-67178762D01*
X110005904Y-67131143D01*
X109958285Y-67035905D01*
X109958285Y-66845429D01*
X110005904Y-66750190D01*
X110053523Y-66702571D01*
X110148761Y-66654952D01*
X110910666Y-63067143D02*
X110958285Y-63114762D01*
X111101142Y-63162381D01*
X111196380Y-63162381D01*
X111339238Y-63114762D01*
X111434476Y-63019524D01*
X111482095Y-62924286D01*
X111529714Y-62733810D01*
X111529714Y-62590952D01*
X111482095Y-62400476D01*
X111434476Y-62305238D01*
X111339238Y-62210000D01*
X111196380Y-62162381D01*
X111101142Y-62162381D01*
X110958285Y-62210000D01*
X110910666Y-62257619D01*
X110434476Y-63162381D02*
X110244000Y-63162381D01*
X110148761Y-63114762D01*
X110101142Y-63067143D01*
X110005904Y-62924286D01*
X109958285Y-62733810D01*
X109958285Y-62352857D01*
X110005904Y-62257619D01*
X110053523Y-62210000D01*
X110148761Y-62162381D01*
X110339238Y-62162381D01*
X110434476Y-62210000D01*
X110482095Y-62257619D01*
X110529714Y-62352857D01*
X110529714Y-62590952D01*
X110482095Y-62686190D01*
X110434476Y-62733810D01*
X110339238Y-62781429D01*
X110148761Y-62781429D01*
X110053523Y-62733810D01*
X110005904Y-62686190D01*
X109958285Y-62590952D01*
X115704857Y-54741143D02*
X115752476Y-54788762D01*
X115895333Y-54836381D01*
X115990571Y-54836381D01*
X116133429Y-54788762D01*
X116228667Y-54693524D01*
X116276286Y-54598286D01*
X116323905Y-54407810D01*
X116323905Y-54264952D01*
X116276286Y-54074476D01*
X116228667Y-53979238D01*
X116133429Y-53884000D01*
X115990571Y-53836381D01*
X115895333Y-53836381D01*
X115752476Y-53884000D01*
X115704857Y-53931619D01*
X114752476Y-54836381D02*
X115323905Y-54836381D01*
X115038191Y-54836381D02*
X115038191Y-53836381D01*
X115133429Y-53979238D01*
X115228667Y-54074476D01*
X115323905Y-54122095D01*
X114133429Y-53836381D02*
X114038190Y-53836381D01*
X113942952Y-53884000D01*
X113895333Y-53931619D01*
X113847714Y-54026857D01*
X113800095Y-54217333D01*
X113800095Y-54455429D01*
X113847714Y-54645905D01*
X113895333Y-54741143D01*
X113942952Y-54788762D01*
X114038190Y-54836381D01*
X114133429Y-54836381D01*
X114228667Y-54788762D01*
X114276286Y-54741143D01*
X114323905Y-54645905D01*
X114371524Y-54455429D01*
X114371524Y-54217333D01*
X114323905Y-54026857D01*
X114276286Y-53931619D01*
X114228667Y-53884000D01*
X114133429Y-53836381D01*
X115704857Y-50677143D02*
X115752476Y-50724762D01*
X115895333Y-50772381D01*
X115990571Y-50772381D01*
X116133429Y-50724762D01*
X116228667Y-50629524D01*
X116276286Y-50534286D01*
X116323905Y-50343810D01*
X116323905Y-50200952D01*
X116276286Y-50010476D01*
X116228667Y-49915238D01*
X116133429Y-49820000D01*
X115990571Y-49772381D01*
X115895333Y-49772381D01*
X115752476Y-49820000D01*
X115704857Y-49867619D01*
X114752476Y-50772381D02*
X115323905Y-50772381D01*
X115038191Y-50772381D02*
X115038191Y-49772381D01*
X115133429Y-49915238D01*
X115228667Y-50010476D01*
X115323905Y-50058095D01*
X113800095Y-50772381D02*
X114371524Y-50772381D01*
X114085810Y-50772381D02*
X114085810Y-49772381D01*
X114181048Y-49915238D01*
X114276286Y-50010476D01*
X114371524Y-50058095D01*
X122658095Y-161710381D02*
X122658095Y-160710381D01*
X122420000Y-160710381D01*
X122277142Y-160758000D01*
X122181904Y-160853238D01*
X122134285Y-160948476D01*
X122086666Y-161138952D01*
X122086666Y-161281810D01*
X122134285Y-161472286D01*
X122181904Y-161567524D01*
X122277142Y-161662762D01*
X122420000Y-161710381D01*
X122658095Y-161710381D01*
X121753333Y-160710381D02*
X121134285Y-160710381D01*
X121467619Y-161091333D01*
X121324761Y-161091333D01*
X121229523Y-161138952D01*
X121181904Y-161186571D01*
X121134285Y-161281810D01*
X121134285Y-161519905D01*
X121181904Y-161615143D01*
X121229523Y-161662762D01*
X121324761Y-161710381D01*
X121610476Y-161710381D01*
X121705714Y-161662762D01*
X121753333Y-161615143D01*
X130278095Y-161710381D02*
X130278095Y-160710381D01*
X130040000Y-160710381D01*
X129897142Y-160758000D01*
X129801904Y-160853238D01*
X129754285Y-160948476D01*
X129706666Y-161138952D01*
X129706666Y-161281810D01*
X129754285Y-161472286D01*
X129801904Y-161567524D01*
X129897142Y-161662762D01*
X130040000Y-161710381D01*
X130278095Y-161710381D01*
X128849523Y-161043714D02*
X128849523Y-161710381D01*
X129087619Y-160662762D02*
X129325714Y-161377048D01*
X128706666Y-161377048D01*
X109196095Y-161742381D02*
X109196095Y-160742381D01*
X108958000Y-160742381D01*
X108815142Y-160790000D01*
X108719904Y-160885238D01*
X108672285Y-160980476D01*
X108624666Y-161170952D01*
X108624666Y-161313810D01*
X108672285Y-161504286D01*
X108719904Y-161599524D01*
X108815142Y-161694762D01*
X108958000Y-161742381D01*
X109196095Y-161742381D01*
X107719904Y-160742381D02*
X108196095Y-160742381D01*
X108243714Y-161218571D01*
X108196095Y-161170952D01*
X108100857Y-161123333D01*
X107862761Y-161123333D01*
X107767523Y-161170952D01*
X107719904Y-161218571D01*
X107672285Y-161313810D01*
X107672285Y-161551905D01*
X107719904Y-161647143D01*
X107767523Y-161694762D01*
X107862761Y-161742381D01*
X108100857Y-161742381D01*
X108196095Y-161694762D01*
X108243714Y-161647143D01*
X115800095Y-161742381D02*
X115800095Y-160742381D01*
X115562000Y-160742381D01*
X115419142Y-160790000D01*
X115323904Y-160885238D01*
X115276285Y-160980476D01*
X115228666Y-161170952D01*
X115228666Y-161313810D01*
X115276285Y-161504286D01*
X115323904Y-161599524D01*
X115419142Y-161694762D01*
X115562000Y-161742381D01*
X115800095Y-161742381D01*
X114371523Y-160742381D02*
X114562000Y-160742381D01*
X114657238Y-160790000D01*
X114704857Y-160837619D01*
X114800095Y-160980476D01*
X114847714Y-161170952D01*
X114847714Y-161551905D01*
X114800095Y-161647143D01*
X114752476Y-161694762D01*
X114657238Y-161742381D01*
X114466761Y-161742381D01*
X114371523Y-161694762D01*
X114323904Y-161647143D01*
X114276285Y-161551905D01*
X114276285Y-161313810D01*
X114323904Y-161218571D01*
X114371523Y-161170952D01*
X114466761Y-161123333D01*
X114657238Y-161123333D01*
X114752476Y-161170952D01*
X114800095Y-161218571D01*
X114847714Y-161313810D01*
X112871238Y-93979619D02*
X112966476Y-93932000D01*
X113061714Y-93836762D01*
X113204571Y-93693905D01*
X113299810Y-93646286D01*
X113395048Y-93646286D01*
X113347429Y-93884381D02*
X113442667Y-93836762D01*
X113537905Y-93741524D01*
X113585524Y-93551048D01*
X113585524Y-93217714D01*
X113537905Y-93027238D01*
X113442667Y-92932000D01*
X113347429Y-92884381D01*
X113156952Y-92884381D01*
X113061714Y-92932000D01*
X112966476Y-93027238D01*
X112918857Y-93217714D01*
X112918857Y-93551048D01*
X112966476Y-93741524D01*
X113061714Y-93836762D01*
X113156952Y-93884381D01*
X113347429Y-93884381D01*
X111966476Y-93884381D02*
X112537905Y-93884381D01*
X112252191Y-93884381D02*
X112252191Y-92884381D01*
X112347429Y-93027238D01*
X112442667Y-93122476D01*
X112537905Y-93170095D01*
X112871238Y-104901619D02*
X112966476Y-104854000D01*
X113061714Y-104758762D01*
X113204571Y-104615905D01*
X113299810Y-104568286D01*
X113395048Y-104568286D01*
X113347429Y-104806381D02*
X113442667Y-104758762D01*
X113537905Y-104663524D01*
X113585524Y-104473048D01*
X113585524Y-104139714D01*
X113537905Y-103949238D01*
X113442667Y-103854000D01*
X113347429Y-103806381D01*
X113156952Y-103806381D01*
X113061714Y-103854000D01*
X112966476Y-103949238D01*
X112918857Y-104139714D01*
X112918857Y-104473048D01*
X112966476Y-104663524D01*
X113061714Y-104758762D01*
X113156952Y-104806381D01*
X113347429Y-104806381D01*
X112537905Y-103901619D02*
X112490286Y-103854000D01*
X112395048Y-103806381D01*
X112156952Y-103806381D01*
X112061714Y-103854000D01*
X112014095Y-103901619D01*
X111966476Y-103996857D01*
X111966476Y-104092095D01*
X112014095Y-104234952D01*
X112585524Y-104806381D01*
X111966476Y-104806381D01*
X118713238Y-144057619D02*
X118808476Y-144010000D01*
X118903714Y-143914762D01*
X119046571Y-143771905D01*
X119141810Y-143724286D01*
X119237048Y-143724286D01*
X119189429Y-143962381D02*
X119284667Y-143914762D01*
X119379905Y-143819524D01*
X119427524Y-143629048D01*
X119427524Y-143295714D01*
X119379905Y-143105238D01*
X119284667Y-143010000D01*
X119189429Y-142962381D01*
X118998952Y-142962381D01*
X118903714Y-143010000D01*
X118808476Y-143105238D01*
X118760857Y-143295714D01*
X118760857Y-143629048D01*
X118808476Y-143819524D01*
X118903714Y-143914762D01*
X118998952Y-143962381D01*
X119189429Y-143962381D01*
X117856095Y-142962381D02*
X118332286Y-142962381D01*
X118379905Y-143438571D01*
X118332286Y-143390952D01*
X118237048Y-143343333D01*
X117998952Y-143343333D01*
X117903714Y-143390952D01*
X117856095Y-143438571D01*
X117808476Y-143533810D01*
X117808476Y-143771905D01*
X117856095Y-143867143D01*
X117903714Y-143914762D01*
X117998952Y-143962381D01*
X118237048Y-143962381D01*
X118332286Y-143914762D01*
X118379905Y-143867143D01*
X127349238Y-144311619D02*
X127444476Y-144264000D01*
X127539714Y-144168762D01*
X127682571Y-144025905D01*
X127777810Y-143978286D01*
X127873048Y-143978286D01*
X127825429Y-144216381D02*
X127920667Y-144168762D01*
X128015905Y-144073524D01*
X128063524Y-143883048D01*
X128063524Y-143549714D01*
X128015905Y-143359238D01*
X127920667Y-143264000D01*
X127825429Y-143216381D01*
X127634952Y-143216381D01*
X127539714Y-143264000D01*
X127444476Y-143359238D01*
X127396857Y-143549714D01*
X127396857Y-143883048D01*
X127444476Y-144073524D01*
X127539714Y-144168762D01*
X127634952Y-144216381D01*
X127825429Y-144216381D01*
X126539714Y-143216381D02*
X126730191Y-143216381D01*
X126825429Y-143264000D01*
X126873048Y-143311619D01*
X126968286Y-143454476D01*
X127015905Y-143644952D01*
X127015905Y-144025905D01*
X126968286Y-144121143D01*
X126920667Y-144168762D01*
X126825429Y-144216381D01*
X126634952Y-144216381D01*
X126539714Y-144168762D01*
X126492095Y-144121143D01*
X126444476Y-144025905D01*
X126444476Y-143787810D01*
X126492095Y-143692571D01*
X126539714Y-143644952D01*
X126634952Y-143597333D01*
X126825429Y-143597333D01*
X126920667Y-143644952D01*
X126968286Y-143692571D01*
X127015905Y-143787810D01*
X126150666Y-98496381D02*
X126484000Y-98020190D01*
X126722095Y-98496381D02*
X126722095Y-97496381D01*
X126341142Y-97496381D01*
X126245904Y-97544000D01*
X126198285Y-97591619D01*
X126150666Y-97686857D01*
X126150666Y-97829714D01*
X126198285Y-97924952D01*
X126245904Y-97972571D01*
X126341142Y-98020190D01*
X126722095Y-98020190D01*
X125293523Y-97829714D02*
X125293523Y-98496381D01*
X125531619Y-97448762D02*
X125769714Y-98163048D01*
X125150666Y-98163048D01*
X126150666Y-95956381D02*
X126484000Y-95480190D01*
X126722095Y-95956381D02*
X126722095Y-94956381D01*
X126341142Y-94956381D01*
X126245904Y-95004000D01*
X126198285Y-95051619D01*
X126150666Y-95146857D01*
X126150666Y-95289714D01*
X126198285Y-95384952D01*
X126245904Y-95432571D01*
X126341142Y-95480190D01*
X126722095Y-95480190D01*
X125245904Y-94956381D02*
X125722095Y-94956381D01*
X125769714Y-95432571D01*
X125722095Y-95384952D01*
X125626857Y-95337333D01*
X125388761Y-95337333D01*
X125293523Y-95384952D01*
X125245904Y-95432571D01*
X125198285Y-95527810D01*
X125198285Y-95765905D01*
X125245904Y-95861143D01*
X125293523Y-95908762D01*
X125388761Y-95956381D01*
X125626857Y-95956381D01*
X125722095Y-95908762D01*
X125769714Y-95861143D01*
X126404666Y-114244381D02*
X126738000Y-113768190D01*
X126976095Y-114244381D02*
X126976095Y-113244381D01*
X126595142Y-113244381D01*
X126499904Y-113292000D01*
X126452285Y-113339619D01*
X126404666Y-113434857D01*
X126404666Y-113577714D01*
X126452285Y-113672952D01*
X126499904Y-113720571D01*
X126595142Y-113768190D01*
X126976095Y-113768190D01*
X126071333Y-113244381D02*
X125404666Y-113244381D01*
X125833238Y-114244381D01*
X126023666Y-116530381D02*
X126357000Y-116054190D01*
X126595095Y-116530381D02*
X126595095Y-115530381D01*
X126214142Y-115530381D01*
X126118904Y-115578000D01*
X126071285Y-115625619D01*
X126023666Y-115720857D01*
X126023666Y-115863714D01*
X126071285Y-115958952D01*
X126118904Y-116006571D01*
X126214142Y-116054190D01*
X126595095Y-116054190D01*
X125452238Y-115958952D02*
X125547476Y-115911333D01*
X125595095Y-115863714D01*
X125642714Y-115768476D01*
X125642714Y-115720857D01*
X125595095Y-115625619D01*
X125547476Y-115578000D01*
X125452238Y-115530381D01*
X125261761Y-115530381D01*
X125166523Y-115578000D01*
X125118904Y-115625619D01*
X125071285Y-115720857D01*
X125071285Y-115768476D01*
X125118904Y-115863714D01*
X125166523Y-115911333D01*
X125261761Y-115958952D01*
X125452238Y-115958952D01*
X125547476Y-116006571D01*
X125595095Y-116054190D01*
X125642714Y-116149429D01*
X125642714Y-116339905D01*
X125595095Y-116435143D01*
X125547476Y-116482762D01*
X125452238Y-116530381D01*
X125261761Y-116530381D01*
X125166523Y-116482762D01*
X125118904Y-116435143D01*
X125071285Y-116339905D01*
X125071285Y-116149429D01*
X125118904Y-116054190D01*
X125166523Y-116006571D01*
X125261761Y-115958952D01*
X123356666Y-79016381D02*
X123690000Y-78540190D01*
X123928095Y-79016381D02*
X123928095Y-78016381D01*
X123547142Y-78016381D01*
X123451904Y-78064000D01*
X123404285Y-78111619D01*
X123356666Y-78206857D01*
X123356666Y-78349714D01*
X123404285Y-78444952D01*
X123451904Y-78492571D01*
X123547142Y-78540190D01*
X123928095Y-78540190D01*
X122880476Y-79016381D02*
X122690000Y-79016381D01*
X122594761Y-78968762D01*
X122547142Y-78921143D01*
X122451904Y-78778286D01*
X122404285Y-78587810D01*
X122404285Y-78206857D01*
X122451904Y-78111619D01*
X122499523Y-78064000D01*
X122594761Y-78016381D01*
X122785238Y-78016381D01*
X122880476Y-78064000D01*
X122928095Y-78111619D01*
X122975714Y-78206857D01*
X122975714Y-78444952D01*
X122928095Y-78540190D01*
X122880476Y-78587810D01*
X122785238Y-78635429D01*
X122594761Y-78635429D01*
X122499523Y-78587810D01*
X122451904Y-78540190D01*
X122404285Y-78444952D01*
X127388857Y-111196381D02*
X127722191Y-110720190D01*
X127960286Y-111196381D02*
X127960286Y-110196381D01*
X127579333Y-110196381D01*
X127484095Y-110244000D01*
X127436476Y-110291619D01*
X127388857Y-110386857D01*
X127388857Y-110529714D01*
X127436476Y-110624952D01*
X127484095Y-110672571D01*
X127579333Y-110720190D01*
X127960286Y-110720190D01*
X126436476Y-111196381D02*
X127007905Y-111196381D01*
X126722191Y-111196381D02*
X126722191Y-110196381D01*
X126817429Y-110339238D01*
X126912667Y-110434476D01*
X127007905Y-110482095D01*
X125817429Y-110196381D02*
X125722190Y-110196381D01*
X125626952Y-110244000D01*
X125579333Y-110291619D01*
X125531714Y-110386857D01*
X125484095Y-110577333D01*
X125484095Y-110815429D01*
X125531714Y-111005905D01*
X125579333Y-111101143D01*
X125626952Y-111148762D01*
X125722190Y-111196381D01*
X125817429Y-111196381D01*
X125912667Y-111148762D01*
X125960286Y-111101143D01*
X126007905Y-111005905D01*
X126055524Y-110815429D01*
X126055524Y-110577333D01*
X126007905Y-110386857D01*
X125960286Y-110291619D01*
X125912667Y-110244000D01*
X125817429Y-110196381D01*
X93035381Y-54856143D02*
X92559190Y-54522809D01*
X93035381Y-54284714D02*
X92035381Y-54284714D01*
X92035381Y-54665667D01*
X92083000Y-54760905D01*
X92130619Y-54808524D01*
X92225857Y-54856143D01*
X92368714Y-54856143D01*
X92463952Y-54808524D01*
X92511571Y-54760905D01*
X92559190Y-54665667D01*
X92559190Y-54284714D01*
X93035381Y-55808524D02*
X93035381Y-55237095D01*
X93035381Y-55522809D02*
X92035381Y-55522809D01*
X92178238Y-55427571D01*
X92273476Y-55332333D01*
X92321095Y-55237095D01*
X93035381Y-56760905D02*
X93035381Y-56189476D01*
X93035381Y-56475190D02*
X92035381Y-56475190D01*
X92178238Y-56379952D01*
X92273476Y-56284714D01*
X92321095Y-56189476D01*
X131770381Y-55491143D02*
X131294190Y-55157809D01*
X131770381Y-54919714D02*
X130770381Y-54919714D01*
X130770381Y-55300667D01*
X130818000Y-55395905D01*
X130865619Y-55443524D01*
X130960857Y-55491143D01*
X131103714Y-55491143D01*
X131198952Y-55443524D01*
X131246571Y-55395905D01*
X131294190Y-55300667D01*
X131294190Y-54919714D01*
X131770381Y-56443524D02*
X131770381Y-55872095D01*
X131770381Y-56157809D02*
X130770381Y-56157809D01*
X130913238Y-56062571D01*
X131008476Y-55967333D01*
X131056095Y-55872095D01*
X130865619Y-56824476D02*
X130818000Y-56872095D01*
X130770381Y-56967333D01*
X130770381Y-57205429D01*
X130818000Y-57300667D01*
X130865619Y-57348286D01*
X130960857Y-57395905D01*
X131056095Y-57395905D01*
X131198952Y-57348286D01*
X131770381Y-56776857D01*
X131770381Y-57395905D01*
X109354857Y-95448381D02*
X109688191Y-94972190D01*
X109926286Y-95448381D02*
X109926286Y-94448381D01*
X109545333Y-94448381D01*
X109450095Y-94496000D01*
X109402476Y-94543619D01*
X109354857Y-94638857D01*
X109354857Y-94781714D01*
X109402476Y-94876952D01*
X109450095Y-94924571D01*
X109545333Y-94972190D01*
X109926286Y-94972190D01*
X108402476Y-95448381D02*
X108973905Y-95448381D01*
X108688191Y-95448381D02*
X108688191Y-94448381D01*
X108783429Y-94591238D01*
X108878667Y-94686476D01*
X108973905Y-94734095D01*
X108069143Y-94448381D02*
X107450095Y-94448381D01*
X107783429Y-94829333D01*
X107640571Y-94829333D01*
X107545333Y-94876952D01*
X107497714Y-94924571D01*
X107450095Y-95019810D01*
X107450095Y-95257905D01*
X107497714Y-95353143D01*
X107545333Y-95400762D01*
X107640571Y-95448381D01*
X107926286Y-95448381D01*
X108021524Y-95400762D01*
X108069143Y-95353143D01*
X109354857Y-98496381D02*
X109688191Y-98020190D01*
X109926286Y-98496381D02*
X109926286Y-97496381D01*
X109545333Y-97496381D01*
X109450095Y-97544000D01*
X109402476Y-97591619D01*
X109354857Y-97686857D01*
X109354857Y-97829714D01*
X109402476Y-97924952D01*
X109450095Y-97972571D01*
X109545333Y-98020190D01*
X109926286Y-98020190D01*
X108402476Y-98496381D02*
X108973905Y-98496381D01*
X108688191Y-98496381D02*
X108688191Y-97496381D01*
X108783429Y-97639238D01*
X108878667Y-97734476D01*
X108973905Y-97782095D01*
X107545333Y-97829714D02*
X107545333Y-98496381D01*
X107783429Y-97448762D02*
X108021524Y-98163048D01*
X107402476Y-98163048D01*
X127134857Y-100909381D02*
X127468191Y-100433190D01*
X127706286Y-100909381D02*
X127706286Y-99909381D01*
X127325333Y-99909381D01*
X127230095Y-99957000D01*
X127182476Y-100004619D01*
X127134857Y-100099857D01*
X127134857Y-100242714D01*
X127182476Y-100337952D01*
X127230095Y-100385571D01*
X127325333Y-100433190D01*
X127706286Y-100433190D01*
X126182476Y-100909381D02*
X126753905Y-100909381D01*
X126468191Y-100909381D02*
X126468191Y-99909381D01*
X126563429Y-100052238D01*
X126658667Y-100147476D01*
X126753905Y-100195095D01*
X125277714Y-99909381D02*
X125753905Y-99909381D01*
X125801524Y-100385571D01*
X125753905Y-100337952D01*
X125658667Y-100290333D01*
X125420571Y-100290333D01*
X125325333Y-100337952D01*
X125277714Y-100385571D01*
X125230095Y-100480810D01*
X125230095Y-100718905D01*
X125277714Y-100814143D01*
X125325333Y-100861762D01*
X125420571Y-100909381D01*
X125658667Y-100909381D01*
X125753905Y-100861762D01*
X125801524Y-100814143D01*
X127134857Y-103576381D02*
X127468191Y-103100190D01*
X127706286Y-103576381D02*
X127706286Y-102576381D01*
X127325333Y-102576381D01*
X127230095Y-102624000D01*
X127182476Y-102671619D01*
X127134857Y-102766857D01*
X127134857Y-102909714D01*
X127182476Y-103004952D01*
X127230095Y-103052571D01*
X127325333Y-103100190D01*
X127706286Y-103100190D01*
X126182476Y-103576381D02*
X126753905Y-103576381D01*
X126468191Y-103576381D02*
X126468191Y-102576381D01*
X126563429Y-102719238D01*
X126658667Y-102814476D01*
X126753905Y-102862095D01*
X125325333Y-102576381D02*
X125515810Y-102576381D01*
X125611048Y-102624000D01*
X125658667Y-102671619D01*
X125753905Y-102814476D01*
X125801524Y-103004952D01*
X125801524Y-103385905D01*
X125753905Y-103481143D01*
X125706286Y-103528762D01*
X125611048Y-103576381D01*
X125420571Y-103576381D01*
X125325333Y-103528762D01*
X125277714Y-103481143D01*
X125230095Y-103385905D01*
X125230095Y-103147810D01*
X125277714Y-103052571D01*
X125325333Y-103004952D01*
X125420571Y-102957333D01*
X125611048Y-102957333D01*
X125706286Y-103004952D01*
X125753905Y-103052571D01*
X125801524Y-103147810D01*
X119006857Y-140406381D02*
X119340191Y-139930190D01*
X119578286Y-140406381D02*
X119578286Y-139406381D01*
X119197333Y-139406381D01*
X119102095Y-139454000D01*
X119054476Y-139501619D01*
X119006857Y-139596857D01*
X119006857Y-139739714D01*
X119054476Y-139834952D01*
X119102095Y-139882571D01*
X119197333Y-139930190D01*
X119578286Y-139930190D01*
X118054476Y-140406381D02*
X118625905Y-140406381D01*
X118340191Y-140406381D02*
X118340191Y-139406381D01*
X118435429Y-139549238D01*
X118530667Y-139644476D01*
X118625905Y-139692095D01*
X117721143Y-139406381D02*
X117054476Y-139406381D01*
X117483048Y-140406381D01*
X127642857Y-136850381D02*
X127976191Y-136374190D01*
X128214286Y-136850381D02*
X128214286Y-135850381D01*
X127833333Y-135850381D01*
X127738095Y-135898000D01*
X127690476Y-135945619D01*
X127642857Y-136040857D01*
X127642857Y-136183714D01*
X127690476Y-136278952D01*
X127738095Y-136326571D01*
X127833333Y-136374190D01*
X128214286Y-136374190D01*
X126690476Y-136850381D02*
X127261905Y-136850381D01*
X126976191Y-136850381D02*
X126976191Y-135850381D01*
X127071429Y-135993238D01*
X127166667Y-136088476D01*
X127261905Y-136136095D01*
X126119048Y-136278952D02*
X126214286Y-136231333D01*
X126261905Y-136183714D01*
X126309524Y-136088476D01*
X126309524Y-136040857D01*
X126261905Y-135945619D01*
X126214286Y-135898000D01*
X126119048Y-135850381D01*
X125928571Y-135850381D01*
X125833333Y-135898000D01*
X125785714Y-135945619D01*
X125738095Y-136040857D01*
X125738095Y-136088476D01*
X125785714Y-136183714D01*
X125833333Y-136231333D01*
X125928571Y-136278952D01*
X126119048Y-136278952D01*
X126214286Y-136326571D01*
X126261905Y-136374190D01*
X126309524Y-136469429D01*
X126309524Y-136659905D01*
X126261905Y-136755143D01*
X126214286Y-136802762D01*
X126119048Y-136850381D01*
X125928571Y-136850381D01*
X125833333Y-136802762D01*
X125785714Y-136755143D01*
X125738095Y-136659905D01*
X125738095Y-136469429D01*
X125785714Y-136374190D01*
X125833333Y-136326571D01*
X125928571Y-136278952D01*
X127896857Y-140660381D02*
X128230191Y-140184190D01*
X128468286Y-140660381D02*
X128468286Y-139660381D01*
X128087333Y-139660381D01*
X127992095Y-139708000D01*
X127944476Y-139755619D01*
X127896857Y-139850857D01*
X127896857Y-139993714D01*
X127944476Y-140088952D01*
X127992095Y-140136571D01*
X128087333Y-140184190D01*
X128468286Y-140184190D01*
X126944476Y-140660381D02*
X127515905Y-140660381D01*
X127230191Y-140660381D02*
X127230191Y-139660381D01*
X127325429Y-139803238D01*
X127420667Y-139898476D01*
X127515905Y-139946095D01*
X126468286Y-140660381D02*
X126277810Y-140660381D01*
X126182571Y-140612762D01*
X126134952Y-140565143D01*
X126039714Y-140422286D01*
X125992095Y-140231810D01*
X125992095Y-139850857D01*
X126039714Y-139755619D01*
X126087333Y-139708000D01*
X126182571Y-139660381D01*
X126373048Y-139660381D01*
X126468286Y-139708000D01*
X126515905Y-139755619D01*
X126563524Y-139850857D01*
X126563524Y-140088952D01*
X126515905Y-140184190D01*
X126468286Y-140231810D01*
X126373048Y-140279429D01*
X126182571Y-140279429D01*
X126087333Y-140231810D01*
X126039714Y-140184190D01*
X125992095Y-140088952D01*
X119260857Y-147010381D02*
X119594191Y-146534190D01*
X119832286Y-147010381D02*
X119832286Y-146010381D01*
X119451333Y-146010381D01*
X119356095Y-146058000D01*
X119308476Y-146105619D01*
X119260857Y-146200857D01*
X119260857Y-146343714D01*
X119308476Y-146438952D01*
X119356095Y-146486571D01*
X119451333Y-146534190D01*
X119832286Y-146534190D01*
X118879905Y-146105619D02*
X118832286Y-146058000D01*
X118737048Y-146010381D01*
X118498952Y-146010381D01*
X118403714Y-146058000D01*
X118356095Y-146105619D01*
X118308476Y-146200857D01*
X118308476Y-146296095D01*
X118356095Y-146438952D01*
X118927524Y-147010381D01*
X118308476Y-147010381D01*
X117689429Y-146010381D02*
X117594190Y-146010381D01*
X117498952Y-146058000D01*
X117451333Y-146105619D01*
X117403714Y-146200857D01*
X117356095Y-146391333D01*
X117356095Y-146629429D01*
X117403714Y-146819905D01*
X117451333Y-146915143D01*
X117498952Y-146962762D01*
X117594190Y-147010381D01*
X117689429Y-147010381D01*
X117784667Y-146962762D01*
X117832286Y-146915143D01*
X117879905Y-146819905D01*
X117927524Y-146629429D01*
X117927524Y-146391333D01*
X117879905Y-146200857D01*
X117832286Y-146105619D01*
X117784667Y-146058000D01*
X117689429Y-146010381D01*
X127896857Y-147264381D02*
X128230191Y-146788190D01*
X128468286Y-147264381D02*
X128468286Y-146264381D01*
X128087333Y-146264381D01*
X127992095Y-146312000D01*
X127944476Y-146359619D01*
X127896857Y-146454857D01*
X127896857Y-146597714D01*
X127944476Y-146692952D01*
X127992095Y-146740571D01*
X128087333Y-146788190D01*
X128468286Y-146788190D01*
X127515905Y-146359619D02*
X127468286Y-146312000D01*
X127373048Y-146264381D01*
X127134952Y-146264381D01*
X127039714Y-146312000D01*
X126992095Y-146359619D01*
X126944476Y-146454857D01*
X126944476Y-146550095D01*
X126992095Y-146692952D01*
X127563524Y-147264381D01*
X126944476Y-147264381D01*
X125992095Y-147264381D02*
X126563524Y-147264381D01*
X126277810Y-147264381D02*
X126277810Y-146264381D01*
X126373048Y-146407238D01*
X126468286Y-146502476D01*
X126563524Y-146550095D01*
X119260857Y-149550381D02*
X119594191Y-149074190D01*
X119832286Y-149550381D02*
X119832286Y-148550381D01*
X119451333Y-148550381D01*
X119356095Y-148598000D01*
X119308476Y-148645619D01*
X119260857Y-148740857D01*
X119260857Y-148883714D01*
X119308476Y-148978952D01*
X119356095Y-149026571D01*
X119451333Y-149074190D01*
X119832286Y-149074190D01*
X118879905Y-148645619D02*
X118832286Y-148598000D01*
X118737048Y-148550381D01*
X118498952Y-148550381D01*
X118403714Y-148598000D01*
X118356095Y-148645619D01*
X118308476Y-148740857D01*
X118308476Y-148836095D01*
X118356095Y-148978952D01*
X118927524Y-149550381D01*
X118308476Y-149550381D01*
X117927524Y-148645619D02*
X117879905Y-148598000D01*
X117784667Y-148550381D01*
X117546571Y-148550381D01*
X117451333Y-148598000D01*
X117403714Y-148645619D01*
X117356095Y-148740857D01*
X117356095Y-148836095D01*
X117403714Y-148978952D01*
X117975143Y-149550381D01*
X117356095Y-149550381D01*
X102496857Y-143962381D02*
X102830191Y-143486190D01*
X103068286Y-143962381D02*
X103068286Y-142962381D01*
X102687333Y-142962381D01*
X102592095Y-143010000D01*
X102544476Y-143057619D01*
X102496857Y-143152857D01*
X102496857Y-143295714D01*
X102544476Y-143390952D01*
X102592095Y-143438571D01*
X102687333Y-143486190D01*
X103068286Y-143486190D01*
X102115905Y-143057619D02*
X102068286Y-143010000D01*
X101973048Y-142962381D01*
X101734952Y-142962381D01*
X101639714Y-143010000D01*
X101592095Y-143057619D01*
X101544476Y-143152857D01*
X101544476Y-143248095D01*
X101592095Y-143390952D01*
X102163524Y-143962381D01*
X101544476Y-143962381D01*
X101211143Y-142962381D02*
X100592095Y-142962381D01*
X100925429Y-143343333D01*
X100782571Y-143343333D01*
X100687333Y-143390952D01*
X100639714Y-143438571D01*
X100592095Y-143533810D01*
X100592095Y-143771905D01*
X100639714Y-143867143D01*
X100687333Y-143914762D01*
X100782571Y-143962381D01*
X101068286Y-143962381D01*
X101163524Y-143914762D01*
X101211143Y-143867143D01*
X102496857Y-146502381D02*
X102830191Y-146026190D01*
X103068286Y-146502381D02*
X103068286Y-145502381D01*
X102687333Y-145502381D01*
X102592095Y-145550000D01*
X102544476Y-145597619D01*
X102496857Y-145692857D01*
X102496857Y-145835714D01*
X102544476Y-145930952D01*
X102592095Y-145978571D01*
X102687333Y-146026190D01*
X103068286Y-146026190D01*
X102115905Y-145597619D02*
X102068286Y-145550000D01*
X101973048Y-145502381D01*
X101734952Y-145502381D01*
X101639714Y-145550000D01*
X101592095Y-145597619D01*
X101544476Y-145692857D01*
X101544476Y-145788095D01*
X101592095Y-145930952D01*
X102163524Y-146502381D01*
X101544476Y-146502381D01*
X100687333Y-145835714D02*
X100687333Y-146502381D01*
X100925429Y-145454762D02*
X101163524Y-146169048D01*
X100544476Y-146169048D01*
X110624857Y-143962381D02*
X110958191Y-143486190D01*
X111196286Y-143962381D02*
X111196286Y-142962381D01*
X110815333Y-142962381D01*
X110720095Y-143010000D01*
X110672476Y-143057619D01*
X110624857Y-143152857D01*
X110624857Y-143295714D01*
X110672476Y-143390952D01*
X110720095Y-143438571D01*
X110815333Y-143486190D01*
X111196286Y-143486190D01*
X110243905Y-143057619D02*
X110196286Y-143010000D01*
X110101048Y-142962381D01*
X109862952Y-142962381D01*
X109767714Y-143010000D01*
X109720095Y-143057619D01*
X109672476Y-143152857D01*
X109672476Y-143248095D01*
X109720095Y-143390952D01*
X110291524Y-143962381D01*
X109672476Y-143962381D01*
X108767714Y-142962381D02*
X109243905Y-142962381D01*
X109291524Y-143438571D01*
X109243905Y-143390952D01*
X109148667Y-143343333D01*
X108910571Y-143343333D01*
X108815333Y-143390952D01*
X108767714Y-143438571D01*
X108720095Y-143533810D01*
X108720095Y-143771905D01*
X108767714Y-143867143D01*
X108815333Y-143914762D01*
X108910571Y-143962381D01*
X109148667Y-143962381D01*
X109243905Y-143914762D01*
X109291524Y-143867143D01*
X110624857Y-147010381D02*
X110958191Y-146534190D01*
X111196286Y-147010381D02*
X111196286Y-146010381D01*
X110815333Y-146010381D01*
X110720095Y-146058000D01*
X110672476Y-146105619D01*
X110624857Y-146200857D01*
X110624857Y-146343714D01*
X110672476Y-146438952D01*
X110720095Y-146486571D01*
X110815333Y-146534190D01*
X111196286Y-146534190D01*
X110243905Y-146105619D02*
X110196286Y-146058000D01*
X110101048Y-146010381D01*
X109862952Y-146010381D01*
X109767714Y-146058000D01*
X109720095Y-146105619D01*
X109672476Y-146200857D01*
X109672476Y-146296095D01*
X109720095Y-146438952D01*
X110291524Y-147010381D01*
X109672476Y-147010381D01*
X108815333Y-146010381D02*
X109005810Y-146010381D01*
X109101048Y-146058000D01*
X109148667Y-146105619D01*
X109243905Y-146248476D01*
X109291524Y-146438952D01*
X109291524Y-146819905D01*
X109243905Y-146915143D01*
X109196286Y-146962762D01*
X109101048Y-147010381D01*
X108910571Y-147010381D01*
X108815333Y-146962762D01*
X108767714Y-146915143D01*
X108720095Y-146819905D01*
X108720095Y-146581810D01*
X108767714Y-146486571D01*
X108815333Y-146438952D01*
X108910571Y-146391333D01*
X109101048Y-146391333D01*
X109196286Y-146438952D01*
X109243905Y-146486571D01*
X109291524Y-146581810D01*
X126118857Y-108656381D02*
X126452191Y-108180190D01*
X126690286Y-108656381D02*
X126690286Y-107656381D01*
X126309333Y-107656381D01*
X126214095Y-107704000D01*
X126166476Y-107751619D01*
X126118857Y-107846857D01*
X126118857Y-107989714D01*
X126166476Y-108084952D01*
X126214095Y-108132571D01*
X126309333Y-108180190D01*
X126690286Y-108180190D01*
X125737905Y-107751619D02*
X125690286Y-107704000D01*
X125595048Y-107656381D01*
X125356952Y-107656381D01*
X125261714Y-107704000D01*
X125214095Y-107751619D01*
X125166476Y-107846857D01*
X125166476Y-107942095D01*
X125214095Y-108084952D01*
X125785524Y-108656381D01*
X125166476Y-108656381D01*
X124833143Y-107656381D02*
X124166476Y-107656381D01*
X124595048Y-108656381D01*
X126118857Y-103576381D02*
X126452191Y-103100190D01*
X126690286Y-103576381D02*
X126690286Y-102576381D01*
X126309333Y-102576381D01*
X126214095Y-102624000D01*
X126166476Y-102671619D01*
X126118857Y-102766857D01*
X126118857Y-102909714D01*
X126166476Y-103004952D01*
X126214095Y-103052571D01*
X126309333Y-103100190D01*
X126690286Y-103100190D01*
X125737905Y-102671619D02*
X125690286Y-102624000D01*
X125595048Y-102576381D01*
X125356952Y-102576381D01*
X125261714Y-102624000D01*
X125214095Y-102671619D01*
X125166476Y-102766857D01*
X125166476Y-102862095D01*
X125214095Y-103004952D01*
X125785524Y-103576381D01*
X125166476Y-103576381D01*
X124595048Y-103004952D02*
X124690286Y-102957333D01*
X124737905Y-102909714D01*
X124785524Y-102814476D01*
X124785524Y-102766857D01*
X124737905Y-102671619D01*
X124690286Y-102624000D01*
X124595048Y-102576381D01*
X124404571Y-102576381D01*
X124309333Y-102624000D01*
X124261714Y-102671619D01*
X124214095Y-102766857D01*
X124214095Y-102814476D01*
X124261714Y-102909714D01*
X124309333Y-102957333D01*
X124404571Y-103004952D01*
X124595048Y-103004952D01*
X124690286Y-103052571D01*
X124737905Y-103100190D01*
X124785524Y-103195429D01*
X124785524Y-103385905D01*
X124737905Y-103481143D01*
X124690286Y-103528762D01*
X124595048Y-103576381D01*
X124404571Y-103576381D01*
X124309333Y-103528762D01*
X124261714Y-103481143D01*
X124214095Y-103385905D01*
X124214095Y-103195429D01*
X124261714Y-103100190D01*
X124309333Y-103052571D01*
X124404571Y-103004952D01*
X126118857Y-106116381D02*
X126452191Y-105640190D01*
X126690286Y-106116381D02*
X126690286Y-105116381D01*
X126309333Y-105116381D01*
X126214095Y-105164000D01*
X126166476Y-105211619D01*
X126118857Y-105306857D01*
X126118857Y-105449714D01*
X126166476Y-105544952D01*
X126214095Y-105592571D01*
X126309333Y-105640190D01*
X126690286Y-105640190D01*
X125737905Y-105211619D02*
X125690286Y-105164000D01*
X125595048Y-105116381D01*
X125356952Y-105116381D01*
X125261714Y-105164000D01*
X125214095Y-105211619D01*
X125166476Y-105306857D01*
X125166476Y-105402095D01*
X125214095Y-105544952D01*
X125785524Y-106116381D01*
X125166476Y-106116381D01*
X124690286Y-106116381D02*
X124499810Y-106116381D01*
X124404571Y-106068762D01*
X124356952Y-106021143D01*
X124261714Y-105878286D01*
X124214095Y-105687810D01*
X124214095Y-105306857D01*
X124261714Y-105211619D01*
X124309333Y-105164000D01*
X124404571Y-105116381D01*
X124595048Y-105116381D01*
X124690286Y-105164000D01*
X124737905Y-105211619D01*
X124785524Y-105306857D01*
X124785524Y-105544952D01*
X124737905Y-105640190D01*
X124690286Y-105687810D01*
X124595048Y-105735429D01*
X124404571Y-105735429D01*
X124309333Y-105687810D01*
X124261714Y-105640190D01*
X124214095Y-105544952D01*
X126118857Y-101036381D02*
X126452191Y-100560190D01*
X126690286Y-101036381D02*
X126690286Y-100036381D01*
X126309333Y-100036381D01*
X126214095Y-100084000D01*
X126166476Y-100131619D01*
X126118857Y-100226857D01*
X126118857Y-100369714D01*
X126166476Y-100464952D01*
X126214095Y-100512571D01*
X126309333Y-100560190D01*
X126690286Y-100560190D01*
X125785524Y-100036381D02*
X125166476Y-100036381D01*
X125499810Y-100417333D01*
X125356952Y-100417333D01*
X125261714Y-100464952D01*
X125214095Y-100512571D01*
X125166476Y-100607810D01*
X125166476Y-100845905D01*
X125214095Y-100941143D01*
X125261714Y-100988762D01*
X125356952Y-101036381D01*
X125642667Y-101036381D01*
X125737905Y-100988762D01*
X125785524Y-100941143D01*
X124547429Y-100036381D02*
X124452190Y-100036381D01*
X124356952Y-100084000D01*
X124309333Y-100131619D01*
X124261714Y-100226857D01*
X124214095Y-100417333D01*
X124214095Y-100655429D01*
X124261714Y-100845905D01*
X124309333Y-100941143D01*
X124356952Y-100988762D01*
X124452190Y-101036381D01*
X124547429Y-101036381D01*
X124642667Y-100988762D01*
X124690286Y-100941143D01*
X124737905Y-100845905D01*
X124785524Y-100655429D01*
X124785524Y-100417333D01*
X124737905Y-100226857D01*
X124690286Y-100131619D01*
X124642667Y-100084000D01*
X124547429Y-100036381D01*
X127896857Y-149804381D02*
X128230191Y-149328190D01*
X128468286Y-149804381D02*
X128468286Y-148804381D01*
X128087333Y-148804381D01*
X127992095Y-148852000D01*
X127944476Y-148899619D01*
X127896857Y-148994857D01*
X127896857Y-149137714D01*
X127944476Y-149232952D01*
X127992095Y-149280571D01*
X128087333Y-149328190D01*
X128468286Y-149328190D01*
X127563524Y-148804381D02*
X126944476Y-148804381D01*
X127277810Y-149185333D01*
X127134952Y-149185333D01*
X127039714Y-149232952D01*
X126992095Y-149280571D01*
X126944476Y-149375810D01*
X126944476Y-149613905D01*
X126992095Y-149709143D01*
X127039714Y-149756762D01*
X127134952Y-149804381D01*
X127420667Y-149804381D01*
X127515905Y-149756762D01*
X127563524Y-149709143D01*
X125992095Y-149804381D02*
X126563524Y-149804381D01*
X126277810Y-149804381D02*
X126277810Y-148804381D01*
X126373048Y-148947238D01*
X126468286Y-149042476D01*
X126563524Y-149090095D01*
X102496857Y-149550381D02*
X102830191Y-149074190D01*
X103068286Y-149550381D02*
X103068286Y-148550381D01*
X102687333Y-148550381D01*
X102592095Y-148598000D01*
X102544476Y-148645619D01*
X102496857Y-148740857D01*
X102496857Y-148883714D01*
X102544476Y-148978952D01*
X102592095Y-149026571D01*
X102687333Y-149074190D01*
X103068286Y-149074190D01*
X102163524Y-148550381D02*
X101544476Y-148550381D01*
X101877810Y-148931333D01*
X101734952Y-148931333D01*
X101639714Y-148978952D01*
X101592095Y-149026571D01*
X101544476Y-149121810D01*
X101544476Y-149359905D01*
X101592095Y-149455143D01*
X101639714Y-149502762D01*
X101734952Y-149550381D01*
X102020667Y-149550381D01*
X102115905Y-149502762D01*
X102163524Y-149455143D01*
X101163524Y-148645619D02*
X101115905Y-148598000D01*
X101020667Y-148550381D01*
X100782571Y-148550381D01*
X100687333Y-148598000D01*
X100639714Y-148645619D01*
X100592095Y-148740857D01*
X100592095Y-148836095D01*
X100639714Y-148978952D01*
X101211143Y-149550381D01*
X100592095Y-149550381D01*
X112472381Y-42926095D02*
X113281905Y-42926095D01*
X113377143Y-42973714D01*
X113424762Y-43021333D01*
X113472381Y-43116571D01*
X113472381Y-43307048D01*
X113424762Y-43402286D01*
X113377143Y-43449905D01*
X113281905Y-43497524D01*
X112472381Y-43497524D01*
X112567619Y-43926095D02*
X112520000Y-43973714D01*
X112472381Y-44068952D01*
X112472381Y-44307048D01*
X112520000Y-44402286D01*
X112567619Y-44449905D01*
X112662857Y-44497524D01*
X112758095Y-44497524D01*
X112900952Y-44449905D01*
X113472381Y-43878476D01*
X113472381Y-44497524D01*
X112472381Y-62230095D02*
X113281905Y-62230095D01*
X113377143Y-62277714D01*
X113424762Y-62325333D01*
X113472381Y-62420571D01*
X113472381Y-62611048D01*
X113424762Y-62706286D01*
X113377143Y-62753905D01*
X113281905Y-62801524D01*
X112472381Y-62801524D01*
X112805714Y-63706286D02*
X113472381Y-63706286D01*
X112424762Y-63468190D02*
X113139048Y-63230095D01*
X113139048Y-63849143D01*
X112492381Y-53340095D02*
X113301905Y-53340095D01*
X113397143Y-53387714D01*
X113444762Y-53435333D01*
X113492381Y-53530571D01*
X113492381Y-53721048D01*
X113444762Y-53816286D01*
X113397143Y-53863905D01*
X113301905Y-53911524D01*
X112492381Y-53911524D01*
X112492381Y-54863905D02*
X112492381Y-54387714D01*
X112968571Y-54340095D01*
X112920952Y-54387714D01*
X112873333Y-54482952D01*
X112873333Y-54721048D01*
X112920952Y-54816286D01*
X112968571Y-54863905D01*
X113063810Y-54911524D01*
X113301905Y-54911524D01*
X113397143Y-54863905D01*
X113444762Y-54816286D01*
X113492381Y-54721048D01*
X113492381Y-54482952D01*
X113444762Y-54387714D01*
X113397143Y-54340095D01*
X101734857Y-88975143D02*
X101782476Y-89022762D01*
X101925333Y-89070381D01*
X102020571Y-89070381D01*
X102163429Y-89022762D01*
X102258667Y-88927524D01*
X102306286Y-88832286D01*
X102353905Y-88641810D01*
X102353905Y-88498952D01*
X102306286Y-88308476D01*
X102258667Y-88213238D01*
X102163429Y-88118000D01*
X102020571Y-88070381D01*
X101925333Y-88070381D01*
X101782476Y-88118000D01*
X101734857Y-88165619D01*
X100782476Y-89070381D02*
X101353905Y-89070381D01*
X101068191Y-89070381D02*
X101068191Y-88070381D01*
X101163429Y-88213238D01*
X101258667Y-88308476D01*
X101353905Y-88356095D01*
X100211048Y-88498952D02*
X100306286Y-88451333D01*
X100353905Y-88403714D01*
X100401524Y-88308476D01*
X100401524Y-88260857D01*
X100353905Y-88165619D01*
X100306286Y-88118000D01*
X100211048Y-88070381D01*
X100020571Y-88070381D01*
X99925333Y-88118000D01*
X99877714Y-88165619D01*
X99830095Y-88260857D01*
X99830095Y-88308476D01*
X99877714Y-88403714D01*
X99925333Y-88451333D01*
X100020571Y-88498952D01*
X100211048Y-88498952D01*
X100306286Y-88546571D01*
X100353905Y-88594190D01*
X100401524Y-88689429D01*
X100401524Y-88879905D01*
X100353905Y-88975143D01*
X100306286Y-89022762D01*
X100211048Y-89070381D01*
X100020571Y-89070381D01*
X99925333Y-89022762D01*
X99877714Y-88975143D01*
X99830095Y-88879905D01*
X99830095Y-88689429D01*
X99877714Y-88594190D01*
X99925333Y-88546571D01*
X100020571Y-88498952D01*
M02*
