M48
INCH,TZ
T1C0.016
T2C0.028
T3C0.028
T4C0.031
T5C0.039
T6C0.063
T7C0.126
%
G90
G05
T1
X35200Y-35000
X35800Y-33200
X39200Y-42850
X39300Y-45500
X39650Y-22250
X40000Y-36650
X41350Y-40100
X41500Y-44750
X41550Y-45950
X41700Y-21650
X41700Y-41250
X41850Y-22500
X42000Y-39000
X42200Y-41750
X42450Y-44600
X42950Y-35900
X43000Y-54950
X43200Y-40200
X43300Y-36550
X43400Y-22650
X44000Y-22800
X44050Y-17150
X44100Y-43500
X44100Y-45650
X44150Y-20100
X44200Y-24900
X44400Y-21300
X44750Y-38100
X44800Y-48600
X44900Y-25250
X44900Y-42300
X44950Y-44400
X45050Y-41550
X45050Y-48300
X45300Y-48000
X45350Y-34850
X45350Y-54950
X45400Y-18850
X45400Y-26400
X45600Y-46650
X45600Y-47700
X45700Y-26650
X45800Y-16750
X45800Y-19000
X45800Y-35550
X45900Y-47400
X46100Y-17050
X46150Y-17400
X46550Y-24350
X46550Y-25450
X47150Y-49600
X47300Y-38100
X47650Y-36100
X48050Y-37000
X48150Y-45750
X48500Y-46050
X48550Y-22250
X48600Y-54000
X48700Y-32800
X48750Y-54650
X48800Y-46700
X48950Y-30900
X49000Y-32400
X49100Y-46400
X49300Y-33100
X49400Y-46600
X49650Y-46900
X51000Y-36850
X51050Y-18050
X51200Y-19400
X51850Y-52700
X51950Y-53200
X52050Y-47150
X53050Y-54850
T2
X44200Y-28100
X44200Y-29100
X44200Y-30100
T3
X34232Y-16544
X34232Y-25206
X35019Y-16544
X35019Y-25206
X35806Y-16544
X35806Y-25206
X36594Y-16544
X36594Y-25206
X37381Y-16544
X37381Y-25206
X38169Y-16544
X38169Y-25206
X38956Y-16544
X38956Y-25206
X39744Y-16544
X39744Y-25206
X40531Y-16544
X40531Y-25206
X41318Y-16544
X41318Y-25206
T4
X40100Y-38300
X40100Y-39284
X42200Y-35916
X42200Y-36900
X46600Y-31600
X46600Y-32600
X46600Y-33600
X46600Y-34600
X46600Y-35600
X46600Y-36600
X46600Y-37600
X46600Y-38600
X46600Y-39600
X46600Y-40600
X46600Y-41600
X46600Y-42600
X46600Y-43600
X46600Y-44600
X46600Y-45600
X51700Y-24200
X52600Y-31600
X52600Y-32600
X52600Y-33600
X52600Y-34600
X52600Y-35600
X52600Y-36600
X52600Y-37600
X52600Y-38600
X52600Y-39600
X52600Y-40600
X52600Y-41600
X52600Y-42600
X52600Y-43600
X52600Y-44600
X52600Y-45600
X52684Y-24200
T5
X36282Y-35945
X36282Y-37036
X36282Y-38126
X36282Y-39217
X36282Y-40307
X36282Y-41398
X36282Y-42489
X37400Y-35400
X37400Y-36491
X37400Y-37581
X37400Y-38672
X37400Y-39762
X37400Y-40853
X37400Y-41943
X37400Y-43034
X39200Y-33000
X40200Y-33000
X41200Y-33000
X43200Y-33000
X44200Y-33000
T6
X34248Y-48931
X34248Y-50269
X34348Y-28331
X34348Y-29669
X37800Y-54250
X37800Y-56750
X38250Y-60700
X39552Y-48931
X39552Y-50269
X39652Y-28331
X39652Y-29669
X40750Y-60700
X43250Y-60700
X45750Y-60700
X48250Y-60700
X50750Y-60700
T7
X34700Y-61400
X36100Y-18900
X36841Y-32662
X36841Y-45772
X51300Y-49700
X51500Y-27600
T0
M30
