G04 #@! TF.FileFunction,Soldermask,Top*
%FSLAX46Y46*%
G04 Gerber Fmt 4.6, Leading zero omitted, Abs format (unit mm)*
G04 Created by KiCad (PCBNEW 4.0.7) date Wednesday, May 09, 2018 'PMt' 10:09:01 PM*
%MOMM*%
%LPD*%
G01*
G04 APERTURE LIST*
%ADD10C,0.100000*%
%ADD11R,0.301600X1.301600*%
%ADD12R,1.301600X0.301600*%
%ADD13R,1.701600X1.701600*%
%ADD14O,1.701600X1.701600*%
%ADD15R,1.601600X1.351600*%
%ADD16C,1.701600*%
%ADD17C,2.701600*%
%ADD18C,4.101600*%
%ADD19C,3.601600*%
%ADD20R,0.901600X1.601600*%
%ADD21R,1.551600X2.101600*%
%ADD22R,1.301600X2.301600*%
%ADD23R,5.901600X6.501600*%
%ADD24R,1.601600X1.401600*%
%ADD25C,1.401600*%
%ADD26R,1.401600X1.401600*%
%ADD27C,1.601600*%
%ADD28R,1.661600X0.751600*%
%ADD29R,1.501600X0.351600*%
%ADD30R,0.351600X1.501600*%
%ADD31R,2.101600X0.631600*%
%ADD32R,1.901600X1.901600*%
%ADD33C,1.901600*%
%ADD34C,6.501600*%
%ADD35C,0.701600*%
G04 APERTURE END LIST*
D10*
D11*
X111235000Y-114738000D03*
X111585000Y-114738000D03*
X111935000Y-114738000D03*
X112285000Y-114738000D03*
D12*
X112960000Y-113888000D03*
X112960000Y-113538000D03*
X112960000Y-113188000D03*
D11*
X112285000Y-112338000D03*
X111935000Y-112338000D03*
X111585000Y-112338000D03*
X111235000Y-112338000D03*
D12*
X110560000Y-113188000D03*
X110560000Y-113538000D03*
X110560000Y-113888000D03*
D11*
X111235000Y-109404000D03*
X111585000Y-109404000D03*
X111935000Y-109404000D03*
X112285000Y-109404000D03*
D12*
X112960000Y-108554000D03*
X112960000Y-108204000D03*
X112960000Y-107854000D03*
D11*
X112285000Y-107004000D03*
X111935000Y-107004000D03*
X111585000Y-107004000D03*
X111235000Y-107004000D03*
D12*
X110560000Y-107854000D03*
X110560000Y-108204000D03*
X110560000Y-108554000D03*
D13*
X118364000Y-80264000D03*
D14*
X133604000Y-113284000D03*
X118364000Y-82804000D03*
X133604000Y-110744000D03*
X118364000Y-85344000D03*
X133604000Y-108204000D03*
X118364000Y-87884000D03*
X133604000Y-105664000D03*
X118364000Y-90424000D03*
X133604000Y-103124000D03*
X118364000Y-92964000D03*
X133604000Y-100584000D03*
X118364000Y-95504000D03*
X133604000Y-98044000D03*
X118364000Y-98044000D03*
X133604000Y-95504000D03*
X118364000Y-100584000D03*
X133604000Y-92964000D03*
X118364000Y-103124000D03*
X133604000Y-90424000D03*
X118364000Y-105664000D03*
X133604000Y-87884000D03*
X118364000Y-108204000D03*
X133604000Y-85344000D03*
X118364000Y-110744000D03*
X133604000Y-82804000D03*
X118364000Y-113284000D03*
X133604000Y-80264000D03*
X118364000Y-115824000D03*
X133604000Y-115824000D03*
D15*
X111526000Y-118110000D03*
X114026000Y-118110000D03*
X101366000Y-118110000D03*
X103866000Y-118110000D03*
D13*
X101854000Y-97282000D03*
D16*
X101854000Y-99782000D03*
D13*
X107188000Y-93726000D03*
D16*
X107188000Y-91226000D03*
D15*
X111272000Y-104140000D03*
X113772000Y-104140000D03*
X101366000Y-103124000D03*
X103866000Y-103124000D03*
D17*
X87245000Y-71960000D03*
X87245000Y-75360000D03*
X100715000Y-71960000D03*
X100715000Y-75360000D03*
X86991000Y-124284000D03*
X86991000Y-127684000D03*
X100461000Y-124284000D03*
X100461000Y-127684000D03*
D13*
X94996000Y-89916000D03*
D16*
X94996000Y-92686000D03*
X94996000Y-95456000D03*
X94996000Y-98226000D03*
X94996000Y-100996000D03*
X94996000Y-103766000D03*
X94996000Y-106536000D03*
X94996000Y-109306000D03*
X92156000Y-91301000D03*
X92156000Y-94071000D03*
X92156000Y-96841000D03*
X92156000Y-99611000D03*
X92156000Y-102381000D03*
X92156000Y-105151000D03*
X92156000Y-107921000D03*
D18*
X93576000Y-82961000D03*
X93576000Y-116261000D03*
D19*
X96012000Y-144145000D03*
X96012000Y-137795000D03*
D20*
X124540000Y-47558000D03*
X125640000Y-47558000D03*
X126740000Y-47558000D03*
X127840000Y-47558000D03*
X128940000Y-47558000D03*
X130040000Y-47558000D03*
X131140000Y-47558000D03*
X132240000Y-47558000D03*
D21*
X120870000Y-53258000D03*
X134620000Y-53258000D03*
X120870000Y-44958000D03*
X134620000Y-44958000D03*
D19*
X128905000Y-154178000D03*
X122555000Y-154178000D03*
X116205000Y-154178000D03*
X109855000Y-154178000D03*
X103505000Y-154178000D03*
X97155000Y-154178000D03*
D22*
X124962000Y-138548000D03*
X120402000Y-138548000D03*
D23*
X122682000Y-144848000D03*
D22*
X133598000Y-138548000D03*
X129038000Y-138548000D03*
D23*
X131318000Y-144848000D03*
D22*
X107690000Y-138548000D03*
X103130000Y-138548000D03*
D23*
X105410000Y-144848000D03*
D22*
X116326000Y-138548000D03*
X111766000Y-138548000D03*
D23*
X114046000Y-144848000D03*
D24*
X108284000Y-124714000D03*
X105584000Y-124714000D03*
D25*
X112268000Y-71374000D03*
D26*
X112268000Y-76454000D03*
D25*
X112268000Y-73914000D03*
D27*
X86948500Y-42022500D03*
X86948500Y-64022500D03*
X88948500Y-42022500D03*
X88948500Y-64022500D03*
X90948500Y-42022500D03*
X90948500Y-64022500D03*
X92948500Y-42022500D03*
X92948500Y-64022500D03*
X94948500Y-42022500D03*
X94948500Y-64022500D03*
X96948500Y-42022500D03*
X96948500Y-64022500D03*
X98948500Y-42022500D03*
X98948500Y-64022500D03*
X100948500Y-42022500D03*
X100948500Y-64022500D03*
X102948500Y-42022500D03*
X102948500Y-64022500D03*
X104948500Y-42022500D03*
X104948500Y-64022500D03*
D28*
X100250000Y-92014000D03*
X100250000Y-92964000D03*
X100250000Y-93914000D03*
X102950000Y-93914000D03*
X102950000Y-92014000D03*
D29*
X103996000Y-113792000D03*
X103996000Y-113292000D03*
X103996000Y-114292000D03*
X101236000Y-113292000D03*
X101236000Y-113792000D03*
X101236000Y-114292000D03*
D30*
X103366000Y-112172000D03*
X102866000Y-112172000D03*
X102366000Y-112172000D03*
X101866000Y-112172000D03*
X101866000Y-115412000D03*
X102366000Y-115412000D03*
X102866000Y-115412000D03*
X103366000Y-115412000D03*
D31*
X101116000Y-105821000D03*
X104116000Y-105821000D03*
X101116000Y-107071000D03*
X101116000Y-108321000D03*
X101116000Y-109571000D03*
X104116000Y-109571000D03*
X104116000Y-108321000D03*
X104116000Y-107071000D03*
D32*
X112268000Y-83820000D03*
D33*
X109728000Y-83820000D03*
X104648000Y-83820000D03*
X102108000Y-83820000D03*
X99568000Y-83820000D03*
D13*
X131318000Y-61468000D03*
D16*
X133818000Y-61468000D03*
D34*
X91694000Y-48006000D03*
X130810000Y-70104000D03*
X130302000Y-126238000D03*
X88138000Y-155956000D03*
D35*
X115316000Y-67056000D03*
X111760000Y-57912000D03*
X124333000Y-78486000D03*
X114427000Y-122682000D03*
X118237000Y-64643000D03*
X118237000Y-61849000D03*
X100711000Y-56515000D03*
X106299000Y-57150000D03*
X112014000Y-110490000D03*
X119761000Y-125984000D03*
X131953000Y-135128000D03*
X101600000Y-93091000D03*
X114427000Y-105537000D03*
X114173000Y-112776000D03*
X114046000Y-107442000D03*
X105029000Y-101854000D03*
X99568000Y-108839000D03*
X99822000Y-115570000D03*
X105537000Y-116713000D03*
X112014000Y-115951000D03*
X115824000Y-118491000D03*
X129667000Y-45847000D03*
X115062000Y-121920000D03*
X122301000Y-116205000D03*
X115824000Y-121158000D03*
X123190000Y-116967000D03*
X116586000Y-120396000D03*
X125476000Y-118364000D03*
X116332000Y-90297000D03*
X123952000Y-118618000D03*
X115189000Y-88519000D03*
X126111000Y-119126000D03*
X113792000Y-123444000D03*
X132207000Y-119761000D03*
X124714000Y-117856000D03*
X114046000Y-64135000D03*
X112776000Y-54102000D03*
X117221000Y-44196000D03*
X123698000Y-83312000D03*
X120142000Y-96774000D03*
X116078000Y-67691000D03*
X115316000Y-47879000D03*
X122047000Y-93980000D03*
X125222000Y-84074000D03*
X90932000Y-84328000D03*
X89408000Y-88900000D03*
X124460000Y-82296000D03*
X121031000Y-91694000D03*
X110236000Y-57531000D03*
X116332000Y-48260000D03*
X129540000Y-93599000D03*
X105918000Y-54991000D03*
X112141000Y-51054000D03*
X111887000Y-43561000D03*
X112268000Y-63246000D03*
X109982000Y-92837000D03*
X109728000Y-102108000D03*
X113665000Y-96774000D03*
X123444000Y-137160000D03*
X131699000Y-133858000D03*
X123317000Y-56515000D03*
X117094000Y-43307000D03*
X116332000Y-42545000D03*
X130048000Y-49276000D03*
X107823000Y-113284000D03*
X105410000Y-113665000D03*
X105918000Y-104775000D03*
X107188000Y-106045000D03*
X109093000Y-91186000D03*
X106680000Y-99060000D03*
X123825000Y-138811000D03*
X134747000Y-139319000D03*
X109220000Y-139573000D03*
X115189000Y-139573000D03*
M02*
