G04 #@! TF.FileFunction,Soldermask,Top*
%FSLAX46Y46*%
G04 Gerber Fmt 4.6, Leading zero omitted, Abs format (unit mm)*
G04 Created by KiCad (PCBNEW 4.0.7) date Friday, March 30, 2018 'PMt' 08:41:18 PM*
%MOMM*%
%LPD*%
G01*
G04 APERTURE LIST*
%ADD10C,0.100000*%
%ADD11R,2.101600X0.631600*%
%ADD12R,0.451600X1.501600*%
%ADD13R,1.501600X0.451600*%
%ADD14R,1.301600X0.451600*%
%ADD15R,0.451600X1.301600*%
%ADD16R,1.701600X1.701600*%
%ADD17C,1.701600*%
%ADD18R,1.801600X1.801600*%
%ADD19O,1.801600X1.801600*%
%ADD20R,2.001600X0.901600*%
%ADD21R,1.661600X0.751600*%
%ADD22R,0.351600X1.501600*%
%ADD23R,1.501600X0.351600*%
%ADD24R,1.301600X0.851600*%
%ADD25R,0.851600X1.301600*%
%ADD26R,1.301600X1.001600*%
%ADD27R,1.001600X1.301600*%
G04 APERTURE END LIST*
D10*
D11*
X120547000Y-139793500D03*
X123547000Y-139793500D03*
X120547000Y-141043500D03*
X120547000Y-142293500D03*
X120547000Y-143543500D03*
X123547000Y-143543500D03*
X123547000Y-142293500D03*
X123547000Y-141043500D03*
D12*
X137422000Y-130745500D03*
X137922000Y-130745500D03*
X138422000Y-130745500D03*
D13*
X139562000Y-130095500D03*
X139572000Y-129595500D03*
X139572000Y-129095500D03*
X139572000Y-128595500D03*
X139572000Y-128095500D03*
D12*
X138422000Y-127445500D03*
X137922000Y-127445500D03*
X137422000Y-127445500D03*
D13*
X136272000Y-128095500D03*
X136272000Y-128595500D03*
X136272000Y-129095500D03*
X136272000Y-129595500D03*
X136272000Y-130095500D03*
D14*
X121833000Y-130040000D03*
X121833000Y-129540000D03*
X121833000Y-129040000D03*
D15*
X122313000Y-128070000D03*
X122813000Y-128070000D03*
X123313000Y-128070000D03*
X123813000Y-128070000D03*
D14*
X124293000Y-130040000D03*
X124293000Y-129540000D03*
X124293000Y-129040000D03*
D15*
X122313000Y-131010000D03*
X122813000Y-131010000D03*
X123313000Y-131010000D03*
X123813000Y-131010000D03*
D16*
X105283000Y-125857000D03*
D17*
X107783000Y-125857000D03*
D16*
X111252000Y-119380000D03*
D17*
X113752000Y-119380000D03*
D16*
X137668000Y-123952000D03*
D17*
X137668000Y-121452000D03*
D18*
X100330000Y-125730000D03*
D19*
X100330000Y-123190000D03*
D18*
X148590000Y-118364000D03*
D19*
X148590000Y-120904000D03*
X148590000Y-123444000D03*
X148590000Y-125984000D03*
X148590000Y-128524000D03*
X148590000Y-131064000D03*
X148590000Y-133604000D03*
X148590000Y-136144000D03*
X148590000Y-138684000D03*
X148590000Y-141224000D03*
X148590000Y-143764000D03*
X148590000Y-146304000D03*
D18*
X129794000Y-122682000D03*
D19*
X129794000Y-120142000D03*
X129794000Y-117602000D03*
D18*
X133032500Y-142176500D03*
D19*
X133032500Y-144716500D03*
X133032500Y-147256500D03*
D18*
X118173500Y-134810500D03*
D19*
X120713500Y-134810500D03*
X123253500Y-134810500D03*
D18*
X119507000Y-147002500D03*
D19*
X122047000Y-147002500D03*
X124587000Y-147002500D03*
D18*
X134810500Y-134429500D03*
D19*
X137350500Y-134429500D03*
X139890500Y-134429500D03*
D20*
X108180000Y-136078000D03*
X108180000Y-134178000D03*
X105180000Y-135128000D03*
X108180000Y-144206000D03*
X108180000Y-142306000D03*
X105180000Y-143256000D03*
D21*
X105203000Y-119128500D03*
X105203000Y-120078500D03*
X105203000Y-121028500D03*
X107903000Y-121028500D03*
X107903000Y-119128500D03*
D18*
X100330000Y-133604000D03*
D19*
X100330000Y-136144000D03*
X100330000Y-138684000D03*
X100330000Y-141224000D03*
X100330000Y-143764000D03*
D22*
X138620500Y-144606500D03*
X138120500Y-144606500D03*
X139120500Y-144606500D03*
X138120500Y-147366500D03*
X138620500Y-147366500D03*
X139120500Y-147366500D03*
D23*
X137000500Y-145236500D03*
X137000500Y-145736500D03*
X137000500Y-146236500D03*
X137000500Y-146736500D03*
X140240500Y-146736500D03*
X140240500Y-146236500D03*
X140240500Y-145736500D03*
X140240500Y-145236500D03*
X123397500Y-120586500D03*
X123397500Y-121086500D03*
X123397500Y-120086500D03*
X126157500Y-121086500D03*
X126157500Y-120586500D03*
X126157500Y-120086500D03*
D22*
X124027500Y-122206500D03*
X124527500Y-122206500D03*
X125027500Y-122206500D03*
X125527500Y-122206500D03*
X125527500Y-118966500D03*
X125027500Y-118966500D03*
X124527500Y-118966500D03*
X124027500Y-118966500D03*
D24*
X123314500Y-125412500D03*
X121414500Y-125412500D03*
D25*
X140779500Y-141856500D03*
X140779500Y-139956500D03*
X143002000Y-146492000D03*
X143002000Y-144592000D03*
D24*
X125727500Y-116586000D03*
X123827500Y-116586000D03*
X132649000Y-127127000D03*
X130749000Y-127127000D03*
X116901000Y-139827000D03*
X115001000Y-139827000D03*
D26*
X105580000Y-132080000D03*
X107780000Y-132080000D03*
D27*
X110998000Y-129710000D03*
X110998000Y-131910000D03*
D26*
X105580000Y-140208000D03*
X107780000Y-140208000D03*
D27*
X111252000Y-138092000D03*
X111252000Y-140292000D03*
X138620500Y-142006500D03*
X138620500Y-139806500D03*
D26*
X119273500Y-129476500D03*
X117073500Y-129476500D03*
D27*
X143002000Y-142070000D03*
X143002000Y-139870000D03*
D26*
X119273500Y-131635500D03*
X117073500Y-131635500D03*
D27*
X136461500Y-142006500D03*
X136461500Y-139806500D03*
D26*
X119273500Y-127317500D03*
X117073500Y-127317500D03*
D24*
X118747500Y-118618000D03*
X120647500Y-118618000D03*
X120647500Y-120586500D03*
X118747500Y-120586500D03*
D26*
X126408000Y-139890500D03*
X128608000Y-139890500D03*
X116924000Y-141732000D03*
X114724000Y-141732000D03*
X128671500Y-141795500D03*
X126471500Y-141795500D03*
X132799000Y-129222500D03*
X130599000Y-129222500D03*
X132799000Y-131318000D03*
X130599000Y-131318000D03*
D27*
X143002000Y-133329500D03*
X143002000Y-135529500D03*
D24*
X120647500Y-122555000D03*
X118747500Y-122555000D03*
M02*
