M48
INCH,TZ
T1C0.016
T2C0.031
T3C0.039
%
G90
G05
T1
X40300Y-53700
X40600Y-47800
X40700Y-46900
X40700Y-55200
X41950Y-46450
X43600Y-56750
X43800Y-53650
X44300Y-56050
X44400Y-52850
X45050Y-54500
X45150Y-48750
X45300Y-51600
X45450Y-53100
X45600Y-48400
X47050Y-57000
X47100Y-49350
X48300Y-46250
X48400Y-52050
X48500Y-49950
X49000Y-52000
X49200Y-46300
X49250Y-50600
X49600Y-48500
X49800Y-47000
X49850Y-53850
X50200Y-54600
X50350Y-56400
X50650Y-50300
X53000Y-51350
X53150Y-57450
X53450Y-57300
X53900Y-54050
X53950Y-57950
X54900Y-49200
X55250Y-58600
X55650Y-56600
X55750Y-50550
X55750Y-51100
X56050Y-54500
X56200Y-53950
X56750Y-57100
X57000Y-55700
X57350Y-56600
T2
X41450Y-49550
X42434Y-49550
X43800Y-47000
X44784Y-47000
X54200Y-47816
X54200Y-48800
T3
X39500Y-48500
X39500Y-49500
X39500Y-52600
X39500Y-53600
X39500Y-54600
X39500Y-55600
X39500Y-56600
X46525Y-53075
X47050Y-57875
X47525Y-53075
X48050Y-57875
X48525Y-53075
X49050Y-57875
X51100Y-46300
X51100Y-47300
X51100Y-48300
X52375Y-55975
X52375Y-56975
X52375Y-57975
X53075Y-52925
X54075Y-52925
X55075Y-52925
X58500Y-46600
X58500Y-47600
X58500Y-48600
X58500Y-49600
X58500Y-50600
X58500Y-51600
X58500Y-52600
X58500Y-53600
X58500Y-54600
X58500Y-55600
X58500Y-56600
X58500Y-57600
T0
M30
