G04 #@! TF.FileFunction,Soldermask,Bot*
%FSLAX46Y46*%
G04 Gerber Fmt 4.6, Leading zero omitted, Abs format (unit mm)*
G04 Created by KiCad (PCBNEW 4.0.7) date Friday, March 30, 2018 'PMt' 08:41:18 PM*
%MOMM*%
%LPD*%
G01*
G04 APERTURE LIST*
%ADD10C,0.100000*%
%ADD11R,1.701600X1.701600*%
%ADD12C,1.701600*%
%ADD13R,1.801600X1.801600*%
%ADD14O,1.801600X1.801600*%
G04 APERTURE END LIST*
D10*
D11*
X105283000Y-125857000D03*
D12*
X107783000Y-125857000D03*
D11*
X111252000Y-119380000D03*
D12*
X113752000Y-119380000D03*
D11*
X137668000Y-123952000D03*
D12*
X137668000Y-121452000D03*
D13*
X100330000Y-125730000D03*
D14*
X100330000Y-123190000D03*
D13*
X148590000Y-118364000D03*
D14*
X148590000Y-120904000D03*
X148590000Y-123444000D03*
X148590000Y-125984000D03*
X148590000Y-128524000D03*
X148590000Y-131064000D03*
X148590000Y-133604000D03*
X148590000Y-136144000D03*
X148590000Y-138684000D03*
X148590000Y-141224000D03*
X148590000Y-143764000D03*
X148590000Y-146304000D03*
D13*
X129794000Y-122682000D03*
D14*
X129794000Y-120142000D03*
X129794000Y-117602000D03*
D13*
X133032500Y-142176500D03*
D14*
X133032500Y-144716500D03*
X133032500Y-147256500D03*
D13*
X118173500Y-134810500D03*
D14*
X120713500Y-134810500D03*
X123253500Y-134810500D03*
D13*
X119507000Y-147002500D03*
D14*
X122047000Y-147002500D03*
X124587000Y-147002500D03*
D13*
X134810500Y-134429500D03*
D14*
X137350500Y-134429500D03*
X139890500Y-134429500D03*
D13*
X100330000Y-133604000D03*
D14*
X100330000Y-136144000D03*
X100330000Y-138684000D03*
X100330000Y-141224000D03*
X100330000Y-143764000D03*
M02*
