G04 #@! TF.FileFunction,Copper,L1,Top,Signal*
%FSLAX46Y46*%
G04 Gerber Fmt 4.6, Leading zero omitted, Abs format (unit mm)*
G04 Created by KiCad (PCBNEW 4.0.7) date Friday, March 30, 2018 'PMt' 08:41:18 PM*
%MOMM*%
%LPD*%
G01*
G04 APERTURE LIST*
%ADD10C,0.100000*%
%ADD11R,2.000000X0.530000*%
%ADD12R,0.350000X1.400000*%
%ADD13R,1.400000X0.350000*%
%ADD14R,1.200000X0.350000*%
%ADD15R,0.350000X1.200000*%
%ADD16R,1.600000X1.600000*%
%ADD17C,1.600000*%
%ADD18R,1.700000X1.700000*%
%ADD19O,1.700000X1.700000*%
%ADD20R,1.900000X0.800000*%
%ADD21R,1.560000X0.650000*%
%ADD22R,0.250000X1.400000*%
%ADD23R,1.400000X0.250000*%
%ADD24R,1.200000X0.750000*%
%ADD25R,0.750000X1.200000*%
%ADD26R,1.200000X0.900000*%
%ADD27R,0.900000X1.200000*%
%ADD28C,0.600000*%
%ADD29C,0.152400*%
%ADD30C,0.127000*%
%ADD31C,0.254000*%
G04 APERTURE END LIST*
D10*
D11*
X120547000Y-139793500D03*
X123547000Y-139793500D03*
X120547000Y-141043500D03*
X120547000Y-142293500D03*
X120547000Y-143543500D03*
X123547000Y-143543500D03*
X123547000Y-142293500D03*
X123547000Y-141043500D03*
D12*
X137422000Y-130745500D03*
X137922000Y-130745500D03*
X138422000Y-130745500D03*
D13*
X139562000Y-130095500D03*
X139572000Y-129595500D03*
X139572000Y-129095500D03*
X139572000Y-128595500D03*
X139572000Y-128095500D03*
D12*
X138422000Y-127445500D03*
X137922000Y-127445500D03*
X137422000Y-127445500D03*
D13*
X136272000Y-128095500D03*
X136272000Y-128595500D03*
X136272000Y-129095500D03*
X136272000Y-129595500D03*
X136272000Y-130095500D03*
D14*
X121833000Y-130040000D03*
X121833000Y-129540000D03*
X121833000Y-129040000D03*
D15*
X122313000Y-128070000D03*
X122813000Y-128070000D03*
X123313000Y-128070000D03*
X123813000Y-128070000D03*
D14*
X124293000Y-130040000D03*
X124293000Y-129540000D03*
X124293000Y-129040000D03*
D15*
X122313000Y-131010000D03*
X122813000Y-131010000D03*
X123313000Y-131010000D03*
X123813000Y-131010000D03*
D16*
X105283000Y-125857000D03*
D17*
X107783000Y-125857000D03*
D16*
X111252000Y-119380000D03*
D17*
X113752000Y-119380000D03*
D16*
X137668000Y-123952000D03*
D17*
X137668000Y-121452000D03*
D18*
X100330000Y-125730000D03*
D19*
X100330000Y-123190000D03*
D18*
X148590000Y-118364000D03*
D19*
X148590000Y-120904000D03*
X148590000Y-123444000D03*
X148590000Y-125984000D03*
X148590000Y-128524000D03*
X148590000Y-131064000D03*
X148590000Y-133604000D03*
X148590000Y-136144000D03*
X148590000Y-138684000D03*
X148590000Y-141224000D03*
X148590000Y-143764000D03*
X148590000Y-146304000D03*
D18*
X129794000Y-122682000D03*
D19*
X129794000Y-120142000D03*
X129794000Y-117602000D03*
D18*
X133032500Y-142176500D03*
D19*
X133032500Y-144716500D03*
X133032500Y-147256500D03*
D18*
X118173500Y-134810500D03*
D19*
X120713500Y-134810500D03*
X123253500Y-134810500D03*
D18*
X119507000Y-147002500D03*
D19*
X122047000Y-147002500D03*
X124587000Y-147002500D03*
D18*
X134810500Y-134429500D03*
D19*
X137350500Y-134429500D03*
X139890500Y-134429500D03*
D20*
X108180000Y-136078000D03*
X108180000Y-134178000D03*
X105180000Y-135128000D03*
X108180000Y-144206000D03*
X108180000Y-142306000D03*
X105180000Y-143256000D03*
D21*
X105203000Y-119128500D03*
X105203000Y-120078500D03*
X105203000Y-121028500D03*
X107903000Y-121028500D03*
X107903000Y-119128500D03*
D18*
X100330000Y-133604000D03*
D19*
X100330000Y-136144000D03*
X100330000Y-138684000D03*
X100330000Y-141224000D03*
X100330000Y-143764000D03*
D22*
X138620500Y-144606500D03*
X138120500Y-144606500D03*
X139120500Y-144606500D03*
X138120500Y-147366500D03*
X138620500Y-147366500D03*
X139120500Y-147366500D03*
D23*
X137000500Y-145236500D03*
X137000500Y-145736500D03*
X137000500Y-146236500D03*
X137000500Y-146736500D03*
X140240500Y-146736500D03*
X140240500Y-146236500D03*
X140240500Y-145736500D03*
X140240500Y-145236500D03*
X123397500Y-120586500D03*
X123397500Y-121086500D03*
X123397500Y-120086500D03*
X126157500Y-121086500D03*
X126157500Y-120586500D03*
X126157500Y-120086500D03*
D22*
X124027500Y-122206500D03*
X124527500Y-122206500D03*
X125027500Y-122206500D03*
X125527500Y-122206500D03*
X125527500Y-118966500D03*
X125027500Y-118966500D03*
X124527500Y-118966500D03*
X124027500Y-118966500D03*
D24*
X123314500Y-125412500D03*
X121414500Y-125412500D03*
D25*
X140779500Y-141856500D03*
X140779500Y-139956500D03*
X143002000Y-146492000D03*
X143002000Y-144592000D03*
D24*
X125727500Y-116586000D03*
X123827500Y-116586000D03*
X132649000Y-127127000D03*
X130749000Y-127127000D03*
X116901000Y-139827000D03*
X115001000Y-139827000D03*
D26*
X105580000Y-132080000D03*
X107780000Y-132080000D03*
D27*
X110998000Y-129710000D03*
X110998000Y-131910000D03*
D26*
X105580000Y-140208000D03*
X107780000Y-140208000D03*
D27*
X111252000Y-138092000D03*
X111252000Y-140292000D03*
X138620500Y-142006500D03*
X138620500Y-139806500D03*
D26*
X119273500Y-129476500D03*
X117073500Y-129476500D03*
D27*
X143002000Y-142070000D03*
X143002000Y-139870000D03*
D26*
X119273500Y-131635500D03*
X117073500Y-131635500D03*
D27*
X136461500Y-142006500D03*
X136461500Y-139806500D03*
D26*
X119273500Y-127317500D03*
X117073500Y-127317500D03*
D24*
X118747500Y-118618000D03*
X120647500Y-118618000D03*
X120647500Y-120586500D03*
X118747500Y-120586500D03*
D26*
X126408000Y-139890500D03*
X128608000Y-139890500D03*
X116924000Y-141732000D03*
X114724000Y-141732000D03*
X128671500Y-141795500D03*
X126471500Y-141795500D03*
X132799000Y-129222500D03*
X130599000Y-129222500D03*
X132799000Y-131318000D03*
X130599000Y-131318000D03*
D27*
X143002000Y-133329500D03*
X143002000Y-135529500D03*
D24*
X120647500Y-122555000D03*
X118747500Y-122555000D03*
D28*
X114427000Y-138430000D03*
X119507000Y-144780000D03*
X106553000Y-117983000D03*
X122936000Y-132207000D03*
X125095000Y-128524000D03*
X119634000Y-125349000D03*
X122682000Y-117475000D03*
X126492000Y-119380000D03*
X128651000Y-127762000D03*
X134620000Y-130429000D03*
X141605000Y-129794000D03*
X141605000Y-128397000D03*
X142748000Y-137033000D03*
X145669000Y-143764000D03*
X140335000Y-148844000D03*
X103378000Y-140208000D03*
X102362000Y-136398000D03*
X103378000Y-119126000D03*
X103124000Y-121412000D03*
X141351000Y-143764000D03*
X144145000Y-145034000D03*
X136906000Y-137287000D03*
X126619000Y-136779000D03*
X111252000Y-136271000D03*
X115443000Y-134874000D03*
X110744000Y-144145000D03*
X114681000Y-123825000D03*
X125984000Y-123190000D03*
X124968000Y-117602000D03*
X139446000Y-124968000D03*
X124460000Y-132080000D03*
X123190000Y-126873000D03*
X135763000Y-145542000D03*
X144780000Y-141478000D03*
X135001000Y-145923000D03*
X137033000Y-147193000D03*
X127508000Y-138684000D03*
X112776000Y-134239000D03*
X142367000Y-138430000D03*
X112522000Y-142367000D03*
X127889000Y-143256000D03*
X115062000Y-131064000D03*
X115824000Y-122936000D03*
D29*
X115001000Y-139827000D02*
X115001000Y-139004000D01*
X115001000Y-139004000D02*
X114427000Y-138430000D01*
X120547000Y-142293500D02*
X119326500Y-142293500D01*
X118872000Y-144145000D02*
X119507000Y-144780000D01*
D30*
X118872000Y-142748000D02*
X118872000Y-144145000D01*
D29*
X119326500Y-142293500D02*
X118872000Y-142748000D01*
X105203000Y-120078500D02*
X106108500Y-120078500D01*
X106553000Y-119634000D02*
X106553000Y-117983000D01*
X106108500Y-120078500D02*
X106553000Y-119634000D01*
X122813000Y-131010000D02*
X122813000Y-132084000D01*
X122813000Y-132084000D02*
X122936000Y-132207000D01*
X123313000Y-131010000D02*
X122813000Y-131010000D01*
X124293000Y-129540000D02*
X124293000Y-129040000D01*
X124293000Y-129040000D02*
X124579000Y-129040000D01*
X124579000Y-129040000D02*
X125095000Y-128524000D01*
X121414500Y-125412500D02*
X119697500Y-125412500D01*
X119697500Y-125412500D02*
X119634000Y-125349000D01*
X123827500Y-116586000D02*
X123571000Y-116586000D01*
X123571000Y-116586000D02*
X122682000Y-117475000D01*
X126157500Y-120086500D02*
X126157500Y-119714500D01*
X126157500Y-119714500D02*
X126492000Y-119380000D01*
X126157500Y-120586500D02*
X126157500Y-120086500D01*
X130749000Y-127127000D02*
X129286000Y-127127000D01*
X129286000Y-127127000D02*
X128651000Y-127762000D01*
X136272000Y-130095500D02*
X134953500Y-130095500D01*
X134953500Y-130095500D02*
X134620000Y-130429000D01*
X139572000Y-129595500D02*
X141406500Y-129595500D01*
X141406500Y-129595500D02*
X141605000Y-129794000D01*
X139572000Y-128595500D02*
X141406500Y-128595500D01*
X141406500Y-128595500D02*
X141605000Y-128397000D01*
X140779500Y-139956500D02*
X140779500Y-139001500D01*
X140779500Y-139001500D02*
X142748000Y-137033000D01*
X140240500Y-146236500D02*
X139386500Y-146236500D01*
X139120500Y-146502500D02*
X139120500Y-147366500D01*
X139386500Y-146236500D02*
X139120500Y-146502500D01*
X143002000Y-144592000D02*
X143063000Y-144592000D01*
X143063000Y-144592000D02*
X143891000Y-143764000D01*
X143891000Y-143764000D02*
X145669000Y-143764000D01*
X139120500Y-147366500D02*
X139120500Y-148137500D01*
X139120500Y-148137500D02*
X139827000Y-148844000D01*
X138620500Y-147366500D02*
X138620500Y-148145500D01*
X139319000Y-148844000D02*
X139827000Y-148844000D01*
X139827000Y-148844000D02*
X140335000Y-148844000D01*
X138620500Y-148145500D02*
X139319000Y-148844000D01*
D31*
X107780000Y-140208000D02*
X107780000Y-140632000D01*
X107780000Y-140632000D02*
X106680000Y-141732000D01*
X106680000Y-141732000D02*
X102108000Y-141732000D01*
X100330000Y-141224000D02*
X101600000Y-141224000D01*
X103632000Y-143256000D02*
X105180000Y-143256000D01*
X101600000Y-141224000D02*
X102108000Y-141732000D01*
X102108000Y-141732000D02*
X103632000Y-143256000D01*
X103124000Y-135890000D02*
X103124000Y-134366000D01*
X106510000Y-133350000D02*
X107780000Y-132080000D01*
X104140000Y-133350000D02*
X106510000Y-133350000D01*
X103124000Y-134366000D02*
X104140000Y-133350000D01*
X100330000Y-138684000D02*
X101600000Y-138684000D01*
X103886000Y-135128000D02*
X105180000Y-135128000D01*
X103124000Y-135890000D02*
X103886000Y-135128000D01*
X103124000Y-137160000D02*
X103124000Y-135890000D01*
X101600000Y-138684000D02*
X103124000Y-137160000D01*
X102362000Y-133604000D02*
X102362000Y-136398000D01*
X103378000Y-140208000D02*
X105580000Y-140208000D01*
X100330000Y-133604000D02*
X102362000Y-133604000D01*
X103886000Y-132080000D02*
X105580000Y-132080000D01*
X102362000Y-133604000D02*
X103886000Y-132080000D01*
X105203000Y-121028500D02*
X105203000Y-125777000D01*
X105203000Y-125777000D02*
X105283000Y-125857000D01*
X103380500Y-119128500D02*
X105203000Y-119128500D01*
X103378000Y-119126000D02*
X103380500Y-119128500D01*
X103507500Y-121028500D02*
X105203000Y-121028500D01*
X103124000Y-121412000D02*
X103507500Y-121028500D01*
X114724000Y-141732000D02*
X114724000Y-142578000D01*
X113096000Y-144206000D02*
X112649000Y-144206000D01*
X114724000Y-142578000D02*
X113096000Y-144206000D01*
X112649000Y-144206000D02*
X116710500Y-144206000D01*
X116710500Y-144206000D02*
X119507000Y-147002500D01*
X116647000Y-139573000D02*
X116647000Y-136337000D01*
X116647000Y-136337000D02*
X117028000Y-135956000D01*
X117028000Y-135956000D02*
X118173500Y-134810500D01*
X116647000Y-139573000D02*
X116901000Y-139827000D01*
X116901000Y-139827000D02*
X120513500Y-139827000D01*
X120513500Y-139827000D02*
X120547000Y-139793500D01*
D29*
X143002000Y-146492000D02*
X143002000Y-146177000D01*
X143002000Y-146177000D02*
X143637000Y-145542000D01*
X140240500Y-145736500D02*
X142172500Y-145736500D01*
X140779500Y-143192500D02*
X140779500Y-141856500D01*
X141351000Y-143764000D02*
X140779500Y-143192500D01*
X143637000Y-145542000D02*
X144145000Y-145034000D01*
X142367000Y-145542000D02*
X143637000Y-145542000D01*
X142172500Y-145736500D02*
X142367000Y-145542000D01*
D31*
X138422000Y-127445500D02*
X138873500Y-127445500D01*
X140335000Y-123952000D02*
X137668000Y-123952000D01*
X140716000Y-124333000D02*
X140335000Y-123952000D01*
X140716000Y-125603000D02*
X140716000Y-124333000D01*
X138873500Y-127445500D02*
X140716000Y-125603000D01*
X120269000Y-117348000D02*
X121031000Y-117348000D01*
X117477500Y-117348000D02*
X120269000Y-117348000D01*
X124584500Y-115443000D02*
X125727500Y-116586000D01*
X122936000Y-115443000D02*
X124584500Y-115443000D01*
X121031000Y-117348000D02*
X122936000Y-115443000D01*
X139120500Y-144606500D02*
X139120500Y-143515500D01*
X139120500Y-143515500D02*
X140779500Y-141856500D01*
X136906000Y-137287000D02*
X141244500Y-137287000D01*
X141244500Y-137287000D02*
X143002000Y-135529500D01*
X136906000Y-137287000D02*
X138620500Y-139001500D01*
X138620500Y-139001500D02*
X138620500Y-139806500D01*
X138620500Y-139806500D02*
X138577500Y-139806500D01*
X138577500Y-139806500D02*
X137414000Y-140970000D01*
X134239000Y-140970000D02*
X133032500Y-142176500D01*
X137414000Y-140970000D02*
X134239000Y-140970000D01*
X140240500Y-146736500D02*
X142757500Y-146736500D01*
X142757500Y-146736500D02*
X143002000Y-146492000D01*
X139120500Y-144606500D02*
X139120500Y-144597500D01*
X138620500Y-139806500D02*
X138729500Y-139806500D01*
X138729500Y-139806500D02*
X140779500Y-141856500D01*
X138620500Y-139001500D02*
X138620500Y-139806500D01*
X125857000Y-129286000D02*
X125857000Y-136017000D01*
X125857000Y-136017000D02*
X126619000Y-136779000D01*
X128143000Y-124333000D02*
X129855000Y-124333000D01*
X129855000Y-124333000D02*
X132649000Y-127127000D01*
X124293000Y-130040000D02*
X125230000Y-130040000D01*
X124206000Y-124333000D02*
X123952000Y-124333000D01*
X125857000Y-125984000D02*
X124206000Y-124333000D01*
X125857000Y-129413000D02*
X125857000Y-129286000D01*
X125857000Y-129286000D02*
X125857000Y-125984000D01*
X125230000Y-130040000D02*
X125857000Y-129413000D01*
X133731000Y-127127000D02*
X134493000Y-127127000D01*
X134493000Y-127127000D02*
X136271000Y-125349000D01*
X136271000Y-125349000D02*
X137668000Y-123952000D01*
X136272000Y-128095500D02*
X134826500Y-128095500D01*
X133858000Y-127127000D02*
X133731000Y-127127000D01*
X133731000Y-127127000D02*
X132649000Y-127127000D01*
X134826500Y-128095500D02*
X133858000Y-127127000D01*
X108180000Y-136078000D02*
X109238000Y-136078000D01*
X109238000Y-136078000D02*
X111252000Y-138092000D01*
X111252000Y-136271000D02*
X111252000Y-138092000D01*
X112268000Y-144206000D02*
X112649000Y-144206000D01*
X108180000Y-144206000D02*
X112268000Y-144206000D01*
X112268000Y-144206000D02*
X112313500Y-144206000D01*
X115443000Y-134874000D02*
X115506500Y-134810500D01*
X115506500Y-134810500D02*
X118173500Y-134810500D01*
X110683000Y-144206000D02*
X108180000Y-144206000D01*
X110744000Y-144145000D02*
X110683000Y-144206000D01*
X125527500Y-117348000D02*
X125527500Y-117399500D01*
X127071500Y-121086500D02*
X126157500Y-121086500D01*
X127508000Y-120650000D02*
X127071500Y-121086500D01*
X127508000Y-119380000D02*
X127508000Y-120650000D01*
X125527500Y-117399500D02*
X127508000Y-119380000D01*
X122428000Y-124333000D02*
X123952000Y-124333000D01*
X123952000Y-124333000D02*
X128143000Y-124333000D01*
X128143000Y-124333000D02*
X129794000Y-122682000D01*
X123813000Y-128070000D02*
X123813000Y-125911000D01*
X123813000Y-125911000D02*
X123314500Y-125412500D01*
X123314500Y-125412500D02*
X123314500Y-125219500D01*
X123314500Y-125219500D02*
X122428000Y-124333000D01*
X115189000Y-124333000D02*
X114681000Y-123825000D01*
X122428000Y-124333000D02*
X115189000Y-124333000D01*
X114681000Y-123825000D02*
X114681000Y-125603000D01*
X115379500Y-127317500D02*
X114681000Y-126619000D01*
X114681000Y-126619000D02*
X114681000Y-125603000D01*
X117073500Y-127317500D02*
X115379500Y-127317500D01*
X125527500Y-118966500D02*
X125527500Y-117348000D01*
X125527500Y-117348000D02*
X125527500Y-116786000D01*
X125527500Y-116786000D02*
X125727500Y-116586000D01*
X107903000Y-119128500D02*
X108201500Y-119128500D01*
X108201500Y-119128500D02*
X109982000Y-117348000D01*
X117477500Y-117348000D02*
X118747500Y-118618000D01*
X109982000Y-117348000D02*
X115570000Y-117348000D01*
X115570000Y-117348000D02*
X117477500Y-117348000D01*
X111252000Y-119380000D02*
X111252000Y-129456000D01*
X111252000Y-129456000D02*
X110998000Y-129710000D01*
X107903000Y-119128500D02*
X111000500Y-119128500D01*
X111000500Y-119128500D02*
X111252000Y-119380000D01*
X125527500Y-122206500D02*
X125527500Y-122733500D01*
X125527500Y-122733500D02*
X125984000Y-123190000D01*
X125027500Y-117661500D02*
X124968000Y-117602000D01*
X125027500Y-117661500D02*
X125027500Y-118966500D01*
X138176000Y-125603000D02*
X138811000Y-125603000D01*
X137422000Y-126357000D02*
X138176000Y-125603000D01*
X137422000Y-127445500D02*
X137422000Y-126357000D01*
X138811000Y-125603000D02*
X139446000Y-124968000D01*
X139572000Y-128095500D02*
X140763500Y-128095500D01*
X142875000Y-125984000D02*
X148590000Y-125984000D01*
X140763500Y-128095500D02*
X142875000Y-125984000D01*
X139572000Y-129095500D02*
X148018500Y-129095500D01*
X148018500Y-129095500D02*
X148590000Y-128524000D01*
X139562000Y-130095500D02*
X140763500Y-130095500D01*
X141732000Y-131064000D02*
X148590000Y-131064000D01*
X140763500Y-130095500D02*
X141732000Y-131064000D01*
X123813000Y-131010000D02*
X123813000Y-131433000D01*
X123813000Y-131433000D02*
X124460000Y-132080000D01*
X123313000Y-126996000D02*
X123313000Y-128070000D01*
X123313000Y-126996000D02*
X123190000Y-126873000D01*
X137000500Y-145736500D02*
X135957500Y-145736500D01*
X135957500Y-145736500D02*
X135763000Y-145542000D01*
X137000500Y-146236500D02*
X135314500Y-146236500D01*
X145034000Y-141224000D02*
X148590000Y-141224000D01*
X144780000Y-141478000D02*
X145034000Y-141224000D01*
X135314500Y-146236500D02*
X135001000Y-145923000D01*
X146685000Y-145669000D02*
X148590000Y-143764000D01*
X146685000Y-146558000D02*
X146685000Y-145669000D01*
X143764000Y-149479000D02*
X146685000Y-146558000D01*
X139081000Y-149479000D02*
X143764000Y-149479000D01*
X138120500Y-148518500D02*
X139081000Y-149479000D01*
X138120500Y-147366500D02*
X138120500Y-148518500D01*
X137000500Y-147160500D02*
X137033000Y-147193000D01*
X137000500Y-146736500D02*
X137000500Y-147160500D01*
X124027500Y-122206500D02*
X124027500Y-123265500D01*
X128397000Y-121539000D02*
X129794000Y-120142000D01*
X128397000Y-123190000D02*
X128397000Y-121539000D01*
X127762000Y-123825000D02*
X128397000Y-123190000D01*
X124587000Y-123825000D02*
X127762000Y-123825000D01*
X124027500Y-123265500D02*
X124587000Y-123825000D01*
X137000500Y-145236500D02*
X136346500Y-145236500D01*
X136346500Y-145236500D02*
X135826500Y-144716500D01*
X135826500Y-144716500D02*
X133032500Y-144716500D01*
X137000500Y-145236500D02*
X136473500Y-145236500D01*
X122313000Y-131010000D02*
X122313000Y-133211000D01*
X122313000Y-133211000D02*
X120713500Y-134810500D01*
X123547000Y-143543500D02*
X123547000Y-145502500D01*
X123547000Y-145502500D02*
X122047000Y-147002500D01*
X137922000Y-130745500D02*
X137922000Y-133858000D01*
X137922000Y-133858000D02*
X137350500Y-134429500D01*
X127508000Y-138684000D02*
X128608000Y-139784000D01*
X128608000Y-139784000D02*
X128608000Y-139890500D01*
X112715000Y-134178000D02*
X110175000Y-134178000D01*
X112776000Y-134239000D02*
X112715000Y-134178000D01*
X128608000Y-139890500D02*
X128608000Y-139362000D01*
X143002000Y-139065000D02*
X143002000Y-139870000D01*
X142367000Y-138430000D02*
X143002000Y-139065000D01*
X128016000Y-132080000D02*
X128016000Y-131805500D01*
X128016000Y-131805500D02*
X130599000Y-129222500D01*
X128608000Y-139890500D02*
X128608000Y-136990000D01*
X128016000Y-136398000D02*
X128016000Y-132080000D01*
X128608000Y-136990000D02*
X128016000Y-136398000D01*
X114046000Y-130556000D02*
X114046000Y-122936000D01*
X116395500Y-120586500D02*
X118747500Y-120586500D01*
X114046000Y-122936000D02*
X116395500Y-120586500D01*
X108180000Y-134178000D02*
X110109000Y-134178000D01*
X110109000Y-134178000D02*
X110363000Y-134178000D01*
X110424000Y-134178000D02*
X114046000Y-130556000D01*
X110363000Y-134178000D02*
X110424000Y-134178000D01*
X115125500Y-129476500D02*
X117073500Y-129476500D01*
X114046000Y-130556000D02*
X115125500Y-129476500D01*
X108180000Y-134178000D02*
X108730000Y-134178000D01*
X108730000Y-134178000D02*
X110998000Y-131910000D01*
X129180500Y-132736500D02*
X129180500Y-135657500D01*
X130556000Y-137033000D02*
X130556000Y-140970000D01*
X129180500Y-135657500D02*
X130556000Y-137033000D01*
X128671500Y-141795500D02*
X129730500Y-141795500D01*
X129730500Y-141795500D02*
X130556000Y-140970000D01*
X131719500Y-139806500D02*
X136461500Y-139806500D01*
X130556000Y-140970000D02*
X131719500Y-139806500D01*
X112461000Y-142306000D02*
X112522000Y-142367000D01*
X127889000Y-143256000D02*
X128671500Y-142473500D01*
X128671500Y-141795500D02*
X128671500Y-142473500D01*
X112461000Y-142306000D02*
X111694000Y-142306000D01*
X128671500Y-141795500D02*
X129095500Y-141795500D01*
X129159000Y-132758000D02*
X129180500Y-132736500D01*
X129180500Y-132736500D02*
X130599000Y-131318000D01*
X112458500Y-141541500D02*
X113411000Y-140589000D01*
X113411000Y-132651500D02*
X114427000Y-131635500D01*
X113411000Y-140589000D02*
X113411000Y-132651500D01*
X114427000Y-131635500D02*
X114490500Y-131635500D01*
X115824000Y-122936000D02*
X116205000Y-122555000D01*
X116205000Y-122555000D02*
X118747500Y-122555000D01*
X114490500Y-131635500D02*
X115062000Y-131064000D01*
X109220000Y-142306000D02*
X111694000Y-142306000D01*
X114427000Y-131635500D02*
X117073500Y-131635500D01*
X111694000Y-142306000D02*
X112458500Y-141541500D01*
X112458500Y-141541500D02*
X112522000Y-141478000D01*
X108180000Y-142306000D02*
X109220000Y-142306000D01*
X109220000Y-142306000D02*
X109238000Y-142306000D01*
X109238000Y-142306000D02*
X111252000Y-140292000D01*
X138620500Y-144606500D02*
X138620500Y-142006500D01*
X119273500Y-129476500D02*
X121769500Y-129476500D01*
X121769500Y-129476500D02*
X121833000Y-129540000D01*
X140240500Y-145236500D02*
X141529500Y-145236500D01*
X141986000Y-143086000D02*
X143002000Y-142070000D01*
X141986000Y-144780000D02*
X141986000Y-143086000D01*
X141529500Y-145236500D02*
X141986000Y-144780000D01*
X121833000Y-130040000D02*
X120869000Y-130040000D01*
X120869000Y-130040000D02*
X119273500Y-131635500D01*
X138120500Y-144606500D02*
X138120500Y-143454500D01*
X138120500Y-143454500D02*
X136672500Y-142006500D01*
X136672500Y-142006500D02*
X136461500Y-142006500D01*
X121833000Y-129040000D02*
X120996000Y-129040000D01*
X120996000Y-129040000D02*
X119273500Y-127317500D01*
X120647500Y-120586500D02*
X123397500Y-120586500D01*
X123547000Y-139793500D02*
X126311000Y-139793500D01*
X126311000Y-139793500D02*
X126408000Y-139890500D01*
X116924000Y-141732000D02*
X118364000Y-141732000D01*
X119052500Y-141043500D02*
X120547000Y-141043500D01*
X118364000Y-141732000D02*
X119052500Y-141043500D01*
X123547000Y-141043500D02*
X125719500Y-141043500D01*
X125719500Y-141043500D02*
X126471500Y-141795500D01*
X136272000Y-129595500D02*
X134548500Y-129595500D01*
X134175500Y-129222500D02*
X132799000Y-129222500D01*
X134548500Y-129595500D02*
X134175500Y-129222500D01*
X132799000Y-131318000D02*
X136849500Y-131318000D01*
X136849500Y-131318000D02*
X137422000Y-130745500D01*
X138422000Y-130745500D02*
X138422000Y-131818000D01*
X142387500Y-132715000D02*
X143002000Y-133329500D01*
X139319000Y-132715000D02*
X142387500Y-132715000D01*
X138422000Y-131818000D02*
X139319000Y-132715000D01*
X123397500Y-120086500D02*
X122372500Y-120086500D01*
X122372500Y-120086500D02*
X120904000Y-118618000D01*
X120904000Y-118618000D02*
X120647500Y-118618000D01*
X123397500Y-121086500D02*
X122372500Y-121086500D01*
X122372500Y-121086500D02*
X120904000Y-122555000D01*
X120904000Y-122555000D02*
X120647500Y-122555000D01*
M02*
