G04 #@! TF.FileFunction,Copper,L2,Bot,Signal*
%FSLAX46Y46*%
G04 Gerber Fmt 4.6, Leading zero omitted, Abs format (unit mm)*
G04 Created by KiCad (PCBNEW 4.0.7) date Friday, March 30, 2018 'PMt' 08:41:18 PM*
%MOMM*%
%LPD*%
G01*
G04 APERTURE LIST*
%ADD10C,0.100000*%
%ADD11R,1.600000X1.600000*%
%ADD12C,1.600000*%
%ADD13R,1.700000X1.700000*%
%ADD14O,1.700000X1.700000*%
%ADD15C,0.600000*%
%ADD16C,0.254000*%
%ADD17C,0.152400*%
G04 APERTURE END LIST*
D10*
D11*
X105283000Y-125857000D03*
D12*
X107783000Y-125857000D03*
D11*
X111252000Y-119380000D03*
D12*
X113752000Y-119380000D03*
D11*
X137668000Y-123952000D03*
D12*
X137668000Y-121452000D03*
D13*
X100330000Y-125730000D03*
D14*
X100330000Y-123190000D03*
D13*
X148590000Y-118364000D03*
D14*
X148590000Y-120904000D03*
X148590000Y-123444000D03*
X148590000Y-125984000D03*
X148590000Y-128524000D03*
X148590000Y-131064000D03*
X148590000Y-133604000D03*
X148590000Y-136144000D03*
X148590000Y-138684000D03*
X148590000Y-141224000D03*
X148590000Y-143764000D03*
X148590000Y-146304000D03*
D13*
X129794000Y-122682000D03*
D14*
X129794000Y-120142000D03*
X129794000Y-117602000D03*
D13*
X133032500Y-142176500D03*
D14*
X133032500Y-144716500D03*
X133032500Y-147256500D03*
D13*
X118173500Y-134810500D03*
D14*
X120713500Y-134810500D03*
X123253500Y-134810500D03*
D13*
X119507000Y-147002500D03*
D14*
X122047000Y-147002500D03*
X124587000Y-147002500D03*
D13*
X134810500Y-134429500D03*
D14*
X137350500Y-134429500D03*
X139890500Y-134429500D03*
D13*
X100330000Y-133604000D03*
D14*
X100330000Y-136144000D03*
X100330000Y-138684000D03*
X100330000Y-141224000D03*
X100330000Y-143764000D03*
D15*
X114427000Y-138430000D03*
X119507000Y-144780000D03*
X106553000Y-117983000D03*
X122936000Y-132207000D03*
X125095000Y-128524000D03*
X119634000Y-125349000D03*
X122682000Y-117475000D03*
X126492000Y-119380000D03*
X128651000Y-127762000D03*
X134620000Y-130429000D03*
X141605000Y-129794000D03*
X141605000Y-128397000D03*
X142748000Y-137033000D03*
X145669000Y-143764000D03*
X140335000Y-148844000D03*
X103378000Y-140208000D03*
X102362000Y-136398000D03*
X103378000Y-119126000D03*
X103124000Y-121412000D03*
X141351000Y-143764000D03*
X144145000Y-145034000D03*
X136906000Y-137287000D03*
X126619000Y-136779000D03*
X111252000Y-136271000D03*
X115443000Y-134874000D03*
X110744000Y-144145000D03*
X114681000Y-123825000D03*
X125984000Y-123190000D03*
X124968000Y-117602000D03*
X139446000Y-124968000D03*
X124460000Y-132080000D03*
X123190000Y-126873000D03*
X135763000Y-145542000D03*
X144780000Y-141478000D03*
X135001000Y-145923000D03*
X137033000Y-147193000D03*
X127508000Y-138684000D03*
X112776000Y-134239000D03*
X142367000Y-138430000D03*
X112522000Y-142367000D03*
X127889000Y-143256000D03*
X115062000Y-131064000D03*
X115824000Y-122936000D03*
D16*
X102362000Y-139192000D02*
X103378000Y-140208000D01*
X102362000Y-136398000D02*
X102362000Y-139192000D01*
X101854000Y-122682000D02*
X101854000Y-120650000D01*
X101854000Y-120650000D02*
X103378000Y-119126000D01*
X101854000Y-126746000D02*
X101854000Y-122682000D01*
X101854000Y-122682000D02*
X103124000Y-121412000D01*
X100330000Y-125730000D02*
X101092000Y-125730000D01*
X101092000Y-125730000D02*
X101854000Y-126492000D01*
X101854000Y-126492000D02*
X101854000Y-126746000D01*
X101854000Y-126746000D02*
X101854000Y-135128000D01*
X101854000Y-135128000D02*
X100838000Y-136144000D01*
X100838000Y-136144000D02*
X100330000Y-136144000D01*
D17*
X143764000Y-143764000D02*
X141351000Y-143764000D01*
X144145000Y-144145000D02*
X143764000Y-143764000D01*
X144145000Y-145034000D02*
X144145000Y-144145000D01*
D16*
X133731000Y-137287000D02*
X136906000Y-137287000D01*
X134810500Y-136207500D02*
X134810500Y-134429500D01*
X133731000Y-137287000D02*
X134810500Y-136207500D01*
X127127000Y-137287000D02*
X133731000Y-137287000D01*
X126619000Y-136779000D02*
X127127000Y-137287000D01*
X111887000Y-134874000D02*
X111887000Y-135636000D01*
X111887000Y-135636000D02*
X111252000Y-136271000D01*
X111887000Y-131445000D02*
X112014000Y-131445000D01*
X112014000Y-131445000D02*
X115443000Y-134874000D01*
X111887000Y-132969000D02*
X111887000Y-134874000D01*
X111887000Y-134874000D02*
X111887000Y-143002000D01*
X111887000Y-143002000D02*
X110744000Y-144145000D01*
X111887000Y-133604000D02*
X111887000Y-132969000D01*
X111887000Y-132969000D02*
X111887000Y-131445000D01*
X111887000Y-131445000D02*
X111887000Y-121031000D01*
X111252000Y-119380000D02*
X111252000Y-120396000D01*
X111252000Y-120396000D02*
X111887000Y-121031000D01*
X111887000Y-121031000D02*
X114681000Y-123825000D01*
X111252000Y-122174000D02*
X111252000Y-119380000D01*
X142494000Y-122682000D02*
X143383000Y-121793000D01*
X144018000Y-121158000D02*
X148336000Y-121158000D01*
X143383000Y-121793000D02*
X144018000Y-121158000D01*
X148336000Y-121158000D02*
X148590000Y-120904000D01*
X125984000Y-123190000D02*
X127889000Y-125095000D01*
X127889000Y-125095000D02*
X133731000Y-125095000D01*
X133731000Y-125095000D02*
X136144000Y-122682000D01*
X136144000Y-122682000D02*
X142494000Y-122682000D01*
X142494000Y-122682000D02*
X142621000Y-122555000D01*
X148463000Y-118237000D02*
X144272000Y-118237000D01*
X124968000Y-117602000D02*
X124841000Y-117475000D01*
X124841000Y-117475000D02*
X124841000Y-116713000D01*
X124841000Y-116713000D02*
X125730000Y-115824000D01*
X125730000Y-115824000D02*
X141859000Y-115824000D01*
X141859000Y-115824000D02*
X144272000Y-118237000D01*
X148463000Y-118237000D02*
X148590000Y-118364000D01*
X147066000Y-124968000D02*
X148590000Y-123444000D01*
X139446000Y-124968000D02*
X147066000Y-124968000D01*
X148463000Y-123571000D02*
X148590000Y-123444000D01*
X124460000Y-132080000D02*
X125095000Y-132715000D01*
X125095000Y-132715000D02*
X143256000Y-132715000D01*
X143256000Y-132715000D02*
X146685000Y-136144000D01*
X146685000Y-136144000D02*
X148590000Y-136144000D01*
X148590000Y-133604000D02*
X146939000Y-131953000D01*
X145542000Y-125984000D02*
X146431000Y-126873000D01*
X146431000Y-126873000D02*
X146431000Y-131445000D01*
X146431000Y-131445000D02*
X146939000Y-131953000D01*
X123698000Y-125984000D02*
X131826000Y-125984000D01*
X123190000Y-126492000D02*
X123698000Y-125984000D01*
X123190000Y-126873000D02*
X123190000Y-126492000D01*
X131826000Y-125984000D02*
X145542000Y-125984000D01*
X144145000Y-143129000D02*
X148590000Y-138684000D01*
X137541000Y-143129000D02*
X144145000Y-143129000D01*
X135636000Y-145034000D02*
X137541000Y-143129000D01*
X135636000Y-145415000D02*
X135636000Y-145034000D01*
X135763000Y-145542000D02*
X135636000Y-145415000D01*
X144018000Y-142240000D02*
X144780000Y-141478000D01*
X137414000Y-142240000D02*
X144018000Y-142240000D01*
X134874000Y-144780000D02*
X137414000Y-142240000D01*
X134874000Y-145796000D02*
X134874000Y-144780000D01*
X135001000Y-145923000D02*
X134874000Y-145796000D01*
X147320000Y-147574000D02*
X148590000Y-146304000D01*
X137414000Y-147574000D02*
X147320000Y-147574000D01*
X137033000Y-147193000D02*
X137414000Y-147574000D01*
X125857000Y-138176000D02*
X127000000Y-138176000D01*
X127000000Y-138176000D02*
X127508000Y-138684000D01*
X129921000Y-138176000D02*
X125857000Y-138176000D01*
X125857000Y-138176000D02*
X116713000Y-138176000D01*
X116713000Y-138176000D02*
X112776000Y-134239000D01*
X142113000Y-138176000D02*
X142367000Y-138430000D01*
X129794000Y-138176000D02*
X129921000Y-138176000D01*
X129921000Y-138176000D02*
X142113000Y-138176000D01*
X113411000Y-143256000D02*
X127889000Y-143256000D01*
X112522000Y-142367000D02*
X113411000Y-143256000D01*
X115062000Y-131064000D02*
X115316000Y-130810000D01*
X115316000Y-130810000D02*
X115316000Y-123444000D01*
X115316000Y-123444000D02*
X115824000Y-122936000D01*
G36*
X150114000Y-149606000D02*
X98298000Y-149606000D01*
X98298000Y-146152500D01*
X118009560Y-146152500D01*
X118009560Y-147852500D01*
X118053838Y-148087817D01*
X118192910Y-148303941D01*
X118405110Y-148448931D01*
X118657000Y-148499940D01*
X120357000Y-148499940D01*
X120592317Y-148455662D01*
X120808441Y-148316590D01*
X120953431Y-148104390D01*
X120967086Y-148036959D01*
X120996946Y-148081647D01*
X121478715Y-148403554D01*
X122047000Y-148516593D01*
X122615285Y-148403554D01*
X123097054Y-148081647D01*
X123324702Y-147740947D01*
X123391817Y-147883858D01*
X123820076Y-148274145D01*
X124230110Y-148443976D01*
X124460000Y-148322655D01*
X124460000Y-147129500D01*
X124714000Y-147129500D01*
X124714000Y-148322655D01*
X124943890Y-148443976D01*
X125353924Y-148274145D01*
X125782183Y-147883858D01*
X125909201Y-147613390D01*
X131591024Y-147613390D01*
X131760855Y-148023424D01*
X132151142Y-148451683D01*
X132675608Y-148697986D01*
X132905500Y-148577319D01*
X132905500Y-147383500D01*
X133159500Y-147383500D01*
X133159500Y-148577319D01*
X133389392Y-148697986D01*
X133913858Y-148451683D01*
X134304145Y-148023424D01*
X134473976Y-147613390D01*
X134352655Y-147383500D01*
X133159500Y-147383500D01*
X132905500Y-147383500D01*
X131712345Y-147383500D01*
X131591024Y-147613390D01*
X125909201Y-147613390D01*
X126028486Y-147359392D01*
X125907819Y-147129500D01*
X124714000Y-147129500D01*
X124460000Y-147129500D01*
X124440000Y-147129500D01*
X124440000Y-146875500D01*
X124460000Y-146875500D01*
X124460000Y-145682345D01*
X124714000Y-145682345D01*
X124714000Y-146875500D01*
X125907819Y-146875500D01*
X126028486Y-146645608D01*
X125782183Y-146121142D01*
X125353924Y-145730855D01*
X124943890Y-145561024D01*
X124714000Y-145682345D01*
X124460000Y-145682345D01*
X124230110Y-145561024D01*
X123820076Y-145730855D01*
X123391817Y-146121142D01*
X123324702Y-146264053D01*
X123097054Y-145923353D01*
X122615285Y-145601446D01*
X122047000Y-145488407D01*
X121478715Y-145601446D01*
X120996946Y-145923353D01*
X120969150Y-145964952D01*
X120960162Y-145917183D01*
X120821090Y-145701059D01*
X120608890Y-145556069D01*
X120357000Y-145505060D01*
X118657000Y-145505060D01*
X118421683Y-145549338D01*
X118205559Y-145688410D01*
X118060569Y-145900610D01*
X118009560Y-146152500D01*
X98298000Y-146152500D01*
X98298000Y-144120890D01*
X98888524Y-144120890D01*
X99058355Y-144530924D01*
X99448642Y-144959183D01*
X99973108Y-145205486D01*
X100203000Y-145084819D01*
X100203000Y-143891000D01*
X100457000Y-143891000D01*
X100457000Y-145084819D01*
X100686892Y-145205486D01*
X101211358Y-144959183D01*
X101601645Y-144530924D01*
X101771476Y-144120890D01*
X101650155Y-143891000D01*
X100457000Y-143891000D01*
X100203000Y-143891000D01*
X99009845Y-143891000D01*
X98888524Y-144120890D01*
X98298000Y-144120890D01*
X98298000Y-136144000D01*
X98815907Y-136144000D01*
X98928946Y-136712285D01*
X99250853Y-137194054D01*
X99580026Y-137414000D01*
X99250853Y-137633946D01*
X98928946Y-138115715D01*
X98815907Y-138684000D01*
X98928946Y-139252285D01*
X99250853Y-139734054D01*
X99580026Y-139954000D01*
X99250853Y-140173946D01*
X98928946Y-140655715D01*
X98815907Y-141224000D01*
X98928946Y-141792285D01*
X99250853Y-142274054D01*
X99591553Y-142501702D01*
X99448642Y-142568817D01*
X99058355Y-142997076D01*
X98888524Y-143407110D01*
X99009845Y-143637000D01*
X100203000Y-143637000D01*
X100203000Y-143617000D01*
X100457000Y-143617000D01*
X100457000Y-143637000D01*
X101650155Y-143637000D01*
X101771476Y-143407110D01*
X101601645Y-142997076D01*
X101211358Y-142568817D01*
X101068447Y-142501702D01*
X101409147Y-142274054D01*
X101731054Y-141792285D01*
X101844093Y-141224000D01*
X101731054Y-140655715D01*
X101409147Y-140173946D01*
X101079974Y-139954000D01*
X101409147Y-139734054D01*
X101639305Y-139389598D01*
X101658004Y-139483605D01*
X101748364Y-139618838D01*
X101823185Y-139730815D01*
X102442875Y-140350505D01*
X102442838Y-140393167D01*
X102584883Y-140736943D01*
X102847673Y-141000192D01*
X103191201Y-141142838D01*
X103563167Y-141143162D01*
X103906943Y-141001117D01*
X104170192Y-140738327D01*
X104312838Y-140394799D01*
X104313162Y-140022833D01*
X104171117Y-139679057D01*
X103908327Y-139415808D01*
X103564799Y-139273162D01*
X103520754Y-139273124D01*
X103124000Y-138876370D01*
X103124000Y-136958466D01*
X103154192Y-136928327D01*
X103296838Y-136584799D01*
X103297162Y-136212833D01*
X103155117Y-135869057D01*
X102892327Y-135605808D01*
X102548799Y-135463162D01*
X102528904Y-135463145D01*
X102557996Y-135419605D01*
X102616000Y-135128000D01*
X102616000Y-125057000D01*
X103835560Y-125057000D01*
X103835560Y-126657000D01*
X103879838Y-126892317D01*
X104018910Y-127108441D01*
X104231110Y-127253431D01*
X104483000Y-127304440D01*
X106083000Y-127304440D01*
X106318317Y-127260162D01*
X106534441Y-127121090D01*
X106679431Y-126908890D01*
X106688370Y-126864745D01*
X106954861Y-126864745D01*
X107028995Y-127110864D01*
X107566223Y-127303965D01*
X108136454Y-127276778D01*
X108537005Y-127110864D01*
X108611139Y-126864745D01*
X107783000Y-126036605D01*
X106954861Y-126864745D01*
X106688370Y-126864745D01*
X106727646Y-126670799D01*
X106775255Y-126685139D01*
X107603395Y-125857000D01*
X107962605Y-125857000D01*
X108790745Y-126685139D01*
X109036864Y-126611005D01*
X109229965Y-126073777D01*
X109202778Y-125503546D01*
X109036864Y-125102995D01*
X108790745Y-125028861D01*
X107962605Y-125857000D01*
X107603395Y-125857000D01*
X106775255Y-125028861D01*
X106727833Y-125043145D01*
X106691351Y-124849255D01*
X106954861Y-124849255D01*
X107783000Y-125677395D01*
X108611139Y-124849255D01*
X108537005Y-124603136D01*
X107999777Y-124410035D01*
X107429546Y-124437222D01*
X107028995Y-124603136D01*
X106954861Y-124849255D01*
X106691351Y-124849255D01*
X106686162Y-124821683D01*
X106547090Y-124605559D01*
X106334890Y-124460569D01*
X106083000Y-124409560D01*
X104483000Y-124409560D01*
X104247683Y-124453838D01*
X104031559Y-124592910D01*
X103886569Y-124805110D01*
X103835560Y-125057000D01*
X102616000Y-125057000D01*
X102616000Y-122997630D01*
X103266506Y-122347125D01*
X103309167Y-122347162D01*
X103652943Y-122205117D01*
X103916192Y-121942327D01*
X104058838Y-121598799D01*
X104059162Y-121226833D01*
X103917117Y-120883057D01*
X103654327Y-120619808D01*
X103310799Y-120477162D01*
X103104648Y-120476982D01*
X103520506Y-120061125D01*
X103563167Y-120061162D01*
X103906943Y-119919117D01*
X104170192Y-119656327D01*
X104312838Y-119312799D01*
X104313162Y-118940833D01*
X104171117Y-118597057D01*
X104154090Y-118580000D01*
X109804560Y-118580000D01*
X109804560Y-120180000D01*
X109848838Y-120415317D01*
X109987910Y-120631441D01*
X110200110Y-120776431D01*
X110452000Y-120827440D01*
X110490000Y-120827440D01*
X110490000Y-122174000D01*
X110548004Y-122465605D01*
X110713185Y-122712815D01*
X110960395Y-122877996D01*
X111125000Y-122910738D01*
X111125000Y-135320369D01*
X111109494Y-135335875D01*
X111066833Y-135335838D01*
X110723057Y-135477883D01*
X110459808Y-135740673D01*
X110317162Y-136084201D01*
X110316838Y-136456167D01*
X110458883Y-136799943D01*
X110721673Y-137063192D01*
X111065201Y-137205838D01*
X111125000Y-137205890D01*
X111125000Y-142686370D01*
X110601495Y-143209875D01*
X110558833Y-143209838D01*
X110215057Y-143351883D01*
X109951808Y-143614673D01*
X109809162Y-143958201D01*
X109808838Y-144330167D01*
X109950883Y-144673943D01*
X110213673Y-144937192D01*
X110557201Y-145079838D01*
X110929167Y-145080162D01*
X111272943Y-144938117D01*
X111536192Y-144675327D01*
X111678838Y-144331799D01*
X111678876Y-144287754D01*
X112425815Y-143540815D01*
X112502868Y-143425498D01*
X112872185Y-143794815D01*
X113119395Y-143959996D01*
X113411000Y-144018000D01*
X127328534Y-144018000D01*
X127358673Y-144048192D01*
X127702201Y-144190838D01*
X128074167Y-144191162D01*
X128417943Y-144049117D01*
X128681192Y-143786327D01*
X128823838Y-143442799D01*
X128824162Y-143070833D01*
X128682117Y-142727057D01*
X128419327Y-142463808D01*
X128075799Y-142321162D01*
X127703833Y-142320838D01*
X127360057Y-142462883D01*
X127328886Y-142494000D01*
X113726630Y-142494000D01*
X113457125Y-142224495D01*
X113457162Y-142181833D01*
X113315117Y-141838057D01*
X113052327Y-141574808D01*
X112708799Y-141432162D01*
X112649000Y-141432110D01*
X112649000Y-135189630D01*
X116174185Y-138714816D01*
X116322377Y-138813834D01*
X116421395Y-138879996D01*
X116713000Y-138938000D01*
X126601279Y-138938000D01*
X126714883Y-139212943D01*
X126977673Y-139476192D01*
X127321201Y-139618838D01*
X127693167Y-139619162D01*
X128036943Y-139477117D01*
X128300192Y-139214327D01*
X128414934Y-138938000D01*
X141565230Y-138938000D01*
X141573883Y-138958943D01*
X141836673Y-139222192D01*
X142180201Y-139364838D01*
X142552167Y-139365162D01*
X142895943Y-139223117D01*
X143159192Y-138960327D01*
X143301838Y-138616799D01*
X143302162Y-138244833D01*
X143160117Y-137901057D01*
X142897327Y-137637808D01*
X142553799Y-137495162D01*
X142439114Y-137495062D01*
X142404605Y-137472004D01*
X142113000Y-137414000D01*
X137840890Y-137414000D01*
X137841162Y-137101833D01*
X137699117Y-136758057D01*
X137436327Y-136494808D01*
X137092799Y-136352162D01*
X136720833Y-136351838D01*
X136377057Y-136493883D01*
X136345886Y-136525000D01*
X135497194Y-136525000D01*
X135514497Y-136499104D01*
X135572500Y-136207500D01*
X135572500Y-135926940D01*
X135660500Y-135926940D01*
X135895817Y-135882662D01*
X136111941Y-135743590D01*
X136256931Y-135531390D01*
X136270586Y-135463959D01*
X136300446Y-135508647D01*
X136782215Y-135830554D01*
X137350500Y-135943593D01*
X137918785Y-135830554D01*
X138400554Y-135508647D01*
X138628202Y-135167947D01*
X138695317Y-135310858D01*
X139123576Y-135701145D01*
X139533610Y-135870976D01*
X139763500Y-135749655D01*
X139763500Y-134556500D01*
X140017500Y-134556500D01*
X140017500Y-135749655D01*
X140247390Y-135870976D01*
X140657424Y-135701145D01*
X141085683Y-135310858D01*
X141331986Y-134786392D01*
X141211319Y-134556500D01*
X140017500Y-134556500D01*
X139763500Y-134556500D01*
X139743500Y-134556500D01*
X139743500Y-134302500D01*
X139763500Y-134302500D01*
X139763500Y-134282500D01*
X140017500Y-134282500D01*
X140017500Y-134302500D01*
X141211319Y-134302500D01*
X141331986Y-134072608D01*
X141085683Y-133548142D01*
X141007619Y-133477000D01*
X142940370Y-133477000D01*
X146146184Y-136682815D01*
X146321479Y-136799943D01*
X146393395Y-136847996D01*
X146685000Y-136906000D01*
X147318382Y-136906000D01*
X147510853Y-137194054D01*
X147840026Y-137414000D01*
X147510853Y-137633946D01*
X147188946Y-138115715D01*
X147075907Y-138684000D01*
X147148321Y-139048048D01*
X145410357Y-140786013D01*
X145310327Y-140685808D01*
X144966799Y-140543162D01*
X144594833Y-140542838D01*
X144251057Y-140684883D01*
X143987808Y-140947673D01*
X143845162Y-141291201D01*
X143845124Y-141335246D01*
X143702370Y-141478000D01*
X137414000Y-141478000D01*
X137122395Y-141536004D01*
X136875184Y-141701185D01*
X134431391Y-144144979D01*
X134111647Y-143666446D01*
X134070048Y-143638650D01*
X134117817Y-143629662D01*
X134333941Y-143490590D01*
X134478931Y-143278390D01*
X134529940Y-143026500D01*
X134529940Y-141326500D01*
X134485662Y-141091183D01*
X134346590Y-140875059D01*
X134134390Y-140730069D01*
X133882500Y-140679060D01*
X132182500Y-140679060D01*
X131947183Y-140723338D01*
X131731059Y-140862410D01*
X131586069Y-141074610D01*
X131535060Y-141326500D01*
X131535060Y-143026500D01*
X131579338Y-143261817D01*
X131718410Y-143477941D01*
X131930610Y-143622931D01*
X131998041Y-143636586D01*
X131953353Y-143666446D01*
X131631446Y-144148215D01*
X131518407Y-144716500D01*
X131631446Y-145284785D01*
X131953353Y-145766554D01*
X132294053Y-145994202D01*
X132151142Y-146061317D01*
X131760855Y-146489576D01*
X131591024Y-146899610D01*
X131712345Y-147129500D01*
X132905500Y-147129500D01*
X132905500Y-147109500D01*
X133159500Y-147109500D01*
X133159500Y-147129500D01*
X134352655Y-147129500D01*
X134473976Y-146899610D01*
X134345768Y-146590069D01*
X134470673Y-146715192D01*
X134814201Y-146857838D01*
X135186167Y-146858162D01*
X135529943Y-146716117D01*
X135769471Y-146477006D01*
X135948167Y-146477162D01*
X136291943Y-146335117D01*
X136555192Y-146072327D01*
X136697838Y-145728799D01*
X136698162Y-145356833D01*
X136608294Y-145139336D01*
X137856630Y-143891000D01*
X140415889Y-143891000D01*
X140415838Y-143949167D01*
X140557883Y-144292943D01*
X140820673Y-144556192D01*
X141164201Y-144698838D01*
X141536167Y-144699162D01*
X141879943Y-144557117D01*
X141962003Y-144475200D01*
X143381331Y-144475200D01*
X143352808Y-144503673D01*
X143210162Y-144847201D01*
X143209838Y-145219167D01*
X143351883Y-145562943D01*
X143614673Y-145826192D01*
X143958201Y-145968838D01*
X144330167Y-145969162D01*
X144673943Y-145827117D01*
X144937192Y-145564327D01*
X145079838Y-145220799D01*
X145080162Y-144848833D01*
X144938117Y-144505057D01*
X144856200Y-144422997D01*
X144856200Y-144145000D01*
X144802063Y-143872836D01*
X144749931Y-143794815D01*
X144670858Y-143676473D01*
X144683815Y-143667815D01*
X147084488Y-141267142D01*
X147188946Y-141792285D01*
X147510853Y-142274054D01*
X147840026Y-142494000D01*
X147510853Y-142713946D01*
X147188946Y-143195715D01*
X147075907Y-143764000D01*
X147188946Y-144332285D01*
X147510853Y-144814054D01*
X147840026Y-145034000D01*
X147510853Y-145253946D01*
X147188946Y-145735715D01*
X147075907Y-146304000D01*
X147148321Y-146668049D01*
X147004370Y-146812000D01*
X137887246Y-146812000D01*
X137826117Y-146664057D01*
X137563327Y-146400808D01*
X137219799Y-146258162D01*
X136847833Y-146257838D01*
X136504057Y-146399883D01*
X136240808Y-146662673D01*
X136098162Y-147006201D01*
X136097838Y-147378167D01*
X136239883Y-147721943D01*
X136502673Y-147985192D01*
X136846201Y-148127838D01*
X136897735Y-148127883D01*
X137116632Y-148274145D01*
X137122395Y-148277996D01*
X137414000Y-148336000D01*
X147320000Y-148336000D01*
X147611605Y-148277996D01*
X147858815Y-148112815D01*
X148245390Y-147726240D01*
X148560907Y-147789000D01*
X148619093Y-147789000D01*
X149187378Y-147675961D01*
X149669147Y-147354054D01*
X149991054Y-146872285D01*
X150104093Y-146304000D01*
X149991054Y-145735715D01*
X149669147Y-145253946D01*
X149339974Y-145034000D01*
X149669147Y-144814054D01*
X149991054Y-144332285D01*
X150104093Y-143764000D01*
X149991054Y-143195715D01*
X149669147Y-142713946D01*
X149339974Y-142494000D01*
X149669147Y-142274054D01*
X149991054Y-141792285D01*
X150104093Y-141224000D01*
X149991054Y-140655715D01*
X149669147Y-140173946D01*
X149339974Y-139954000D01*
X149669147Y-139734054D01*
X149991054Y-139252285D01*
X150104093Y-138684000D01*
X149991054Y-138115715D01*
X149669147Y-137633946D01*
X149339974Y-137414000D01*
X149669147Y-137194054D01*
X149991054Y-136712285D01*
X150104093Y-136144000D01*
X149991054Y-135575715D01*
X149669147Y-135093946D01*
X149339974Y-134874000D01*
X149669147Y-134654054D01*
X149991054Y-134172285D01*
X150104093Y-133604000D01*
X149991054Y-133035715D01*
X149669147Y-132553946D01*
X149339974Y-132334000D01*
X149669147Y-132114054D01*
X149991054Y-131632285D01*
X150104093Y-131064000D01*
X149991054Y-130495715D01*
X149669147Y-130013946D01*
X149339974Y-129794000D01*
X149669147Y-129574054D01*
X149991054Y-129092285D01*
X150104093Y-128524000D01*
X149991054Y-127955715D01*
X149669147Y-127473946D01*
X149339974Y-127254000D01*
X149669147Y-127034054D01*
X149991054Y-126552285D01*
X150104093Y-125984000D01*
X149991054Y-125415715D01*
X149669147Y-124933946D01*
X149339974Y-124714000D01*
X149669147Y-124494054D01*
X149991054Y-124012285D01*
X150104093Y-123444000D01*
X149991054Y-122875715D01*
X149669147Y-122393946D01*
X149339974Y-122174000D01*
X149669147Y-121954054D01*
X149991054Y-121472285D01*
X150104093Y-120904000D01*
X149991054Y-120335715D01*
X149669147Y-119853946D01*
X149627548Y-119826150D01*
X149675317Y-119817162D01*
X149891441Y-119678090D01*
X150036431Y-119465890D01*
X150087440Y-119214000D01*
X150087440Y-117514000D01*
X150043162Y-117278683D01*
X149904090Y-117062559D01*
X149691890Y-116917569D01*
X149440000Y-116866560D01*
X147740000Y-116866560D01*
X147504683Y-116910838D01*
X147288559Y-117049910D01*
X147143569Y-117262110D01*
X147100458Y-117475000D01*
X144587631Y-117475000D01*
X142397815Y-115285185D01*
X142150605Y-115120004D01*
X141859000Y-115062000D01*
X125730000Y-115062000D01*
X125438395Y-115120004D01*
X125191185Y-115285185D01*
X124302185Y-116174185D01*
X124137004Y-116421395D01*
X124079000Y-116713000D01*
X124079000Y-117304811D01*
X124033162Y-117415201D01*
X124032838Y-117787167D01*
X124174883Y-118130943D01*
X124437673Y-118394192D01*
X124781201Y-118536838D01*
X125153167Y-118537162D01*
X125496943Y-118395117D01*
X125760192Y-118132327D01*
X125902838Y-117788799D01*
X125903162Y-117416833D01*
X125761117Y-117073057D01*
X125659933Y-116971697D01*
X126045630Y-116586000D01*
X128749346Y-116586000D01*
X128522355Y-116835076D01*
X128352524Y-117245110D01*
X128473845Y-117475000D01*
X129667000Y-117475000D01*
X129667000Y-117455000D01*
X129921000Y-117455000D01*
X129921000Y-117475000D01*
X131114155Y-117475000D01*
X131235476Y-117245110D01*
X131065645Y-116835076D01*
X130838654Y-116586000D01*
X141543370Y-116586000D01*
X143733184Y-118775815D01*
X143923253Y-118902815D01*
X143980395Y-118940996D01*
X144272000Y-118999000D01*
X147092560Y-118999000D01*
X147092560Y-119214000D01*
X147136838Y-119449317D01*
X147275910Y-119665441D01*
X147488110Y-119810431D01*
X147555541Y-119824086D01*
X147510853Y-119853946D01*
X147188946Y-120335715D01*
X147176955Y-120396000D01*
X144018000Y-120396000D01*
X143726395Y-120454004D01*
X143627377Y-120520166D01*
X143479185Y-120619184D01*
X142844185Y-121254185D01*
X142178370Y-121920000D01*
X139024666Y-121920000D01*
X139114965Y-121668777D01*
X139087778Y-121098546D01*
X138921864Y-120697995D01*
X138675745Y-120623861D01*
X137847605Y-121452000D01*
X137861748Y-121466142D01*
X137682143Y-121645748D01*
X137668000Y-121631605D01*
X137653858Y-121645748D01*
X137474252Y-121466142D01*
X137488395Y-121452000D01*
X136660255Y-120623861D01*
X136414136Y-120697995D01*
X136221035Y-121235223D01*
X136248222Y-121805454D01*
X136295669Y-121920000D01*
X136144000Y-121920000D01*
X135852395Y-121978004D01*
X135605184Y-122143185D01*
X133415370Y-124333000D01*
X128204630Y-124333000D01*
X126919125Y-123047495D01*
X126919162Y-123004833D01*
X126777117Y-122661057D01*
X126514327Y-122397808D01*
X126170799Y-122255162D01*
X125798833Y-122254838D01*
X125455057Y-122396883D01*
X125191808Y-122659673D01*
X125049162Y-123003201D01*
X125048838Y-123375167D01*
X125190883Y-123718943D01*
X125453673Y-123982192D01*
X125797201Y-124124838D01*
X125841246Y-124124876D01*
X126938370Y-125222000D01*
X123698000Y-125222000D01*
X123406395Y-125280004D01*
X123159184Y-125445185D01*
X122651185Y-125953185D01*
X122486004Y-126200395D01*
X122472543Y-126268068D01*
X122397808Y-126342673D01*
X122255162Y-126686201D01*
X122254838Y-127058167D01*
X122396883Y-127401943D01*
X122659673Y-127665192D01*
X123003201Y-127807838D01*
X123375167Y-127808162D01*
X123718943Y-127666117D01*
X123982192Y-127403327D01*
X124124838Y-127059799D01*
X124125111Y-126746000D01*
X145226370Y-126746000D01*
X145669000Y-127188630D01*
X145669000Y-131445000D01*
X145727004Y-131736605D01*
X145832729Y-131894833D01*
X145892185Y-131983815D01*
X146400184Y-132491815D01*
X146400187Y-132491817D01*
X147148321Y-133239951D01*
X147075907Y-133604000D01*
X147188946Y-134172285D01*
X147510853Y-134654054D01*
X147840026Y-134874000D01*
X147510853Y-135093946D01*
X147318382Y-135382000D01*
X147000631Y-135382000D01*
X143794815Y-132176185D01*
X143709232Y-132119000D01*
X143547605Y-132011004D01*
X143256000Y-131953000D01*
X125410631Y-131953000D01*
X125395125Y-131937494D01*
X125395162Y-131894833D01*
X125253117Y-131551057D01*
X124990327Y-131287808D01*
X124646799Y-131145162D01*
X124274833Y-131144838D01*
X123931057Y-131286883D01*
X123667808Y-131549673D01*
X123525162Y-131893201D01*
X123524838Y-132265167D01*
X123666883Y-132608943D01*
X123929673Y-132872192D01*
X124273201Y-133014838D01*
X124317246Y-133014876D01*
X124556185Y-133253816D01*
X124691430Y-133344183D01*
X124803395Y-133418996D01*
X125095000Y-133477000D01*
X133333817Y-133477000D01*
X133313060Y-133579500D01*
X133313060Y-135279500D01*
X133357338Y-135514817D01*
X133496410Y-135730941D01*
X133708610Y-135875931D01*
X133960500Y-135926940D01*
X134013429Y-135926940D01*
X133415370Y-136525000D01*
X127525721Y-136525000D01*
X127412117Y-136250057D01*
X127149327Y-135986808D01*
X126805799Y-135844162D01*
X126433833Y-135843838D01*
X126090057Y-135985883D01*
X125826808Y-136248673D01*
X125684162Y-136592201D01*
X125683838Y-136964167D01*
X125825883Y-137307943D01*
X125931755Y-137414000D01*
X117028631Y-137414000D01*
X115423614Y-135808984D01*
X115628167Y-135809162D01*
X115971943Y-135667117D01*
X116235192Y-135404327D01*
X116377838Y-135060799D01*
X116378162Y-134688833D01*
X116236117Y-134345057D01*
X115973327Y-134081808D01*
X115681187Y-133960500D01*
X116676060Y-133960500D01*
X116676060Y-135660500D01*
X116720338Y-135895817D01*
X116859410Y-136111941D01*
X117071610Y-136256931D01*
X117323500Y-136307940D01*
X119023500Y-136307940D01*
X119258817Y-136263662D01*
X119474941Y-136124590D01*
X119619931Y-135912390D01*
X119633586Y-135844959D01*
X119663446Y-135889647D01*
X120145215Y-136211554D01*
X120713500Y-136324593D01*
X121281785Y-136211554D01*
X121763554Y-135889647D01*
X121991202Y-135548947D01*
X122058317Y-135691858D01*
X122486576Y-136082145D01*
X122896610Y-136251976D01*
X123126500Y-136130655D01*
X123126500Y-134937500D01*
X123380500Y-134937500D01*
X123380500Y-136130655D01*
X123610390Y-136251976D01*
X124020424Y-136082145D01*
X124448683Y-135691858D01*
X124694986Y-135167392D01*
X124574319Y-134937500D01*
X123380500Y-134937500D01*
X123126500Y-134937500D01*
X123106500Y-134937500D01*
X123106500Y-134683500D01*
X123126500Y-134683500D01*
X123126500Y-133490345D01*
X123380500Y-133490345D01*
X123380500Y-134683500D01*
X124574319Y-134683500D01*
X124694986Y-134453608D01*
X124448683Y-133929142D01*
X124020424Y-133538855D01*
X123610390Y-133369024D01*
X123380500Y-133490345D01*
X123126500Y-133490345D01*
X122896610Y-133369024D01*
X122486576Y-133538855D01*
X122058317Y-133929142D01*
X121991202Y-134072053D01*
X121763554Y-133731353D01*
X121281785Y-133409446D01*
X120713500Y-133296407D01*
X120145215Y-133409446D01*
X119663446Y-133731353D01*
X119635650Y-133772952D01*
X119626662Y-133725183D01*
X119487590Y-133509059D01*
X119275390Y-133364069D01*
X119023500Y-133313060D01*
X117323500Y-133313060D01*
X117088183Y-133357338D01*
X116872059Y-133496410D01*
X116727069Y-133708610D01*
X116676060Y-133960500D01*
X115681187Y-133960500D01*
X115629799Y-133939162D01*
X115585755Y-133939124D01*
X112649000Y-131002370D01*
X112649000Y-122870630D01*
X113745875Y-123967506D01*
X113745838Y-124010167D01*
X113887883Y-124353943D01*
X114150673Y-124617192D01*
X114494201Y-124759838D01*
X114554000Y-124759890D01*
X114554000Y-130262230D01*
X114533057Y-130270883D01*
X114269808Y-130533673D01*
X114127162Y-130877201D01*
X114126838Y-131249167D01*
X114268883Y-131592943D01*
X114531673Y-131856192D01*
X114875201Y-131998838D01*
X115247167Y-131999162D01*
X115590943Y-131857117D01*
X115854192Y-131594327D01*
X115996838Y-131250799D01*
X115996938Y-131136114D01*
X116019996Y-131101605D01*
X116027476Y-131064000D01*
X116078000Y-130810000D01*
X116078000Y-123842721D01*
X116352943Y-123729117D01*
X116616192Y-123466327D01*
X116758838Y-123122799D01*
X116759162Y-122750833D01*
X116617117Y-122407057D01*
X116354327Y-122143808D01*
X116010799Y-122001162D01*
X115638833Y-122000838D01*
X115295057Y-122142883D01*
X115031808Y-122405673D01*
X114889162Y-122749201D01*
X114889124Y-122793246D01*
X114808000Y-122874370D01*
X112533592Y-120599962D01*
X112648431Y-120431890D01*
X112657370Y-120387745D01*
X112923861Y-120387745D01*
X112997995Y-120633864D01*
X113535223Y-120826965D01*
X114105454Y-120799778D01*
X114506005Y-120633864D01*
X114580139Y-120387745D01*
X113752000Y-119559605D01*
X112923861Y-120387745D01*
X112657370Y-120387745D01*
X112696646Y-120193799D01*
X112744255Y-120208139D01*
X113572395Y-119380000D01*
X113931605Y-119380000D01*
X114759745Y-120208139D01*
X114979321Y-120142000D01*
X128279907Y-120142000D01*
X128392946Y-120710285D01*
X128714853Y-121192054D01*
X128756452Y-121219850D01*
X128708683Y-121228838D01*
X128492559Y-121367910D01*
X128347569Y-121580110D01*
X128296560Y-121832000D01*
X128296560Y-123532000D01*
X128340838Y-123767317D01*
X128479910Y-123983441D01*
X128692110Y-124128431D01*
X128944000Y-124179440D01*
X130644000Y-124179440D01*
X130879317Y-124135162D01*
X131095441Y-123996090D01*
X131240431Y-123783890D01*
X131291440Y-123532000D01*
X131291440Y-121832000D01*
X131247162Y-121596683D01*
X131108090Y-121380559D01*
X130895890Y-121235569D01*
X130828459Y-121221914D01*
X130873147Y-121192054D01*
X131195054Y-120710285D01*
X131247970Y-120444255D01*
X136839861Y-120444255D01*
X137668000Y-121272395D01*
X138496139Y-120444255D01*
X138422005Y-120198136D01*
X137884777Y-120005035D01*
X137314546Y-120032222D01*
X136913995Y-120198136D01*
X136839861Y-120444255D01*
X131247970Y-120444255D01*
X131308093Y-120142000D01*
X131195054Y-119573715D01*
X130873147Y-119091946D01*
X130532447Y-118864298D01*
X130675358Y-118797183D01*
X131065645Y-118368924D01*
X131235476Y-117958890D01*
X131114155Y-117729000D01*
X129921000Y-117729000D01*
X129921000Y-117749000D01*
X129667000Y-117749000D01*
X129667000Y-117729000D01*
X128473845Y-117729000D01*
X128352524Y-117958890D01*
X128522355Y-118368924D01*
X128912642Y-118797183D01*
X129055553Y-118864298D01*
X128714853Y-119091946D01*
X128392946Y-119573715D01*
X128279907Y-120142000D01*
X114979321Y-120142000D01*
X115005864Y-120134005D01*
X115198965Y-119596777D01*
X115171778Y-119026546D01*
X115005864Y-118625995D01*
X114759745Y-118551861D01*
X113931605Y-119380000D01*
X113572395Y-119380000D01*
X112744255Y-118551861D01*
X112696833Y-118566145D01*
X112660351Y-118372255D01*
X112923861Y-118372255D01*
X113752000Y-119200395D01*
X114580139Y-118372255D01*
X114506005Y-118126136D01*
X113968777Y-117933035D01*
X113398546Y-117960222D01*
X112997995Y-118126136D01*
X112923861Y-118372255D01*
X112660351Y-118372255D01*
X112655162Y-118344683D01*
X112516090Y-118128559D01*
X112303890Y-117983569D01*
X112052000Y-117932560D01*
X110452000Y-117932560D01*
X110216683Y-117976838D01*
X110000559Y-118115910D01*
X109855569Y-118328110D01*
X109804560Y-118580000D01*
X104154090Y-118580000D01*
X103908327Y-118333808D01*
X103564799Y-118191162D01*
X103192833Y-118190838D01*
X102849057Y-118332883D01*
X102585808Y-118595673D01*
X102443162Y-118939201D01*
X102443124Y-118983246D01*
X101315185Y-120111185D01*
X101150004Y-120358395D01*
X101092000Y-120650000D01*
X101092000Y-121938763D01*
X100686892Y-121748514D01*
X100457000Y-121869181D01*
X100457000Y-123063000D01*
X100477000Y-123063000D01*
X100477000Y-123317000D01*
X100457000Y-123317000D01*
X100457000Y-123337000D01*
X100203000Y-123337000D01*
X100203000Y-123317000D01*
X99009845Y-123317000D01*
X98888524Y-123546890D01*
X99058355Y-123956924D01*
X99334501Y-124259937D01*
X99244683Y-124276838D01*
X99028559Y-124415910D01*
X98883569Y-124628110D01*
X98832560Y-124880000D01*
X98832560Y-126580000D01*
X98876838Y-126815317D01*
X99015910Y-127031441D01*
X99228110Y-127176431D01*
X99480000Y-127227440D01*
X101092000Y-127227440D01*
X101092000Y-132106560D01*
X99480000Y-132106560D01*
X99244683Y-132150838D01*
X99028559Y-132289910D01*
X98883569Y-132502110D01*
X98832560Y-132754000D01*
X98832560Y-134454000D01*
X98876838Y-134689317D01*
X99015910Y-134905441D01*
X99228110Y-135050431D01*
X99295541Y-135064086D01*
X99250853Y-135093946D01*
X98928946Y-135575715D01*
X98815907Y-136144000D01*
X98298000Y-136144000D01*
X98298000Y-122833110D01*
X98888524Y-122833110D01*
X99009845Y-123063000D01*
X100203000Y-123063000D01*
X100203000Y-121869181D01*
X99973108Y-121748514D01*
X99448642Y-121994817D01*
X99058355Y-122423076D01*
X98888524Y-122833110D01*
X98298000Y-122833110D01*
X98298000Y-114935000D01*
X150114000Y-114935000D01*
X150114000Y-149606000D01*
X150114000Y-149606000D01*
G37*
X150114000Y-149606000D02*
X98298000Y-149606000D01*
X98298000Y-146152500D01*
X118009560Y-146152500D01*
X118009560Y-147852500D01*
X118053838Y-148087817D01*
X118192910Y-148303941D01*
X118405110Y-148448931D01*
X118657000Y-148499940D01*
X120357000Y-148499940D01*
X120592317Y-148455662D01*
X120808441Y-148316590D01*
X120953431Y-148104390D01*
X120967086Y-148036959D01*
X120996946Y-148081647D01*
X121478715Y-148403554D01*
X122047000Y-148516593D01*
X122615285Y-148403554D01*
X123097054Y-148081647D01*
X123324702Y-147740947D01*
X123391817Y-147883858D01*
X123820076Y-148274145D01*
X124230110Y-148443976D01*
X124460000Y-148322655D01*
X124460000Y-147129500D01*
X124714000Y-147129500D01*
X124714000Y-148322655D01*
X124943890Y-148443976D01*
X125353924Y-148274145D01*
X125782183Y-147883858D01*
X125909201Y-147613390D01*
X131591024Y-147613390D01*
X131760855Y-148023424D01*
X132151142Y-148451683D01*
X132675608Y-148697986D01*
X132905500Y-148577319D01*
X132905500Y-147383500D01*
X133159500Y-147383500D01*
X133159500Y-148577319D01*
X133389392Y-148697986D01*
X133913858Y-148451683D01*
X134304145Y-148023424D01*
X134473976Y-147613390D01*
X134352655Y-147383500D01*
X133159500Y-147383500D01*
X132905500Y-147383500D01*
X131712345Y-147383500D01*
X131591024Y-147613390D01*
X125909201Y-147613390D01*
X126028486Y-147359392D01*
X125907819Y-147129500D01*
X124714000Y-147129500D01*
X124460000Y-147129500D01*
X124440000Y-147129500D01*
X124440000Y-146875500D01*
X124460000Y-146875500D01*
X124460000Y-145682345D01*
X124714000Y-145682345D01*
X124714000Y-146875500D01*
X125907819Y-146875500D01*
X126028486Y-146645608D01*
X125782183Y-146121142D01*
X125353924Y-145730855D01*
X124943890Y-145561024D01*
X124714000Y-145682345D01*
X124460000Y-145682345D01*
X124230110Y-145561024D01*
X123820076Y-145730855D01*
X123391817Y-146121142D01*
X123324702Y-146264053D01*
X123097054Y-145923353D01*
X122615285Y-145601446D01*
X122047000Y-145488407D01*
X121478715Y-145601446D01*
X120996946Y-145923353D01*
X120969150Y-145964952D01*
X120960162Y-145917183D01*
X120821090Y-145701059D01*
X120608890Y-145556069D01*
X120357000Y-145505060D01*
X118657000Y-145505060D01*
X118421683Y-145549338D01*
X118205559Y-145688410D01*
X118060569Y-145900610D01*
X118009560Y-146152500D01*
X98298000Y-146152500D01*
X98298000Y-144120890D01*
X98888524Y-144120890D01*
X99058355Y-144530924D01*
X99448642Y-144959183D01*
X99973108Y-145205486D01*
X100203000Y-145084819D01*
X100203000Y-143891000D01*
X100457000Y-143891000D01*
X100457000Y-145084819D01*
X100686892Y-145205486D01*
X101211358Y-144959183D01*
X101601645Y-144530924D01*
X101771476Y-144120890D01*
X101650155Y-143891000D01*
X100457000Y-143891000D01*
X100203000Y-143891000D01*
X99009845Y-143891000D01*
X98888524Y-144120890D01*
X98298000Y-144120890D01*
X98298000Y-136144000D01*
X98815907Y-136144000D01*
X98928946Y-136712285D01*
X99250853Y-137194054D01*
X99580026Y-137414000D01*
X99250853Y-137633946D01*
X98928946Y-138115715D01*
X98815907Y-138684000D01*
X98928946Y-139252285D01*
X99250853Y-139734054D01*
X99580026Y-139954000D01*
X99250853Y-140173946D01*
X98928946Y-140655715D01*
X98815907Y-141224000D01*
X98928946Y-141792285D01*
X99250853Y-142274054D01*
X99591553Y-142501702D01*
X99448642Y-142568817D01*
X99058355Y-142997076D01*
X98888524Y-143407110D01*
X99009845Y-143637000D01*
X100203000Y-143637000D01*
X100203000Y-143617000D01*
X100457000Y-143617000D01*
X100457000Y-143637000D01*
X101650155Y-143637000D01*
X101771476Y-143407110D01*
X101601645Y-142997076D01*
X101211358Y-142568817D01*
X101068447Y-142501702D01*
X101409147Y-142274054D01*
X101731054Y-141792285D01*
X101844093Y-141224000D01*
X101731054Y-140655715D01*
X101409147Y-140173946D01*
X101079974Y-139954000D01*
X101409147Y-139734054D01*
X101639305Y-139389598D01*
X101658004Y-139483605D01*
X101748364Y-139618838D01*
X101823185Y-139730815D01*
X102442875Y-140350505D01*
X102442838Y-140393167D01*
X102584883Y-140736943D01*
X102847673Y-141000192D01*
X103191201Y-141142838D01*
X103563167Y-141143162D01*
X103906943Y-141001117D01*
X104170192Y-140738327D01*
X104312838Y-140394799D01*
X104313162Y-140022833D01*
X104171117Y-139679057D01*
X103908327Y-139415808D01*
X103564799Y-139273162D01*
X103520754Y-139273124D01*
X103124000Y-138876370D01*
X103124000Y-136958466D01*
X103154192Y-136928327D01*
X103296838Y-136584799D01*
X103297162Y-136212833D01*
X103155117Y-135869057D01*
X102892327Y-135605808D01*
X102548799Y-135463162D01*
X102528904Y-135463145D01*
X102557996Y-135419605D01*
X102616000Y-135128000D01*
X102616000Y-125057000D01*
X103835560Y-125057000D01*
X103835560Y-126657000D01*
X103879838Y-126892317D01*
X104018910Y-127108441D01*
X104231110Y-127253431D01*
X104483000Y-127304440D01*
X106083000Y-127304440D01*
X106318317Y-127260162D01*
X106534441Y-127121090D01*
X106679431Y-126908890D01*
X106688370Y-126864745D01*
X106954861Y-126864745D01*
X107028995Y-127110864D01*
X107566223Y-127303965D01*
X108136454Y-127276778D01*
X108537005Y-127110864D01*
X108611139Y-126864745D01*
X107783000Y-126036605D01*
X106954861Y-126864745D01*
X106688370Y-126864745D01*
X106727646Y-126670799D01*
X106775255Y-126685139D01*
X107603395Y-125857000D01*
X107962605Y-125857000D01*
X108790745Y-126685139D01*
X109036864Y-126611005D01*
X109229965Y-126073777D01*
X109202778Y-125503546D01*
X109036864Y-125102995D01*
X108790745Y-125028861D01*
X107962605Y-125857000D01*
X107603395Y-125857000D01*
X106775255Y-125028861D01*
X106727833Y-125043145D01*
X106691351Y-124849255D01*
X106954861Y-124849255D01*
X107783000Y-125677395D01*
X108611139Y-124849255D01*
X108537005Y-124603136D01*
X107999777Y-124410035D01*
X107429546Y-124437222D01*
X107028995Y-124603136D01*
X106954861Y-124849255D01*
X106691351Y-124849255D01*
X106686162Y-124821683D01*
X106547090Y-124605559D01*
X106334890Y-124460569D01*
X106083000Y-124409560D01*
X104483000Y-124409560D01*
X104247683Y-124453838D01*
X104031559Y-124592910D01*
X103886569Y-124805110D01*
X103835560Y-125057000D01*
X102616000Y-125057000D01*
X102616000Y-122997630D01*
X103266506Y-122347125D01*
X103309167Y-122347162D01*
X103652943Y-122205117D01*
X103916192Y-121942327D01*
X104058838Y-121598799D01*
X104059162Y-121226833D01*
X103917117Y-120883057D01*
X103654327Y-120619808D01*
X103310799Y-120477162D01*
X103104648Y-120476982D01*
X103520506Y-120061125D01*
X103563167Y-120061162D01*
X103906943Y-119919117D01*
X104170192Y-119656327D01*
X104312838Y-119312799D01*
X104313162Y-118940833D01*
X104171117Y-118597057D01*
X104154090Y-118580000D01*
X109804560Y-118580000D01*
X109804560Y-120180000D01*
X109848838Y-120415317D01*
X109987910Y-120631441D01*
X110200110Y-120776431D01*
X110452000Y-120827440D01*
X110490000Y-120827440D01*
X110490000Y-122174000D01*
X110548004Y-122465605D01*
X110713185Y-122712815D01*
X110960395Y-122877996D01*
X111125000Y-122910738D01*
X111125000Y-135320369D01*
X111109494Y-135335875D01*
X111066833Y-135335838D01*
X110723057Y-135477883D01*
X110459808Y-135740673D01*
X110317162Y-136084201D01*
X110316838Y-136456167D01*
X110458883Y-136799943D01*
X110721673Y-137063192D01*
X111065201Y-137205838D01*
X111125000Y-137205890D01*
X111125000Y-142686370D01*
X110601495Y-143209875D01*
X110558833Y-143209838D01*
X110215057Y-143351883D01*
X109951808Y-143614673D01*
X109809162Y-143958201D01*
X109808838Y-144330167D01*
X109950883Y-144673943D01*
X110213673Y-144937192D01*
X110557201Y-145079838D01*
X110929167Y-145080162D01*
X111272943Y-144938117D01*
X111536192Y-144675327D01*
X111678838Y-144331799D01*
X111678876Y-144287754D01*
X112425815Y-143540815D01*
X112502868Y-143425498D01*
X112872185Y-143794815D01*
X113119395Y-143959996D01*
X113411000Y-144018000D01*
X127328534Y-144018000D01*
X127358673Y-144048192D01*
X127702201Y-144190838D01*
X128074167Y-144191162D01*
X128417943Y-144049117D01*
X128681192Y-143786327D01*
X128823838Y-143442799D01*
X128824162Y-143070833D01*
X128682117Y-142727057D01*
X128419327Y-142463808D01*
X128075799Y-142321162D01*
X127703833Y-142320838D01*
X127360057Y-142462883D01*
X127328886Y-142494000D01*
X113726630Y-142494000D01*
X113457125Y-142224495D01*
X113457162Y-142181833D01*
X113315117Y-141838057D01*
X113052327Y-141574808D01*
X112708799Y-141432162D01*
X112649000Y-141432110D01*
X112649000Y-135189630D01*
X116174185Y-138714816D01*
X116322377Y-138813834D01*
X116421395Y-138879996D01*
X116713000Y-138938000D01*
X126601279Y-138938000D01*
X126714883Y-139212943D01*
X126977673Y-139476192D01*
X127321201Y-139618838D01*
X127693167Y-139619162D01*
X128036943Y-139477117D01*
X128300192Y-139214327D01*
X128414934Y-138938000D01*
X141565230Y-138938000D01*
X141573883Y-138958943D01*
X141836673Y-139222192D01*
X142180201Y-139364838D01*
X142552167Y-139365162D01*
X142895943Y-139223117D01*
X143159192Y-138960327D01*
X143301838Y-138616799D01*
X143302162Y-138244833D01*
X143160117Y-137901057D01*
X142897327Y-137637808D01*
X142553799Y-137495162D01*
X142439114Y-137495062D01*
X142404605Y-137472004D01*
X142113000Y-137414000D01*
X137840890Y-137414000D01*
X137841162Y-137101833D01*
X137699117Y-136758057D01*
X137436327Y-136494808D01*
X137092799Y-136352162D01*
X136720833Y-136351838D01*
X136377057Y-136493883D01*
X136345886Y-136525000D01*
X135497194Y-136525000D01*
X135514497Y-136499104D01*
X135572500Y-136207500D01*
X135572500Y-135926940D01*
X135660500Y-135926940D01*
X135895817Y-135882662D01*
X136111941Y-135743590D01*
X136256931Y-135531390D01*
X136270586Y-135463959D01*
X136300446Y-135508647D01*
X136782215Y-135830554D01*
X137350500Y-135943593D01*
X137918785Y-135830554D01*
X138400554Y-135508647D01*
X138628202Y-135167947D01*
X138695317Y-135310858D01*
X139123576Y-135701145D01*
X139533610Y-135870976D01*
X139763500Y-135749655D01*
X139763500Y-134556500D01*
X140017500Y-134556500D01*
X140017500Y-135749655D01*
X140247390Y-135870976D01*
X140657424Y-135701145D01*
X141085683Y-135310858D01*
X141331986Y-134786392D01*
X141211319Y-134556500D01*
X140017500Y-134556500D01*
X139763500Y-134556500D01*
X139743500Y-134556500D01*
X139743500Y-134302500D01*
X139763500Y-134302500D01*
X139763500Y-134282500D01*
X140017500Y-134282500D01*
X140017500Y-134302500D01*
X141211319Y-134302500D01*
X141331986Y-134072608D01*
X141085683Y-133548142D01*
X141007619Y-133477000D01*
X142940370Y-133477000D01*
X146146184Y-136682815D01*
X146321479Y-136799943D01*
X146393395Y-136847996D01*
X146685000Y-136906000D01*
X147318382Y-136906000D01*
X147510853Y-137194054D01*
X147840026Y-137414000D01*
X147510853Y-137633946D01*
X147188946Y-138115715D01*
X147075907Y-138684000D01*
X147148321Y-139048048D01*
X145410357Y-140786013D01*
X145310327Y-140685808D01*
X144966799Y-140543162D01*
X144594833Y-140542838D01*
X144251057Y-140684883D01*
X143987808Y-140947673D01*
X143845162Y-141291201D01*
X143845124Y-141335246D01*
X143702370Y-141478000D01*
X137414000Y-141478000D01*
X137122395Y-141536004D01*
X136875184Y-141701185D01*
X134431391Y-144144979D01*
X134111647Y-143666446D01*
X134070048Y-143638650D01*
X134117817Y-143629662D01*
X134333941Y-143490590D01*
X134478931Y-143278390D01*
X134529940Y-143026500D01*
X134529940Y-141326500D01*
X134485662Y-141091183D01*
X134346590Y-140875059D01*
X134134390Y-140730069D01*
X133882500Y-140679060D01*
X132182500Y-140679060D01*
X131947183Y-140723338D01*
X131731059Y-140862410D01*
X131586069Y-141074610D01*
X131535060Y-141326500D01*
X131535060Y-143026500D01*
X131579338Y-143261817D01*
X131718410Y-143477941D01*
X131930610Y-143622931D01*
X131998041Y-143636586D01*
X131953353Y-143666446D01*
X131631446Y-144148215D01*
X131518407Y-144716500D01*
X131631446Y-145284785D01*
X131953353Y-145766554D01*
X132294053Y-145994202D01*
X132151142Y-146061317D01*
X131760855Y-146489576D01*
X131591024Y-146899610D01*
X131712345Y-147129500D01*
X132905500Y-147129500D01*
X132905500Y-147109500D01*
X133159500Y-147109500D01*
X133159500Y-147129500D01*
X134352655Y-147129500D01*
X134473976Y-146899610D01*
X134345768Y-146590069D01*
X134470673Y-146715192D01*
X134814201Y-146857838D01*
X135186167Y-146858162D01*
X135529943Y-146716117D01*
X135769471Y-146477006D01*
X135948167Y-146477162D01*
X136291943Y-146335117D01*
X136555192Y-146072327D01*
X136697838Y-145728799D01*
X136698162Y-145356833D01*
X136608294Y-145139336D01*
X137856630Y-143891000D01*
X140415889Y-143891000D01*
X140415838Y-143949167D01*
X140557883Y-144292943D01*
X140820673Y-144556192D01*
X141164201Y-144698838D01*
X141536167Y-144699162D01*
X141879943Y-144557117D01*
X141962003Y-144475200D01*
X143381331Y-144475200D01*
X143352808Y-144503673D01*
X143210162Y-144847201D01*
X143209838Y-145219167D01*
X143351883Y-145562943D01*
X143614673Y-145826192D01*
X143958201Y-145968838D01*
X144330167Y-145969162D01*
X144673943Y-145827117D01*
X144937192Y-145564327D01*
X145079838Y-145220799D01*
X145080162Y-144848833D01*
X144938117Y-144505057D01*
X144856200Y-144422997D01*
X144856200Y-144145000D01*
X144802063Y-143872836D01*
X144749931Y-143794815D01*
X144670858Y-143676473D01*
X144683815Y-143667815D01*
X147084488Y-141267142D01*
X147188946Y-141792285D01*
X147510853Y-142274054D01*
X147840026Y-142494000D01*
X147510853Y-142713946D01*
X147188946Y-143195715D01*
X147075907Y-143764000D01*
X147188946Y-144332285D01*
X147510853Y-144814054D01*
X147840026Y-145034000D01*
X147510853Y-145253946D01*
X147188946Y-145735715D01*
X147075907Y-146304000D01*
X147148321Y-146668049D01*
X147004370Y-146812000D01*
X137887246Y-146812000D01*
X137826117Y-146664057D01*
X137563327Y-146400808D01*
X137219799Y-146258162D01*
X136847833Y-146257838D01*
X136504057Y-146399883D01*
X136240808Y-146662673D01*
X136098162Y-147006201D01*
X136097838Y-147378167D01*
X136239883Y-147721943D01*
X136502673Y-147985192D01*
X136846201Y-148127838D01*
X136897735Y-148127883D01*
X137116632Y-148274145D01*
X137122395Y-148277996D01*
X137414000Y-148336000D01*
X147320000Y-148336000D01*
X147611605Y-148277996D01*
X147858815Y-148112815D01*
X148245390Y-147726240D01*
X148560907Y-147789000D01*
X148619093Y-147789000D01*
X149187378Y-147675961D01*
X149669147Y-147354054D01*
X149991054Y-146872285D01*
X150104093Y-146304000D01*
X149991054Y-145735715D01*
X149669147Y-145253946D01*
X149339974Y-145034000D01*
X149669147Y-144814054D01*
X149991054Y-144332285D01*
X150104093Y-143764000D01*
X149991054Y-143195715D01*
X149669147Y-142713946D01*
X149339974Y-142494000D01*
X149669147Y-142274054D01*
X149991054Y-141792285D01*
X150104093Y-141224000D01*
X149991054Y-140655715D01*
X149669147Y-140173946D01*
X149339974Y-139954000D01*
X149669147Y-139734054D01*
X149991054Y-139252285D01*
X150104093Y-138684000D01*
X149991054Y-138115715D01*
X149669147Y-137633946D01*
X149339974Y-137414000D01*
X149669147Y-137194054D01*
X149991054Y-136712285D01*
X150104093Y-136144000D01*
X149991054Y-135575715D01*
X149669147Y-135093946D01*
X149339974Y-134874000D01*
X149669147Y-134654054D01*
X149991054Y-134172285D01*
X150104093Y-133604000D01*
X149991054Y-133035715D01*
X149669147Y-132553946D01*
X149339974Y-132334000D01*
X149669147Y-132114054D01*
X149991054Y-131632285D01*
X150104093Y-131064000D01*
X149991054Y-130495715D01*
X149669147Y-130013946D01*
X149339974Y-129794000D01*
X149669147Y-129574054D01*
X149991054Y-129092285D01*
X150104093Y-128524000D01*
X149991054Y-127955715D01*
X149669147Y-127473946D01*
X149339974Y-127254000D01*
X149669147Y-127034054D01*
X149991054Y-126552285D01*
X150104093Y-125984000D01*
X149991054Y-125415715D01*
X149669147Y-124933946D01*
X149339974Y-124714000D01*
X149669147Y-124494054D01*
X149991054Y-124012285D01*
X150104093Y-123444000D01*
X149991054Y-122875715D01*
X149669147Y-122393946D01*
X149339974Y-122174000D01*
X149669147Y-121954054D01*
X149991054Y-121472285D01*
X150104093Y-120904000D01*
X149991054Y-120335715D01*
X149669147Y-119853946D01*
X149627548Y-119826150D01*
X149675317Y-119817162D01*
X149891441Y-119678090D01*
X150036431Y-119465890D01*
X150087440Y-119214000D01*
X150087440Y-117514000D01*
X150043162Y-117278683D01*
X149904090Y-117062559D01*
X149691890Y-116917569D01*
X149440000Y-116866560D01*
X147740000Y-116866560D01*
X147504683Y-116910838D01*
X147288559Y-117049910D01*
X147143569Y-117262110D01*
X147100458Y-117475000D01*
X144587631Y-117475000D01*
X142397815Y-115285185D01*
X142150605Y-115120004D01*
X141859000Y-115062000D01*
X125730000Y-115062000D01*
X125438395Y-115120004D01*
X125191185Y-115285185D01*
X124302185Y-116174185D01*
X124137004Y-116421395D01*
X124079000Y-116713000D01*
X124079000Y-117304811D01*
X124033162Y-117415201D01*
X124032838Y-117787167D01*
X124174883Y-118130943D01*
X124437673Y-118394192D01*
X124781201Y-118536838D01*
X125153167Y-118537162D01*
X125496943Y-118395117D01*
X125760192Y-118132327D01*
X125902838Y-117788799D01*
X125903162Y-117416833D01*
X125761117Y-117073057D01*
X125659933Y-116971697D01*
X126045630Y-116586000D01*
X128749346Y-116586000D01*
X128522355Y-116835076D01*
X128352524Y-117245110D01*
X128473845Y-117475000D01*
X129667000Y-117475000D01*
X129667000Y-117455000D01*
X129921000Y-117455000D01*
X129921000Y-117475000D01*
X131114155Y-117475000D01*
X131235476Y-117245110D01*
X131065645Y-116835076D01*
X130838654Y-116586000D01*
X141543370Y-116586000D01*
X143733184Y-118775815D01*
X143923253Y-118902815D01*
X143980395Y-118940996D01*
X144272000Y-118999000D01*
X147092560Y-118999000D01*
X147092560Y-119214000D01*
X147136838Y-119449317D01*
X147275910Y-119665441D01*
X147488110Y-119810431D01*
X147555541Y-119824086D01*
X147510853Y-119853946D01*
X147188946Y-120335715D01*
X147176955Y-120396000D01*
X144018000Y-120396000D01*
X143726395Y-120454004D01*
X143627377Y-120520166D01*
X143479185Y-120619184D01*
X142844185Y-121254185D01*
X142178370Y-121920000D01*
X139024666Y-121920000D01*
X139114965Y-121668777D01*
X139087778Y-121098546D01*
X138921864Y-120697995D01*
X138675745Y-120623861D01*
X137847605Y-121452000D01*
X137861748Y-121466142D01*
X137682143Y-121645748D01*
X137668000Y-121631605D01*
X137653858Y-121645748D01*
X137474252Y-121466142D01*
X137488395Y-121452000D01*
X136660255Y-120623861D01*
X136414136Y-120697995D01*
X136221035Y-121235223D01*
X136248222Y-121805454D01*
X136295669Y-121920000D01*
X136144000Y-121920000D01*
X135852395Y-121978004D01*
X135605184Y-122143185D01*
X133415370Y-124333000D01*
X128204630Y-124333000D01*
X126919125Y-123047495D01*
X126919162Y-123004833D01*
X126777117Y-122661057D01*
X126514327Y-122397808D01*
X126170799Y-122255162D01*
X125798833Y-122254838D01*
X125455057Y-122396883D01*
X125191808Y-122659673D01*
X125049162Y-123003201D01*
X125048838Y-123375167D01*
X125190883Y-123718943D01*
X125453673Y-123982192D01*
X125797201Y-124124838D01*
X125841246Y-124124876D01*
X126938370Y-125222000D01*
X123698000Y-125222000D01*
X123406395Y-125280004D01*
X123159184Y-125445185D01*
X122651185Y-125953185D01*
X122486004Y-126200395D01*
X122472543Y-126268068D01*
X122397808Y-126342673D01*
X122255162Y-126686201D01*
X122254838Y-127058167D01*
X122396883Y-127401943D01*
X122659673Y-127665192D01*
X123003201Y-127807838D01*
X123375167Y-127808162D01*
X123718943Y-127666117D01*
X123982192Y-127403327D01*
X124124838Y-127059799D01*
X124125111Y-126746000D01*
X145226370Y-126746000D01*
X145669000Y-127188630D01*
X145669000Y-131445000D01*
X145727004Y-131736605D01*
X145832729Y-131894833D01*
X145892185Y-131983815D01*
X146400184Y-132491815D01*
X146400187Y-132491817D01*
X147148321Y-133239951D01*
X147075907Y-133604000D01*
X147188946Y-134172285D01*
X147510853Y-134654054D01*
X147840026Y-134874000D01*
X147510853Y-135093946D01*
X147318382Y-135382000D01*
X147000631Y-135382000D01*
X143794815Y-132176185D01*
X143709232Y-132119000D01*
X143547605Y-132011004D01*
X143256000Y-131953000D01*
X125410631Y-131953000D01*
X125395125Y-131937494D01*
X125395162Y-131894833D01*
X125253117Y-131551057D01*
X124990327Y-131287808D01*
X124646799Y-131145162D01*
X124274833Y-131144838D01*
X123931057Y-131286883D01*
X123667808Y-131549673D01*
X123525162Y-131893201D01*
X123524838Y-132265167D01*
X123666883Y-132608943D01*
X123929673Y-132872192D01*
X124273201Y-133014838D01*
X124317246Y-133014876D01*
X124556185Y-133253816D01*
X124691430Y-133344183D01*
X124803395Y-133418996D01*
X125095000Y-133477000D01*
X133333817Y-133477000D01*
X133313060Y-133579500D01*
X133313060Y-135279500D01*
X133357338Y-135514817D01*
X133496410Y-135730941D01*
X133708610Y-135875931D01*
X133960500Y-135926940D01*
X134013429Y-135926940D01*
X133415370Y-136525000D01*
X127525721Y-136525000D01*
X127412117Y-136250057D01*
X127149327Y-135986808D01*
X126805799Y-135844162D01*
X126433833Y-135843838D01*
X126090057Y-135985883D01*
X125826808Y-136248673D01*
X125684162Y-136592201D01*
X125683838Y-136964167D01*
X125825883Y-137307943D01*
X125931755Y-137414000D01*
X117028631Y-137414000D01*
X115423614Y-135808984D01*
X115628167Y-135809162D01*
X115971943Y-135667117D01*
X116235192Y-135404327D01*
X116377838Y-135060799D01*
X116378162Y-134688833D01*
X116236117Y-134345057D01*
X115973327Y-134081808D01*
X115681187Y-133960500D01*
X116676060Y-133960500D01*
X116676060Y-135660500D01*
X116720338Y-135895817D01*
X116859410Y-136111941D01*
X117071610Y-136256931D01*
X117323500Y-136307940D01*
X119023500Y-136307940D01*
X119258817Y-136263662D01*
X119474941Y-136124590D01*
X119619931Y-135912390D01*
X119633586Y-135844959D01*
X119663446Y-135889647D01*
X120145215Y-136211554D01*
X120713500Y-136324593D01*
X121281785Y-136211554D01*
X121763554Y-135889647D01*
X121991202Y-135548947D01*
X122058317Y-135691858D01*
X122486576Y-136082145D01*
X122896610Y-136251976D01*
X123126500Y-136130655D01*
X123126500Y-134937500D01*
X123380500Y-134937500D01*
X123380500Y-136130655D01*
X123610390Y-136251976D01*
X124020424Y-136082145D01*
X124448683Y-135691858D01*
X124694986Y-135167392D01*
X124574319Y-134937500D01*
X123380500Y-134937500D01*
X123126500Y-134937500D01*
X123106500Y-134937500D01*
X123106500Y-134683500D01*
X123126500Y-134683500D01*
X123126500Y-133490345D01*
X123380500Y-133490345D01*
X123380500Y-134683500D01*
X124574319Y-134683500D01*
X124694986Y-134453608D01*
X124448683Y-133929142D01*
X124020424Y-133538855D01*
X123610390Y-133369024D01*
X123380500Y-133490345D01*
X123126500Y-133490345D01*
X122896610Y-133369024D01*
X122486576Y-133538855D01*
X122058317Y-133929142D01*
X121991202Y-134072053D01*
X121763554Y-133731353D01*
X121281785Y-133409446D01*
X120713500Y-133296407D01*
X120145215Y-133409446D01*
X119663446Y-133731353D01*
X119635650Y-133772952D01*
X119626662Y-133725183D01*
X119487590Y-133509059D01*
X119275390Y-133364069D01*
X119023500Y-133313060D01*
X117323500Y-133313060D01*
X117088183Y-133357338D01*
X116872059Y-133496410D01*
X116727069Y-133708610D01*
X116676060Y-133960500D01*
X115681187Y-133960500D01*
X115629799Y-133939162D01*
X115585755Y-133939124D01*
X112649000Y-131002370D01*
X112649000Y-122870630D01*
X113745875Y-123967506D01*
X113745838Y-124010167D01*
X113887883Y-124353943D01*
X114150673Y-124617192D01*
X114494201Y-124759838D01*
X114554000Y-124759890D01*
X114554000Y-130262230D01*
X114533057Y-130270883D01*
X114269808Y-130533673D01*
X114127162Y-130877201D01*
X114126838Y-131249167D01*
X114268883Y-131592943D01*
X114531673Y-131856192D01*
X114875201Y-131998838D01*
X115247167Y-131999162D01*
X115590943Y-131857117D01*
X115854192Y-131594327D01*
X115996838Y-131250799D01*
X115996938Y-131136114D01*
X116019996Y-131101605D01*
X116027476Y-131064000D01*
X116078000Y-130810000D01*
X116078000Y-123842721D01*
X116352943Y-123729117D01*
X116616192Y-123466327D01*
X116758838Y-123122799D01*
X116759162Y-122750833D01*
X116617117Y-122407057D01*
X116354327Y-122143808D01*
X116010799Y-122001162D01*
X115638833Y-122000838D01*
X115295057Y-122142883D01*
X115031808Y-122405673D01*
X114889162Y-122749201D01*
X114889124Y-122793246D01*
X114808000Y-122874370D01*
X112533592Y-120599962D01*
X112648431Y-120431890D01*
X112657370Y-120387745D01*
X112923861Y-120387745D01*
X112997995Y-120633864D01*
X113535223Y-120826965D01*
X114105454Y-120799778D01*
X114506005Y-120633864D01*
X114580139Y-120387745D01*
X113752000Y-119559605D01*
X112923861Y-120387745D01*
X112657370Y-120387745D01*
X112696646Y-120193799D01*
X112744255Y-120208139D01*
X113572395Y-119380000D01*
X113931605Y-119380000D01*
X114759745Y-120208139D01*
X114979321Y-120142000D01*
X128279907Y-120142000D01*
X128392946Y-120710285D01*
X128714853Y-121192054D01*
X128756452Y-121219850D01*
X128708683Y-121228838D01*
X128492559Y-121367910D01*
X128347569Y-121580110D01*
X128296560Y-121832000D01*
X128296560Y-123532000D01*
X128340838Y-123767317D01*
X128479910Y-123983441D01*
X128692110Y-124128431D01*
X128944000Y-124179440D01*
X130644000Y-124179440D01*
X130879317Y-124135162D01*
X131095441Y-123996090D01*
X131240431Y-123783890D01*
X131291440Y-123532000D01*
X131291440Y-121832000D01*
X131247162Y-121596683D01*
X131108090Y-121380559D01*
X130895890Y-121235569D01*
X130828459Y-121221914D01*
X130873147Y-121192054D01*
X131195054Y-120710285D01*
X131247970Y-120444255D01*
X136839861Y-120444255D01*
X137668000Y-121272395D01*
X138496139Y-120444255D01*
X138422005Y-120198136D01*
X137884777Y-120005035D01*
X137314546Y-120032222D01*
X136913995Y-120198136D01*
X136839861Y-120444255D01*
X131247970Y-120444255D01*
X131308093Y-120142000D01*
X131195054Y-119573715D01*
X130873147Y-119091946D01*
X130532447Y-118864298D01*
X130675358Y-118797183D01*
X131065645Y-118368924D01*
X131235476Y-117958890D01*
X131114155Y-117729000D01*
X129921000Y-117729000D01*
X129921000Y-117749000D01*
X129667000Y-117749000D01*
X129667000Y-117729000D01*
X128473845Y-117729000D01*
X128352524Y-117958890D01*
X128522355Y-118368924D01*
X128912642Y-118797183D01*
X129055553Y-118864298D01*
X128714853Y-119091946D01*
X128392946Y-119573715D01*
X128279907Y-120142000D01*
X114979321Y-120142000D01*
X115005864Y-120134005D01*
X115198965Y-119596777D01*
X115171778Y-119026546D01*
X115005864Y-118625995D01*
X114759745Y-118551861D01*
X113931605Y-119380000D01*
X113572395Y-119380000D01*
X112744255Y-118551861D01*
X112696833Y-118566145D01*
X112660351Y-118372255D01*
X112923861Y-118372255D01*
X113752000Y-119200395D01*
X114580139Y-118372255D01*
X114506005Y-118126136D01*
X113968777Y-117933035D01*
X113398546Y-117960222D01*
X112997995Y-118126136D01*
X112923861Y-118372255D01*
X112660351Y-118372255D01*
X112655162Y-118344683D01*
X112516090Y-118128559D01*
X112303890Y-117983569D01*
X112052000Y-117932560D01*
X110452000Y-117932560D01*
X110216683Y-117976838D01*
X110000559Y-118115910D01*
X109855569Y-118328110D01*
X109804560Y-118580000D01*
X104154090Y-118580000D01*
X103908327Y-118333808D01*
X103564799Y-118191162D01*
X103192833Y-118190838D01*
X102849057Y-118332883D01*
X102585808Y-118595673D01*
X102443162Y-118939201D01*
X102443124Y-118983246D01*
X101315185Y-120111185D01*
X101150004Y-120358395D01*
X101092000Y-120650000D01*
X101092000Y-121938763D01*
X100686892Y-121748514D01*
X100457000Y-121869181D01*
X100457000Y-123063000D01*
X100477000Y-123063000D01*
X100477000Y-123317000D01*
X100457000Y-123317000D01*
X100457000Y-123337000D01*
X100203000Y-123337000D01*
X100203000Y-123317000D01*
X99009845Y-123317000D01*
X98888524Y-123546890D01*
X99058355Y-123956924D01*
X99334501Y-124259937D01*
X99244683Y-124276838D01*
X99028559Y-124415910D01*
X98883569Y-124628110D01*
X98832560Y-124880000D01*
X98832560Y-126580000D01*
X98876838Y-126815317D01*
X99015910Y-127031441D01*
X99228110Y-127176431D01*
X99480000Y-127227440D01*
X101092000Y-127227440D01*
X101092000Y-132106560D01*
X99480000Y-132106560D01*
X99244683Y-132150838D01*
X99028559Y-132289910D01*
X98883569Y-132502110D01*
X98832560Y-132754000D01*
X98832560Y-134454000D01*
X98876838Y-134689317D01*
X99015910Y-134905441D01*
X99228110Y-135050431D01*
X99295541Y-135064086D01*
X99250853Y-135093946D01*
X98928946Y-135575715D01*
X98815907Y-136144000D01*
X98298000Y-136144000D01*
X98298000Y-122833110D01*
X98888524Y-122833110D01*
X99009845Y-123063000D01*
X100203000Y-123063000D01*
X100203000Y-121869181D01*
X99973108Y-121748514D01*
X99448642Y-121994817D01*
X99058355Y-122423076D01*
X98888524Y-122833110D01*
X98298000Y-122833110D01*
X98298000Y-114935000D01*
X150114000Y-114935000D01*
X150114000Y-149606000D01*
M02*
